<?xml version="1.0" encoding="utf-8"?>
<!-- Generator: Adobe Illustrator 16.0.0, SVG Export Plug-In . SVG Version: 6.00 Build 0)  -->
<!DOCTYPE svg PUBLIC "-//W3C//DTD SVG 1.1//EN" "http://www.w3.org/Graphics/SVG/1.1/DTD/svg11.dtd">
<svg version="1.1" id="Layer_1" xmlns="http://www.w3.org/2000/svg" xmlns:xlink="http://www.w3.org/1999/xlink" x="0px" y="0px"
	 width="60px" height="60px" viewBox="0 0 60 60" enable-background="new 0 0 60 60" xml:space="preserve">
<g>
	<path fill="#424143" d="M31.487,33.137c-0.574,0.506-1.204,0.977-1.891,1.414c-0.687,0.441-1.344,0.893-1.978,1.359
		c-1.316,0.898-2.355,1.953-3.117,3.165c-0.762,1.214-1.152,2.635-1.168,4.258h13.305v-2.858h-9.492
		c0.13-0.429,0.369-0.834,0.726-1.217c0.349-0.384,0.764-0.751,1.234-1.107c0.477-0.355,0.99-0.709,1.546-1.063
		c0.558-0.355,1.115-0.728,1.673-1.119c0.555-0.392,1.095-0.814,1.614-1.264c0.516-0.449,0.981-0.938,1.389-1.469
		c0.41-0.533,0.735-1.114,0.977-1.75c0.24-0.634,0.361-1.346,0.361-2.129c0-0.634-0.103-1.303-0.305-2.003
		c-0.205-0.701-0.555-1.347-1.047-1.949c-0.489-0.596-1.136-1.092-1.934-1.483c-0.796-0.392-1.792-0.587-2.978-0.587
		c-1.094,0-2.058,0.193-2.881,0.574c-0.827,0.383-1.525,0.91-2.103,1.582c-0.575,0.674-1.006,1.47-1.292,2.396
		c-0.288,0.924-0.433,1.931-0.433,3.01h3.172c0.021-0.688,0.09-1.333,0.208-1.934c0.124-0.596,0.308-1.114,0.558-1.553
		c0.249-0.439,0.584-0.785,1.003-1.037c0.417-0.249,0.939-0.38,1.572-0.38c0.687,0,1.242,0.118,1.669,0.352
		c0.427,0.234,0.762,0.525,1.003,0.869c0.241,0.347,0.403,0.718,0.488,1.121c0.081,0.402,0.124,0.781,0.124,1.133
		c-0.019,0.764-0.212,1.444-0.586,2.031C32.537,32.086,32.065,32.633,31.487,33.137z"/>
	<path fill="#424143" d="M5,10v6.667V50h50V16.667V10H5z M53.333,48.333H6.667v-30h46.667V48.333z"/>
</g>
</svg>
