<?xml version="1.0" encoding="utf-8"?>
<!-- Generator: Adobe Illustrator 16.0.0, SVG Export Plug-In . SVG Version: 6.00 Build 0)  -->
<!DOCTYPE svg PUBLIC "-//W3C//DTD SVG 1.1//EN" "http://www.w3.org/Graphics/SVG/1.1/DTD/svg11.dtd">
<svg version="1.1" id="Layer_1" xmlns="http://www.w3.org/2000/svg" xmlns:xlink="http://www.w3.org/1999/xlink" x="0px" y="0px"
	 width="40px" height="40px" viewBox="0 0 40 40" enable-background="new 0 0 40 40" xml:space="preserve">
<g>
	<polygon fill="#424143" points="6,30 6,9 5,9 5,30 5,31 6,31 35,31 35,30 	"/>
	<rect x="8" y="20" fill="#424143" width="7" height="8"/>
	<path fill="#424143" d="M24,12h-7v16h7V12z M23,27h-5V13h5V27z"/>
	<rect x="26" y="17" fill="#424143" width="7" height="1"/>
	<rect x="26" y="19" fill="#424143" width="7" height="1"/>
	<rect x="26" y="21" fill="#424143" width="7" height="1"/>
	<rect x="26" y="23" fill="#424143" width="7" height="1"/>
	<rect x="26" y="25" fill="#424143" width="7" height="1"/>
	<rect x="26" y="27" fill="#424143" width="7" height="1"/>
</g>
</svg>
