<?xml version="1.0" encoding="utf-8"?>
<!-- Generator: Adobe Illustrator 16.0.0, SVG Export Plug-In . SVG Version: 6.00 Build 0)  -->
<!DOCTYPE svg PUBLIC "-//W3C//DTD SVG 1.1//EN" "http://www.w3.org/Graphics/SVG/1.1/DTD/svg11.dtd">
<svg version="1.1" id="Layer_1" xmlns="http://www.w3.org/2000/svg" xmlns:xlink="http://www.w3.org/1999/xlink" x="0px" y="0px"
	 width="1400px" height="500px" viewBox="0 0 1400 500" enable-background="new 0 0 1400 500" xml:space="preserve">
<g>
	<polygon fill="#58595B" stroke="#005083" stroke-width="0.5877" stroke-miterlimit="10" points="127.59,331.89 40.224,331.89 
		61.872,262.051 106.628,262.051 	"/>
	<g>
		<g>
			<path fill="#F7CAC9" stroke="#DDB5B4" stroke-width="0.5491" stroke-miterlimit="10" d="M65.704,101.195l0.668-0.668
				C66.095,100.734,65.864,100.956,65.704,101.195z"/>
			<path fill="#F7CAC9" stroke="#DDB5B4" stroke-width="0.5491" stroke-miterlimit="10" d="M66.527,100.371l-0.156,0.155
				c0.274-0.206,0.599-0.397,0.967-0.572c0.008-0.131,0.016-0.263,0.012-0.406L66.527,100.371z"/>
			<path fill="#F7CAC9" stroke="#DDB5B4" stroke-width="0.5491" stroke-miterlimit="10" d="M101.183,100.526l0.669,0.668
				C101.69,100.956,101.46,100.734,101.183,100.526z"/>
			<path fill="#F7CAC9" stroke="#DDB5B4" stroke-width="0.5491" stroke-miterlimit="10" d="M101.028,100.371l-0.824-0.823
				c-0.004,0.143,0.003,0.275,0.012,0.406c0.369,0.175,0.693,0.366,0.966,0.572L101.028,100.371z"/>
			<path fill="#F7CAC9" stroke="#DDB5B4" stroke-width="0.5491" stroke-miterlimit="10" d="M123.581,392.188
				c-0.655-3.045-5.049-2.363-7.599-2.889c-3.069-0.633-5.94-2.178-8.488-3.721c-2.88-1.742-5.108-2.658-5.327-6.57
				c-0.02-0.344-0.115-0.717-0.193-1.079l0.019-1.312l1.712-114.26c0.958-0.119,1.929-0.225,2.923-0.307
				c0.432-8.507,0.083-17.179,0.083-25.724c0-8.735,2.409-23.146,0.118-31.965v-0.475c3.176,4.509,2.464,13.94,3.567,19.4
				c1.691,8.37,3.141,13.66,3.229,22.777c0.05,5.227,5.022,14.403,0.728,18.815c-3.054,3.141-3.094,6.336-4.476,9.988
				c-1.245,3.294-4.479,4.394-3.964,7.811c0.788,5.225,4.592,2.676,5.708-1.123c0.869-0.25,2.237-0.234,3.115-0.012
				c0.218,4.26,0.039,8.09-1.564,11.447c-1.403,2.938-4.838,6.918,1.497,6.467c8.341-0.595,8.943-16.027,8.936-22.391
				c-0.023-22.187-2.343-45.049-6.027-65.902c-0.81-4.585-1.117-10.342-3.705-14.444c-2.277-3.608-6.327-6.239-9.112-9.531
				c-0.774-1.197-1.882-2.137-2.583-3.358c-6.563-11.44-6.444-12.982-6.424-22.094l-0.064,0.026
				c0.276-4.801,0.857-9.669,1.869-12.524c1.846-5.209,4.199-10.154,5.968-15.072c0.82-2.282,1.31-5.415,1.484-8.612
				c0.173-3.197,0.034-6.458-0.401-8.998c-0.49-2.858,0.244-8.188-0.757-10.969c-0.954-2.65-3.475-2.994-3.637-5.633
				c-1.766-0.837-4.517-1.317-7.296-1.364c-3.891-0.067-7.821,0.711-9.143,2.519c-1.321-1.808-5.252-2.586-9.143-2.519
				c-2.779,0.047-5.529,0.526-7.296,1.364c-0.163,2.64-2.683,2.983-3.636,5.633c-1.001,2.782-0.267,8.111-0.757,10.969
				c-0.436,2.54-0.575,5.801-0.401,8.998c0.175,3.197,0.664,6.33,1.484,8.612c1.77,4.918,4.123,9.863,5.968,15.072
				c1.798,5.074,2.237,16.502,2.021,22.618c-0.783,2.969-2.393,6.219-5.695,11.974c-0.7,1.222-1.808,2.161-2.583,3.358
				c-2.785,3.292-6.835,5.923-9.112,9.531c-2.587,4.102-2.896,9.859-3.705,14.444c-3.684,20.853-6.004,43.715-6.027,65.902
				c-0.008,6.363,0.594,21.796,8.935,22.391c6.335,0.451,2.9-3.529,1.497-6.467c-1.603-3.357-1.782-7.188-1.564-11.447
				c0.878-0.223,2.247-0.238,3.115,0.012c1.116,3.799,4.919,6.348,5.708,1.123c0.515-3.417-2.719-4.517-3.963-7.811
				c-1.382-3.652-3.794-7.65-4.751-11.925c-1.082-4.835-0.05-11.589,0-16.815c0.088-9.117,2.541-14.47,4.232-22.84
				c1.102-5.46,0.39-14.891,3.566-19.4v0.475c-2.291,8.819,0.118,23.23,0.118,31.965c0,8.545-0.349,17.217,0.083,25.724
				c0.994,0.082,1.966,0.188,2.924,0.307l1.711,114.26l0.019,1.312c-0.078,0.362-0.173,0.735-0.193,1.079
				c-0.219,3.912-2.446,4.828-5.327,6.57c-2.548,1.543-5.419,3.088-8.488,3.721c-2.55,0.525-6.944-0.156-7.599,2.889
				c-0.906,4.211,3.254,3.471,5.958,3.885c1.528,0.234,2.679,0.809,4.292,0.873c1.788,0.072,3.707-0.111,5.44-0.361
				c3.612-0.518,7.297-0.547,11.037-0.924c3.259-0.328,8.444,0.842,9.146-2.91c0.824-4.4-1.738-8.488-1.281-12.643l0.036-2.303
				h0.015l-0.007-0.516l0.007-0.497c-0.004,0-0.01,0-0.015-0.001l-1.684-112.407c1.66,0.206,3.375,0.361,5.172,0.438v0.057
				c0.021,0,0.044,0,0.065,0c0.39,0,0.767-0.012,1.148-0.021c0.382,0.01,0.758,0.021,1.148,0.021c0.021,0,0.044,0,0.065,0v-0.057
				c1.797-0.077,3.512-0.232,5.172-0.438l-1.684,112.407c-0.005,0.001-0.011,0.001-0.011,0.001l0.003,0.497l-0.008,0.516h0.015
				l0.037,2.303c0.457,4.154-2.105,8.242-1.282,12.643c0.703,3.752,5.888,2.582,9.146,2.91c3.74,0.377,7.425,0.406,11.037,0.924
				c1.734,0.25,3.652,0.434,5.44,0.361c1.613-0.064,2.764-0.639,4.292-0.873C120.328,395.658,124.487,396.398,123.581,392.188z"/>
		</g>
		<circle fill="#B18F6A" cx="81.831" cy="129.571" r="0.892"/>
		<circle fill="#B18F6A" cx="85.606" cy="129.571" r="0.892"/>
		<rect x="77.798" y="137.442" fill="#FFFFFF" width="2.196" height="1.098"/>
		<rect x="80.681" y="137.442" fill="#FFFFFF" width="2.196" height="1.098"/>
		<rect x="86.721" y="137.4" fill="#FFFFFF" width="2.196" height="1.098"/>
		<rect x="83.838" y="137.4" fill="#FFFFFF" width="2.196" height="1.098"/>
		<path fill="none" stroke="#F3776B" stroke-width="0.5491" stroke-miterlimit="10" d="M91.457,136.872
			c-0.887-0.123-1.574,0.423-2.363,0.549c-0.595,0.095-1.288,0-1.892,0c-1.373,0-2.745,0-4.118,0h0.549c-1.373,0-2.746,0-4.118,0
			c-0.604,0-1.296,0.095-1.891,0c-0.791-0.126-1.478-0.672-2.365-0.549"/>
		<path fill="none" stroke="#F3776B" stroke-width="0.5491" stroke-miterlimit="10" d="M88.832,115.158
			c1.775-3.061,5.054-2.185,8.236-2.196"/>
		<path fill="none" stroke="#F3776B" stroke-width="0.5491" stroke-miterlimit="10" d="M68.321,115.761
			c1.774-3.061,5.054-2.185,8.236-2.196"/>
		<polygon fill="#414042" points="106.628,264.879 83.222,264.879 59.816,264.879 59.816,226.651 65.269,186.671 84.25,194.229 
			103.749,185.878 106.628,226.651 		"/>
	</g>
	<g>
		<polygon fill="#414042" points="80.919,378.809 76.389,378.809 71.859,378.809 67.329,378.809 62.799,378.809 60.877,360.03 
			60.663,322.695 60.663,296.889 62.799,251.972 67.329,251.972 71.859,251.972 76.389,251.972 80.919,251.972 87.167,251.518 
			81.018,308.527 80.883,364.975 		"/>
	</g>
	<polygon fill="#414042" points="87.559,378.809 92.088,378.809 96.618,378.809 101.148,378.809 105.678,378.809 107.6,360.03 
		107.813,322.695 107.813,296.889 105.678,251.972 101.148,251.972 96.618,251.972 92.088,251.972 87.559,251.972 81.31,251.518 
		87.459,308.527 87.595,364.975 	"/>
	<polygon fill="#E6E7E8" stroke="#DD4230" stroke-width="0.5491" stroke-miterlimit="10" points="83.478,233.665 56.615,299.257 
		60.663,188.422 72.017,171.857 	"/>
	<path fill="#E6E7E8" stroke="#005083" stroke-width="0.5491" stroke-miterlimit="10" d="M59.352,224.33
		c0,0.466-5.751,35.735-6.466,35.735l-12.662,3.674c-0.714,0,6.415-36.125,6.415-36.592c0,0,8.839-40.476,9.553-40.476h4.048"/>
	<polygon fill="#DD4231" points="58.186,256.243 65.12,246.139 77.137,199.468 72.017,171.857 	"/>
	<polygon fill="#DD4231" points="69.179,268.578 58.186,256.243 64.739,246.007 74.916,254.469 	"/>
	<polygon fill="#015084" points="61.104,208.896 60.663,194.975 60.663,188.422 66.551,179.832 	"/>
	<polygon fill="#DD4231" points="72.628,238.394 82.654,229.22 81.31,220.427 75.259,226.467 	"/>
	<polygon fill="#015084" points="83.381,232.72 77.641,238.394 81.541,238.394 83.243,234.52 	"/>
	<polygon fill="#DD4231" points="56.615,299.257 56.615,299.257 58.186,256.243 59.816,256.243 	"/>
	<polygon fill="#DD4231" points="60.24,190.174 54.1,194.229 56.191,186.671 60.24,186.671 	"/>
	<polygon fill="#015084" points="61.104,208.896 60.663,214.05 54.1,194.229 60.663,188.422 	"/>
	<polygon fill="#DD4231" points="55.089,249.75 46.821,225.917 49.789,212.973 57.508,235.557 	"/>
	<polygon fill="#DD4231" points="57.508,235.557 55.531,232.72 58.702,218.3 59.816,221.561 	"/>
	<polygon fill="#E6E7E8" stroke="#DD4230" stroke-width="0.5491" stroke-miterlimit="10" points="84.976,232.968 111.839,298.561 
		107.791,187.726 96.437,171.16 	"/>
	<path fill="#E6E7E8" stroke="#005083" stroke-width="0.5491" stroke-miterlimit="10" d="M109.103,223.632
		c0,0.466,5.751,35.735,6.466,35.735l12.661,3.674c0.714,0-6.414-36.124-6.414-36.591c0,0-8.839-40.475-9.553-40.475h-4.048"/>
	<polygon fill="#DD4231" points="110.268,255.546 103.335,245.442 91.317,198.771 96.437,171.16 	"/>
	<polygon fill="#DD4231" points="99.276,267.881 110.268,255.546 103.716,245.31 93.538,253.772 	"/>
	<polygon fill="#015084" points="107.35,208.199 107.791,194.278 107.791,187.726 101.903,179.135 	"/>
	<polygon fill="#DD4231" points="108.214,189.477 114.354,193.532 112.263,185.975 108.214,185.975 	"/>
	<polygon fill="#015084" points="107.35,208.199 107.791,213.353 114.354,193.532 107.791,187.726 	"/>
	<polygon fill="#DD4231" points="113.365,249.053 121.634,225.221 118.665,212.275 110.946,234.859 	"/>
	<polygon fill="#DD4231" points="110.946,234.859 112.923,232.023 109.753,217.603 108.638,220.864 	"/>
	<polygon fill="#DD4231" points="96.216,238.629 86.19,229.455 87.534,220.662 93.584,226.702 	"/>
	<polygon fill="#015084" points="85.462,232.956 91.203,238.629 87.302,238.629 85.6,234.755 	"/>
	<g>
		<path fill="#F3776B" d="M103.876,111.417c0.158,0.111,0.316,0.224,0.473,0.323"/>
		<path fill="#F3776B" d="M103.729,114.486"/>
	</g>
	<rect x="82.679" y="146.945" fill="#F3776B" width="2.413" height="6.906"/>
	<polyline fill="#F3776B" points="77.734,150.922 90.08,150.922 83.907,155.611 	"/>
	<path fill="#F7CAC9" d="M66.066,115.327c-3.497,0-6.333,2.835-6.333,6.332c0,3.498,2.835,6.332,6.333,6.332V115.327z"/>
	<path fill="#F7CAC9" d="M100.583,114.778c3.497,0,6.332,2.835,6.332,6.332s-2.834,6.332-6.332,6.332V114.778z"/>
	<circle fill="#FFFFFF" cx="93.722" cy="121.193" r="4.942"/>
	<circle fill="#FFFFFF" cx="73.131" cy="121.193" r="4.942"/>
	<circle fill="#91A8CF" cx="73.131" cy="121.107" r="1.922"/>
	<circle fill="#7CC253" cx="93.765" cy="121.107" r="3.02"/>
	<circle fill="#090A11" cx="93.765" cy="121.107" r="1.922"/>
	<circle fill="#090A11" cx="73.131" cy="121.107" r="0.549"/>
	<polygon fill="#414042" points="84.25,194.229 68.189,188.422 71.209,169.522 	"/>
	<polygon fill="#414042" points="84.25,194.229 99.905,188.422 96.785,169.522 	"/>
	<polygon fill="#E6E7E8" points="56.45,331.746 41.355,329.769 48.011,308.32 56.45,308.457 	"/>
	<polyline fill="#DD4231" points="47.674,308.653 57.438,321.646 56.949,277.75 	"/>
	<polygon fill="#015084" points="44.953,315.713 56.959,331.746 40.151,331.746 44.182,318.479 	"/>
	<rect x="56.45" y="317.613" fill="#DD4231" width="0.942" height="14.276"/>
	<polygon fill="#E6E7E8" points="111.638,331.746 126.732,329.769 120.077,308.32 111.638,308.457 	"/>
	<polyline fill="#DD4231" points="120.616,308.653 110.853,321.646 111.34,277.75 	"/>
	<polygon fill="#015084" points="122.788,315.713 110.781,331.746 127.59,331.746 123.558,318.479 	"/>
	<rect x="110.896" y="317.613" fill="#DD4231" width="0.943" height="14.276"/>
	<polygon fill="#414042" points="58.735,271.745 39.599,272.057 44.526,261.625 53.435,260.064 	"/>
	<polygon fill="#015084" points="40.224,263.738 45.601,232.72 54.1,255.045 52.886,260.064 	"/>
	<polygon fill="#414042" points="109.229,270.504 128.365,270.816 123.438,260.384 114.529,258.823 	"/>
	<polygon fill="#015084" points="128.23,263.041 122.854,232.023 114.354,254.348 115.569,259.367 	"/>
	<path fill="#414042" d="M81.246,385.623c-0.442-3.008-1.146-5.766-1.166-7.796c-3.172-0.146-9.422-1.817-12.307-0.585
		c-1.412,0.604-5.733,4.102-7.293,5.119c-1.693,1.105-2.905,2.223-4.875,2.865c-0.436,0.143-0.923,0.271-1.448,0.396h-6.675
		c-4.011,0-7.262,4.592-7.262,10.26h0.018c-0.108,1.584,4.395,1.586,8.392,1.586h24.076c0.107,0,0.212-0.002,0.318-0.004v0.004
		h7.183l1.069-1.586h0.033v-10.26H81.246z"/>
	<path fill="#414042" d="M87.332,385.623c0.442-3.008,1.146-5.766,1.166-7.796c3.172-0.146,9.422-1.817,12.307-0.585
		c1.411,0.604,5.733,4.102,7.293,5.119c1.693,1.105,2.905,2.223,4.875,2.865c0.436,0.143,0.923,0.271,1.448,0.396h6.675
		c4.011,0,7.263,4.592,7.263,10.26h-0.019c0.108,1.584-4.395,1.586-8.392,1.586H95.873c-0.107,0-0.212-0.002-0.318-0.004v0.004
		h-7.183l-1.069-1.586h-0.033v-10.26H87.332z"/>
	<path fill="#F3776B" d="M107.499,91.997l-2.73-6.797l-2.372,5.964l-2.394-5.96l-2.368,5.963l-2.39-5.958l-2.244,5.649l-0.261-0.021
		l-2.256-5.622l-2.097,5.28l-0.591-0.046l-2.071-4.732l-1.902,4.397h-0.283h-0.021h-0.59l-1.96-4.887l-1.938,4.887h-0.86
		l-1.957-4.882l-1.935,4.882h-0.865l-1.956-4.873l-1.934,4.873h-0.871l-1.952-4.867l-1.932,4.867h-0.875l-1.949-4.86l-2.367,5.965
		l0.009,5.079c-0.32,1.804-0.503,3.569-0.161,5.175c0.71,3.322,2.041,18.763,2.628,21.762c0.599-5.698,8.175-21.042,14.105-22.49
		c2.439-0.595,4.77-0.035,7.193,0.228l0.185,0.335l0.187-0.34c2.409-0.264,4.728-0.815,7.154-0.223
		c5.932,1.447,13.508,16.792,14.105,22.49c0.588-2.999,1.919-18.44,2.628-21.762C108.408,97.758,107.792,95.732,107.499,91.997z"/>
</g>
<path fill="#EF4E23" d="M727.319,141.334c-15.385,0-30.77,7.693-38.461,15.384c-7.693-7.691-23.078-15.384-38.463-15.384h-61.537
	v184.617h61.537c15.385,0,30.77,7.691,38.463,15.383c7.691-7.691,23.076-15.383,38.461-15.383h61.539V141.334H727.319z
	 M688.858,331.275c-9.369-6.889-23.686-13.018-38.463-13.018H596.55v-169.23h53.846c13.061,0,26.496,6.606,33.023,13.13l5.439,5.443
	V331.275z M765.78,272.104h-53.846v-7.691h53.846V272.104z M765.78,249.027h-53.846v-7.693h53.846V249.027z M765.78,225.95h-53.846
	v-7.692h53.846V225.95z M765.78,202.873h-53.846v-7.692h53.846V202.873z"/>
<g>
	<g>
		<path fill="#EF4E23" d="M325.812,140.602c-25.779,0-46.75,20.972-46.75,46.75c0,25.778,20.972,46.749,46.75,46.749
			c25.778,0,46.749-20.971,46.749-46.749C372.561,161.573,351.59,140.602,325.812,140.602z M325.812,233.174
			c-25.268,0-45.824-20.555-45.824-45.822c0-25.268,20.556-45.824,45.824-45.824c25.268,0,45.822,20.556,45.822,45.824
			C371.634,212.62,351.079,233.174,325.812,233.174z"/>
		<path fill="#EF4E23" d="M325.812,134.758c-29,0-52.594,23.594-52.594,52.594c0,28.999,23.594,52.593,52.594,52.593
			c28.999,0,52.593-23.594,52.593-52.593C378.404,158.353,354.811,134.758,325.812,134.758z M325.812,238.903
			c-28.426,0-51.552-23.126-51.552-51.551c0-28.426,23.126-51.552,51.552-51.552c28.425,0,51.551,23.126,51.551,51.552
			C377.362,215.777,354.236,238.903,325.812,238.903z"/>
		<path fill="#EF4E23" d="M325.812,146.446c-22.556,0-40.906,18.35-40.906,40.906c0,22.555,18.35,40.904,40.906,40.904
			c22.555,0,40.904-18.35,40.904-40.904C366.716,164.796,348.366,146.446,325.812,146.446z M325.812,227.448
			c-22.108,0-40.097-17.988-40.097-40.096c0-22.108,17.988-40.097,40.097-40.097c22.107,0,40.096,17.988,40.096,40.097
			C365.907,209.459,347.919,227.448,325.812,227.448z"/>
		<path fill="#EF4E23" d="M325.812,169.994c-9.587,0-17.358,7.771-17.358,17.358c0,9.586,7.771,17.357,17.358,17.357
			c9.586,0,17.357-7.771,17.357-17.357C343.169,177.766,335.397,169.994,325.812,169.994z M325.812,193.137
			c-3.196,0-5.786-2.59-5.786-5.785c0-3.196,2.59-5.786,5.786-5.786c3.195,0,5.785,2.59,5.785,5.786
			C331.597,190.547,329.007,193.137,325.812,193.137z"/>
		<path fill="#EF4E23" d="M325.812,152.29c-19.333,0-35.062,15.729-35.062,35.062c0,19.332,15.729,35.062,35.062,35.062
			c19.332,0,35.062-15.729,35.062-35.062C360.873,168.019,345.144,152.29,325.812,152.29z M325.812,221.719
			c-18.951,0-34.369-15.417-34.369-34.367c0-18.951,15.417-34.369,34.369-34.369c18.95,0,34.367,15.417,34.367,34.369
			C360.179,206.302,344.762,221.719,325.812,221.719z"/>
		<path fill="#EF4E23" d="M325.812,158.133c-16.111,0-29.219,13.107-29.219,29.219c0,16.11,13.107,29.218,29.219,29.218
			c16.11,0,29.218-13.107,29.218-29.218C355.029,171.241,341.922,158.133,325.812,158.133z M325.812,215.992
			c-15.792,0-28.64-12.849-28.64-28.64c0-15.792,12.849-28.64,28.64-28.64c15.791,0,28.64,12.849,28.64,28.64
			C354.451,203.143,341.603,215.992,325.812,215.992z"/>
		<path fill="#EF4E23" d="M325.812,163.977c-12.89,0-23.375,10.486-23.375,23.375c0,12.889,10.486,23.374,23.375,23.374
			c12.889,0,23.374-10.485,23.374-23.374C349.186,174.462,338.7,163.977,325.812,163.977z M325.812,210.263
			c-12.634,0-22.912-10.277-22.912-22.911c0-12.634,10.278-22.912,22.912-22.912c12.634,0,22.911,10.278,22.911,22.912
			C348.723,199.986,338.445,210.263,325.812,210.263z"/>
	</g>
	<g>
		<path fill="#EF4E23" d="M447.029,142.924c-25.778,0-46.75,20.971-46.75,46.75c0,25.777,20.972,46.748,46.75,46.748
			c25.779,0,46.75-20.971,46.75-46.748C493.779,163.895,472.808,142.924,447.029,142.924z M447.029,235.497
			c-25.268,0-45.823-20.555-45.823-45.822s20.556-45.824,45.823-45.824s45.822,20.556,45.822,45.824
			S472.296,235.497,447.029,235.497z"/>
		<path fill="#EF4E23" d="M447.029,137.081c-28.999,0-52.593,23.594-52.593,52.594c0,28.998,23.594,52.592,52.593,52.592
			c29,0,52.594-23.594,52.594-52.592C499.623,160.674,476.029,137.081,447.029,137.081z M447.029,241.225
			c-28.425,0-51.551-23.127-51.551-51.551c0-28.426,23.126-51.552,51.551-51.552c28.426,0,51.551,23.126,51.551,51.552
			C498.58,218.098,475.455,241.225,447.029,241.225z"/>
		<path fill="#EF4E23" d="M447.029,148.769c-22.556,0-40.905,18.349-40.905,40.906c0,22.555,18.35,40.904,40.905,40.904
			c22.555,0,40.904-18.35,40.904-40.904C487.933,167.118,469.583,148.769,447.029,148.769z M447.029,229.77
			c-22.108,0-40.096-17.988-40.096-40.096c0-22.108,17.988-40.097,40.096-40.097c22.107,0,40.096,17.988,40.096,40.097
			C487.125,211.782,469.136,229.77,447.029,229.77z"/>
		<path fill="#EF4E23" d="M447.029,172.317c-9.586,0-17.357,7.771-17.357,17.357s7.771,17.357,17.357,17.357
			s17.357-7.771,17.357-17.357S456.615,172.317,447.029,172.317z M447.029,195.459c-3.195,0-5.785-2.59-5.785-5.785
			c0-3.196,2.59-5.786,5.785-5.786s5.785,2.59,5.785,5.786C452.814,192.87,450.224,195.459,447.029,195.459z"/>
		<path fill="#EF4E23" d="M447.029,154.612c-19.332,0-35.062,15.729-35.062,35.062c0,19.332,15.73,35.061,35.062,35.061
			s35.062-15.729,35.062-35.061C482.091,170.341,466.361,154.612,447.029,154.612z M447.029,224.042
			c-18.951,0-34.368-15.418-34.368-34.367c0-18.951,15.417-34.369,34.368-34.369s34.367,15.418,34.367,34.369
			C481.396,208.624,465.98,224.042,447.029,224.042z"/>
		<path fill="#EF4E23" d="M447.029,160.456c-16.111,0-29.218,13.107-29.218,29.219c0,16.109,13.107,29.217,29.218,29.217
			s29.219-13.107,29.219-29.217C476.248,173.563,463.14,160.456,447.029,160.456z M447.029,218.313
			c-15.791,0-28.64-12.848-28.64-28.639s12.849-28.641,28.64-28.641s28.641,12.85,28.641,28.641S462.82,218.313,447.029,218.313z"/>
		<path fill="#EF4E23" d="M447.029,166.299c-12.889,0-23.375,10.485-23.375,23.375c0,12.889,10.486,23.373,23.375,23.373
			s23.375-10.484,23.375-23.373C470.404,176.785,459.917,166.299,447.029,166.299z M447.029,212.584
			c-12.634,0-22.912-10.277-22.912-22.91c0-12.635,10.278-22.912,22.912-22.912c12.635,0,22.912,10.277,22.912,22.912
			C469.941,202.307,459.664,212.584,447.029,212.584z"/>
	</g>
	<g>
		<path fill="#EF4E23" d="M388.419,248.569c-25.779,0-46.75,20.97-46.75,46.75c0,25.777,20.972,46.748,46.75,46.748
			s46.75-20.971,46.75-46.748C435.168,269.539,414.198,248.569,388.419,248.569z M388.419,341.141
			c-25.268,0-45.824-20.555-45.824-45.822s20.556-45.824,45.824-45.824c25.267,0,45.822,20.557,45.822,45.824
			S413.686,341.141,388.419,341.141z"/>
		<path fill="#EF4E23" d="M388.419,242.725c-29,0-52.594,23.593-52.594,52.593c0,28.998,23.594,52.592,52.594,52.592
			s52.593-23.594,52.593-52.592C441.012,266.318,417.418,242.725,388.419,242.725z M388.419,346.869
			c-28.426,0-51.552-23.127-51.552-51.551c0-28.426,23.126-51.551,51.552-51.551c28.425,0,51.55,23.125,51.55,51.551
			C439.969,323.742,416.844,346.869,388.419,346.869z"/>
		<path fill="#EF4E23" d="M388.419,254.412c-22.556,0-40.906,18.35-40.906,40.906c0,22.555,18.35,40.904,40.906,40.904
			c22.554,0,40.904-18.35,40.904-40.904C429.323,272.762,410.973,254.412,388.419,254.412z M388.419,335.414
			c-22.108,0-40.097-17.988-40.097-40.096s17.988-40.096,40.097-40.096c22.107,0,40.095,17.988,40.095,40.096
			S410.526,335.414,388.419,335.414z"/>
		<path fill="#EF4E23" d="M388.419,277.961c-9.587,0-17.358,7.771-17.358,17.357s7.771,17.357,17.358,17.357
			c9.585,0,17.357-7.771,17.357-17.357S398.004,277.961,388.419,277.961z M388.419,301.104c-3.196,0-5.786-2.59-5.786-5.785
			s2.59-5.785,5.786-5.785c3.195,0,5.785,2.59,5.785,5.785S391.614,301.104,388.419,301.104z"/>
		<path fill="#EF4E23" d="M388.419,260.256c-19.333,0-35.062,15.73-35.062,35.062s15.729,35.061,35.062,35.061
			c19.332,0,35.062-15.729,35.062-35.061S407.75,260.256,388.419,260.256z M388.419,329.686c-18.951,0-34.369-15.418-34.369-34.367
			c0-18.951,15.417-34.369,34.369-34.369c18.951,0,34.367,15.418,34.367,34.369C422.786,314.268,407.37,329.686,388.419,329.686z"/>
		<path fill="#EF4E23" d="M388.419,266.1c-16.111,0-29.219,13.107-29.219,29.219c0,16.109,13.107,29.217,29.219,29.217
			c16.111,0,29.218-13.107,29.218-29.217C417.637,279.207,404.53,266.1,388.419,266.1z M388.419,323.957
			c-15.792,0-28.64-12.848-28.64-28.639s12.849-28.641,28.64-28.641c15.791,0,28.64,12.85,28.64,28.641
			S404.209,323.957,388.419,323.957z"/>
		<path fill="#EF4E23" d="M388.419,271.943c-12.89,0-23.375,10.486-23.375,23.375s10.486,23.373,23.375,23.373
			c12.888,0,23.375-10.484,23.375-23.373S401.307,271.943,388.419,271.943z M388.419,318.229c-12.634,0-22.912-10.277-22.912-22.91
			c0-12.635,10.278-22.912,22.912-22.912s22.912,10.277,22.912,22.912C411.331,307.951,401.053,318.229,388.419,318.229z"/>
	</g>
</g>
<g>
	<path fill="#EF4E23" d="M1307.067,168v-26.667h-26.668V168h-53.332v173.334h133.334V168H1307.067z M1293.733,148
		c3.682,0,6.668,2.985,6.668,6.667s-2.986,6.667-6.668,6.667s-6.666-2.985-6.666-6.667S1290.052,148,1293.733,148z
		 M1353.733,334.667h-120v-160h46.666v20h26.668v-20h46.666V334.667z"/>
	<path fill="#EF4E23" d="M1293.733,208c-18.412,0-33.334,14.922-33.334,33.333c0,18.411,14.922,33.333,33.334,33.333
		s33.334-14.922,33.334-33.333C1327.067,222.922,1312.146,208,1293.733,208z M1293.733,268.001
		c-14.703,0-26.666-11.963-26.666-26.667c0-14.704,11.963-26.667,26.666-26.667c14.705,0,26.668,11.963,26.668,26.667
		C1320.401,256.038,1308.438,268.001,1293.733,268.001z"/>
	<path fill="#EF4E23" d="M1267.067,288.001c-7.363,0-13.334,5.971-13.334,13.334v13.332h80v-13.332
		c0-7.363-5.969-13.334-13.332-13.334H1267.067z"/>
</g>
<g>
	<path fill-rule="evenodd" clip-rule="evenodd" fill="#EF4E23" d="M1012.153,199.259c1.07,1.861,1.871,4.195,2.43,6.922
		c3.85-0.466,7.744-0.649,11.662-0.519l0.014-0.001C1021.868,203.002,1017.14,200.842,1012.153,199.259L1012.153,199.259z
		 M1000.451,241.422c1.173,0,2.228,0.517,2.961,1.342c2.292-0.217,4.575-0.397,6.843-0.54c0.609-3.906,1.1-7.723,1.457-11.392
		c-6.01-4.942-12.458-9.203-18.958-12.57c-2.495,5.74-4.935,12.341-7.205,19.406c2.282,1.537,3.96,3.923,4.59,6.714
		c2.277-0.338,4.564-0.648,6.853-0.926C997.689,242.24,998.978,241.422,1000.451,241.422L1000.451,241.422z M1004.407,246.244
		c-0.322,1.946-1.972,3.429-3.956,3.429c-1.689,0-3.135-1.074-3.727-2.594c-2.131,0.271-4.256,0.57-6.368,0.898
		c-0.547,5.451-5.018,9.727-10.506,9.883c-1.395,5.68-2.634,11.412-3.668,17.033c2.207-0.129,4.445-0.285,6.704-0.471
		c0.579-3.592,3.512-6.326,7.043-6.326c3.037,0,5.631,2.023,6.666,4.877c2.439-0.32,4.884-0.672,7.321-1.061
		c0.844-3.164,1.645-6.363,2.395-9.57c-1.623-0.963-2.711-2.725-2.711-4.74c0-2.83,2.146-5.162,4.908-5.479
		c0.414-2.108,0.799-4.204,1.154-6.281C1007.915,245.951,1006.163,246.086,1004.407,246.244L1004.407,246.244z M926.567,263.87
		c2.278-1.9,6.256-4.006,11.465-6.139c-3.475-9.352-4.769-19.03-3.043-28.283c-5.387,9.491-8.462,20.454-8.462,32.134
		C926.527,262.349,926.541,263.11,926.567,263.87L926.567,263.87z M945.69,254.878c6.691-2.285,14.576-4.512,23.082-6.46
		c-0.072-0.512-0.109-1.035-0.109-1.568c0-6.074,4.854-11,10.846-11.015c2.229-6.812,4.615-13.191,7.051-18.775
		c-7.45,3.823-14.611,8.903-21.107,14.727c0.382,0.745,0.598,1.591,0.598,2.489c0,2.982-2.384,5.4-5.324,5.4
		c-0.949,0-1.84-0.252-2.611-0.693C953.396,244.027,949.192,249.413,945.69,254.878L945.69,254.878z M1013.349,242.054
		c1.791-0.085,3.57-0.145,5.334-0.177c0.158-1.297,0.602-2.504,1.264-3.554c-1.729-1.741-3.52-3.424-5.359-5.043
		C1014.251,236.131,1013.835,239.064,1013.349,242.054L1013.349,242.054z M1035.407,242.517c3.676,0.385,7.182,0.943,10.461,1.699
		c2.193-10.192,0.668-19.468-5.988-25.972c-7.656-5.854-16.088-8.471-24.744-8.617c0.613,5.025,0.588,11.038,0.055,17.658
		c2.92,2.471,5.742,5.09,8.428,7.834c1.039-0.469,2.189-0.729,3.398-0.729C1031.517,234.39,1035.19,237.992,1035.407,242.517
		L1035.407,242.517z M1052.185,246.025c1.467,0.514,2.863,1.086,4.193,1.707c-0.752-3.469-1.779-6.834-3.059-10.073
		C1053.196,240.379,1052.81,243.178,1052.185,246.025L1052.185,246.025z M1057.214,252.41c-1.912-0.932-3.926-1.759-6.029-2.486
		c-0.912,3.131-2.098,6.301-3.527,9.473c3.541-1.715,6.811-3.584,9.734-5.621C1057.337,253.319,1057.276,252.864,1057.214,252.41
		L1057.214,252.41z M1044.87,248.094c-3.234-0.774-6.627-1.357-10.135-1.774c-0.172,0.405-0.373,0.795-0.602,1.165
		c2.51,3.435,4.785,6.985,6.771,10.618C1042.552,254.737,1043.89,251.382,1044.87,248.094L1044.87,248.094z M1019.003,245.507
		c-2.074,0.014-4.168,0.072-6.273,0.169c-0.406,2.272-0.85,4.571-1.324,6.884c1.941,0.858,3.297,2.792,3.297,5.042
		c0,3.047-2.486,5.516-5.551,5.516h-0.125c-0.68,2.777-1.396,5.551-2.146,8.303c10.904-1.875,21.578-4.479,31.043-7.936
		c-2.037-4.393-4.561-8.66-7.465-12.744c-1.049,0.481-2.215,0.749-3.441,0.749C1023.257,251.49,1020.073,248.974,1019.003,245.507
		L1019.003,245.507z M969.927,252.01c-10.1,2.415-19.297,5.243-26.666,8.007c1.964,5.248,4.545,10.357,7.65,15.176
		c5.623,0.234,11.93,0.252,18.635,0.016c1.131-6.271,2.53-12.711,4.127-19.08C972.101,255.106,970.807,253.687,969.927,252.01
		L969.927,252.01z M938.845,261.757c-5.76,2.383-9.959,4.639-11.984,6.447c0.102,1.004,0.227,2.002,0.373,2.992
		c1.342,0.867,3.67,1.627,6.797,2.25C935.3,269.521,936.916,265.608,938.845,261.757L938.845,261.757z M996.655,278.31
		c-0.992,2.943-3.629,5.047-6.726,5.047c-2.604,0-4.882-1.486-6.132-3.707c-2.889,0.234-5.741,0.424-8.539,0.57
		c-1.02,6.275-1.756,12.336-2.136,17.938c4.356,3.074,9.378,6.127,14.713,8.768c1.718-0.637,3.425-1.346,5.119-2.121
		c3.303-7.871,6.547-17.295,9.41-27.281C1000.462,277.806,998.557,278.069,996.655,278.31L996.655,278.31z M936.604,273.903
		c2.998,0.469,6.531,0.838,10.489,1.088c-2.464-3.598-4.641-7.334-6.471-11.156C938.957,267.237,937.603,270.614,936.604,273.903
		L936.604,273.903z M1057.817,259.392c-3.812,2.588-8.186,4.902-12.973,6.963c3.629,8.875,5.422,18.068,4.674,27.135
		c5.307-9.439,8.336-20.32,8.336-31.906C1057.854,260.849,1057.843,260.12,1057.817,259.392L1057.817,259.392z M1033.425,270.575
		c-8.799,2.791-18.408,4.926-28.141,6.494c-2.752,9.41-5.846,18.387-9.01,26.127c5.142-2.633,10.129-5.846,14.84-9.479
		c-0.352-0.973-0.545-2.021-0.545-3.115c0-5.074,4.133-9.188,9.23-9.188c1.412,0,2.752,0.316,3.949,0.881
		C1027.302,278.556,1030.554,274.612,1033.425,270.575L1033.425,270.575z M968.651,280.483c-4.947,0.141-9.658,0.143-14.014,0.02
		c1.082,1.42,2.212,2.807,3.386,4.156c0.701-0.395,1.519-0.619,2.392-0.619c2.609,0,4.725,2.016,4.725,4.5
		c0,0.953-0.312,1.836-0.842,2.562c0.885,0.812,1.789,1.605,2.709,2.373C967.384,289.331,967.94,284.97,968.651,280.483
		L968.651,280.483z M951.073,280.372c-6.25-0.289-11.613-0.854-15.689-1.639c-1.367,6.873-0.971,13.193,1.641,18.33
		c0.844,1.301,1.735,2.566,2.668,3.801c8.279,6.764,17.503,9.77,26.967,9.951c-0.33-4.352-0.266-9.338,0.133-14.752
		c-0.558-0.445-1.098-0.885-1.619-1.316c-0.869-0.723-1.729-1.461-2.576-2.215c-0.653,0.324-1.395,0.508-2.182,0.508
		c-2.609,0-4.726-2.016-4.726-4.5c0-0.785,0.211-1.521,0.581-2.164C954.455,284.442,952.718,282.437,951.073,280.372
		L951.073,280.372z M932.683,278.132c-1.967-0.51-3.479-1.088-4.459-1.725c0.758,3.256,1.76,6.418,2.986,9.469
		C931.538,283.306,932.032,280.72,932.683,278.132L932.683,278.132z M992.307,312.167c-3.171,6.566-6.298,11.564-9.112,14.207
		c2.941,0.402,5.944,0.609,8.996,0.609c11.044,0,21.449-2.717,30.582-7.516C1013.39,320.372,1002.51,317.065,992.307,312.167
		L992.307,312.167z M979.926,325.845c2.821-1.76,6.017-6.357,9.276-12.832c-5.171,1.672-10.449,2.748-15.754,3.102
		c0.515,3.596,1.37,6.602,2.605,8.879C977.33,325.313,978.621,325.599,979.926,325.845L979.926,325.845z M1012.175,224.816
		c0.318-5.596,0.258-10.722-0.262-15.13c-5.615,0.292-11.298,1.574-16.896,3.64l-0.056,0.116
		C1000.843,216.598,1006.657,220.439,1012.175,224.816L1012.175,224.816z M1011.456,206.623c-0.629-3.407-1.602-6.25-2.957-8.408
		c-0.654-0.166-1.311-0.323-1.973-0.469c-3.155,1.56-6.617,6.154-10.087,12.763C1001.323,208.766,1006.345,207.448,1011.456,206.623
		L1011.456,206.623z M972.974,300.702c-0.172,3.506-0.19,6.801-0.041,9.832c3.863-0.412,7.74-1.256,11.586-2.469
		C980.39,305.706,976.485,303.185,972.974,300.702L972.974,300.702z M969.501,322.972c-0.953-1.832-1.667-4.111-2.162-6.775
		c-5.149-0.209-10.292-1.141-15.352-2.902C957.247,317.356,963.143,320.64,969.501,322.972L969.501,322.972z M989.521,210.728
		c3.501-6.957,7.015-12,10.235-14.116c-2.482-0.284-5.007-0.43-7.565-0.43c-11.2,0-21.744,2.795-30.97,7.721l0.057-0.005
		C969.989,203.716,979.751,206.221,989.521,210.728L989.521,210.728z M941.88,219.556c-4.177,11.461-3.779,24.274,0.043,36.548
		c3.923-6.657,8.76-13.049,14.318-18.917c-0.531-0.84-0.84-1.84-0.84-2.913c0-2.982,2.383-5.4,5.324-5.4
		c1.163,0,2.239,0.378,3.115,1.021c6.67-5.818,14.092-10.883,22.022-14.859c-15.626-6.523-30.763-7.426-40.003,0.254l-0.031-0.021
		C944.45,216.639,943.133,218.07,941.88,219.556L941.88,219.556z M995.91,310.485c17.313,6.672,36.009,7.5,45.54-9.258h0.006
		c3.102-9.947,2.604-20.059-0.43-29.756c-3.582,5.527-7.83,10.895-12.592,15.881c0.383,1.01,0.594,2.105,0.594,3.25
		c0,5.074-4.133,9.188-9.229,9.188c-1.492,0-2.898-0.354-4.145-0.977C1009.487,303.517,1002.834,307.513,995.91,310.485
		L995.91,310.485z M992.303,332.983c39.476,0,71.476-31.766,71.476-70.949c0-39.186-32-70.951-71.476-70.951
		c-39.475,0-71.476,31.765-71.476,70.951C920.827,301.218,952.828,332.983,992.303,332.983L992.303,332.983z"/>
	<path fill-rule="evenodd" clip-rule="evenodd" fill="#EF4E23" d="M900.66,196.058L900.66,196.058
		c1.29-2.066,4.036-2.699,6.101-1.409l18.009,11.253c2.065,1.291,2.699,4.036,1.409,6.101v0c-1.291,2.064-4.036,2.698-6.102,1.408
		l-18.008-11.253C900.003,200.868,899.37,198.123,900.66,196.058L900.66,196.058z"/>
	<path fill-rule="evenodd" clip-rule="evenodd" fill="#EF4E23" d="M941.86,161.295L941.86,161.295
		c2.207-1.029,4.855-0.066,5.885,2.141l8.975,19.246c1.029,2.207,0.064,4.854-2.142,5.883l-0.001,0
		c-2.207,1.029-4.854,0.065-5.883-2.142l-8.975-19.246C938.69,164.971,939.653,162.324,941.86,161.295L941.86,161.295z"/>
	<path fill-rule="evenodd" clip-rule="evenodd" fill="#EF4E23" d="M991.868,149.685h0.002c2.435,0,4.426,1.992,4.426,4.428v21.235
		c0,2.436-1.991,4.427-4.426,4.427h-0.002c-2.434,0-4.426-1.992-4.426-4.427v-21.235
		C987.442,151.677,989.435,149.685,991.868,149.685L991.868,149.685z"/>
	<path fill-rule="evenodd" clip-rule="evenodd" fill="#EF4E23" d="M1041.78,161.332l0.002,0c2.207,1.029,3.17,3.676,2.141,5.883
		l-8.975,19.246c-1.029,2.207-3.676,3.17-5.883,2.142l-0.002,0c-2.205-1.029-3.17-3.676-2.141-5.884l8.975-19.245
		C1036.927,161.267,1039.575,160.303,1041.78,161.332L1041.78,161.332z"/>
	<path fill-rule="evenodd" clip-rule="evenodd" fill="#EF4E23" d="M1081.931,196.215L1081.931,196.215
		c1.291,2.066,0.658,4.811-1.408,6.101l-18.008,11.253c-2.066,1.291-4.811,0.657-6.102-1.408v0c-1.291-2.065-0.656-4.81,1.408-6.101
		l18.01-11.253C1077.896,193.516,1080.642,194.15,1081.931,196.215L1081.931,196.215z"/>
</g>
<text transform="matrix(1 0 0 1 39.5986 462.1562)" font-family="'MyriadPro-Regular'" font-size="22">PERSONA </text>
<text transform="matrix(1 0 0 1 349.1855 462.1562)" font-family="'MyriadPro-Regular'" font-size="22">ALBUMS</text>
<text transform="matrix(1 0 0 1 666.3516 462.1562)" font-family="'MyriadPro-Regular'" font-size="22">LYRICS</text>
<text transform="matrix(1 0 0 1 957.1328 462.1562)" font-family="'MyriadPro-Regular'" font-size="22">WATSON </text>
<text transform="matrix(1 0 0 1 1227.0674 462.1562)" font-family="'MyriadPro-Regular'" font-size="22">BIG FIVE DATA</text>
<g>
	<g>
		
			<line fill="none" stroke="#EF4E23" stroke-width="2" stroke-miterlimit="10" x1="180.624" y1="251.454" x2="221.048" y2="251.607"/>
		<g>
			<polygon fill="#EF4E23" points="235.169,251.661 215.24,259.717 219.993,251.604 215.302,243.457 			"/>
		</g>
	</g>
</g>
<g>
	<g>
		
			<line fill="none" stroke="#EF4E23" stroke-width="2" stroke-miterlimit="10" x1="499.623" y1="251.454" x2="540.047" y2="251.607"/>
		<g>
			<polygon fill="#EF4E23" points="554.168,251.661 534.239,259.717 538.992,251.604 534.301,243.457 			"/>
		</g>
	</g>
</g>
<g>
	<g>
		
			<line fill="none" stroke="#EF4E23" stroke-width="2" stroke-miterlimit="10" x1="821.844" y1="251.454" x2="862.269" y2="251.607"/>
		<g>
			<polygon fill="#EF4E23" points="876.39,251.661 856.461,259.717 861.213,251.604 856.522,243.457 			"/>
		</g>
	</g>
</g>
<g>
	<g>
		
			<line fill="none" stroke="#EF4E23" stroke-width="2" stroke-miterlimit="10" x1="1115.477" y1="251.454" x2="1155.901" y2="251.607"/>
		<g>
			<polygon fill="#EF4E23" points="1170.022,251.661 1150.094,259.717 1154.846,251.604 1150.155,243.457 			"/>
		</g>
	</g>
</g>
</svg>
