<?xml version="1.0" encoding="utf-8"?>
<!-- Generator: Adobe Illustrator 16.0.0, SVG Export Plug-In . SVG Version: 6.00 Build 0)  -->
<!DOCTYPE svg PUBLIC "-//W3C//DTD SVG 1.1//EN" "http://www.w3.org/Graphics/SVG/1.1/DTD/svg11.dtd">
<svg version="1.1" id="Layer_1" xmlns="http://www.w3.org/2000/svg" xmlns:xlink="http://www.w3.org/1999/xlink" x="0px" y="0px"
	 width="60px" height="60px" viewBox="0 0 60 60" enable-background="new 0 0 60 60" xml:space="preserve">
<g>
	<path fill="#424143" d="M44.141,10.858C40.522,7.239,35.522,5,30,5s-10.522,2.239-14.141,5.858C12.24,14.478,10,19.478,10,25
		c0,5.847,2.24,11.142,5.859,14.973L30,55l14.141-15.027C47.761,36.142,50,30.847,50,25C50,19.478,47.761,14.478,44.141,10.858z
		 M42.927,38.831L30,52.568l-12.929-13.74c-3.485-3.688-5.404-8.6-5.404-13.828c0-4.896,1.908-9.5,5.372-12.963
		C20.5,8.574,25.103,6.667,30,6.667c4.897,0,9.5,1.907,12.962,5.371C46.426,15.5,48.333,20.104,48.333,25
		C48.333,30.229,46.414,35.14,42.927,38.831z"/>
	<circle fill="#424143" cx="30" cy="25" r="6.667"/>
</g>
</svg>
