<?xml version="1.0" encoding="utf-8"?>
<!-- Generator: Adobe Illustrator 16.0.0, SVG Export Plug-In . SVG Version: 6.00 Build 0)  -->
<!DOCTYPE svg PUBLIC "-//W3C//DTD SVG 1.1//EN" "http://www.w3.org/Graphics/SVG/1.1/DTD/svg11.dtd">
<svg version="1.1" id="Layer_1" xmlns="http://www.w3.org/2000/svg" xmlns:xlink="http://www.w3.org/1999/xlink" x="0px" y="0px"
	 width="60px" height="60px" viewBox="0 0 60 60" enable-background="new 0 0 60 60" xml:space="preserve">
<path fill="#424143" d="M40,4c-4,0-8,2-10,4c-2-2-6-4-10-4H4v48h16c4,0,8,2,10,4c2-2,6-4,10-4h16V4H40z M30,53.385
	C27.564,51.594,23.842,50,20,50H6V6h14c3.396,0,6.889,1.718,8.586,3.414L30,10.829V53.385z M50,38H36v-2h14V38z M50,32H36v-2h14V32z
	 M50,26H36v-2h14V26z M50,20H36v-2h14V20z"/>
</svg>
