<?xml version="1.0" encoding="utf-8"?>
<!-- Generator: Adobe Illustrator 16.0.0, SVG Export Plug-In . SVG Version: 6.00 Build 0)  -->
<!DOCTYPE svg PUBLIC "-//W3C//DTD SVG 1.1//EN" "http://www.w3.org/Graphics/SVG/1.1/DTD/svg11.dtd">
<svg version="1.1" id="Layer_1" xmlns="http://www.w3.org/2000/svg" xmlns:xlink="http://www.w3.org/1999/xlink" x="0px" y="0px"
	 width="40px" height="40px" viewBox="0 0 40 40" enable-background="new 0 0 40 40" xml:space="preserve">
<g>
	<path fill="#424143" d="M22,9V5h-4v4h-8v26h20V9H22z M20,6c0.552,0,1,0.448,1,1s-0.448,1-1,1s-1-0.448-1-1S19.448,6,20,6z M29,34
		H11V10h7v3h4v-3h7V34z"/>
	<path fill="#424143" d="M20,15c-2.762,0-5,2.238-5,5s2.238,5,5,5s5-2.238,5-5S22.762,15,20,15z M20,24c-2.206,0-4-1.795-4-4
		c0-2.206,1.794-4,4-4c2.205,0,4,1.794,4,4C24,22.205,22.205,24,20,24z"/>
	<path fill="#424143" d="M16,27c-1.104,0-2,0.896-2,2v2h12v-2c0-1.104-0.896-2-2-2H16z"/>
</g>
</svg>
