<?xml version="1.0" encoding="utf-8"?>
<!-- Generator: Adobe Illustrator 16.0.0, SVG Export Plug-In . SVG Version: 6.00 Build 0)  -->
<!DOCTYPE svg PUBLIC "-//W3C//DTD SVG 1.1//EN" "http://www.w3.org/Graphics/SVG/1.1/DTD/svg11.dtd">
<svg version="1.1" id="Layer_1" xmlns="http://www.w3.org/2000/svg" xmlns:xlink="http://www.w3.org/1999/xlink" x="0px" y="0px"
	 width="60px" height="60px" viewBox="0 0 60 60" enable-background="new 0 0 60 60" xml:space="preserve">
<g>
	<path fill="#424143" d="M11.667,5v50h36.667V5H11.667z M46.667,53.333H13.333V6.667h33.333V53.333z"/>
	<path fill="#424143" d="M30,48.333c6.443,0,11.667-5.223,11.667-11.666C41.667,30.225,36.443,25,30,25
		c-6.444,0-11.667,5.225-11.667,11.667C18.333,43.11,23.556,48.333,30,48.333z M30,33.333c1.841,0,3.333,1.493,3.333,3.334
		S31.841,40,30,40s-3.333-1.492-3.333-3.333S28.159,33.333,30,33.333z"/>
	<circle fill="#424143" cx="30" cy="16.667" r="3.333"/>
</g>
</svg>
