<?xml version="1.0" encoding="utf-8"?>
<!-- Generator: Adobe Illustrator 16.0.0, SVG Export Plug-In . SVG Version: 6.00 Build 0)  -->
<!DOCTYPE svg PUBLIC "-//W3C//DTD SVG 1.1//EN" "http://www.w3.org/Graphics/SVG/1.1/DTD/svg11.dtd">
<svg version="1.1" id="Layer_1" xmlns="http://www.w3.org/2000/svg" xmlns:xlink="http://www.w3.org/1999/xlink" x="0px" y="0px"
	 width="60px" height="60px" viewBox="0 0 60 60" enable-background="new 0 0 60 60" xml:space="preserve">
<g>
	<path fill="#424143" d="M5,5v42.308V55h50v-7.692V5H5z M6.923,6.923h46.154v38.462H6.923V6.923z"/>
	<path fill="#424143" d="M24.231,16.539v3.846v11.094C23.209,30.562,21.864,30,20.385,30c-3.184,0-5.77,2.584-5.77,5.77
		c0,3.185,2.586,5.769,5.77,5.769c3.183,0,5.769-2.584,5.769-5.769V20.035l17.308-3.146v10.745
		c-1.022-0.917-2.367-1.479-3.847-1.479c-3.183,0-5.77,2.584-5.77,5.769c0,3.186,2.587,5.77,5.77,5.77c3.184,0,5.77-2.584,5.77-5.77
		V16.539v-3.846v-1.923l-21.154,3.846V16.539z M20.385,39.615c-2.121,0-3.846-1.726-3.846-3.846c0-2.121,1.725-3.847,3.846-3.847
		c2.121,0,3.846,1.726,3.846,3.847C24.231,37.89,22.505,39.615,20.385,39.615z M39.615,35.77c-2.12,0-3.846-1.726-3.846-3.847
		c0-2.121,1.726-3.846,3.846-3.846c2.121,0,3.847,1.725,3.847,3.846C43.462,34.044,41.736,35.77,39.615,35.77z"/>
</g>
</svg>
