<?xml version="1.0" encoding="utf-8"?>
<!-- Generator: Adobe Illustrator 16.0.0, SVG Export Plug-In . SVG Version: 6.00 Build 0)  -->
<!DOCTYPE svg PUBLIC "-//W3C//DTD SVG 1.1//EN" "http://www.w3.org/Graphics/SVG/1.1/DTD/svg11.dtd">
<svg version="1.1" id="Layer_1" xmlns="http://www.w3.org/2000/svg" xmlns:xlink="http://www.w3.org/1999/xlink" x="0px" y="0px"
	 width="300px" height="700px" viewBox="0 0 300 700" enable-background="new 0 0 300 700" xml:space="preserve">
<g>
	<g>
		<g>
			<path fill="#F7CAC9" d="M115.41,111.341l1.217-1.218C116.123,110.503,115.703,110.907,115.41,111.341z"/>
			<path fill="#F7CAC9" d="M116.91,109.841l-0.283,0.282c0.5-0.375,1.09-0.723,1.762-1.042c0.014-0.239,0.029-0.479,0.021-0.74
				L116.91,109.841z"/>
			<path fill="#F7CAC9" d="M180.025,110.124l1.219,1.218C180.949,110.907,180.531,110.503,180.025,110.124z"/>
			<path fill="#F7CAC9" d="M179.744,109.841l-1.5-1.5c-0.008,0.261,0.006,0.501,0.021,0.74c0.672,0.319,1.262,0.667,1.76,1.042
				L179.744,109.841z"/>
			<polyline fill="#F3776B" points="122.031,167.011 133.298,113.075 169.679,112.4 			"/>
			<polygon fill="#91A8CF" points="122.312,167.319 119.832,167.324 130.952,113.601 133.196,113.562 			"/>
			<polyline fill="#F3776B" points="125.857,177.925 129.876,159.491 159.525,136.712 			"/>
			<polygon fill="#91A8CF" points="125.939,178.402 123.566,179.221 127.035,161.454 130.073,159.241 			"/>
			<path fill="#DD4231" d="M156.7,214.629c0,18.331,14.223,16.922,19.434,16.922c5.209,0,2.014-14.097,2.014-32.428
				c0-18.332,2.1-32.021-2.014-33.956C171.245,162.869,156.7,196.297,156.7,214.629z"/>
			<path fill="#DD4231" d="M143.122,215.132c0,17.788-14.223,16.42-19.432,16.42s-4.545-13.956-2.016-31.466
				c2.939-20.35-3.193-32.949,2.016-32.949S143.122,197.344,143.122,215.132z"/>
			<path fill="#F7CAC9" d="M222.443,641.304c-1.193-5.543-9.195-4.303-13.84-5.26c-5.59-1.152-10.818-3.967-15.459-6.775
				c-5.246-3.174-9.303-4.842-9.701-11.965c-0.035-0.629-0.209-1.309-0.352-1.967l0.035-2.389l3.117-208.092
				c1.744-0.219,3.514-0.41,5.324-0.561c0.787-15.492,0.152-31.287,0.152-46.848c0-15.91,4.387-42.156,0.215-58.217v-0.864
				c5.785,8.211,4.488,25.387,6.496,35.331c3.08,15.244,7.245,29.01,7.405,45.611c0.092,9.52,2.971,17.016,1,25.822
				c-1.742,7.785-6.833,15.855-9.351,22.508c-2.268,5.998-8.156,8-7.219,14.223c1.436,9.516,8.363,4.873,10.395-2.045
				c1.582-0.455,4.074-0.428,5.674-0.021c0.396,7.76,0.07,14.734-2.85,20.848c-2.555,5.352-8.811,12.6,2.727,11.777
				c15.191-1.082,16.287-29.188,16.273-40.777c-0.041-40.406-4.268-82.045-10.977-120.023c-1.475-8.35-2.035-18.835-6.748-26.305
				c-4.146-6.571-11.523-11.363-16.596-17.358c-1.41-2.181-3.428-3.892-4.703-6.116c-11.953-20.836-11.736-23.644-11.699-40.239
				l-0.117,0.047c0.502-8.744,1.561-17.609,3.404-22.809c3.361-9.487,7.646-18.492,10.869-27.449
				c1.494-4.156,2.385-9.862,2.703-15.685c0.316-5.823,0.062-11.763-0.73-16.388c-0.893-5.206,0.443-14.911-1.379-19.977
				c-1.736-4.826-6.328-5.452-6.623-10.26c-3.217-1.525-8.227-2.398-13.287-2.484c-7.086-0.123-14.244,1.294-16.652,4.587
				c-2.406-3.292-9.564-4.709-16.65-4.587c-5.061,0.086-10.07,0.958-13.287,2.484c-0.297,4.808-4.887,5.434-6.623,10.26
				c-1.822,5.066-0.486,14.771-1.379,19.977c-0.793,4.625-1.047,10.565-0.73,16.388c0.318,5.822,1.209,11.528,2.703,15.685
				c3.223,8.957,7.508,17.962,10.869,27.449c3.275,9.241,4.074,30.053,3.68,41.192c-1.426,5.407-4.357,11.326-10.371,21.808
				c-1.275,2.225-3.293,3.936-4.703,6.116c-5.072,5.996-12.449,10.787-16.596,17.358c-4.713,7.47-5.273,17.955-6.748,26.305
				c-6.709,37.979-10.936,79.617-10.977,120.023c-0.014,11.59,1.082,39.695,16.273,40.777c11.537,0.822,5.281-6.426,2.727-11.777
				c-2.92-6.113-3.246-13.088-2.85-20.848c1.6-0.406,4.092-0.434,5.674,0.021c2.031,6.918,8.959,11.561,10.395,2.045
				c0.938-6.223-4.951-8.225-7.219-14.223c-2.518-6.652-2.264-16.188-4.006-23.973c-1.971-8.807,0.862-18.354,0.954-27.873
				c0.16-16.602-0.974-26.852,2.106-42.096c2.008-9.943,0.711-27.119,6.496-35.331v0.864c-4.172,16.061,0.215,42.307,0.215,58.217
				c0,15.561-0.635,31.355,0.152,46.848c1.811,0.15,3.58,0.342,5.324,0.561l3.117,208.092l0.035,2.389
				c-0.143,0.658-0.316,1.338-0.352,1.967c-0.398,7.123-4.455,8.791-9.701,11.965c-4.641,2.809-9.869,5.623-15.459,6.775
				c-4.645,0.957-12.646-0.283-13.84,5.26c-1.65,7.67,5.926,6.322,10.852,7.076c2.783,0.426,4.879,1.475,7.816,1.592
				c3.256,0.129,6.75-0.205,9.908-0.658c6.578-0.943,13.289-0.998,20.1-1.684c5.936-0.598,15.379,1.533,16.658-5.301
				c1.5-8.014-3.166-15.459-2.334-23.025l0.066-4.193h0.027l-0.014-0.939l0.014-0.904c-0.008,0-0.018,0-0.027-0.002l-3.066-204.719
				c3.023,0.375,6.146,0.658,9.42,0.799v0.104c0.039,0,0.08,0,0.119,0c0.711,0,1.396-0.023,2.092-0.039
				c0.695,0.016,1.381,0.039,2.092,0.039c0.039,0,0.08,0,0.119,0v-0.104c3.273-0.141,6.396-0.424,9.42-0.799l-3.066,204.719
				c-0.01,0.002-0.02,0.002-0.027,0.002l0.014,0.904l-0.014,0.939h0.027l0.066,4.193c0.832,7.566-3.834,15.012-2.334,23.025
				c1.279,6.834,10.723,4.703,16.658,5.301c6.811,0.686,13.521,0.74,20.1,1.684c3.158,0.453,6.652,0.787,9.908,0.658
				c2.938-0.117,5.033-1.166,7.816-1.592C216.518,647.626,224.094,648.974,222.443,641.304z M149.951,189.662
				c-0.07-1.721-0.066-3.454,0-5.202C150.018,186.208,150.021,187.941,149.951,189.662z"/>
		</g>
		<circle fill="#B18F6A" cx="145.938" cy="163.013" r="1.625"/>
		<circle fill="#B18F6A" cx="152.812" cy="163.013" r="1.625"/>
		<rect x="139.438" y="177.356" fill="#FFFFFF" width="4" height="2"/>
		<rect x="144.688" y="177.356" fill="#FFFFFF" width="4" height="2"/>
		<rect x="155.688" y="177.28" fill="#FFFFFF" width="4" height="2"/>
		<rect x="150.438" y="177.28" fill="#FFFFFF" width="4" height="2"/>
		<path fill="none" stroke="#F3776B" stroke-miterlimit="10" d="M164.312,176.318c-1.615-0.225-2.867,0.771-4.306,1
			c-1.083,0.173-2.345,0-3.444,0c-2.5,0-5,0-7.5,0h1c-2.5,0-5,0-7.5,0c-1.1,0-2.361,0.173-3.444,0c-1.438-0.229-2.69-1.225-4.306-1"
			/>
	</g>
	<polygon fill="#DD4231" points="193.089,315.669 166.587,315.669 140.942,316.294 115.337,316.294 88.796,315.669 91.097,301.208 
		94.587,285.295 109.712,269.42 119.647,256.282 137.161,270.244 155.804,285.105 174.446,299.966 	"/>
	<polygon fill="#015084" points="192.441,357.437 108.81,357.437 107.905,315.669 193.72,315.669 	"/>
	<polygon fill="#7CC253" points="191.811,418.515 171.419,418.515 151.028,418.515 136.951,418.515 109.432,404.296 
		109.396,403.554 109.04,387.976 109.147,372.798 108.179,357.437 130.638,357.448 151.028,357.448 171.419,357.448 
		191.811,357.448 191.811,372.714 191.811,387.981 191.811,403.249 	"/>
	<polygon fill="#DD4231" points="191.811,396.202 136.951,418.515 191.811,418.515 	"/>
	<rect x="155.181" y="418.515" fill="#F3776B" width="30.995" height="29.16"/>
	<rect x="155.181" y="447.476" fill="#FFFFFF" width="30.995" height="7.977"/>
	<rect x="155.181" y="455.831" fill="#015084" width="30.995" height="22.826"/>
	<rect x="155.181" y="478.712" fill="#F3776B" width="30.995" height="15.156"/>
	<rect x="155.181" y="493.669" fill="#FFFFFF" width="30.995" height="7.979"/>
	<rect x="155.181" y="501.313" fill="#F3776B" width="30.995" height="7.979"/>
	<rect x="155.181" y="508.671" fill="#7CC253" width="30.995" height="53.152"/>
	<rect x="155.181" y="561.823" fill="#015084" width="30.995" height="52.846"/>
	<polygon fill="#015084" points="102.256,357.448 78.326,357.323 88.796,315.669 108.179,315.669 	"/>
	<rect x="78.326" y="357.323" fill="#7CC253" width="23.93" height="61.191"/>
	<line fill="#91A8CF" x1="107.88" y1="315.669" x2="102.88" y2="320.003"/>
	<rect x="98.88" y="315.669" fill="#DD4231" width="11" height="4.334"/>
	<rect x="126.88" y="315.669" fill="#DD4231" width="11" height="4.334"/>
	<rect x="156.546" y="315.669" fill="#DD4231" width="11" height="4.334"/>
	<rect x="143.213" y="312.503" fill="#015084" width="8.167" height="4.332"/>
	<rect x="173.213" y="312.335" fill="#015084" width="8.167" height="4.334"/>
	<rect x="113.713" y="312.335" fill="#015084" width="8.167" height="4.334"/>
	<polygon fill="#015084" points="95.963,317.837 88.796,317.837 88.796,313.503 95.963,314.681 	"/>
	<polygon fill="#DD4231" points="193.089,321.003 186.213,320.003 186.213,313.503 194.089,315.669 	"/>
	<g>
		<polygon fill="#FFFFFF" points="133.485,325.237 119.591,313.237 104.692,325.237 89.796,313.503 90.051,309.112 104.692,320.101 
			119.591,308.101 133.485,320.101 148.385,308.101 163.279,320.101 178.184,308.101 193.089,321.003 193.089,325.237 
			179.184,313.237 164.279,325.237 148.385,313.237 		"/>
	</g>
	<rect x="111.337" y="353.544" fill="#7CC253" width="10.543" height="5.5"/>
	<rect x="140.837" y="353.544" fill="#7CC253" width="10.543" height="5.5"/>
	<rect x="170.587" y="353.544" fill="#7CC253" width="10.543" height="5.5"/>
	<rect x="125.962" y="355.419" fill="#015084" width="10.543" height="5.5"/>
	<rect x="155.647" y="355.419" fill="#015084" width="10.543" height="5.5"/>
	<rect x="80.712" y="352.669" fill="#7CC253" width="10.543" height="5.5"/>
	<polygon fill="#015084" points="102.256,361.03 95.963,360.294 94.773,355.419 102.256,355.419 	"/>
	<polygon fill="#FFFFFF" points="86.351,348.13 82.142,351.517 77.934,354.905 77.63,357.718 77.326,360.532 81.839,356.899 
		86.351,353.267 93.804,359.267 101.256,365.267 101.256,363.147 102.256,361.03 93.804,354.579 	"/>
	<polygon fill="#015084" points="192.026,361.78 185.213,359.919 183.212,352.669 192.026,352.669 	"/>
	<polygon fill="#FFFFFF" points="177.121,348.88 162.217,360.88 147.322,348.88 133.423,360.88 117.528,348.88 107.959,356.587 
		108.408,361.56 118.528,354.017 132.423,366.017 148.322,354.017 162.217,366.017 177.121,354.017 192.026,366.017 192.026,361.78 
			"/>
	<polygon fill="#7CC253" points="166.745,566.419 163.245,566.419 160.956,558.308 168.745,558.308 	"/>
	<polygon fill="#7CC253" points="186.495,566.419 181.762,564.419 180.169,558.308 186.495,558.308 	"/>
	<polygon fill="#015084" points="155.257,556.417 159.308,560.233 161.421,567.419 155.197,567.419 	"/>
	<polygon fill="#015084" points="181.688,565.677 171.495,566.419 171.495,558.669 177.245,558.669 	"/>
	<g>
		<polygon fill="#FFFFFF" points="165.507,570.89 154.995,558.669 155.181,552.759 165.509,564.759 175.842,552.759 
			186.495,566.419 186.176,570.89 175.842,558.888 		"/>
	</g>
	<rect x="113.095" y="602.71" fill="#015084" width="33.468" height="7.295"/>
	
		<rect x="113.095" y="590.917" fill="#FFFFFF" stroke="#E6E7E8" stroke-width="0.6973" stroke-miterlimit="10" width="33.208" height="7.5"/>
	<polygon fill="#91A8CF" points="129.116,163.013 122.031,167.011 122.031,163.747 129.876,159.491 	"/>
	<circle fill="#FFFFFF" cx="167.938" cy="147.049" r="9"/>
	<polyline fill="#F3776B" points="123.131,166.682 134.397,112.746 170.778,112.071 	"/>
	<polygon fill="#91A8CF" points="123.411,166.99 120.932,166.995 132.052,113.271 134.296,113.233 	"/>
	<polyline fill="#F3776B" points="126.957,177.596 130.976,159.162 160.625,136.383 	"/>
	<polygon fill="#91A8CF" points="127.039,178.073 124.666,178.892 128.135,161.125 131.173,158.912 	"/>
	<circle fill="#FFFFFF" cx="130.438" cy="147.049" r="9"/>
	<circle fill="#91A8CF" cx="130.438" cy="146.892" r="3.5"/>
	<circle fill="#7CC253" cx="168.016" cy="146.892" r="5.5"/>
	<circle fill="#090A11" cx="168.016" cy="146.892" r="3.5"/>
	<circle fill="#090A11" cx="130.438" cy="146.892" r="1"/>
	<g>
		<path fill="#DD4231" d="M173.861,204.253c-0.071,0.282-0.122,0.525-0.144,0.707C173.771,204.753,173.818,204.511,173.861,204.253z
			"/>
		<path fill="#DD4231" d="M201.518,107.515c-2.949-5.798-13.49-9.237-18.918-13.928c-12.291-10.621-19.514-10.687-32.944-9.695
			c-13.431-0.992-20.654-0.926-32.944,9.695c-5.428,4.691-15.969,8.13-18.918,13.928c-3.105,6.105,0.043,20.79,0.792,27.212
			c0.989,8.495,5.655,16.225,7.352,25.021c1.615,8.375,6.007,16.524,9.134,24.286c0.782,1.936,2.884,8.835,4.227,10.67
			c1.381,1.89,3.246,2.095,3.801,3.153c0.598,1.141,2.334,5.746,2.494,7.103l0.921,0.513c-0.71-2.735-1.388-10.825-2.389-14.366
			c-3.568-12.616-3.153-7.519-4.51-16.405c-2.714-17.776-5.537-30.659,0.788-47.853c3.455-9.396,3.08-11.808,15.93-11.198
			c6.294,0.299,9.412,0.278,13.322,0.14c3.911,0.139,7.027,0.159,13.322-0.14c12.85-0.61,12.476,1.802,15.93,11.198
			c6.325,17.194,3.502,30.076,0.788,47.853c-1.357,8.886-0.941,3.789-4.51,16.405c-0.927,3.273-0.79,9.989-1.324,13.146
			c0.462-1.824,1.833-5.408,2.351-6.396c0.555-1.058,2.419-1.263,3.801-3.153c1.343-1.835,3.444-8.734,4.227-10.67
			c3.128-7.761,7.52-15.911,9.134-24.286c1.697-8.796,6.363-16.526,7.353-25.021C201.475,128.305,204.623,113.62,201.518,107.515z"
			/>
	</g>
</g>
</svg>
