<?xml version="1.0" encoding="utf-8"?>
<!-- Generator: Adobe Illustrator 16.0.0, SVG Export Plug-In . SVG Version: 6.00 Build 0)  -->
<!DOCTYPE svg PUBLIC "-//W3C//DTD SVG 1.1//EN" "http://www.w3.org/Graphics/SVG/1.1/DTD/svg11.dtd">
<svg version="1.1" id="Layer_1" xmlns="http://www.w3.org/2000/svg" xmlns:xlink="http://www.w3.org/1999/xlink" x="0px" y="0px"
	 width="300px" height="660px" viewBox="0 0 300 660" enable-background="new 0 0 300 660" xml:space="preserve">
<g>
	<g>
		<g>
			<path fill="#F7CAC9" d="M115.41,103.341l1.217-1.218C116.123,102.503,115.703,102.907,115.41,103.341z"/>
			<path fill="#F7CAC9" d="M116.91,101.841l-0.283,0.282c0.5-0.375,1.09-0.723,1.762-1.042c0.014-0.239,0.029-0.479,0.021-0.74
				L116.91,101.841z"/>
			<path fill="#F7CAC9" d="M180.025,102.124l1.219,1.218C180.949,102.907,180.531,102.503,180.025,102.124z"/>
			<path fill="#F7CAC9" d="M179.744,101.841l-1.5-1.5c-0.008,0.261,0.006,0.501,0.021,0.74c0.672,0.319,1.262,0.667,1.76,1.042
				L179.744,101.841z"/>
			<polyline fill="#F3776B" points="122.031,159.011 133.298,105.075 169.679,104.4 			"/>
			<polygon fill="#91A8CF" points="122.312,159.319 119.832,159.324 130.952,105.601 133.196,105.562 			"/>
			<polyline fill="#F3776B" points="125.857,169.925 129.876,151.491 159.525,128.712 			"/>
			<polygon fill="#91A8CF" points="125.939,170.402 123.566,171.221 127.035,153.454 130.073,151.241 			"/>
			<path fill="#DD4231" d="M156.7,206.629c0,18.331,14.223,16.922,19.434,16.922c5.209,0,2.014-14.097,2.014-32.428
				c0-18.332,2.1-32.021-2.014-33.956C171.245,154.869,156.7,188.297,156.7,206.629z"/>
			<path fill="#DD4231" d="M143.122,207.132c0,17.788-14.223,16.42-19.432,16.42s-4.545-13.956-2.016-31.466
				c2.939-20.35-3.193-32.949,2.016-32.949S143.122,189.344,143.122,207.132z"/>
			<path fill="#F7CAC9" stroke="#DDB5B4" stroke-miterlimit="10" d="M222.443,633.304c-1.193-5.543-9.195-4.303-13.84-5.26
				c-5.59-1.152-10.818-3.967-15.459-6.775c-5.246-3.174-9.303-4.842-9.701-11.965c-0.035-0.629-0.209-1.309-0.352-1.967
				l0.035-2.389l3.117-208.092c1.744-0.219,3.514-0.41,5.324-0.561c0.787-15.492,0.152-31.287,0.152-46.848
				c0-15.91,4.387-42.156,0.215-58.217v-0.864c5.785,8.211,4.488,25.387,6.496,35.331c3.08,15.244,7.245,29.01,7.405,45.611
				c0.092,9.52,2.971,17.016,1,25.822c-1.742,7.785-6.833,15.855-9.351,22.508c-2.268,5.998-8.156,8-7.219,14.223
				c1.436,9.516,8.363,4.873,10.395-2.045c1.582-0.455,4.074-0.428,5.674-0.021c0.396,7.76,0.07,14.734-2.85,20.848
				c-2.555,5.352-8.811,12.6,2.727,11.777c15.191-1.082,16.287-29.188,16.273-40.777c-0.041-40.406-4.268-82.045-10.977-120.023
				c-1.475-8.35-2.035-18.835-6.748-26.305c-4.146-6.571-11.523-11.363-16.596-17.358c-1.41-2.181-3.428-3.892-4.703-6.116
				c-11.953-20.836-11.736-23.644-11.699-40.239l-0.117,0.047c0.502-8.744,1.561-17.609,3.404-22.809
				c3.361-9.487,7.646-18.492,10.869-27.449c1.494-4.156,2.385-9.862,2.703-15.685c0.316-5.823,0.062-11.763-0.73-16.388
				c-0.893-5.206,0.443-14.911-1.379-19.977c-1.736-4.826-6.328-5.452-6.623-10.26c-3.217-1.525-8.227-2.398-13.287-2.484
				c-7.086-0.123-14.244,1.294-16.652,4.587c-2.406-3.292-9.564-4.709-16.65-4.587c-5.061,0.086-10.07,0.958-13.287,2.484
				c-0.297,4.808-4.887,5.434-6.623,10.26c-1.822,5.066-0.486,14.771-1.379,19.977c-0.793,4.625-1.047,10.565-0.73,16.388
				c0.318,5.822,1.209,11.528,2.703,15.685c3.223,8.957,7.508,17.962,10.869,27.449c3.275,9.241,4.074,30.053,3.68,41.192
				c-1.426,5.407-4.357,11.326-10.371,21.808c-1.275,2.225-3.293,3.936-4.703,6.116c-5.072,5.996-12.449,10.787-16.596,17.358
				c-4.713,7.47-5.273,17.955-6.748,26.305c-6.709,37.979-10.936,79.617-10.977,120.023c-0.014,11.59,1.082,39.695,16.273,40.777
				c11.537,0.822,5.281-6.426,2.727-11.777c-2.92-6.113-3.246-13.088-2.85-20.848c1.6-0.406,4.092-0.434,5.674,0.021
				c2.031,6.918,8.959,11.561,10.395,2.045c0.938-6.223-4.951-8.225-7.219-14.223c-2.518-6.652-2.264-16.188-4.006-23.973
				c-1.971-8.807,0.862-18.354,0.954-27.873c0.16-16.602-0.974-26.852,2.106-42.096c2.008-9.943,0.711-27.119,6.496-35.331v0.864
				c-4.172,16.061,0.215,42.307,0.215,58.217c0,15.561-0.635,31.355,0.152,46.848c1.811,0.15,3.58,0.342,5.324,0.561l3.117,208.092
				l0.035,2.389c-0.143,0.658-0.316,1.338-0.352,1.967c-0.398,7.123-4.455,8.791-9.701,11.965
				c-4.641,2.809-9.869,5.623-15.459,6.775c-4.645,0.957-12.646-0.283-13.84,5.26c-1.65,7.67,5.926,6.322,10.852,7.076
				c2.783,0.426,4.879,1.475,7.816,1.592c3.256,0.129,6.75-0.205,9.908-0.658c6.578-0.943,13.289-0.998,20.1-1.684
				c5.936-0.598,15.379,1.533,16.658-5.301c1.5-8.014-3.166-15.459-2.334-23.025l0.066-4.193h0.027l-0.014-0.939l0.014-0.904
				c-0.008,0-0.018,0-0.027-0.002l-3.066-204.719c3.023,0.375,6.146,0.658,9.42,0.799v0.104c0.039,0,0.08,0,0.119,0
				c0.711,0,1.396-0.023,2.092-0.039c0.695,0.016,1.381,0.039,2.092,0.039c0.039,0,0.08,0,0.119,0v-0.104
				c3.273-0.141,6.396-0.424,9.42-0.799l-3.066,204.719c-0.01,0.002-0.02,0.002-0.027,0.002l0.014,0.904l-0.014,0.939h0.027
				l0.066,4.193c0.832,7.566-3.834,15.012-2.334,23.025c1.279,6.834,10.723,4.703,16.658,5.301c6.811,0.686,13.521,0.74,20.1,1.684
				c3.158,0.453,6.652,0.787,9.908,0.658c2.938-0.117,5.033-1.166,7.816-1.592C216.518,639.626,224.094,640.974,222.443,633.304z"/>
		</g>
		<circle fill="#B18F6A" cx="145.938" cy="155.013" r="1.625"/>
		<circle fill="#B18F6A" cx="152.812" cy="155.013" r="1.625"/>
		<rect x="139.438" y="169.356" fill="#FFFFFF" width="4" height="2"/>
		<rect x="144.688" y="169.356" fill="#FFFFFF" width="4" height="2"/>
		<rect x="155.688" y="169.28" fill="#FFFFFF" width="4" height="2"/>
		<rect x="150.438" y="169.28" fill="#FFFFFF" width="4" height="2"/>
		<path fill="none" stroke="#F3776B" stroke-miterlimit="10" d="M164.312,168.318c-1.615-0.225-2.867,0.771-4.306,1
			c-1.083,0.173-2.345,0-3.444,0c-2.5,0-5,0-7.5,0h1c-2.5,0-5,0-7.5,0c-1.1,0-2.361,0.173-3.444,0c-1.438-0.229-2.69-1.225-4.306-1"
			/>
	</g>
	<polygon fill="#DD4231" points="193.089,307.669 166.587,307.669 140.942,308.294 115.337,308.294 88.796,307.669 91.097,293.208 
		94.587,277.295 109.712,261.42 119.647,248.282 137.161,262.244 155.804,277.105 174.446,291.966 	"/>
	<polygon fill="#015084" points="192.441,349.437 108.81,349.437 107.905,307.669 193.72,307.669 	"/>
	<polygon fill="#7CC253" points="191.811,410.515 171.419,410.515 151.028,410.515 136.951,410.515 109.432,396.296 
		109.396,395.554 109.04,379.976 109.147,364.798 108.179,349.437 130.638,349.448 151.028,349.448 171.419,349.448 
		191.811,349.448 191.811,364.714 191.811,379.981 191.811,395.249 	"/>
	<polygon fill="#DD4231" points="191.811,388.202 136.951,410.515 191.811,410.515 	"/>
	<rect x="155.181" y="410.515" fill="#F3776B" width="30.995" height="29.16"/>
	<rect x="155.181" y="439.476" fill="#FFFFFF" width="30.995" height="7.977"/>
	<rect x="155.181" y="447.831" fill="#015084" width="30.995" height="22.826"/>
	<rect x="155.181" y="470.712" fill="#F3776B" width="30.995" height="15.156"/>
	<rect x="155.181" y="485.669" fill="#FFFFFF" width="30.995" height="7.979"/>
	<rect x="155.181" y="493.313" fill="#F3776B" width="30.995" height="7.979"/>
	<rect x="155.181" y="500.671" fill="#7CC253" width="30.995" height="53.152"/>
	<rect x="155.181" y="553.823" fill="#015084" width="30.995" height="52.846"/>
	<polygon fill="#015084" points="102.256,349.448 78.326,349.323 88.796,307.669 108.179,307.669 	"/>
	<rect x="78.326" y="349.323" fill="#7CC253" width="23.93" height="61.191"/>
	<line fill="#91A8CF" x1="107.88" y1="307.669" x2="102.88" y2="312.003"/>
	<rect x="98.88" y="307.669" fill="#DD4231" width="11" height="4.334"/>
	<rect x="126.88" y="307.669" fill="#DD4231" width="11" height="4.334"/>
	<rect x="156.546" y="307.669" fill="#DD4231" width="11" height="4.334"/>
	<rect x="143.213" y="304.503" fill="#015084" width="8.167" height="4.332"/>
	<rect x="173.213" y="304.335" fill="#015084" width="8.167" height="4.334"/>
	<rect x="113.713" y="304.335" fill="#015084" width="8.167" height="4.334"/>
	<polygon fill="#015084" points="95.963,309.837 88.796,309.837 88.796,305.503 95.963,306.681 	"/>
	<polygon fill="#DD4231" points="193.089,313.003 186.213,312.003 186.213,305.503 194.089,307.669 	"/>
	<g>
		<polygon fill="#FFFFFF" points="133.485,317.237 119.591,305.237 104.692,317.237 89.796,305.503 90.051,301.112 104.692,312.101 
			119.591,300.101 133.485,312.101 148.385,300.101 163.279,312.101 178.184,300.101 193.089,313.003 193.089,317.237 
			179.184,305.237 164.279,317.237 148.385,305.237 		"/>
	</g>
	<rect x="111.337" y="345.544" fill="#7CC253" width="10.543" height="5.5"/>
	<rect x="140.837" y="345.544" fill="#7CC253" width="10.543" height="5.5"/>
	<rect x="170.587" y="345.544" fill="#7CC253" width="10.543" height="5.5"/>
	<rect x="125.962" y="347.419" fill="#015084" width="10.543" height="5.5"/>
	<rect x="155.647" y="347.419" fill="#015084" width="10.543" height="5.5"/>
	<rect x="80.712" y="344.669" fill="#7CC253" width="10.543" height="5.5"/>
	<polygon fill="#015084" points="102.256,353.03 95.963,352.294 94.773,347.419 102.256,347.419 	"/>
	<polygon fill="#FFFFFF" points="86.351,340.13 82.142,343.517 77.934,346.905 77.63,349.718 77.326,352.532 81.839,348.899 
		86.351,345.267 93.804,351.267 101.256,357.267 101.256,355.147 102.256,353.03 93.804,346.579 	"/>
	<polygon fill="#015084" points="192.026,353.78 185.213,351.919 183.212,344.669 192.026,344.669 	"/>
	<polygon fill="#FFFFFF" points="177.121,340.88 162.217,352.88 147.322,340.88 133.423,352.88 117.528,340.88 107.959,348.587 
		108.408,353.56 118.528,346.017 132.423,358.017 148.322,346.017 162.217,358.017 177.121,346.017 192.026,358.017 192.026,353.78 
			"/>
	<polygon fill="#7CC253" points="166.745,558.419 163.245,558.419 160.956,550.308 168.745,550.308 	"/>
	<polygon fill="#7CC253" points="186.495,558.419 181.762,556.419 180.169,550.308 186.495,550.308 	"/>
	<polygon fill="#015084" points="155.257,548.417 159.308,552.233 161.421,559.419 155.197,559.419 	"/>
	<polygon fill="#015084" points="181.688,557.677 171.495,558.419 171.495,550.669 177.245,550.669 	"/>
	<g>
		<polygon fill="#FFFFFF" points="165.507,562.89 154.995,550.669 155.181,544.759 165.509,556.759 175.842,544.759 
			186.495,558.419 186.176,562.89 175.842,550.888 		"/>
	</g>
	<rect x="113.095" y="594.71" fill="#015084" width="33.468" height="7.295"/>
	
		<rect x="113.095" y="582.917" fill="#FFFFFF" stroke="#E6E7E8" stroke-width="0.6973" stroke-miterlimit="10" width="33.208" height="7.5"/>
	<polygon fill="#91A8CF" points="129.116,155.013 122.031,159.011 122.031,155.747 129.876,151.491 	"/>
	<circle fill="#FFFFFF" cx="167.938" cy="139.049" r="9"/>
	<polyline fill="#F3776B" points="123.131,158.682 134.397,104.746 170.778,104.071 	"/>
	<polygon fill="#91A8CF" points="123.411,158.99 120.932,158.995 132.052,105.271 134.296,105.233 	"/>
	<polyline fill="#F3776B" points="126.957,169.596 130.976,151.162 160.625,128.383 	"/>
	<polygon fill="#91A8CF" points="127.039,170.073 124.666,170.892 128.135,153.125 131.173,150.912 	"/>
	<circle fill="#FFFFFF" cx="130.438" cy="139.049" r="9"/>
	<circle fill="#91A8CF" cx="130.438" cy="138.892" r="3.5"/>
	<circle fill="#7CC253" cx="168.016" cy="138.892" r="5.5"/>
	<circle fill="#090A11" cx="168.016" cy="138.892" r="3.5"/>
	<circle fill="#090A11" cx="130.438" cy="138.892" r="1"/>
	<g>
		<path fill="#DD4231" d="M173.861,196.253c-0.071,0.282-0.122,0.525-0.144,0.707C173.771,196.753,173.818,196.511,173.861,196.253z
			"/>
		<path fill="#DD4231" d="M201.518,99.515c-2.949-5.798-13.49-9.237-18.918-13.928c-12.291-10.621-19.514-10.687-32.944-9.695
			c-13.431-0.992-20.653-0.926-32.944,9.695c-5.428,4.691-15.969,8.13-18.918,13.928c-3.105,6.105,0.043,20.79,0.792,27.212
			c0.989,8.495,5.655,16.225,7.353,25.021c1.614,8.375,6.006,16.524,9.134,24.286c0.782,1.936,2.884,8.835,4.227,10.67
			c1.382,1.89,3.246,2.095,3.801,3.153c0.598,1.141,2.335,5.746,2.494,7.103l0.921,0.513c-0.709-2.735-1.387-10.825-2.389-14.366
			c-3.568-12.616-3.152-7.519-4.51-16.405c-2.714-17.776-5.537-30.659,0.788-47.853c3.454-9.396,3.08-11.808,15.93-11.198
			c6.294,0.299,9.411,0.278,13.322,0.14c3.911,0.139,7.027,0.159,13.322-0.14c12.85-0.61,12.476,1.802,15.93,11.198
			c6.325,17.194,3.502,30.076,0.788,47.853c-1.357,8.886-0.941,3.789-4.51,16.405c-0.927,3.273-0.79,9.989-1.324,13.146
			c0.462-1.824,1.833-5.408,2.351-6.396c0.555-1.058,2.419-1.263,3.801-3.153c1.343-1.835,3.444-8.734,4.227-10.67
			c3.128-7.761,7.52-15.911,9.134-24.286c1.697-8.796,6.363-16.526,7.353-25.021C201.475,120.305,204.623,105.62,201.518,99.515z"/>
	</g>
</g>
</svg>
