<?xml version="1.0" encoding="utf-8"?>
<!-- Generator: Adobe Illustrator 16.0.0, SVG Export Plug-In . SVG Version: 6.00 Build 0)  -->
<!DOCTYPE svg PUBLIC "-//W3C//DTD SVG 1.1//EN" "http://www.w3.org/Graphics/SVG/1.1/DTD/svg11.dtd">
<svg version="1.1" id="Layer_1" xmlns="http://www.w3.org/2000/svg" xmlns:xlink="http://www.w3.org/1999/xlink" x="0px" y="0px"
	 width="300px" height="660px" viewBox="0 0 300 660" enable-background="new 0 0 300 660" xml:space="preserve">
<g>
	<path fill="#F7CAC9" d="M115.568,127.961c-6.369,0-11.531,5.163-11.531,11.532s5.162,11.532,11.531,11.532V127.961z"/>
	<path fill="#F7CAC9" d="M182.432,126.961c6.369,0,11.533,5.163,11.533,11.532s-5.164,11.532-11.533,11.532V126.961z"/>
	<g>
		<path fill="#F3776B" d="M126.08,148.782h-5.463c0.029,0.037,0.066,0.076,0.084,0.111c3.107,6.215-0.971,16.367-1.604,22.662
			c-0.686,6.836-3.146,25.469,9.746,20.951c8.277-2.9,2.295-15.195,1.23-21.877C128.852,162.943,128.479,155.614,126.08,148.782z"/>
		<path fill="#F3776B" d="M177.299,149.893c0.018-0.035,0.057-0.074,0.084-0.111h-5.461c-2.398,6.832-2.771,14.161-3.996,21.847
			c-1.064,6.682-7.047,18.977,1.232,21.877c12.891,4.518,10.43-14.115,9.744-20.951C178.271,166.26,174.193,156.108,177.299,149.893
			z"/>
	</g>
	<path fill="#F7CAC9" stroke="#DDB5B4" stroke-miterlimit="10" d="M221.631,630.118c-1.193-5.543-9.195-4.303-13.84-5.26
		c-5.59-1.152-10.818-3.967-15.459-6.775c-5.246-3.174-9.303-4.842-9.701-11.965c-0.035-0.629-0.209-1.309-0.352-1.967l0.035-2.389
		l3.117-208.092c1.744-0.219,3.514-0.41,5.324-0.561c0.787-15.492-17.455-30.888-17.455-46.45c0-15.908,21.994-42.554,17.822-58.615
		v-0.864c5.785,8.213,4.488,25.389,6.496,35.332c3.08,15.244,7.021,23.55,7.182,40.153c0.092,9.52,3.637,21.638,1.666,30.444
		c-1.742,7.785-3.812,16.729-6.33,23.382c-2.268,5.998-11.619,7.962-10.682,14.185c1.436,9.516,8.363,4.873,10.395-2.045
		c1.582-0.455,4.074-0.428,5.674-0.021c0.396,7.76,0.07,14.734-2.85,20.848c-2.555,5.352-8.811,12.6,2.727,11.777
		c15.191-1.082,16.287-29.188,16.273-40.777c-0.041-40.406-4.268-82.045-10.977-120.023c-1.475-8.35-5.512-18.297-10.225-25.767
		c-4.146-6.571-8.047-11.901-13.119-17.897c-1.41-2.181-3.428-3.892-4.703-6.116c-11.953-20.836-11.736-23.644-11.699-40.239
		l-0.117,0.047c0.502-8.743,1.561-17.608,3.404-22.809c3.361-9.486,7.646-18.492,10.869-27.449
		c1.494-4.156,2.385-9.861,2.703-15.684c0.316-5.824,0.062-11.764-0.73-16.389c-0.893-5.205,0.443-14.911-1.379-19.977
		c-1.736-4.826-6.328-5.453-6.623-10.26c-3.217-1.525-8.227-2.398-13.287-2.484c-7.086-0.123-14.244,1.294-16.652,4.586
		c-2.406-3.292-9.564-4.709-16.65-4.586c-5.061,0.086-10.07,0.958-13.287,2.484c-0.297,4.807-4.887,5.434-6.623,10.26
		c-1.822,5.065-0.486,14.771-1.379,19.977c-0.793,4.625-1.047,10.564-0.73,16.389c0.318,5.822,1.209,11.527,2.703,15.684
		c3.223,8.957,7.508,17.963,10.869,27.449c3.275,9.241,4.074,30.054,3.68,41.193c-1.426,5.406-4.357,11.326-10.371,21.808
		c-1.275,2.225-3.293,3.936-4.703,6.116c-5.072,5.996-3.195,11.326-7.342,17.897c-4.713,7.47-14.527,17.417-16.002,25.767
		c-6.709,37.979-10.936,79.617-10.977,120.023c-0.014,11.59,1.082,39.695,16.273,40.777c11.537,0.822,5.281-6.426,2.727-11.777
		c-2.92-6.113-3.246-13.088-2.85-20.848c1.6-0.406,4.092-0.434,5.674,0.021c2.031,6.918,8.959,11.561,10.395,2.045
		c0.938-6.223-7.807-8.353-10.074-14.351c-2.518-6.652-6.928-16.208-8.67-23.993c-1.971-8.807,0.408-23.813,0.5-33.333
		c0.16-16.604,7-21.243,10.08-36.487c2.008-9.943,0.711-27.119,6.496-35.332v0.864c-4.172,16.062,15.09,41.54,15.09,57.448
		c0,15.562-15.51,32.125-14.723,47.617c1.811,0.15,3.58,0.342,5.324,0.561l3.117,208.092l0.035,2.389
		c-0.143,0.658-0.316,1.338-0.352,1.967c-0.398,7.123-4.455,8.791-9.701,11.965c-4.641,2.809-9.869,5.623-15.459,6.775
		c-4.645,0.957-12.646-0.283-13.84,5.26c-1.65,7.67,5.926,6.322,10.852,7.076c2.783,0.426,4.879,1.475,7.816,1.592
		c3.256,0.129,6.75-0.205,9.908-0.658c6.578-0.943,13.289-0.998,20.1-1.684c5.936-0.598,15.379,1.533,16.658-5.301
		c1.5-8.014-3.166-15.459-2.334-23.025l0.066-4.193h0.027l-0.014-0.939l0.014-0.904c0,0-0.018,0-0.027-0.002l-3.066-204.719
		c3.023,0.375,6.146,0.658,9.42,0.799v0.104c0.039,0,0.08,0,0.119,0c0.711,0,1.396-0.023,2.092-0.039
		c0.695,0.016,1.381,0.039,2.092,0.039c0.039,0,0.08,0,0.119,0v-0.104c3.273-0.141,6.396-0.424,9.42-0.799l-3.066,204.719
		c-0.01,0.002-0.02,0.002-0.027,0.002l0.014,0.904l-0.014,0.939h0.027l0.066,4.193c0.832,7.566-3.834,15.012-2.334,23.025
		c1.279,6.834,10.723,4.703,16.658,5.301c6.811,0.686,13.521,0.74,20.1,1.684c3.158,0.453,6.652,0.787,9.908,0.658
		c2.938-0.117,5.033-1.166,7.816-1.592C215.705,636.44,223.281,637.788,221.631,630.118z"/>
	<g>
		<circle fill="#FFFFFF" cx="168.75" cy="134.993" r="9"/>
		<circle fill="#FFFFFF" cx="131.25" cy="134.993" r="9"/>
		<circle fill="#91A8CF" cx="131.25" cy="134.836" r="3.5"/>
		<circle fill="#7CC253" cx="168.828" cy="134.836" r="5.5"/>
		<circle fill="#090A11" cx="168.828" cy="134.836" r="3.5"/>
		<circle fill="#090A11" cx="131.25" cy="134.836" r="1"/>
	</g>
	<path fill="#F3776B" d="M124.506,83.461"/>
	<path fill="#F3776B" d="M131.6,76.557c3.379-0.782,11.049-1.718,14.529-1.613c2.725,0.082,11.659,1.354,14.329,1.649
		c2.566,0.284,8.119,1.624,10.632,2.409c3.155,0.987-6.185-1.594,3.037,0.761c1.988,0.507,2.911,0.38,7.85,5.199
		c0,0,1.253,3.38,1.543,4.312c1.369,8.877-0.299,11.587-1.543,13.543c-2.095,3.293-8.114,4.141-11.777,5.318
		c-5.306,1.705-12.218,7.027-17.778,7.027c-8.12,0.001-14.971-6.597-23.002-4.83c-2.116,0.465-4.138,0.4-6.04,1.258
		c-2.537,1.144-4.877,3.223-6.71,5.349c-3.174,3.686-4.526,7.866-4.526,12.49c0,4.64-0.461,9.263-0.787,13.889
		c-0.148,2.101-0.515,4.386-0.24,6.479c0.131,1,0.773,5.053,0.202,3.325c-1.3-3.919-2.059-8.635-1.813-9.584
		c0.554-2.146-0.081,0.854-0.139-1.305c-0.066-2.577-0.878-19.961-0.878-22.539c0-8.168-4.074-13.417,1.315-23.917
		c6.081-11.847,1.845-6.771,12.685-15.634"/>
	<path fill="#F3776B" d="M184.361,125.395c0.551,2.531,0.658,5.232,1.379,7.774c0.387,1.363,1.023,15.249,1.057,20.402
		c1.389-4.823,4.217-21.194,4.217-26.198c0-7.156,0.498-14.602-1.908-21.468c-0.844-2.407-5.971-10-7.717-4.987l-0.375,0.625
		c0,3.451-0.15,6.84,0.631,10.231c0.525,2.284,1.252,4.487,1.893,6.73"/>
	<g>
		<circle fill="#B18F6A" cx="146.562" cy="152.503" r="1.625"/>
		<circle fill="#B18F6A" cx="153.438" cy="152.503" r="1.625"/>
	</g>
	<polygon points="142.242,611.758 117.137,611.758 109.244,393.11 147.789,398.263 	"/>
	<path d="M144.459,620.425c-0.805-5.479-2.088-10.497-2.123-14.196c-5.779-0.266-17.162-3.311-22.416-1.064
		c-2.568,1.098-10.439,7.469-13.283,9.322c-3.084,2.014-5.291,4.047-8.879,5.219c-0.791,0.26-1.68,0.493-2.637,0.72H82.965
		c-7.305,0-13.225,8.364-13.225,18.687h0.031C69.576,641.995,77.775,642,85.055,642h43.848c0.195,0,0.387-0.005,0.58-0.006V642
		h13.082l1.947-2.889h0.062v-18.687H144.459z"/>
	<path d="M155.541,620.425c0.805-5.479,2.088-10.497,2.123-14.196c5.779-0.266,17.162-3.311,22.416-1.064
		c2.568,1.098,10.439,7.469,13.283,9.322c3.084,2.014,5.291,4.047,8.879,5.219c0.791,0.26,1.68,0.493,2.637,0.72h12.156
		c7.305,0,13.225,8.364,13.225,18.687h-0.031c0.195,2.884-8.004,2.889-15.283,2.889h-43.848c-0.195,0-0.387-0.005-0.58-0.006V642
		h-13.082l-1.947-2.889h-0.062v-18.687H155.541z"/>
	<polygon points="157.793,611.758 182.803,611.758 190.789,393.11 152.244,398.263 	"/>
	<g>
		<rect x="139.875" y="165.534" fill="#FFFFFF" width="4" height="2"/>
		<rect x="145.125" y="165.534" fill="#FFFFFF" width="4" height="2"/>
		<rect x="156.125" y="165.458" fill="#FFFFFF" width="4" height="2"/>
		<rect x="150.875" y="165.458" fill="#FFFFFF" width="4" height="2"/>
		<path fill="none" stroke="#F3776B" stroke-miterlimit="10" d="M164.75,164.496c-1.615-0.225-2.867,0.771-4.305,1
			c-1.084,0.173-2.346,0-3.445,0c-2.5,0-5,0-7.5,0h1c-2.5,0-5,0-7.5,0c-1.1,0-2.361,0.173-3.443,0c-1.439-0.229-2.691-1.225-4.307-1
			"/>
	</g>
	<path fill="#B18F68" d="M178.135,254.769c0,18.131-12.797,32.83-28.582,32.83c-15.787,0-28.584-14.699-28.584-32.83l-3.83,6.899
		l-8.078,114.789h81.879l-7.467-113.123L178.135,254.769z"/>
	<rect x="108.863" y="382.819" width="81.926" height="15.404"/>
	<path fill="#F7CAC9" stroke="#9693A2" stroke-width="8" stroke-miterlimit="10" d="M149.551,289.352
		c15.785,0,28.584-12.797,28.584-28.583h-57.168C120.967,276.555,133.764,289.352,149.551,289.352z"/>
	<rect x="114.307" y="254.769" fill="#F7CAC9" width="70.332" height="10.223"/>
	<path fill="none" stroke="#F9DF3C" stroke-miterlimit="10" d="M127.264,230.918c0.578,1.63,0.793,3.856,1.896,5.351
		c1.031,1.397,2.277,2.794,3.857,3.621c3.066,1.604,6.004,3.591,8.875,5.504c1.594,1.063,2.906,1.877,5.064,2.149
		c2.9,0.366,5.531,0.034,8.33-0.615c3.881-0.9,6.111-3.255,9.174-5.527c2.053-1.522,4.053-3.773,5.961-5.538
		c0.77-0.712,2.307-3.018,2.266-4.228"/>
	<polygon fill="#F9DF3C" points="151.051,250.474 149.969,250.474 149.969,249.067 149.135,249.067 149.135,250.474 
		148.051,250.474 148.051,251.308 149.135,251.308 149.135,253.918 149.969,253.918 149.969,251.308 151.051,251.308 	"/>
	<rect x="146.014" y="374.043" fill="#B18F68" width="9.5" height="9.414"/>
	<polygon points="149.551,384.457 149.059,382.665 149.059,382.668 135.473,296.836 126.863,231.635 118.055,244.401 
		109.244,257.168 101.859,267.11 94.473,277.053 94.779,277.111 89.473,287.16 84.473,309.199 80.807,357.714 77.139,406.229 
		83.236,406.229 89.334,406.229 95.432,406.229 101.529,406.229 102.846,374.836 104.164,343.443 105.482,312.051 106.801,303.945 
		106.801,384.457 	"/>
	<polygon points="150,384.457 150.494,382.665 150.492,382.668 164.078,296.836 172.688,231.635 181.498,244.401 190.307,257.168 
		197.693,267.11 205.078,277.053 204.773,277.111 210.078,287.16 215.078,309.199 218.746,357.714 222.412,406.229 216.314,406.229 
		210.217,406.229 204.119,406.229 198.023,406.229 196.705,374.836 195.387,343.443 194.068,312.051 192.75,303.945 192.75,384.457 
			"/>
</g>
</svg>
