<?xml version="1.0" encoding="utf-8"?>
<!-- Generator: Adobe Illustrator 16.0.0, SVG Export Plug-In . SVG Version: 6.00 Build 0)  -->
<!DOCTYPE svg PUBLIC "-//W3C//DTD SVG 1.1//EN" "http://www.w3.org/Graphics/SVG/1.1/DTD/svg11.dtd">
<svg version="1.1" id="Layer_1" xmlns="http://www.w3.org/2000/svg" xmlns:xlink="http://www.w3.org/1999/xlink" x="0px" y="0px"
	 width="300px" height="660px" viewBox="0 0 300 660" enable-background="new 0 0 300 660" xml:space="preserve">
<g>
	<g>
		<path fill="#F6CAC9" d="M115.193,130.326c-6.369,0-11.531,5.163-11.531,11.532c0,6.369,5.162,11.532,11.531,11.532V130.326z"/>
		<path fill="#F6CAC9" d="M182.057,129.326c6.369,0,11.533,5.163,11.533,11.532c0,6.369-5.164,11.532-11.533,11.532V129.326z"/>
		<path fill="#F6CAC9" stroke="#DDB5B4" stroke-miterlimit="10" d="M221.256,632.483c-1.193-5.543-9.195-4.303-13.84-5.26
			c-5.59-1.151-10.818-3.967-15.459-6.774c-5.246-3.175-9.303-4.843-9.701-11.966c-0.035-0.629-0.209-1.309-0.352-1.967l0.035-2.389
			l3.117-208.093c1.743-0.219,3.514-0.409,5.323-0.561c0.787-15.492-17.455-30.888-17.455-46.449
			c0-15.908,21.994-42.555,17.822-58.615v-0.864c5.785,8.213,4.487,25.389,6.496,35.332c3.08,15.243,7.021,23.55,7.182,40.153
			c0.093,9.52,3.638,21.638,1.666,30.443c-1.741,7.785-0.118,12.753-2.636,19.405c-2.268,5.998-15.312,11.938-14.376,18.161
			c1.437,9.516,8.362,4.873,10.396-2.045c1.582-0.455,4.073-0.429,5.674-0.021c0.396,7.76,0.069,14.734-2.851,20.848
			c-2.555,5.353-8.812,12.601,2.728,11.777c15.19-1.082,16.287-29.188,16.272-40.777c-0.041-40.405-4.269-82.045-10.978-120.022
			c-1.475-8.351-5.512-18.297-10.225-25.767c-4.146-6.571-8.047-11.901-13.119-17.897c-1.41-2.181-3.428-3.892-4.703-6.116
			c-11.953-20.836-11.735-23.644-11.698-40.238l-0.117,0.047c0.502-8.743,1.562-17.608,3.403-22.81
			c3.361-9.486,7.646-18.492,10.869-27.449c1.494-4.156,2.386-9.861,2.703-15.684c0.316-5.824,0.062-11.764-0.729-16.389
			c-0.894-5.205,0.442-14.911-1.379-19.977c-1.736-4.826-6.328-5.453-6.623-10.26c-3.218-1.525-8.228-2.398-13.287-2.484
			c-7.086-0.123-14.244,1.294-16.651,4.586c-2.406-3.292-9.564-4.709-16.65-4.586c-5.061,0.086-10.07,0.958-13.287,2.484
			c-0.297,4.807-4.887,5.434-6.623,10.26c-1.822,5.065-0.486,14.771-1.379,19.977c-0.793,4.625-1.047,10.564-0.73,16.389
			c0.318,5.822,1.209,11.527,2.703,15.684c3.223,8.957,7.508,17.963,10.869,27.449c3.275,9.241,4.074,30.054,3.68,41.193
			c-1.426,5.405-4.357,11.325-10.371,21.808c-1.274,2.225-3.293,3.936-4.703,6.116c-5.071,5.996-3.194,11.326-7.342,17.897
			c-4.713,7.47-14.527,17.416-16.002,25.767c-6.709,37.979-10.936,79.616-10.977,120.022c-0.014,11.591,1.082,39.695,16.273,40.777
			c11.537,0.822,5.28-6.426,2.727-11.777c-2.92-6.112-3.246-13.088-2.85-20.848c1.6-0.406,4.092-0.434,5.674,0.021
			c2.031,6.918,8.959,11.561,10.395,2.045c0.938-6.224-14.611-13.33-16.88-19.328c-2.519-6.652-0.122-11.23-1.864-19.016
			c-1.971-8.808,0.408-23.813,0.5-33.334c0.16-16.604,7-21.242,10.08-36.486c2.008-9.943,0.711-27.119,6.496-35.332v0.863
			c-4.172,16.062,15.09,41.541,15.09,57.449c0,15.562-15.51,32.125-14.723,47.616c1.811,0.149,3.58,0.343,5.324,0.562l3.117,208.092
			l0.035,2.389c-0.144,0.658-0.316,1.338-0.353,1.967c-0.397,7.123-4.455,8.791-9.701,11.965c-4.642,2.81-9.869,5.623-15.459,6.775
			c-4.646,0.957-12.646-0.283-13.84,5.26c-1.649,7.67,5.926,6.322,10.853,7.076c2.782,0.426,4.879,1.476,7.815,1.592
			c3.256,0.129,6.75-0.205,9.907-0.657c6.578-0.943,13.289-0.998,20.101-1.685c5.937-0.598,15.379,1.533,16.658-5.301
			c1.5-8.014-3.166-15.459-2.334-23.025l0.065-4.192h0.027l-0.014-0.939l0.014-0.904c0,0-0.018,0-0.027-0.002l-3.065-204.719
			c3.022,0.375,6.146,0.658,9.42,0.799v0.104c0.039,0,0.08,0,0.119,0c0.711,0,1.396-0.023,2.092-0.039
			c0.694,0.016,1.381,0.039,2.092,0.039c0.039,0,0.08,0,0.119,0v-0.104c3.272-0.141,6.396-0.424,9.42-0.799l-3.065,204.719
			c-0.01,0.002-0.021,0.002-0.027,0.002l0.014,0.904l-0.014,0.939h0.027l0.065,4.192c0.832,7.566-3.834,15.013-2.334,23.025
			c1.279,6.834,10.724,4.703,16.658,5.301c6.812,0.687,13.521,0.74,20.101,1.685c3.157,0.452,6.651,0.786,9.907,0.657
			c2.938-0.116,5.033-1.166,7.815-1.592C215.33,638.806,222.906,640.153,221.256,632.483z"/>
		<circle fill="#FFFFFF" cx="168.375" cy="137.359" r="9"/>
		<circle fill="#FFFFFF" cx="130.875" cy="137.359" r="9"/>
		<circle fill="#91A8CE" cx="130.875" cy="137.202" r="3.5"/>
		<circle fill="#7DC353" cx="168.453" cy="137.202" r="5.5"/>
		<circle fill="#0E0F13" cx="168.453" cy="137.202" r="3.5"/>
		<circle fill="#0E0F13" cx="130.875" cy="137.202" r="1"/>
		<circle fill="#B18F6B" cx="146.188" cy="154.869" r="1.625"/>
		<circle fill="#B18F6B" cx="153.062" cy="154.869" r="1.625"/>
		<rect x="139.5" y="167.9" fill="#FFFFFF" width="4" height="2"/>
		<rect x="144.75" y="167.9" fill="#FFFFFF" width="4" height="2"/>
		<rect x="155.75" y="167.823" fill="#FFFFFF" width="4" height="2"/>
		<rect x="150.5" y="167.823" fill="#FFFFFF" width="4" height="2"/>
		<path fill="none" stroke="#F3776B" stroke-miterlimit="10" d="M164.375,166.861c-1.615-0.225-2.867,0.771-4.305,1
			c-1.084,0.173-2.346,0-3.445,0c-2.5,0-5,0-7.5,0h1c-2.5,0-5,0-7.5,0c-1.1,0-2.361,0.173-3.443,0c-1.438-0.229-2.69-1.225-4.307-1"
			/>
		<path fill="none" stroke="#F3776B" stroke-miterlimit="10" d="M159.363,124.357c3.232-5.575,9.205-3.979,15-4"/>
		<path fill="none" stroke="#F3776B" stroke-miterlimit="10" d="M122.012,125.454c3.229-5.574,9.204-3.979,15-4"/>
		<polygon fill="#010101" points="144.801,616.089 133.551,616.089 125.301,616.089 117.051,616.089 91.3,616.089 95.466,582.882 
			101.633,513.883 104.91,466.895 108.801,385.089 117.051,385.089 125.301,385.089 133.551,385.089 141.801,385.089 
			153.18,384.262 141.98,488.089 142.734,590.895 		"/>
		<path fill="#FFFFFF" stroke="#E7E7E7" stroke-width="1.1522" stroke-miterlimit="10" d="M130.518,241.119
			c23.691,11.976,25.73,69.002,19.854,95.427c-11.271,0.53-13.082,0.356-16.802-11.853c-2.713-8.901-7.963-18.541-9.606-26.774
			c-1.696-8.507-1.11-21.349-1.44-30.246c-0.521-13.979,1.729-17.204,5.996-26.554H130.518z"/>
		<path fill="#FFFFFF" stroke="#E7E7E7" stroke-width="1.1522" stroke-miterlimit="10" d="M166.369,241.839
			c-23.691,11.976-25.73,69.002-19.854,95.426c11.271,0.53,13.082,0.356,16.801-11.853c2.713-8.901,7.963-18.541,9.606-26.774
			c1.697-8.506,1.111-21.349,1.44-30.246c0.521-13.979-1.729-17.204-5.995-26.553H166.369z"/>
		<polygon fill="#010101" points="154.848,616.422 166.098,616.422 174.348,616.422 182.598,616.422 208.348,616.422 
			204.182,583.215 198.016,514.216 194.736,467.228 190.848,385.422 182.598,385.422 174.348,385.422 166.098,385.422 
			157.848,385.422 146.468,384.595 157.667,488.422 156.913,591.228 		"/>
		<path fill="#010101" d="M144.959,620.423c-0.805-5.479-2.088-10.497-2.123-14.196c-5.779-0.266-17.162-3.311-22.416-1.063
			c-2.568,1.098-10.439,7.469-13.283,9.321c-3.084,2.015-5.291,4.047-8.879,5.22c-0.791,0.26-1.68,0.492-2.637,0.72H83.465
			c-7.305,0-13.225,8.364-13.225,18.687h0.031c-0.195,2.885,8.004,2.89,15.283,2.89h43.848c0.195,0,0.387-0.005,0.58-0.006V642
			h13.082l1.947-2.89h0.062v-18.687L144.959,620.423L144.959,620.423z"/>
		<path fill="#010101" d="M155.041,620.423c0.805-5.479,2.088-10.497,2.123-14.196c5.779-0.266,17.162-3.311,22.416-1.063
			c2.568,1.098,10.439,7.469,13.283,9.321c3.084,2.015,5.291,4.047,8.879,5.22c0.791,0.26,1.68,0.492,2.637,0.72h12.156
			c7.305,0,13.225,8.364,13.225,18.687h-0.031c0.195,2.885-8.004,2.89-15.283,2.89h-43.848c-0.195,0-0.387-0.005-0.58-0.006V642
			h-13.082l-1.947-2.89h-0.062v-18.687L155.041,620.423L155.041,620.423z"/>
		<polygon fill="#FFFFFF" points="190.795,385.796 108.801,385.089 107.458,281.009 192.124,281.009 		"/>
		<polygon fill="#FFFFFF" stroke="#E7E7E7" stroke-width="2" stroke-miterlimit="10" points="225.292,417.083 209.294,281.418 
			208.732,281.357 209.294,281.347 173.953,240.085 173.124,282.017 189.177,281.72 201.126,417.083 		"/>
		<polygon fill="#010101" stroke="#595A5C" stroke-miterlimit="10" points="191.197,385.839 170.785,388.904 150.373,391.969 
			150.373,323.719 176.562,241.869 184.594,251.705 192.625,261.539 191.911,323.689 		"/>
		<polygon fill="#FFFFFF" stroke="#E7E7E7" stroke-miterlimit="10" points="159.646,248.095 175.646,264.095 175.646,221.095 		"/>
		<polygon fill="#FFFFFF" stroke="#E7E7E7" stroke-width="2" stroke-miterlimit="10" points="73.039,418.083 89.037,282.418 
			89.6,282.357 89.037,282.347 124.378,241.085 125.207,283.017 109.154,282.72 97.205,418.083 		"/>
		<polygon fill="#010101" stroke="#595A5C" stroke-miterlimit="10" points="108.801,385.839 129.213,388.904 149.625,391.969 
			149.625,323.719 123.438,241.869 115.404,251.705 107.373,261.539 108.087,323.689 		"/>
		<polygon fill="#FFFFFF" stroke="#E7E7E7" stroke-miterlimit="10" points="138.908,248.094 122.908,264.095 122.908,221.094 		"/>
		<circle fill="#595A5C" cx="149.791" cy="330.402" r="3"/>
		<circle fill="#595A5C" cx="149.791" cy="347.467" r="3"/>
		<circle fill="#595A5C" cx="149.625" cy="364.531" r="3"/>
		<circle fill="#595A5C" cx="149.625" cy="381.595" r="3"/>
		<path fill="#F3776B" d="M180.228,75.507l-20.076,0.005c-3.493-0.09-8.306,2.802-11.401,2.828
			c-3.096-0.026-7.826-2.918-11.319-2.828l-20.076-0.005c-21.5,3.436-11.25,31.182-11.25,38.908c0,2.438,3.142,22.312,3.207,24.75
			c0.036,1.271,0.295,0.653,0.353,0.493c-0.022,0.069-0.085,0.271-0.213,0.741c-0.246,0.898,0.512,5.359,1.812,9.066
			c0.57,1.635-0.071-2.2-0.202-3.146c-0.274-1.98,0.092-4.141,0.239-6.129c0.326-4.375,0.787-8.749,0.787-13.138
			c0-4.374,1.353-8.328,4.526-11.814c1.833-2.011,4.173-3.978,6.71-5.06c1.902-0.812,3.924-0.75,6.04-1.19
			c6.536-1.36,12.906-1.803,19.427-1.923c6.521,0.12,12.891,0.562,19.427,1.923c2.116,0.439,4.138,0.378,6.04,1.19
			c2.537,1.082,4.877,3.049,6.71,5.06c3.174,3.487,4.526,7.44,4.526,11.814c0,4.39,0.461,8.763,0.787,13.138
			c0.147,1.988,0.514,4.149,0.239,6.129c-0.131,0.946-0.772,4.78-0.202,3.146c1.301-3.708,2.059-8.168,1.812-9.066
			c-0.128-0.469-0.19-0.671-0.213-0.741c0.058,0.16,0.316,0.777,0.353-0.493c0.065-2.438,3.207-22.312,3.207-24.75
			C191.478,106.689,201.728,78.943,180.228,75.507z"/>
	</g>
	<path opacity="0.7" fill="#F9E03C" d="M180.228,75.507l-20.076,0.005c-3.493-0.09-8.224,2.802-11.319,2.828
		c-0.026,0-0.056-0.004-0.082-0.005c-0.026,0-0.056,0.005-0.082,0.005c-3.096-0.026-7.826-2.918-11.319-2.828l-20.076-0.005
		c-0.747,0.12-1.448,0.275-2.12,0.451v41.01c0.42-0.587,0.867-1.167,1.38-1.729c1.833-2.011,4.173-3.978,6.71-5.06
		c1.902-0.812,3.924-0.75,6.04-1.19c6.536-1.36,12.906-1.803,19.427-1.923c0.014,0,0.027,0.001,0.041,0.001s0.027,0,0.041-0.001
		c6.521,0.12,12.891,0.562,19.427,1.923c2.116,0.439,4.138,0.378,6.04,1.19c2.537,1.082,4.877,3.049,6.71,5.06
		c0.513,0.563,0.96,1.143,1.38,1.729v-41.01C181.676,75.782,180.975,75.627,180.228,75.507z"/>
</g>
</svg>
