<?xml version="1.0" encoding="utf-8"?>
<!-- Generator: Adobe Illustrator 16.0.0, SVG Export Plug-In . SVG Version: 6.00 Build 0)  -->
<!DOCTYPE svg PUBLIC "-//W3C//DTD SVG 1.1//EN" "http://www.w3.org/Graphics/SVG/1.1/DTD/svg11.dtd">
<svg version="1.1" id="Layer_1" xmlns="http://www.w3.org/2000/svg" xmlns:xlink="http://www.w3.org/1999/xlink" x="0px" y="0px"
	 width="300px" height="700px" viewBox="0 0 300 700" enable-background="new 0 0 300 700" xml:space="preserve">
<pattern  x="-2240" width="139" height="139" patternUnits="userSpaceOnUse" id="New_Pattern_Swatch_5" viewBox="0 -139 139 139" overflow="visible">
	<g>
		<polygon fill="none" points="0,0 139,0 139,-139 0,-139 		"/>
		<polygon fill="#F9E03C" points="139,0 0,0 0,-139 139,-139 		"/>
		<g opacity="0.6">
			<g>
				<path fill="#91A8CF" stroke="#F9DF3C" stroke-width="0.6895" stroke-miterlimit="10" d="M34.068-107.73
					c0,7.077-5.056,12.816-11.29,12.816c-6.236,0-11.29-5.739-11.29-12.816c0-7.078,5.054-12.815,11.29-12.815
					C29.013-120.546,34.068-114.809,34.068-107.73z"/>
				<path fill="#91A8CF" stroke="#F9DF3C" stroke-width="0.7346" stroke-miterlimit="10" d="M28.088-109.438
					c0,3.487-3.825,6.315-8.544,6.315S11-105.951,11-109.438c0-3.488,3.825-6.316,8.544-6.316S28.088-112.927,28.088-109.438z"/>
				<polygon fill="#F9E03C" points="36.692,-109.012 11.062,-109.012 11.062,-109.866 36.692,-109.866 				"/>
				<path fill="#91A8CF" stroke="#F9DF3C" stroke-width="0.8544" stroke-miterlimit="10" d="M37.755-107.73
					c0,4.718-3.824,8.544-8.543,8.544c-4.72,0-8.545-3.826-8.545-8.544c0-4.719,3.825-8.544,8.545-8.544
					C33.931-116.274,37.755-112.449,37.755-107.73z"/>
			</g>
			<g>
				<path fill="#91A8CF" stroke="#647490" stroke-width="0.4787" stroke-miterlimit="10" d="M49.077-107.026
					c0,1.415-1.147,1.425-2.562,1.425c-1.416,0-2.563-0.01-2.563-1.425c0-1.416,1.147-2.563,2.563-2.563
					C47.93-109.59,49.077-108.442,49.077-107.026z"/>
				<path fill="#91A8CF" stroke="#647490" stroke-width="0.4787" stroke-miterlimit="10" d="M43.226-106.608
					c1.227,0.708,0.661,1.707-0.046,2.933c-0.708,1.226-1.29,2.214-2.517,1.507c-1.227-0.708-1.646-2.275-0.938-3.501
					C40.433-106.896,41.999-107.315,43.226-106.608z"/>
				<path fill="#91A8CF" stroke="#647490" stroke-width="0.4787" stroke-miterlimit="10" d="M40.663-101.331
					c1.227-0.709,1.809,0.28,2.517,1.507c0.707,1.225,1.272,2.224,0.046,2.932c-1.227,0.709-2.793,0.287-3.5-0.938
					C39.018-99.057,39.438-100.623,40.663-101.331z"/>
				<path fill="#F9E03C" stroke="#90A7CE" stroke-width="0.8544" stroke-miterlimit="10" d="M47.796-99.529
					c-1.227,0.707-2.795,0.285-3.502-0.94c-0.707-1.223-0.287-2.793,0.939-3.499c1.225-0.709,2.795-0.289,3.5,0.936
					C49.441-101.808,49.022-100.237,47.796-99.529z"/>
				<path fill="#91A8CF" stroke="#647490" stroke-width="0.4787" stroke-miterlimit="10" d="M44.229-96.473
					c0-1.416,1.147-1.426,2.562-1.426s2.563,0.01,2.563,1.426c0,1.415-1.148,2.562-2.563,2.562S44.229-95.058,44.229-96.473z"/>
				<path fill="#91A8CF" stroke="#647490" stroke-width="0.4787" stroke-miterlimit="10" d="M50.081-96.892
					c-1.227-0.708-0.662-1.707,0.046-2.933s1.29-2.214,2.517-1.507c1.227,0.708,1.646,2.275,0.938,3.501
					C52.874-96.604,51.307-96.185,50.081-96.892z"/>
				<path fill="#91A8CF" stroke="#647490" stroke-width="0.4787" stroke-miterlimit="10" d="M52.644-102.168
					c-1.227,0.708-1.809-0.28-2.517-1.507c-0.708-1.226-1.272-2.224-0.046-2.933c1.226-0.709,2.793-0.287,3.5,0.938
					C54.289-104.442,53.869-102.877,52.644-102.168z"/>
			</g>
			<g>
				<path fill="#91A8CF" stroke="#F9DF3C" stroke-width="0.6895" stroke-miterlimit="10" d="M58.9-107.73
					c0,7.077,5.056,12.816,11.29,12.816c6.235,0,11.29-5.739,11.29-12.816c0-7.078-5.055-12.815-11.29-12.815
					C63.956-120.546,58.9-114.809,58.9-107.73z"/>
				<path fill="#91A8CF" stroke="#F9DF3C" stroke-width="0.7346" stroke-miterlimit="10" d="M64.881-109.438
					c0,3.487,3.825,6.315,8.544,6.315s8.544-2.828,8.544-6.315c0-3.488-3.825-6.316-8.544-6.316S64.881-112.927,64.881-109.438z"/>
				<polygon fill="#F9E03C" points="56.276,-109.012 81.907,-109.012 81.907,-109.866 56.276,-109.866 				"/>
				<path fill="#91A8CF" stroke="#F9DF3C" stroke-width="0.8544" stroke-miterlimit="10" d="M55.214-107.73
					c0,4.718,3.824,8.544,8.543,8.544c4.72,0,8.544-3.826,8.544-8.544c0-4.719-3.824-8.544-8.544-8.544
					C59.038-116.274,55.214-112.449,55.214-107.73z"/>
			</g>
			<g>
				<path fill="#91A8CF" stroke="#647490" stroke-width="0.4787" stroke-miterlimit="10" d="M51.175-90.141
					c0,1.416,1.148,2.563,2.563,2.563s2.563-1.147,2.563-2.563c0-1.415-1.148-2.562-2.563-2.562S51.175-91.556,51.175-90.141z"/>
				<path fill="#91A8CF" stroke="#647490" stroke-width="0.4787" stroke-miterlimit="10" d="M53.738-87.577
					c0,1.416,1.147,2.563,2.563,2.563c1.414,0,2.562-1.147,2.562-2.563s-1.148-2.563-2.562-2.563
					C54.886-90.141,53.738-88.993,53.738-87.577z"/>
				<path fill="#91A8CF" stroke="#647490" stroke-width="0.4787" stroke-miterlimit="10" d="M50.035-86.723
					c0,1.416,1.148,2.563,2.563,2.563s2.562-1.147,2.562-2.563s-1.147-2.563-2.562-2.563S50.035-88.139,50.035-86.723z"/>
				<path fill="#91A8CF" stroke="#647490" stroke-width="0.4787" stroke-miterlimit="10" d="M51.887-85.014
					c0,1.416,1.148,2.562,2.563,2.562s2.562-1.146,2.562-2.562s-1.147-2.563-2.562-2.563S51.887-86.43,51.887-85.014z"/>
				<path fill="#91A8CF" stroke="#647490" stroke-width="0.4787" stroke-miterlimit="10" d="M54.45-82.451
					c0,1.416,1.148,2.563,2.562,2.563c1.416,0,2.563-1.147,2.563-2.563s-1.147-2.562-2.563-2.562
					C55.599-85.014,54.45-83.867,54.45-82.451z"/>
				<path fill="#91A8CF" stroke="#647490" stroke-width="0.4787" stroke-miterlimit="10" d="M50.747-81.597
					c0,1.416,1.148,2.563,2.562,2.563c1.416,0,2.564-1.147,2.564-2.563s-1.148-2.562-2.564-2.562
					C51.896-84.159,50.747-83.013,50.747-81.597z"/>
			</g>
			<g>
				<path fill="#91A8CF" stroke="#647490" stroke-width="0.4787" stroke-miterlimit="10" d="M42.157-90.141
					c0,1.416-1.148,2.563-2.562,2.563c-1.416,0-2.563-1.147-2.563-2.563c0-1.415,1.147-2.562,2.563-2.562
					C41.009-92.703,42.157-91.556,42.157-90.141z"/>
				<path fill="#91A8CF" stroke="#647490" stroke-width="0.4787" stroke-miterlimit="10" d="M39.595-87.577
					c0,1.416-1.148,2.563-2.563,2.563s-2.563-1.147-2.563-2.563s1.148-2.563,2.563-2.563S39.595-88.993,39.595-87.577z"/>
				<path fill="#91A8CF" stroke="#647490" stroke-width="0.4787" stroke-miterlimit="10" d="M43.297-86.723
					c0,1.416-1.147,2.563-2.563,2.563c-1.414,0-2.562-1.147-2.562-2.563s1.148-2.563,2.562-2.563
					C42.149-89.286,43.297-88.139,43.297-86.723z"/>
				<path fill="#91A8CF" stroke="#647490" stroke-width="0.4787" stroke-miterlimit="10" d="M41.446-85.014
					c0,1.416-1.148,2.562-2.563,2.562s-2.563-1.146-2.563-2.562s1.148-2.563,2.563-2.563S41.446-86.43,41.446-85.014z"/>
				<path fill="#91A8CF" stroke="#647490" stroke-width="0.4787" stroke-miterlimit="10" d="M38.883-82.451
					c0,1.416-1.148,2.563-2.563,2.563s-2.562-1.147-2.562-2.563s1.147-2.562,2.562-2.562S38.883-83.867,38.883-82.451z"/>
				<path fill="#91A8CF" stroke="#647490" stroke-width="0.4787" stroke-miterlimit="10" d="M42.585-81.597
					c0,1.416-1.147,2.563-2.562,2.563s-2.563-1.147-2.563-2.563s1.148-2.562,2.563-2.562S42.585-83.013,42.585-81.597z"/>
			</g>
		</g>
		<g opacity="0.3">
			<path fill="#91A8CF" stroke="#647490" stroke-width="0.4787" stroke-miterlimit="10" d="M93.873-66.149
				c0,1.415-1.147,1.425-2.562,1.425c-1.416,0-2.563-0.01-2.563-1.425c0-1.416,1.147-2.563,2.563-2.563
				C92.726-68.713,93.873-67.565,93.873-66.149z"/>
			<path fill="#91A8CF" stroke="#647490" stroke-width="0.4787" stroke-miterlimit="10" d="M88.021-65.731
				c1.227,0.708,0.661,1.707-0.046,2.933c-0.708,1.226-1.29,2.214-2.517,1.507c-1.227-0.708-1.646-2.275-0.938-3.501
				C85.229-66.019,86.795-66.438,88.021-65.731z"/>
			<path fill="#91A8CF" stroke="#647490" stroke-width="0.4787" stroke-miterlimit="10" d="M85.459-60.454
				c1.227-0.709,1.809,0.28,2.517,1.507c0.707,1.225,1.272,2.224,0.046,2.932c-1.227,0.709-2.793,0.287-3.5-0.938
				C83.813-58.18,84.233-59.746,85.459-60.454z"/>
			<path fill="#F9E03C" stroke="#90A7CE" stroke-width="0.8544" stroke-miterlimit="10" d="M92.592-58.652
				c-1.227,0.707-2.795,0.285-3.502-0.94c-0.707-1.223-0.287-2.793,0.939-3.499c1.225-0.709,2.795-0.289,3.5,0.936
				C94.237-60.931,93.818-59.36,92.592-58.652z"/>
			<path fill="#91A8CF" stroke="#647490" stroke-width="0.4787" stroke-miterlimit="10" d="M89.025-55.596
				c0-1.416,1.147-1.426,2.562-1.426s2.563,0.01,2.563,1.426c0,1.415-1.148,2.562-2.563,2.562S89.025-54.181,89.025-55.596z"/>
			<path fill="#91A8CF" stroke="#647490" stroke-width="0.4787" stroke-miterlimit="10" d="M94.877-56.015
				c-1.227-0.708-0.662-1.707,0.046-2.933s1.29-2.214,2.517-1.507c1.227,0.708,1.646,2.275,0.938,3.501
				C97.67-55.728,96.103-55.308,94.877-56.015z"/>
			<path fill="#91A8CF" stroke="#647490" stroke-width="0.4787" stroke-miterlimit="10" d="M97.439-61.291
				c-1.227,0.708-1.809-0.28-2.517-1.507c-0.708-1.226-1.272-2.224-0.046-2.933c1.226-0.709,2.793-0.287,3.5,0.938
				C99.085-63.565,98.665-62,97.439-61.291z"/>
		</g>
		<g opacity="0.3">
			<path fill="#91A8CF" stroke="#647490" stroke-width="0.4787" stroke-miterlimit="10" d="M51.785-20.02
				c0,1.415-1.147,1.425-2.562,1.425c-1.416,0-2.563-0.01-2.563-1.425c0-1.416,1.147-2.563,2.563-2.563
				C50.638-22.583,51.785-21.436,51.785-20.02z"/>
			<path fill="#91A8CF" stroke="#647490" stroke-width="0.4787" stroke-miterlimit="10" d="M45.934-19.602
				c1.227,0.708,0.661,1.707-0.046,2.933c-0.708,1.226-1.29,2.214-2.517,1.507c-1.227-0.708-1.646-2.275-0.938-3.501
				C43.141-19.889,44.707-20.309,45.934-19.602z"/>
			<path fill="#91A8CF" stroke="#647490" stroke-width="0.4787" stroke-miterlimit="10" d="M43.371-14.324
				c1.227-0.709,1.809,0.28,2.517,1.507c0.707,1.225,1.272,2.224,0.046,2.932c-1.227,0.709-2.793,0.287-3.5-0.938
				C41.726-12.05,42.146-13.616,43.371-14.324z"/>
			<path fill="#F9E03C" stroke="#90A7CE" stroke-width="0.8544" stroke-miterlimit="10" d="M50.504-12.522
				c-1.227,0.707-2.795,0.285-3.502-0.94c-0.707-1.223-0.287-2.793,0.939-3.499c1.225-0.709,2.795-0.289,3.5,0.936
				C52.149-14.801,51.73-13.23,50.504-12.522z"/>
			<path fill="#91A8CF" stroke="#647490" stroke-width="0.4787" stroke-miterlimit="10" d="M46.938-9.466
				c0-1.416,1.147-1.426,2.562-1.426s2.563,0.01,2.563,1.426c0,1.415-1.148,2.562-2.563,2.562S46.938-8.051,46.938-9.466z"/>
			<path fill="#91A8CF" stroke="#647490" stroke-width="0.4787" stroke-miterlimit="10" d="M52.789-9.885
				c-1.227-0.708-0.662-1.707,0.046-2.933s1.29-2.214,2.517-1.507c1.227,0.708,1.646,2.275,0.938,3.501
				C55.582-9.598,54.015-9.178,52.789-9.885z"/>
			<path fill="#91A8CF" stroke="#647490" stroke-width="0.4787" stroke-miterlimit="10" d="M55.352-15.161
				c-1.227,0.708-1.809-0.28-2.517-1.507c-0.708-1.226-1.272-2.224-0.046-2.933c1.226-0.709,2.793-0.287,3.5,0.938
				C56.997-17.436,56.577-15.87,55.352-15.161z"/>
		</g>
		<g opacity="0.3">
			<path fill="#91A8CF" stroke="#647490" stroke-width="0.4787" stroke-miterlimit="10" d="M17.35-44.315
				c0,1.415-1.147,1.425-2.562,1.425c-1.416,0-2.563-0.01-2.563-1.425c0-1.416,1.147-2.563,2.563-2.563
				C16.202-46.879,17.35-45.731,17.35-44.315z"/>
			<path fill="#91A8CF" stroke="#647490" stroke-width="0.4787" stroke-miterlimit="10" d="M11.498-43.897
				c1.227,0.708,0.661,1.707-0.046,2.933c-0.708,1.226-1.29,2.214-2.517,1.507c-1.227-0.708-1.646-2.275-0.938-3.501
				C8.705-44.185,10.271-44.604,11.498-43.897z"/>
			<path fill="#91A8CF" stroke="#647490" stroke-width="0.4787" stroke-miterlimit="10" d="M8.936-38.62
				c1.227-0.709,1.809,0.28,2.517,1.507c0.707,1.225,1.272,2.224,0.046,2.932c-1.227,0.709-2.793,0.287-3.5-0.938
				C7.29-36.346,7.71-37.912,8.936-38.62z"/>
			<path fill="#F9E03C" stroke="#90A7CE" stroke-width="0.8544" stroke-miterlimit="10" d="M16.068-36.818
				c-1.227,0.707-2.795,0.285-3.502-0.94c-0.707-1.223-0.287-2.793,0.939-3.499c1.225-0.709,2.795-0.289,3.5,0.936
				C17.714-39.097,17.295-37.526,16.068-36.818z"/>
			<path fill="#91A8CF" stroke="#647490" stroke-width="0.4787" stroke-miterlimit="10" d="M12.502-33.762
				c0-1.416,1.147-1.426,2.562-1.426s2.563,0.01,2.563,1.426c0,1.415-1.148,2.562-2.563,2.562S12.502-32.347,12.502-33.762z"/>
			<path fill="#91A8CF" stroke="#647490" stroke-width="0.4787" stroke-miterlimit="10" d="M18.354-34.181
				c-1.227-0.708-0.662-1.707,0.046-2.933s1.29-2.214,2.517-1.507c1.227,0.708,1.646,2.275,0.938,3.501
				C21.146-33.894,19.579-33.474,18.354-34.181z"/>
			<path fill="#91A8CF" stroke="#647490" stroke-width="0.4787" stroke-miterlimit="10" d="M20.916-39.457
				c-1.227,0.708-1.809-0.28-2.517-1.507c-0.708-1.226-1.272-2.224-0.046-2.933c1.226-0.709,2.793-0.287,3.5,0.938
				C22.562-41.731,22.142-40.166,20.916-39.457z"/>
		</g>
		<g opacity="0.3">
			<path fill="#91A8CF" stroke="#647490" stroke-width="0.4787" stroke-miterlimit="10" d="M101.778-122.277
				c0,1.415-1.147,1.425-2.562,1.425c-1.416,0-2.563-0.01-2.563-1.425c0-1.416,1.147-2.563,2.563-2.563
				C100.631-124.841,101.778-123.693,101.778-122.277z"/>
			<path fill="#91A8CF" stroke="#647490" stroke-width="0.4787" stroke-miterlimit="10" d="M95.927-121.859
				c1.227,0.708,0.661,1.707-0.046,2.933c-0.708,1.226-1.29,2.214-2.517,1.507c-1.227-0.708-1.646-2.275-0.938-3.501
				C93.134-122.146,94.7-122.566,95.927-121.859z"/>
			<path fill="#91A8CF" stroke="#647490" stroke-width="0.4787" stroke-miterlimit="10" d="M93.364-116.582
				c1.227-0.709,1.809,0.28,2.517,1.507c0.707,1.225,1.272,2.224,0.046,2.932c-1.227,0.709-2.793,0.287-3.5-0.938
				C91.719-114.308,92.139-115.874,93.364-116.582z"/>
			<path fill="#F9E03C" stroke="#90A7CE" stroke-width="0.8544" stroke-miterlimit="10" d="M100.497-114.78
				c-1.227,0.707-2.795,0.285-3.502-0.94c-0.707-1.223-0.287-2.793,0.939-3.499c1.225-0.709,2.795-0.289,3.5,0.936
				C102.143-117.059,101.724-115.488,100.497-114.78z"/>
			<path fill="#91A8CF" stroke="#647490" stroke-width="0.4787" stroke-miterlimit="10" d="M96.931-111.724
				c0-1.416,1.147-1.426,2.562-1.426s2.563,0.01,2.563,1.426c0,1.415-1.148,2.562-2.563,2.562S96.931-110.309,96.931-111.724z"/>
			<path fill="#91A8CF" stroke="#647490" stroke-width="0.4787" stroke-miterlimit="10" d="M102.782-112.143
				c-1.227-0.708-0.662-1.707,0.046-2.933s1.29-2.214,2.517-1.507c1.227,0.708,1.646,2.275,0.938,3.501
				C105.575-111.855,104.008-111.436,102.782-112.143z"/>
			<path fill="#91A8CF" stroke="#647490" stroke-width="0.4787" stroke-miterlimit="10" d="M105.345-117.419
				c-1.227,0.708-1.809-0.28-2.517-1.507c-0.708-1.226-1.272-2.224-0.046-2.933c1.226-0.709,2.793-0.287,3.5,0.938
				C106.99-119.693,106.57-118.128,105.345-117.419z"/>
		</g>
		<g opacity="0.3">
			<path fill="#91A8CF" stroke="#647490" stroke-width="0.4787" stroke-miterlimit="10" d="M118.365-76.37
				c0,1.415-1.147,1.425-2.562,1.425c-1.416,0-2.563-0.01-2.563-1.425c0-1.416,1.147-2.563,2.563-2.563
				C117.218-78.934,118.365-77.786,118.365-76.37z"/>
			<path fill="#91A8CF" stroke="#647490" stroke-width="0.4787" stroke-miterlimit="10" d="M112.514-75.952
				c1.227,0.708,0.661,1.707-0.046,2.933c-0.708,1.226-1.29,2.214-2.517,1.507c-1.227-0.708-1.646-2.275-0.938-3.501
				C109.721-76.239,111.287-76.659,112.514-75.952z"/>
			<path fill="#91A8CF" stroke="#647490" stroke-width="0.4787" stroke-miterlimit="10" d="M109.951-70.675
				c1.227-0.709,1.809,0.28,2.517,1.507c0.707,1.225,1.272,2.224,0.046,2.932c-1.227,0.709-2.793,0.287-3.5-0.938
				C108.306-68.4,108.726-69.967,109.951-70.675z"/>
			<path fill="#F9E03C" stroke="#90A7CE" stroke-width="0.8544" stroke-miterlimit="10" d="M117.084-68.873
				c-1.227,0.707-2.795,0.285-3.502-0.94c-0.707-1.223-0.287-2.793,0.939-3.499c1.225-0.709,2.795-0.289,3.5,0.936
				C118.729-71.151,118.311-69.581,117.084-68.873z"/>
			<path fill="#91A8CF" stroke="#647490" stroke-width="0.4787" stroke-miterlimit="10" d="M113.518-65.816
				c0-1.416,1.147-1.426,2.562-1.426s2.563,0.01,2.563,1.426c0,1.415-1.148,2.562-2.563,2.562S113.518-64.401,113.518-65.816z"/>
			<path fill="#91A8CF" stroke="#647490" stroke-width="0.4787" stroke-miterlimit="10" d="M119.369-66.235
				c-1.227-0.708-0.662-1.707,0.046-2.933s1.29-2.214,2.517-1.507c1.227,0.708,1.646,2.275,0.938,3.501
				C122.162-65.948,120.595-65.528,119.369-66.235z"/>
			<path fill="#91A8CF" stroke="#647490" stroke-width="0.4787" stroke-miterlimit="10" d="M121.932-71.512
				c-1.227,0.708-1.809-0.28-2.517-1.507c-0.708-1.226-1.272-2.224-0.046-2.933c1.226-0.709,2.793-0.287,3.5,0.938
				C123.577-73.786,123.157-72.221,121.932-71.512z"/>
		</g>
		<g opacity="0.3">
			<path fill="#91A8CF" stroke="#647490" stroke-width="0.4935" stroke-miterlimit="10" d="M43.87-44.51
				c0-1.504-1.147-1.515-2.562-1.515c-1.416,0-2.563,0.011-2.563,1.515c0,1.505,1.147,2.725,2.563,2.725
				C42.723-41.785,43.87-43.005,43.87-44.51z"/>
			<path fill="#91A8CF" stroke="#647490" stroke-width="0.4935" stroke-miterlimit="10" d="M38.019-44.954
				c1.227-0.753,0.661-1.814-0.046-3.117c-0.708-1.303-1.29-2.354-2.517-1.602c-1.227,0.753-1.646,2.418-0.938,3.721
				C35.226-44.649,36.792-44.203,38.019-44.954z"/>
			<path fill="#91A8CF" stroke="#647490" stroke-width="0.4935" stroke-miterlimit="10" d="M35.456-50.563
				c1.227,0.754,1.809-0.298,2.517-1.602c0.707-1.302,1.272-2.363,0.046-3.116s-2.793-0.305-3.5,0.997
				C33.811-52.98,34.23-51.316,35.456-50.563z"/>
			<path fill="#F9E03C" stroke="#90A7CE" stroke-width="0.8808" stroke-miterlimit="10" d="M42.589-52.479
				c-1.227-0.751-2.795-0.303-3.502,1c-0.707,1.299-0.287,2.968,0.939,3.719c1.225,0.753,2.795,0.307,3.5-0.994
				C44.234-50.057,43.815-51.726,42.589-52.479z"/>
			<path fill="#91A8CF" stroke="#647490" stroke-width="0.4935" stroke-miterlimit="10" d="M39.022-55.728
				c0,1.505,1.147,1.516,2.562,1.516s2.563-0.011,2.563-1.516c0-1.504-1.148-2.724-2.563-2.724S39.022-57.231,39.022-55.728z"/>
			<path fill="#91A8CF" stroke="#647490" stroke-width="0.4935" stroke-miterlimit="10" d="M44.874-55.282
				c-1.227,0.753-0.662,1.814,0.046,3.117s1.29,2.354,2.517,1.602c1.227-0.753,1.646-2.418,0.938-3.721
				C47.667-55.587,46.1-56.033,44.874-55.282z"/>
			<path fill="#91A8CF" stroke="#647490" stroke-width="0.4935" stroke-miterlimit="10" d="M47.437-49.674
				c-1.227-0.753-1.809,0.298-2.517,1.602c-0.708,1.303-1.272,2.363-0.046,3.117c1.226,0.753,2.793,0.305,3.5-0.998
				C49.082-47.257,48.662-48.92,47.437-49.674z"/>
		</g>
		<g opacity="0.6">
			<g>
				<path fill="#91A8CF" stroke="#F9DF3C" stroke-width="0.6895" stroke-miterlimit="10" d="M81.572-36.61
					c0,7.077-5.056,12.816-11.29,12.816c-6.236,0-11.29-5.739-11.29-12.816c0-7.078,5.054-12.815,11.29-12.815
					C76.517-49.426,81.572-43.688,81.572-36.61z"/>
				<path fill="#91A8CF" stroke="#F9DF3C" stroke-width="0.7346" stroke-miterlimit="10" d="M75.592-38.318
					c0,3.487-3.825,6.315-8.544,6.315s-8.544-2.828-8.544-6.315c0-3.488,3.825-6.316,8.544-6.316S75.592-41.807,75.592-38.318z"/>
				<polygon fill="#F9E03C" points="84.196,-37.892 58.565,-37.892 58.565,-38.746 84.196,-38.746 				"/>
				<path fill="#91A8CF" stroke="#F9DF3C" stroke-width="0.8544" stroke-miterlimit="10" d="M85.259-36.61
					c0,4.718-3.824,8.544-8.543,8.544c-4.72,0-8.545-3.826-8.545-8.544c0-4.719,3.825-8.544,8.545-8.544
					C81.435-45.154,85.259-41.329,85.259-36.61z"/>
			</g>
			<g>
				<path fill="#91A8CF" stroke="#647490" stroke-width="0.4787" stroke-miterlimit="10" d="M96.581-35.906
					c0,1.415-1.147,1.425-2.562,1.425c-1.416,0-2.563-0.01-2.563-1.425c0-1.416,1.147-2.563,2.563-2.563
					C95.434-38.47,96.581-37.322,96.581-35.906z"/>
				<path fill="#91A8CF" stroke="#647490" stroke-width="0.4787" stroke-miterlimit="10" d="M90.729-35.488
					c1.227,0.708,0.661,1.707-0.046,2.933c-0.708,1.226-1.29,2.214-2.517,1.507c-1.227-0.708-1.646-2.275-0.938-3.501
					C87.937-35.775,89.503-36.195,90.729-35.488z"/>
				<path fill="#91A8CF" stroke="#647490" stroke-width="0.4787" stroke-miterlimit="10" d="M88.167-30.211
					c1.227-0.709,1.809,0.28,2.517,1.507c0.707,1.225,1.272,2.224,0.046,2.932c-1.227,0.709-2.793,0.287-3.5-0.938
					C86.521-27.937,86.941-29.503,88.167-30.211z"/>
				<path fill="#F9E03C" stroke="#90A7CE" stroke-width="0.8544" stroke-miterlimit="10" d="M95.3-28.409
					c-1.227,0.707-2.795,0.285-3.502-0.94c-0.707-1.223-0.287-2.793,0.939-3.499c1.225-0.709,2.795-0.289,3.5,0.936
					C96.945-30.688,96.526-29.117,95.3-28.409z"/>
				<path fill="#91A8CF" stroke="#647490" stroke-width="0.4787" stroke-miterlimit="10" d="M91.733-25.353
					c0-1.416,1.147-1.426,2.562-1.426s2.563,0.01,2.563,1.426c0,1.415-1.148,2.562-2.563,2.562S91.733-23.938,91.733-25.353z"/>
				<path fill="#91A8CF" stroke="#647490" stroke-width="0.4787" stroke-miterlimit="10" d="M97.585-25.771
					c-1.227-0.708-0.662-1.707,0.046-2.933s1.29-2.214,2.517-1.507c1.227,0.708,1.646,2.275,0.938,3.501
					C100.378-25.484,98.811-25.064,97.585-25.771z"/>
				<path fill="#91A8CF" stroke="#647490" stroke-width="0.4787" stroke-miterlimit="10" d="M100.147-31.048
					c-1.227,0.708-1.809-0.28-2.517-1.507c-0.708-1.226-1.272-2.224-0.046-2.933c1.226-0.709,2.793-0.287,3.5,0.938
					C101.793-33.322,101.373-31.757,100.147-31.048z"/>
			</g>
			<g>
				<path fill="#91A8CF" stroke="#F9DF3C" stroke-width="0.6895" stroke-miterlimit="10" d="M106.404-36.61
					c0,7.077,5.056,12.816,11.29,12.816c6.235,0,11.29-5.739,11.29-12.816c0-7.078-5.055-12.815-11.29-12.815
					C111.46-49.426,106.404-43.688,106.404-36.61z"/>
				<path fill="#91A8CF" stroke="#F9DF3C" stroke-width="0.7346" stroke-miterlimit="10" d="M112.385-38.318
					c0,3.487,3.825,6.315,8.544,6.315s8.544-2.828,8.544-6.315c0-3.488-3.825-6.316-8.544-6.316S112.385-41.807,112.385-38.318z"/>
				<polygon fill="#F9E03C" points="103.78,-37.892 129.411,-37.892 129.411,-38.746 103.78,-38.746 				"/>
				<path fill="#91A8CF" stroke="#F9DF3C" stroke-width="0.8544" stroke-miterlimit="10" d="M102.718-36.61
					c0,4.718,3.824,8.544,8.543,8.544c4.72,0,8.544-3.826,8.544-8.544c0-4.719-3.824-8.544-8.544-8.544
					C106.542-45.154,102.718-41.329,102.718-36.61z"/>
			</g>
			<g>
				<path fill="#91A8CF" stroke="#647490" stroke-width="0.4787" stroke-miterlimit="10" d="M98.679-19.021
					c0,1.416,1.148,2.563,2.563,2.563s2.563-1.147,2.563-2.563c0-1.415-1.148-2.562-2.563-2.562S98.679-20.436,98.679-19.021z"/>
				<path fill="#91A8CF" stroke="#647490" stroke-width="0.4787" stroke-miterlimit="10" d="M101.242-16.457
					c0,1.416,1.147,2.563,2.563,2.563c1.414,0,2.562-1.147,2.562-2.563s-1.148-2.563-2.562-2.563
					C102.39-19.021,101.242-17.873,101.242-16.457z"/>
				<path fill="#91A8CF" stroke="#647490" stroke-width="0.4787" stroke-miterlimit="10" d="M97.539-15.603
					c0,1.416,1.148,2.563,2.563,2.563s2.562-1.147,2.562-2.563s-1.147-2.563-2.562-2.563S97.539-17.019,97.539-15.603z"/>
				<path fill="#91A8CF" stroke="#647490" stroke-width="0.4787" stroke-miterlimit="10" d="M99.391-13.894
					c0,1.416,1.148,2.562,2.563,2.562s2.562-1.146,2.562-2.562s-1.147-2.563-2.562-2.563S99.391-15.31,99.391-13.894z"/>
				<path fill="#91A8CF" stroke="#647490" stroke-width="0.4787" stroke-miterlimit="10" d="M101.954-11.331
					c0,1.416,1.148,2.563,2.562,2.563c1.416,0,2.563-1.147,2.563-2.563s-1.147-2.562-2.563-2.562
					C103.103-13.894,101.954-12.747,101.954-11.331z"/>
				<path fill="#91A8CF" stroke="#647490" stroke-width="0.4787" stroke-miterlimit="10" d="M98.251-10.477
					c0,1.416,1.148,2.563,2.562,2.563c1.416,0,2.564-1.147,2.564-2.563s-1.148-2.562-2.564-2.562
					C99.399-13.039,98.251-11.893,98.251-10.477z"/>
			</g>
			<g>
				<path fill="#91A8CF" stroke="#647490" stroke-width="0.4787" stroke-miterlimit="10" d="M89.661-19.021
					c0,1.416-1.148,2.563-2.562,2.563c-1.416,0-2.563-1.147-2.563-2.563c0-1.415,1.147-2.562,2.563-2.562
					C88.513-21.583,89.661-20.436,89.661-19.021z"/>
				<path fill="#91A8CF" stroke="#647490" stroke-width="0.4787" stroke-miterlimit="10" d="M87.099-16.457
					c0,1.416-1.148,2.563-2.563,2.563s-2.563-1.147-2.563-2.563s1.148-2.563,2.563-2.563S87.099-17.873,87.099-16.457z"/>
				<path fill="#91A8CF" stroke="#647490" stroke-width="0.4787" stroke-miterlimit="10" d="M90.801-15.603
					c0,1.416-1.147,2.563-2.563,2.563c-1.414,0-2.562-1.147-2.562-2.563s1.148-2.563,2.562-2.563
					C89.653-18.166,90.801-17.019,90.801-15.603z"/>
				<path fill="#91A8CF" stroke="#647490" stroke-width="0.4787" stroke-miterlimit="10" d="M88.95-13.894
					c0,1.416-1.148,2.562-2.563,2.562s-2.563-1.146-2.563-2.562s1.148-2.563,2.563-2.563S88.95-15.31,88.95-13.894z"/>
				<path fill="#91A8CF" stroke="#647490" stroke-width="0.4787" stroke-miterlimit="10" d="M86.387-11.331
					c0,1.416-1.148,2.563-2.563,2.563s-2.562-1.147-2.562-2.563s1.147-2.562,2.562-2.562S86.387-12.747,86.387-11.331z"/>
				<path fill="#91A8CF" stroke="#647490" stroke-width="0.4787" stroke-miterlimit="10" d="M90.089-10.477
					c0,1.416-1.147,2.563-2.562,2.563s-2.563-1.147-2.563-2.563s1.148-2.562,2.563-2.562S90.089-11.893,90.089-10.477z"/>
			</g>
		</g>
		<g opacity="0.3">
			<path fill="#91A8CF" stroke="#647490" stroke-width="0.4787" stroke-miterlimit="10" d="M19.469-73.624
				c0,1.415-1.147,1.425-2.562,1.425c-1.416,0-2.563-0.01-2.563-1.425c0-1.416,1.147-2.563,2.563-2.563
				C18.321-76.188,19.469-75.04,19.469-73.624z"/>
			<path fill="#91A8CF" stroke="#647490" stroke-width="0.4787" stroke-miterlimit="10" d="M13.617-73.206
				c1.227,0.708,0.661,1.707-0.046,2.933c-0.708,1.226-1.29,2.214-2.517,1.507c-1.227-0.708-1.646-2.275-0.938-3.501
				C10.824-73.493,12.391-73.913,13.617-73.206z"/>
			<path fill="#91A8CF" stroke="#647490" stroke-width="0.4787" stroke-miterlimit="10" d="M11.055-67.929
				c1.227-0.709,1.809,0.28,2.517,1.507c0.707,1.225,1.272,2.224,0.046,2.932c-1.227,0.709-2.793,0.287-3.5-0.938
				C9.409-65.654,9.829-67.221,11.055-67.929z"/>
			<path fill="#F9E03C" stroke="#90A7CE" stroke-width="0.8544" stroke-miterlimit="10" d="M18.188-66.127
				c-1.227,0.707-2.795,0.285-3.502-0.94c-0.707-1.223-0.287-2.793,0.939-3.499c1.225-0.709,2.795-0.289,3.5,0.936
				C19.833-68.405,19.414-66.835,18.188-66.127z"/>
			<path fill="#91A8CF" stroke="#647490" stroke-width="0.4787" stroke-miterlimit="10" d="M14.621-63.07
				c0-1.416,1.147-1.426,2.562-1.426s2.563,0.01,2.563,1.426c0,1.415-1.148,2.562-2.563,2.562S14.621-61.655,14.621-63.07z"/>
			<path fill="#91A8CF" stroke="#647490" stroke-width="0.4787" stroke-miterlimit="10" d="M20.473-63.489
				c-1.227-0.708-0.662-1.707,0.046-2.933s1.29-2.214,2.517-1.507c1.227,0.708,1.646,2.275,0.938,3.501
				C23.266-63.202,21.698-62.782,20.473-63.489z"/>
			<path fill="#91A8CF" stroke="#647490" stroke-width="0.4787" stroke-miterlimit="10" d="M23.035-68.766
				c-1.227,0.708-1.809-0.28-2.517-1.507c-0.708-1.226-1.272-2.224-0.046-2.933c1.226-0.709,2.793-0.287,3.5,0.938
				C24.681-71.04,24.261-69.475,23.035-68.766z"/>
		</g>
		<g opacity="0.3">
			<path fill="#91A8CF" stroke="#647490" stroke-width="0.4787" stroke-miterlimit="10" d="M24.621-17.044
				c0,1.415-1.147,1.425-2.562,1.425c-1.416,0-2.563-0.01-2.563-1.425c0-1.416,1.147-2.563,2.563-2.563
				C23.474-19.607,24.621-18.46,24.621-17.044z"/>
			<path fill="#91A8CF" stroke="#647490" stroke-width="0.4787" stroke-miterlimit="10" d="M18.77-16.626
				c1.227,0.708,0.661,1.707-0.046,2.933c-0.708,1.226-1.29,2.214-2.517,1.507c-1.227-0.708-1.646-2.275-0.938-3.501
				C15.977-16.913,17.543-17.333,18.77-16.626z"/>
			<path fill="#91A8CF" stroke="#647490" stroke-width="0.4787" stroke-miterlimit="10" d="M16.207-11.349
				c1.227-0.709,1.809,0.28,2.517,1.507c0.707,1.225,1.272,2.224,0.046,2.932c-1.227,0.709-2.793,0.287-3.5-0.938
				C14.562-9.074,14.981-10.641,16.207-11.349z"/>
			<path fill="#F9E03C" stroke="#90A7CE" stroke-width="0.8544" stroke-miterlimit="10" d="M23.34-9.547
				c-1.227,0.707-2.795,0.285-3.502-0.94c-0.707-1.223-0.287-2.793,0.939-3.499c1.225-0.709,2.795-0.289,3.5,0.936
				C24.985-11.825,24.566-10.255,23.34-9.547z"/>
			<path fill="#91A8CF" stroke="#647490" stroke-width="0.4787" stroke-miterlimit="10" d="M19.773-6.49
				c0-1.416,1.147-1.426,2.562-1.426s2.563,0.01,2.563,1.426c0,1.415-1.148,2.562-2.563,2.562S19.773-5.075,19.773-6.49z"/>
			<path fill="#91A8CF" stroke="#647490" stroke-width="0.4787" stroke-miterlimit="10" d="M25.625-6.909
				c-1.227-0.708-0.662-1.707,0.046-2.933s1.29-2.214,2.517-1.507c1.227,0.708,1.646,2.275,0.938,3.501
				C28.418-6.622,26.851-6.202,25.625-6.909z"/>
			<path fill="#91A8CF" stroke="#647490" stroke-width="0.4787" stroke-miterlimit="10" d="M28.188-12.186
				c-1.227,0.708-1.809-0.28-2.517-1.507c-0.708-1.226-1.272-2.224-0.046-2.933c1.226-0.709,2.793-0.287,3.5,0.938
				C29.833-14.46,29.413-12.895,28.188-12.186z"/>
		</g>
		<g opacity="0.3">
			<path fill="#91A8CF" stroke="#647490" stroke-width="0.4787" stroke-miterlimit="10" d="M49.009-131.377
				c0,1.415-1.147,1.425-2.562,1.425c-1.416,0-2.563-0.01-2.563-1.425c0-1.416,1.147-2.563,2.563-2.563
				C47.861-133.94,49.009-132.793,49.009-131.377z"/>
			<path fill="#91A8CF" stroke="#647490" stroke-width="0.4787" stroke-miterlimit="10" d="M43.157-130.959
				c1.227,0.708,0.661,1.707-0.046,2.933c-0.708,1.226-1.29,2.214-2.517,1.507c-1.227-0.708-1.646-2.275-0.938-3.501
				C40.364-131.246,41.931-131.666,43.157-130.959z"/>
			<path fill="#91A8CF" stroke="#647490" stroke-width="0.4787" stroke-miterlimit="10" d="M40.595-125.682
				c1.227-0.709,1.809,0.28,2.517,1.507c0.707,1.225,1.272,2.224,0.046,2.932c-1.227,0.709-2.793,0.287-3.5-0.938
				C38.949-123.407,39.369-124.974,40.595-125.682z"/>
			<path fill="#F9E03C" stroke="#90A7CE" stroke-width="0.8544" stroke-miterlimit="10" d="M47.728-123.88
				c-1.227,0.707-2.795,0.285-3.502-0.94c-0.707-1.223-0.287-2.793,0.939-3.499c1.225-0.709,2.795-0.289,3.5,0.936
				C49.373-126.158,48.954-124.588,47.728-123.88z"/>
			<path fill="#91A8CF" stroke="#647490" stroke-width="0.4787" stroke-miterlimit="10" d="M44.161-120.823
				c0-1.416,1.147-1.426,2.562-1.426s2.563,0.01,2.563,1.426c0,1.415-1.148,2.562-2.563,2.562S44.161-119.408,44.161-120.823z"/>
			<path fill="#91A8CF" stroke="#647490" stroke-width="0.4787" stroke-miterlimit="10" d="M50.013-121.242
				c-1.227-0.708-0.662-1.707,0.046-2.933s1.29-2.214,2.517-1.507c1.227,0.708,1.646,2.275,0.938,3.501
				C52.806-120.955,51.238-120.535,50.013-121.242z"/>
			<path fill="#91A8CF" stroke="#647490" stroke-width="0.4787" stroke-miterlimit="10" d="M52.575-126.519
				c-1.227,0.708-1.809-0.28-2.517-1.507c-0.708-1.226-1.272-2.224-0.046-2.933c1.226-0.709,2.793-0.287,3.5,0.938
				C54.221-128.793,53.801-127.228,52.575-126.519z"/>
		</g>
		<g opacity="0.3">
			<path fill="#91A8CF" stroke="#647490" stroke-width="0.4787" stroke-miterlimit="10" d="M98.106-92.928
				c0.231,1.396-0.897,1.594-2.294,1.826c-1.396,0.231-2.531,0.411-2.762-0.985c-0.233-1.397,0.711-2.717,2.108-2.949
				C96.555-95.268,97.874-94.324,98.106-92.928z"/>
			<path fill="#91A8CF" stroke="#647490" stroke-width="0.4787" stroke-miterlimit="10" d="M92.403-91.556
				c1.325,0.497,0.933,1.576,0.435,2.9c-0.496,1.325-0.908,2.396-2.234,1.898c-1.327-0.496-1.997-1.974-1.499-3.3
				C89.601-91.381,91.076-92.053,92.403-91.556z"/>
			<path fill="#91A8CF" stroke="#647490" stroke-width="0.4787" stroke-miterlimit="10" d="M90.74-85.93
				c1.094-0.9,1.831-0.02,2.73,1.074c0.897,1.092,1.619,1.984,0.525,2.885c-1.094,0.899-2.709,0.74-3.606-0.352
				C89.49-83.416,89.646-85.03,90.74-85.93z"/>
			<path fill="#F9E03C" stroke="#90A7CE" stroke-width="0.8544" stroke-miterlimit="10" d="M98.072-85.321
				c-1.094,0.897-2.71,0.739-3.609-0.354c-0.896-1.09-0.74-2.708,0.354-3.605c1.092-0.9,2.709-0.743,3.606,0.35
				C99.321-87.839,99.166-86.222,98.072-85.321z"/>
			<path fill="#91A8CF" stroke="#647490" stroke-width="0.4787" stroke-miterlimit="10" d="M95.056-81.722
				c-0.233-1.396,0.897-1.595,2.294-1.827c1.396-0.231,2.53-0.411,2.762,0.987c0.233,1.396-0.713,2.715-2.108,2.947
				C96.607-79.383,95.287-80.326,95.056-81.722z"/>
			<path fill="#91A8CF" stroke="#647490" stroke-width="0.4787" stroke-miterlimit="10" d="M100.759-83.095
				c-1.325-0.497-0.933-1.575-0.436-2.9s0.909-2.396,2.235-1.898c1.326,0.496,1.996,1.974,1.499,3.3
				C103.562-83.27,102.084-82.598,100.759-83.095z"/>
			<path fill="#91A8CF" stroke="#647490" stroke-width="0.4787" stroke-miterlimit="10" d="M102.422-88.72
				c-1.094,0.899-1.831,0.02-2.73-1.074c-0.898-1.093-1.619-1.984-0.525-2.886c1.093-0.899,2.709-0.74,3.606,0.353
				C103.672-91.233,103.514-89.62,102.422-88.72z"/>
		</g>
		<g opacity="0.3">
			<path fill="#91A8CF" stroke="#647490" stroke-width="0.4787" stroke-miterlimit="10" d="M72.614-73.624
				c0,1.415-1.147,1.425-2.562,1.425c-1.416,0-2.563-0.01-2.563-1.425c0-1.416,1.147-2.563,2.563-2.563
				C71.467-76.188,72.614-75.04,72.614-73.624z"/>
			<path fill="#91A8CF" stroke="#647490" stroke-width="0.4787" stroke-miterlimit="10" d="M66.763-73.206
				c1.227,0.708,0.661,1.707-0.046,2.933c-0.708,1.226-1.29,2.214-2.517,1.507c-1.227-0.708-1.646-2.275-0.938-3.501
				C63.97-73.493,65.536-73.913,66.763-73.206z"/>
			<path fill="#91A8CF" stroke="#647490" stroke-width="0.4787" stroke-miterlimit="10" d="M64.2-67.929
				c1.227-0.709,1.809,0.28,2.517,1.507c0.707,1.225,1.272,2.224,0.046,2.932c-1.227,0.709-2.793,0.287-3.5-0.938
				C62.555-65.654,62.975-67.221,64.2-67.929z"/>
			<path fill="#F9E03C" stroke="#90A7CE" stroke-width="0.8544" stroke-miterlimit="10" d="M71.333-66.127
				c-1.227,0.707-2.795,0.285-3.502-0.94c-0.707-1.223-0.287-2.793,0.939-3.499c1.225-0.709,2.795-0.289,3.5,0.936
				C72.979-68.405,72.56-66.835,71.333-66.127z"/>
			<path fill="#91A8CF" stroke="#647490" stroke-width="0.4787" stroke-miterlimit="10" d="M67.767-63.07
				c0-1.416,1.147-1.426,2.562-1.426s2.563,0.01,2.563,1.426c0,1.415-1.148,2.562-2.563,2.562S67.767-61.655,67.767-63.07z"/>
			<path fill="#91A8CF" stroke="#647490" stroke-width="0.4787" stroke-miterlimit="10" d="M73.618-63.489
				c-1.227-0.708-0.662-1.707,0.046-2.933s1.29-2.214,2.517-1.507c1.227,0.708,1.646,2.275,0.938,3.501
				C76.411-63.202,74.844-62.782,73.618-63.489z"/>
			<path fill="#91A8CF" stroke="#647490" stroke-width="0.4787" stroke-miterlimit="10" d="M76.181-68.766
				c-1.227,0.708-1.809-0.28-2.517-1.507c-0.708-1.226-1.272-2.224-0.046-2.933c1.226-0.709,2.793-0.287,3.5,0.938
				C77.826-71.04,77.406-69.475,76.181-68.766z"/>
		</g>
		<g opacity="0.3">
			<path fill="#91A8CF" stroke="#647490" stroke-width="0.4787" stroke-miterlimit="10" d="M125.638-103.649
				c0,1.415-1.147,1.425-2.562,1.425c-1.416,0-2.563-0.01-2.563-1.425c0-1.416,1.147-2.563,2.563-2.563
				C124.49-106.213,125.638-105.065,125.638-103.649z"/>
			<path fill="#91A8CF" stroke="#647490" stroke-width="0.4787" stroke-miterlimit="10" d="M119.786-103.231
				c1.227,0.708,0.661,1.707-0.046,2.933c-0.708,1.226-1.29,2.214-2.517,1.507c-1.227-0.708-1.646-2.275-0.938-3.501
				C116.993-103.519,118.56-103.938,119.786-103.231z"/>
			<path fill="#91A8CF" stroke="#647490" stroke-width="0.4787" stroke-miterlimit="10" d="M117.224-97.954
				c1.227-0.709,1.809,0.28,2.517,1.507c0.707,1.225,1.272,2.224,0.046,2.932c-1.227,0.709-2.793,0.287-3.5-0.938
				C115.578-95.68,115.998-97.246,117.224-97.954z"/>
			<path fill="#F9E03C" stroke="#90A7CE" stroke-width="0.8544" stroke-miterlimit="10" d="M124.356-96.152
				c-1.227,0.707-2.795,0.285-3.502-0.94c-0.707-1.223-0.287-2.793,0.939-3.499c1.225-0.709,2.795-0.289,3.5,0.936
				C126.002-98.431,125.583-96.86,124.356-96.152z"/>
			<path fill="#91A8CF" stroke="#647490" stroke-width="0.4787" stroke-miterlimit="10" d="M120.79-93.096
				c0-1.416,1.147-1.426,2.562-1.426s2.563,0.01,2.563,1.426c0,1.415-1.148,2.562-2.563,2.562S120.79-91.681,120.79-93.096z"/>
			<path fill="#91A8CF" stroke="#647490" stroke-width="0.4787" stroke-miterlimit="10" d="M126.642-93.515
				c-1.227-0.708-0.662-1.707,0.046-2.933s1.29-2.214,2.517-1.507c1.227,0.708,1.646,2.275,0.938,3.501
				C129.435-93.228,127.867-92.808,126.642-93.515z"/>
			<path fill="#91A8CF" stroke="#647490" stroke-width="0.4787" stroke-miterlimit="10" d="M129.204-98.791
				c-1.227,0.708-1.809-0.28-2.517-1.507c-0.708-1.226-1.272-2.224-0.046-2.933c1.226-0.709,2.793-0.287,3.5,0.938
				C130.85-101.065,130.43-99.5,129.204-98.791z"/>
		</g>
		<g opacity="0.3">
			<path fill="#91A8CF" stroke="#647490" stroke-width="0.4787" stroke-miterlimit="10" d="M128.345-129.194
				c0,1.415-1.147,1.425-2.562,1.425c-1.416,0-2.563-0.01-2.563-1.425c0-1.416,1.147-2.563,2.563-2.563
				C127.197-131.758,128.345-130.61,128.345-129.194z"/>
			<path fill="#91A8CF" stroke="#647490" stroke-width="0.4787" stroke-miterlimit="10" d="M122.493-128.776
				c1.227,0.708,0.661,1.707-0.046,2.933c-0.708,1.226-1.29,2.214-2.517,1.507c-1.227-0.708-1.646-2.275-0.938-3.501
				C119.7-129.063,121.267-129.483,122.493-128.776z"/>
			<path fill="#91A8CF" stroke="#647490" stroke-width="0.4787" stroke-miterlimit="10" d="M119.931-123.499
				c1.227-0.709,1.809,0.28,2.517,1.507c0.707,1.225,1.272,2.224,0.046,2.932c-1.227,0.709-2.793,0.287-3.5-0.938
				C118.285-121.225,118.705-122.791,119.931-123.499z"/>
			<path fill="#F9E03C" stroke="#90A7CE" stroke-width="0.8544" stroke-miterlimit="10" d="M127.063-121.697
				c-1.227,0.707-2.795,0.285-3.502-0.94c-0.707-1.223-0.287-2.793,0.939-3.499c1.225-0.709,2.795-0.289,3.5,0.936
				C128.709-123.976,128.29-122.405,127.063-121.697z"/>
			<path fill="#91A8CF" stroke="#647490" stroke-width="0.4787" stroke-miterlimit="10" d="M123.497-118.641
				c0-1.416,1.147-1.426,2.562-1.426s2.563,0.01,2.563,1.426c0,1.415-1.148,2.562-2.563,2.562S123.497-117.226,123.497-118.641z"/>
			<path fill="#91A8CF" stroke="#647490" stroke-width="0.4787" stroke-miterlimit="10" d="M129.349-119.06
				c-1.227-0.708-0.662-1.707,0.046-2.933s1.29-2.214,2.517-1.507c1.227,0.708,1.646,2.275,0.938,3.501
				C132.142-118.772,130.574-118.353,129.349-119.06z"/>
			<path fill="#91A8CF" stroke="#647490" stroke-width="0.4787" stroke-miterlimit="10" d="M131.911-124.336
				c-1.227,0.708-1.809-0.28-2.517-1.507c-0.708-1.226-1.272-2.224-0.046-2.933c1.226-0.709,2.793-0.287,3.5,0.938
				C133.557-126.61,133.137-125.045,131.911-124.336z"/>
		</g>
	</g>
</pattern>
<g>
	<g>
		<path fill="#B18F6A" d="M107.021,146.131c1.185,3.528,0.343,8.576,0.333,12.359c-0.016,5.83,0.327,11.744,1.317,17.494
			c2.11,12.25,5.466,23.021,10.617,34.176c1.579,3.419,2.779,6.357,3.073,10.231c0.456,6.013-2.26,15.189,0.994,20.412
			c1.811,2.908,6.056,6.252,9.706,5.369c3.54-0.856,6.961-6.148,8.44-9.132c1.387-2.8,1.187-6.2,1.186-9.226
			c-0.003-6.848-0.988-13.657-1.637-20.478c-1.029-10.831-6.063-21.397-8.464-32.037c-1.466-6.497-3.738-13.054-7.297-18.739
			c-1.221-1.95-3.19-2.959-4.646-4.649c-1.15-1.336-1.736-3.147-3.119-4.292c-2.946-2.438-7.326-1.488-10.838-1.488H107.021z"/>
		<g>
			<path fill="#F7CAC9" d="M116.518,107.34l1.217-1.218C117.23,106.502,116.811,106.906,116.518,107.34z"/>
			<path fill="#F7CAC9" d="M118.018,105.84l-0.283,0.282c0.5-0.375,1.09-0.723,1.762-1.042c0.014-0.239,0.029-0.479,0.021-0.74
				L118.018,105.84z"/>
			<path fill="#F7CAC9" d="M221.926,637.304c-1.193-5.543-9.195-4.303-13.84-5.26c-5.59-1.152-23.545-5.785-28.186-8.594
				c-5.246-3.174,2.709-14.502,2.709-14.502l3.117-208.092c1.744-0.219-7.637-6.912-5.826-7.062
				c0.787-15.492-13.918-34.581-13.918-50.144c0-15.908,29.607-32.359,25.436-48.42v-0.864c5.785,8.212,4.488,25.388,6.496,35.333
				c3.08,15.243,8.721,26.577,8.881,43.18c0.092,9.52,2.852,25.108,0.881,33.915c-1.742,7.785-8.189,10.193-10.707,16.846
				c-2.268,5.998-8.156,8-7.219,14.223c1.436,9.516,8.363,4.873,10.395-2.045c1.582-0.455,4.074-0.428,5.674-0.021
				c0.396,7.76,0.07,14.734-2.85,20.848c-2.555,5.352-8.811,12.6,2.727,11.777c15.191-1.082,16.287-29.188,16.273-40.777
				c-0.041-40.406-4.268-82.045-10.977-120.022c-1.475-8.351-2.035-18.837-6.748-26.307c-4.146-6.571-11.523-11.363-16.596-17.358
				c-1.41-2.181-3.428-3.892-4.703-6.116c-11.953-20.836-11.736-23.644-11.699-40.239l-0.117,0.047
				c0.502-8.744,1.561-17.609,3.404-22.809c3.361-9.487,7.646-18.492,10.869-27.449c1.494-4.156,2.385-9.862,2.703-15.685
				c0.316-5.823,0.062-11.763-0.73-16.388c-0.893-5.206-6.983-13.958-8.806-19.023c-1.736-4.826-8.771-1.937-9.065-6.745
				c-3.217-1.525-5.648-4.231-10.709-4.318c-7.086-0.123-36.082-1.677-39.299-0.151c-0.297,4.808-4.887,5.434-6.623,10.26
				c-1.822,5.066-0.486,14.771-1.379,19.977c-0.793,4.625-1.047,10.565-0.73,16.388c0.318,5.822,1.209,11.528,2.703,15.685
				c3.223,8.957,7.508,17.962,10.869,27.449c3.275,9.241,4.074,30.053,3.68,41.192c-1.426,5.407-4.357,11.326-10.371,21.808
				c-1.275,2.225-3.293,3.936-4.703,6.116c-5.072,5.996-12.449,10.787-16.596,17.358c-4.713,7.47-5.273,17.956-6.748,26.307
				c-6.709,37.978-10.936,79.616-10.977,120.022c-0.014,11.59,1.082,39.695,16.273,40.777c11.537,0.822,5.281-6.426,2.727-11.777
				c-2.92-6.113-3.246-13.088-2.85-20.848c1.6-0.406,4.092-0.434,5.674,0.021c2.031,6.918,8.959,11.561,10.395,2.045
				c0.938-6.223-4.951-8.225-7.219-14.223c-2.518-6.652-10.203-2.061-11.945-9.846c-1.971-8.807,2.598-31.396,2.689-40.915
				c0.16-16.603,5.23-27.937,8.311-43.18c2.008-9.944,0.711-27.12,6.496-35.333v0.864c-4.172,16.061,26.193,36.002,26.193,51.91
				c0,15.562-18.477,31.161-17.689,46.653c1.811,0.15-4.557,6.844-2.812,7.062l3.117,208.092c0,0,9.695,14.502-10.018,16.32
				c-5.401,0.498-9.869,5.623-15.459,6.775c-4.645,0.957-12.646-0.283-13.84,5.26c-1.65,7.67,5.926,6.322,10.852,7.076
				c2.783,0.426,4.879,1.475,7.816,1.592c3.256,0.129,6.75-0.205,9.908-0.658c6.578-0.943,13.289-0.998,20.1-1.684
				c5.936-0.598,15.379,1.533,16.658-5.301c1.5-8.014-3.166-15.459-2.334-23.025l0.066-4.193h0.027l-0.014-0.939l0.014-0.904
				c-0.008,0-0.018,0-0.027-0.002l-3.066-204.719c3.023,0.375,6.146,0.658,9.42,0.799v0.104c0.039,0,0.08,0,0.119,0
				c0.711,0,1.396-0.023,2.092-0.039c0.695,0.016,1.381,0.039,2.092,0.039c0.039,0,0.08,0,0.119,0v-0.104
				c3.273-0.141,6.396-0.424,9.42-0.799l-3.066,204.719c-0.01,0.002-0.02,0.002-0.027,0.002l0.014,0.904l-0.014,0.939h0.027
				l0.066,4.193c0.832,7.566-3.834,15.012-2.334,23.025c1.279,6.834,10.723,4.703,16.658,5.301c6.811,0.686,13.521,0.74,20.1,1.684
				c3.158,0.453,6.652,0.787,9.908,0.658c2.938-0.117,5.033-1.166,7.816-1.592C216,643.626,223.576,644.974,221.926,637.304z"/>
		</g>
		<circle fill="#B18F6A" cx="146.107" cy="165.012" r="1.625"/>
		<circle fill="#B18F6A" cx="152.982" cy="165.012" r="1.625"/>
		<circle fill="#FFFFFF" cx="167.42" cy="148.745" r="9"/>
		<circle fill="#FFFFFF" cx="129.92" cy="148.745" r="9"/>
		<circle fill="#91A8CF" cx="129.92" cy="148.588" r="3.5"/>
		<circle fill="#7CC253" cx="167.498" cy="148.588" r="5.5"/>
		<circle fill="#090A11" cx="167.498" cy="148.588" r="3.5"/>
		<circle fill="#090A11" cx="129.92" cy="148.588" r="1"/>
		<path fill="none" d="M154.345,103.793c0.31,0.513,0.422,1.079,0.334,1.667"/>
		<path fill="none" stroke="#B18F69" stroke-miterlimit="10" d="M156.498,139.745c3.232-5.575,9.205-3.979,15-4"/>
		<path fill="#6D6E71" d="M145.989,628.425c-0.476-3.237-3.718-14.062-3.718-14.062l-1.145-80.696H116.62l1.176,78.433l0.035,2.389
			c-0.078,0.363-0.161,0.731-0.23,1.096c-3.321,2.356-7.518,5.653-9.434,6.902c-3.084,2.014-5.291,4.047-8.879,5.219
			c-0.791,0.26-1.68,0.493-2.637,0.72H84.495c-7.305,0-13.225,8.364-13.225,18.687h0.031C71.106,649.995,79.306,650,86.585,650
			h43.848c0.195,0,0.387-0.005,0.58-0.006V650h13.082l1.947-2.889h0.062v-18.687H145.989z"/>
		<path fill="#6D6E71" d="M154.517,628.425c0.476-3.237,3.718-14.062,3.718-14.062l1.145-80.696h24.507L182.71,612.1l-0.035,2.389
			c0.078,0.363,0.161,0.731,0.23,1.096c3.321,2.356,7.518,5.653,9.434,6.902c3.084,2.014,5.291,4.047,8.879,5.219
			c0.791,0.26,1.68,0.493,2.637,0.72h12.156c7.305,0,13.225,8.364,13.225,18.687h-0.031c0.195,2.884-8.004,2.889-15.283,2.889
			h-43.848c-0.195,0-0.387-0.005-0.58-0.006V650h-13.082l-1.947-2.889h-0.062v-18.687H154.517z"/>
		<pattern  id="SVGID_1_" xlink:href="#New_Pattern_Swatch_5" patternTransform="matrix(1 0 0 1 0 10.0703)">
		</pattern>
		<polygon fill="url(#SVGID_1_)" stroke="#90A7CE" stroke-miterlimit="10" points="193.273,311.375 197.963,358.584 
			202.653,405.794 220.293,413.66 237.933,421.526 223.609,344.409 209.285,267.292 192.276,258.173 175.268,249.054 
			167.795,267.682 160.322,286.309 159.361,286.325 158.4,286.341 150.268,320.68 161.08,359.794 150,389.988 138.92,359.794 
			149.732,320.68 141.6,286.341 140.639,286.325 139.678,286.309 132.205,267.682 124.732,249.054 107.724,258.173 90.715,267.292 
			76.391,344.409 62.067,421.526 79.707,413.66 97.347,405.794 102.037,358.584 106.727,311.375 106.727,355.084 106.727,398.794 
			94.721,478.039 82.715,557.284 115.215,557.284 147.715,557.284 148.72,557.284 149.705,557.284 149.725,557.284 149.971,557.284 
			150.029,557.284 150.275,557.284 150.295,557.284 151.28,557.284 152.285,557.284 184.785,557.284 217.285,557.284 
			205.279,478.039 193.273,398.794 193.273,355.084 		"/>
		<rect x="138.104" y="481.294" fill="#F9E03C" width="22.672" height="1"/>
		<polygon fill="#91A8CF" points="129.152,250.28 145.51,294.574 120.526,294.574 		"/>
		<path fill="#C1A688" d="M171.17,98.621c-0.537-1.737-2.29-2.872-4.711-3.595c-2.422-0.723-5.512-1.035-8.725-1.128
			c-3.214-0.093-6.551,0.033-9.465,0.186s-5.404,0.333-6.928,0.348c-0.367,0.004-1.994-0.142-4.469-0.068
			c-2.474,0.073-5.795,0.364-9.553,1.241c-3.757,0.877-7.949,2.339-12.165,4.754c-4.216,2.415-8.456,5.781-12.307,10.468
			c-1.46,1.777-2.064,5.215-2.172,9.446c-0.106,4.23,0.284,9.252,0.814,14.196s1.202,9.809,1.655,13.725
			c0.455,3.917,0.691,6.885,0.354,8.034c-1.648,5.604-2.099,10.341-1.871,14.384s1.134,7.392,2.2,10.219s2.293,5.132,3.161,7.087
			c0.867,1.956,1.377,3.562,1.01,4.991c-1.044,4.058-1.702,7.022-2.053,9.264c-0.35,2.242-0.393,3.761-0.204,4.931
			c0.188,1.169,0.606,1.988,1.177,2.829s1.293,1.704,2.091,2.96c-0.2,0.747-0.018,1.384,0.262,2.121
			c0.278,0.736,0.654,1.571,0.841,2.712c0.188,1.141,0.186,2.587-0.291,4.545c-0.476,1.958-1.426,4.43-3.135,7.62
			c-0.097,0.18-0.209,1.831-0.309,4.225c-0.099,2.394-0.184,5.533-0.224,8.69s-0.036,6.335,0.042,8.806
			c0.078,2.471,0.232,4.236,0.49,4.569c2.984,3.853,6.14,5.901,9.194,6.748c3.056,0.847,6.011,0.492,8.598-0.461
			s4.805-2.505,6.384-4.053c1.58-1.548,2.522-3.091,2.557-4.028c0.107-2.928-1.71-14.48-3.5-22.815
			c-1.791-8.335,4.771-14.952,3.098-25c-1.674-10.048-11.109-18.529-12.006-26.387c-0.896-7.857-1.575-13.59-2.385-15.143
			c-0.385-0.738-0.868-2.283-1.242-4.213c-0.373-1.931-0.637-4.247-0.58-6.527c0.057-2.281,0.432-4.527,1.336-6.316
			c0.903-1.79,2.335-3.123,4.504-3.579c5.459-1.149,9.504-2.665,12.576-4.315c3.073-1.651,5.176-3.436,6.752-5.124
			c1.576-1.688,2.626-3.278,3.594-4.54c0.969-1.261,1.854-2.193,3.104-2.563c3.488-1.035,6.766-2.968,9.689-5.388
			c2.922-2.42,5.49-5.328,7.559-8.312c2.067-2.984,3.635-6.046,4.559-8.773C171.4,102.663,171.68,100.27,171.17,98.621z"/>
		<polygon fill="#91A8CF" points="170.382,250.28 154.024,294.574 179.008,294.574 		"/>
		<path fill="#C1A688" d="M171.676,113.375c1.299,2.72,2.52,4.794,3.498,6.919c0.979,2.125,1.714,4.301,2.04,7.226
			c0.553,4.972,1.646,14.482,1.778,24.857c0.132,10.375-0.699,21.615-3.994,30.044c-1.371,6.298-1.999,8.115-2.312,9.024
			s-8.57,15.961-8.688,18.625c-0.255,5.798,6.824,7.109,5.502,22.609s-2.789,30.137,8.92,29.366
			c5.354-0.352,10.168-3.454,12.936-8.269c2.77-4.814,3.492-11.342,0.665-18.543c-2.353-5.993-2.698-12.038-2.448-17.097
			c0.248-5.059,1.092-9.132,1.115-11.181c0.162-13.987-0.137-19.744-0.078-26.197c0.059-6.453,0.475-13.602,2.067-30.374
			c0.571-6.013-0.3-7.951-1.315-10.332s-2.176-5.205-2.186-12.99c-0.002-1.543,0.54-1.957-0.14-4.108
			c-0.68-2.151-2.58-6.042-7.467-14.539c-1.827-3.177-4.462-3.363-7.252-2.754c-2.79,0.609-5.735,2.012-8.183,2.012
			c0,0,0.943,0.498,2.107,1.459S170.791,111.52,171.676,113.375z"/>
	</g>
	<rect x="138.147" y="178.867" fill="#F3776B" width="23.103" height="0.987"/>
</g>
</svg>
