<?xml version="1.0" encoding="utf-8"?>
<!-- Generator: Adobe Illustrator 16.0.0, SVG Export Plug-In . SVG Version: 6.00 Build 0)  -->
<!DOCTYPE svg PUBLIC "-//W3C//DTD SVG 1.1//EN" "http://www.w3.org/Graphics/SVG/1.1/DTD/svg11.dtd">
<svg version="1.1" id="Layer_1" xmlns="http://www.w3.org/2000/svg" xmlns:xlink="http://www.w3.org/1999/xlink" x="0px" y="0px"
	 width="300px" height="700px" viewBox="0 0 300 700" enable-background="new 0 0 300 700" xml:space="preserve">
<g>
	<polygon fill="#58595B" stroke="#005083" stroke-width="1.0704" stroke-miterlimit="10" points="229.42,530.566 70.307,530.566 
		109.732,403.373 191.244,403.373 	"/>
	<g>
		<g>
			<path fill="#F7CAC9" d="M116.711,110.418l1.217-1.218C117.424,109.58,117.004,109.983,116.711,110.418z"/>
			<path fill="#F7CAC9" d="M118.211,108.918l-0.283,0.282c0.5-0.375,1.09-0.723,1.762-1.042c0.014-0.239,0.029-0.479,0.021-0.74
				L118.211,108.918z"/>
			<path fill="#F7CAC9" d="M181.326,109.2l1.219,1.218C182.25,109.983,181.832,109.58,181.326,109.2z"/>
			<path fill="#F7CAC9" d="M181.045,108.918l-1.5-1.5c-0.008,0.261,0.006,0.501,0.021,0.74c0.672,0.319,1.262,0.667,1.76,1.042
				L181.045,108.918z"/>
			<path fill="#F7CAC9" d="M222.119,640.381c-1.193-5.543-9.195-4.303-13.84-5.26c-5.59-1.152-10.818-3.967-15.459-6.775
				c-5.246-3.174-9.303-4.842-9.701-11.965c-0.035-0.629-0.209-1.309-0.352-1.967l0.035-2.389l3.117-208.092
				c1.744-0.219,3.514-0.41,5.324-0.561c0.787-15.492,0.152-31.287,0.152-46.85c0-15.908,4.387-42.154,0.215-58.215v-0.864
				c5.785,8.212,4.488,25.388,6.496,35.331c3.08,15.244,5.721,24.879,5.881,41.482c0.092,9.52,9.146,26.23,1.326,34.268
				c-5.562,5.719-5.635,11.539-8.152,18.191c-2.268,5.998-8.156,8-7.219,14.223c1.436,9.516,8.363,4.873,10.395-2.045
				c1.582-0.455,4.074-0.428,5.674-0.021c0.396,7.76,0.07,14.734-2.85,20.848c-2.555,5.352-8.811,12.6,2.727,11.777
				c15.191-1.082,16.287-29.188,16.273-40.777c-0.041-40.406-4.268-82.045-10.977-120.023c-1.475-8.35-2.035-18.835-6.748-26.305
				c-4.146-6.571-11.523-11.363-16.596-17.358c-1.41-2.181-3.428-3.892-4.703-6.116c-11.953-20.836-11.736-23.644-11.699-40.239
				l-0.117,0.047c0.502-8.744,1.561-17.609,3.404-22.809c3.361-9.487,7.646-18.492,10.869-27.449
				c1.494-4.156,2.385-9.862,2.703-15.685c0.316-5.823,0.062-11.763-0.73-16.388c-0.893-5.206,0.443-14.911-1.379-19.977
				c-1.736-4.826-6.328-5.452-6.623-10.26c-3.217-1.525-8.227-2.398-13.287-2.484c-7.086-0.123-14.244,1.294-16.652,4.587
				c-2.406-3.292-9.564-4.709-16.65-4.587c-5.061,0.086-10.07,0.958-13.287,2.484c-0.297,4.808-4.887,5.434-6.623,10.26
				c-1.822,5.066-0.486,14.771-1.379,19.977c-0.793,4.625-1.047,10.565-0.73,16.388c0.318,5.822,1.209,11.528,2.703,15.685
				c3.223,8.957,7.508,17.962,10.869,27.449c3.275,9.241,4.074,30.053,3.68,41.192c-1.426,5.407-4.357,11.326-10.371,21.808
				c-1.275,2.225-3.293,3.936-4.703,6.116c-5.072,5.996-12.449,10.787-16.596,17.358c-4.713,7.47-5.273,17.956-6.748,26.305
				c-6.709,37.979-10.936,79.617-10.977,120.023c-0.014,11.59,1.082,39.695,16.273,40.777c11.537,0.822,5.281-6.426,2.727-11.777
				c-2.92-6.113-3.246-13.088-2.85-20.848c1.6-0.406,4.092-0.434,5.674,0.021c2.031,6.918,8.959,11.561,10.395,2.045
				c0.938-6.223-4.951-8.225-7.219-14.223c-2.518-6.652-6.91-13.934-8.652-21.719c-1.971-8.807-0.092-21.105,0-30.625
				c0.16-16.604,4.627-26.354,7.707-41.598c2.008-9.943,0.711-27.119,6.496-35.331v0.864c-4.172,16.061,0.215,42.307,0.215,58.215
				c0,15.562-0.635,31.357,0.152,46.85c1.811,0.15,3.58,0.342,5.324,0.561l3.117,208.092l0.035,2.389
				c-0.143,0.658-0.316,1.338-0.352,1.967c-0.398,7.123-4.455,8.791-9.701,11.965c-4.641,2.809-9.869,5.623-15.459,6.775
				c-4.645,0.957-12.646-0.283-13.84,5.26c-1.65,7.67,5.926,6.322,10.852,7.076c2.783,0.426,4.879,1.475,7.816,1.592
				c3.256,0.129,6.75-0.205,9.908-0.658c6.578-0.943,13.289-0.998,20.1-1.684c5.936-0.598,15.379,1.533,16.658-5.301
				c1.5-8.014-3.166-15.459-2.334-23.025l0.066-4.193h0.027l-0.014-0.939l0.014-0.904c-0.008,0-0.018,0-0.027-0.002l-3.066-204.719
				c3.023,0.375,6.146,0.658,9.42,0.799v0.104c0.039,0,0.08,0,0.119,0c0.711,0,1.396-0.023,2.092-0.039
				c0.695,0.016,1.381,0.039,2.092,0.039c0.039,0,0.08,0,0.119,0v-0.104c3.273-0.141,6.396-0.424,9.42-0.799l-3.066,204.719
				c-0.01,0.002-0.02,0.002-0.027,0.002l0.014,0.904l-0.014,0.939h0.027l0.066,4.193c0.832,7.566-3.834,15.012-2.334,23.025
				c1.279,6.834,10.723,4.703,16.658,5.301c6.811,0.686,13.521,0.74,20.1,1.684c3.158,0.453,6.652,0.787,9.908,0.658
				c2.938-0.117,5.033-1.166,7.816-1.592C216.193,646.703,223.77,648.051,222.119,640.381z M149.627,188.739
				c-0.07-1.721-0.066-3.454,0-5.202C149.693,185.285,149.697,187.018,149.627,188.739z"/>
		</g>
		<circle fill="#B18F6A" cx="146.082" cy="162.098" r="1.625"/>
		<circle fill="#B18F6A" cx="152.957" cy="162.098" r="1.625"/>
		<rect x="138.738" y="176.433" fill="#FFFFFF" width="4" height="2"/>
		<rect x="143.988" y="176.433" fill="#FFFFFF" width="4" height="2"/>
		<rect x="154.988" y="176.356" fill="#FFFFFF" width="4" height="2"/>
		<rect x="149.738" y="176.356" fill="#FFFFFF" width="4" height="2"/>
		<path fill="none" stroke="#F3776B" stroke-miterlimit="10" d="M163.613,175.395c-1.615-0.225-2.867,0.771-4.305,1
			c-1.084,0.173-2.346,0-3.445,0c-2.5,0-5,0-7.5,0h1c-2.5,0-5,0-7.5,0c-1.1,0-2.361,0.173-3.443,0c-1.439-0.229-2.691-1.225-4.307-1
			"/>
		<path fill="none" stroke="#F3776B" stroke-miterlimit="10" d="M158.832,135.848c3.232-5.575,9.205-3.979,15-4"/>
		<path fill="none" stroke="#F3776B" stroke-miterlimit="10" d="M121.479,136.946c3.23-5.574,9.205-3.979,15-4"/>
		<polygon fill="#414042" points="191.244,408.525 148.616,408.525 105.988,408.525 105.988,338.902 115.92,266.089 
			150.488,279.854 186,264.645 191.244,338.902 		"/>
	</g>
	<g>
		<polygon fill="#414042" points="144.422,616.018 136.172,616.018 127.922,616.018 119.672,616.018 111.422,616.018 
			107.922,581.816 107.531,513.822 107.531,466.822 111.422,385.018 119.672,385.018 127.922,385.018 136.172,385.018 
			144.422,385.018 155.801,384.189 144.602,488.018 144.355,590.822 		"/>
	</g>
	<polygon fill="#414042" points="156.514,616.018 164.764,616.018 173.014,616.018 181.264,616.018 189.514,616.018 
		193.014,581.816 193.402,513.822 193.402,466.822 189.514,385.018 181.264,385.018 173.014,385.018 164.764,385.018 
		156.514,385.018 145.133,384.189 156.332,488.018 156.58,590.822 	"/>
	<polygon fill="#E6E7E8" stroke="#DD4230" stroke-miterlimit="10" points="149.082,351.676 100.158,471.135 107.531,269.279 
		128.209,239.109 	"/>
	<path fill="#E6E7E8" stroke="#005083" stroke-miterlimit="10" d="M105.143,334.674c0,0.85-10.475,65.082-11.775,65.082
		l-23.061,6.691c-1.301,0,11.682-65.792,11.682-66.643c0,0,16.098-73.715,17.398-73.715h7.373"/>
	<polygon fill="#DD4231" points="103.02,392.797 115.648,374.395 137.533,289.396 128.209,239.109 	"/>
	<polygon fill="#DD4231" points="123.041,415.262 103.02,392.797 114.955,374.154 133.488,389.566 	"/>
	<polygon fill="#015084" points="108.334,306.566 107.531,281.212 107.531,269.279 118.254,253.634 	"/>
	<polygon fill="#DD4231" points="129.322,360.289 147.582,343.58 145.133,327.566 134.113,338.566 	"/>
	<polygon fill="#015084" points="148.906,349.955 138.451,360.289 145.555,360.289 148.654,353.232 	"/>
	<polygon fill="#DD4231" points="100.158,471.135 100.158,471.135 103.02,392.797 105.988,392.797 	"/>
	<polygon fill="#DD4231" points="106.76,272.469 95.578,279.854 99.387,266.089 106.76,266.089 	"/>
	<polygon fill="#015084" points="108.334,306.566 107.531,315.953 95.578,279.854 107.531,269.279 	"/>
	<polygon fill="#DD4231" points="97.379,380.971 82.322,337.566 87.727,313.99 101.785,355.121 	"/>
	<polygon fill="#DD4231" points="101.785,355.121 98.184,349.955 103.959,323.693 105.988,329.632 	"/>
	<polygon fill="#E6E7E8" stroke="#DD4230" stroke-miterlimit="10" points="151.811,350.406 200.734,469.865 193.361,268.01 
		172.684,237.84 	"/>
	<path fill="#E6E7E8" stroke="#005083" stroke-miterlimit="10" d="M195.75,333.404c0,0.85,10.475,65.082,11.777,65.082l23.059,6.691
		c1.301,0-11.682-65.791-11.682-66.643c0,0-16.098-73.714-17.398-73.714h-7.373"/>
	<polygon fill="#DD4231" points="197.873,391.527 185.246,373.125 163.359,288.127 172.684,237.84 	"/>
	<polygon fill="#DD4231" points="177.854,413.992 197.873,391.527 185.939,372.885 167.404,388.297 	"/>
	<polygon fill="#015084" points="192.559,305.297 193.361,279.944 193.361,268.01 182.639,252.365 	"/>
	<polygon fill="#DD4231" points="194.133,271.2 205.314,278.585 201.506,264.821 194.133,264.821 	"/>
	<polygon fill="#015084" points="192.559,305.297 193.361,314.684 205.314,278.585 193.361,268.01 	"/>
	<polygon fill="#DD4231" points="203.514,379.701 218.572,336.297 213.166,312.721 199.107,353.852 	"/>
	<polygon fill="#DD4231" points="199.107,353.852 202.709,348.686 196.936,322.424 194.904,328.363 	"/>
	<polygon fill="#DD4231" points="172.281,360.717 154.021,344.009 156.469,327.995 167.488,338.995 	"/>
	<polygon fill="#015084" points="152.695,350.385 163.15,360.717 156.047,360.717 152.947,353.662 	"/>
	<g>
		<path fill="#F3776B" d="M186.232,129.036c0.287,0.202,0.576,0.408,0.861,0.589"/>
		<path fill="#F3776B" d="M185.963,134.625"/>
	</g>
	<rect x="147.627" y="193.739" fill="#F3776B" width="4.395" height="12.578"/>
	<polyline fill="#F3776B" points="138.621,200.982 161.105,200.982 149.863,209.522 	"/>
	<path fill="#F7CAC9" d="M117.371,136.155c-6.369,0-11.533,5.163-11.533,11.532s5.164,11.532,11.533,11.532V136.155z"/>
	<path fill="#F7CAC9" d="M180.234,135.155c6.369,0,11.531,5.163,11.531,11.532s-5.162,11.532-11.531,11.532V135.155z"/>
	<circle fill="#FFFFFF" cx="167.738" cy="146.84" r="9"/>
	<circle fill="#FFFFFF" cx="130.238" cy="146.84" r="9"/>
	<circle fill="#91A8CF" cx="130.238" cy="146.683" r="3.5"/>
	<circle fill="#7CC253" cx="167.816" cy="146.683" r="5.5"/>
	<circle fill="#090A11" cx="167.816" cy="146.683" r="3.5"/>
	<circle fill="#090A11" cx="130.238" cy="146.683" r="1"/>
	<polygon fill="#414042" points="150.488,279.854 121.238,269.279 126.738,234.857 	"/>
	<polygon fill="#414042" points="150.488,279.854 179,269.279 173.316,234.857 	"/>
	<polygon fill="#E6E7E8" points="99.857,530.305 72.367,526.703 84.488,487.641 99.857,487.891 	"/>
	<polyline fill="#DD4231" points="83.875,488.248 101.656,511.912 100.768,431.965 	"/>
	<polygon fill="#015084" points="78.92,501.104 100.785,530.305 70.174,530.305 77.516,506.141 	"/>
	<rect x="99.857" y="504.566" fill="#DD4231" width="1.717" height="26"/>
	<polygon fill="#E6E7E8" points="200.367,530.305 227.857,526.703 215.736,487.641 200.367,487.891 	"/>
	<polyline fill="#DD4231" points="216.719,488.248 198.938,511.912 199.826,431.965 	"/>
	<polygon fill="#015084" points="220.674,501.104 198.807,530.305 229.42,530.305 222.076,506.141 	"/>
	<rect x="199.018" y="504.566" fill="#DD4231" width="1.717" height="26"/>
	<polygon fill="#414042" points="104.02,421.029 69.168,421.598 78.143,402.598 94.367,399.756 	"/>
	<polygon fill="#015084" points="70.307,406.447 80.1,349.955 95.578,390.615 93.367,399.756 	"/>
	<polygon fill="#414042" points="195.98,418.77 230.832,419.338 221.857,400.338 205.633,397.496 	"/>
	<polygon fill="#015084" points="230.586,405.178 220.795,348.686 205.314,389.346 207.527,398.486 	"/>
	<g>
		<polyline fill="#F3776B" points="105.557,92.252 109.867,81.388 114.219,92.239 118.529,81.376 122.881,92.227 127.191,81.365 
			131.545,92.213 135.852,81.349 140.203,92.202 144.512,81.339 148.865,92.191 153.174,82.231 157.527,92.18 161.842,81.318 
			166.197,92.17 170.512,81.306 174.865,92.156 179.178,81.295 183.537,92.15 187.857,81.288 192.83,93.667 190.254,98.268 
			187.877,92.357 183.557,103.222 179.199,92.375 174.885,103.242 170.531,92.39 166.217,103.252 161.863,92.402 157.549,103.266 
			153.197,92.417 148.887,103.281 144.533,92.43 140.225,103.295 135.873,92.445 131.568,103.308 127.215,92.453 122.902,103.317 
			118.549,92.466 114.238,103.33 109.887,92.479 105.578,103.342 		"/>
	</g>
	<g>
		<path fill="#F3776B" d="M105.281,110.927c1.293,6.05,3.717,34.171,4.787,39.633c1.09-10.377,14.889-38.323,25.689-40.959
			c4.465-1.089,8.73-0.051,13.168,0.423c0.076-0.008,0.154-0.019,0.23-0.027V90.24h-41.625
			C107,97.028,103.941,104.647,105.281,110.927z"/>
		<path fill="#F3776B" d="M192.83,93.667l-43.664-3.427v19.758c0.076,0.008,0.154,0.02,0.23,0.027
			c4.438-0.475,8.701-1.513,13.166-0.423c10.803,2.636,24.602,30.582,25.689,40.959c1.07-5.462,3.496-33.583,4.787-39.633
			C194.485,104.159,193.362,100.469,192.83,93.667z"/>
	</g>
	<path fill="#414042" d="M145.018,628.426c-0.805-5.479-2.088-10.498-2.123-14.197c-5.777-0.266-17.16-3.311-22.414-1.064
		c-2.57,1.098-10.441,7.469-13.283,9.322c-3.084,2.014-5.291,4.047-8.879,5.219c-0.793,0.26-1.682,0.494-2.637,0.721H83.525
		c-7.305,0-13.227,8.363-13.227,18.686h0.033C70.135,649.996,78.336,650,85.615,650h43.848c0.195,0,0.387-0.004,0.58-0.006V650
		h13.082l1.947-2.889h0.061v-18.686H145.018z"/>
	<path fill="#414042" d="M156.102,628.426c0.805-5.479,2.088-10.498,2.123-14.197c5.777-0.266,17.16-3.311,22.414-1.064
		c2.57,1.098,10.441,7.469,13.283,9.322c3.084,2.014,5.291,4.047,8.879,5.219c0.793,0.26,1.682,0.494,2.637,0.721h12.156
		c7.305,0,13.227,8.363,13.227,18.686h-0.033c0.197,2.885-8.004,2.889-15.283,2.889h-43.848c-0.195,0-0.387-0.004-0.58-0.006V650
		h-13.082l-1.947-2.889h-0.061v-18.686H156.102z"/>
</g>
</svg>
