<?xml version="1.0" encoding="utf-8"?>
<!-- Generator: Adobe Illustrator 16.0.0, SVG Export Plug-In . SVG Version: 6.00 Build 0)  -->
<!DOCTYPE svg PUBLIC "-//W3C//DTD SVG 1.1//EN" "http://www.w3.org/Graphics/SVG/1.1/DTD/svg11.dtd">
<svg version="1.1" id="Layer_1" xmlns="http://www.w3.org/2000/svg" xmlns:xlink="http://www.w3.org/1999/xlink" x="0px" y="0px"
	 width="300px" height="660px" viewBox="0 0 300 660" enable-background="new 0 0 300 660" xml:space="preserve">
<g>
	<polygon fill="#58595B" stroke="#005083" stroke-width="1.0704" stroke-miterlimit="10" points="229.42,522.566 70.307,522.566 
		109.732,395.373 191.244,395.373 	"/>
	<g>
		<g>
			<path fill="#F7CAC9" stroke="#DDB5B4" stroke-miterlimit="10" d="M116.711,102.418l1.217-1.218
				C117.424,101.58,117.004,101.983,116.711,102.418z"/>
			<path fill="#F7CAC9" stroke="#DDB5B4" stroke-miterlimit="10" d="M118.211,100.918l-0.283,0.282
				c0.5-0.375,1.09-0.723,1.762-1.042c0.014-0.239,0.029-0.479,0.021-0.74L118.211,100.918z"/>
			<path fill="#F7CAC9" stroke="#DDB5B4" stroke-miterlimit="10" d="M181.326,101.2l1.219,1.218
				C182.25,101.983,181.832,101.58,181.326,101.2z"/>
			<path fill="#F7CAC9" stroke="#DDB5B4" stroke-miterlimit="10" d="M181.045,100.918l-1.5-1.5c-0.008,0.261,0.006,0.501,0.021,0.74
				c0.672,0.319,1.262,0.667,1.76,1.042L181.045,100.918z"/>
			<path fill="#F7CAC9" stroke="#DDB5B4" stroke-miterlimit="10" d="M222.119,632.381c-1.193-5.543-9.195-4.303-13.84-5.26
				c-5.59-1.152-10.818-3.967-15.459-6.775c-5.246-3.174-9.303-4.842-9.701-11.965c-0.035-0.629-0.209-1.309-0.352-1.967
				l0.035-2.389l3.117-208.092c1.744-0.219,3.514-0.41,5.324-0.561c0.787-15.492,0.152-31.287,0.152-46.85
				c0-15.908,4.387-42.154,0.215-58.215v-0.864c5.785,8.212,4.488,25.388,6.496,35.331c3.08,15.244,5.721,24.879,5.881,41.482
				c0.092,9.52,9.146,26.23,1.326,34.268c-5.562,5.719-5.635,11.539-8.152,18.191c-2.268,5.998-8.156,8-7.219,14.223
				c1.436,9.516,8.363,4.873,10.395-2.045c1.582-0.455,4.074-0.428,5.674-0.021c0.396,7.76,0.07,14.734-2.85,20.848
				c-2.555,5.352-8.811,12.6,2.727,11.777c15.191-1.082,16.287-29.188,16.273-40.777c-0.041-40.406-4.268-82.045-10.977-120.023
				c-1.475-8.35-2.035-18.835-6.748-26.305c-4.146-6.571-11.523-11.363-16.596-17.358c-1.41-2.181-3.428-3.892-4.703-6.116
				c-11.953-20.836-11.736-23.644-11.699-40.239l-0.117,0.047c0.502-8.744,1.561-17.609,3.404-22.809
				c3.361-9.487,7.646-18.492,10.869-27.449c1.494-4.156,2.385-9.862,2.703-15.685c0.316-5.823,0.062-11.763-0.73-16.388
				c-0.893-5.206,0.443-14.911-1.379-19.977c-1.736-4.826-6.328-5.452-6.623-10.26c-3.217-1.525-8.227-2.398-13.287-2.484
				c-7.086-0.123-14.244,1.294-16.652,4.587c-2.406-3.292-9.564-4.709-16.65-4.587c-5.061,0.086-10.07,0.958-13.287,2.484
				c-0.297,4.808-4.887,5.434-6.623,10.26c-1.822,5.066-0.486,14.771-1.379,19.977c-0.793,4.625-1.047,10.565-0.73,16.388
				c0.318,5.822,1.209,11.528,2.703,15.685c3.223,8.957,7.508,17.962,10.869,27.449c3.275,9.241,4.074,30.053,3.68,41.192
				c-1.426,5.407-4.357,11.326-10.371,21.808c-1.275,2.225-3.293,3.936-4.703,6.116c-5.072,5.996-12.449,10.787-16.596,17.358
				c-4.713,7.47-5.273,17.956-6.748,26.305c-6.709,37.979-10.936,79.617-10.977,120.023c-0.014,11.59,1.082,39.695,16.273,40.777
				c11.537,0.822,5.281-6.426,2.727-11.777c-2.92-6.113-3.246-13.088-2.85-20.848c1.6-0.406,4.092-0.434,5.674,0.021
				c2.031,6.918,8.959,11.561,10.395,2.045c0.938-6.223-4.951-8.225-7.219-14.223c-2.518-6.652-6.91-13.934-8.652-21.719
				c-1.971-8.807-0.092-21.105,0-30.625c0.16-16.604,4.627-26.354,7.707-41.598c2.008-9.943,0.711-27.119,6.496-35.331v0.864
				c-4.172,16.061,0.215,42.307,0.215,58.215c0,15.562-0.635,31.357,0.152,46.85c1.811,0.15,3.58,0.342,5.324,0.561l3.117,208.092
				l0.035,2.389c-0.143,0.658-0.316,1.338-0.352,1.967c-0.398,7.123-4.455,8.791-9.701,11.965
				c-4.641,2.809-9.869,5.623-15.459,6.775c-4.645,0.957-12.646-0.283-13.84,5.26c-1.65,7.67,5.926,6.322,10.852,7.076
				c2.783,0.426,4.879,1.475,7.816,1.592c3.256,0.129,6.75-0.205,9.908-0.658c6.578-0.943,13.289-0.998,20.1-1.684
				c5.936-0.598,15.379,1.533,16.658-5.301c1.5-8.014-3.166-15.459-2.334-23.025l0.066-4.193h0.027l-0.014-0.939l0.014-0.904
				c-0.008,0-0.018,0-0.027-0.002l-3.066-204.719c3.023,0.375,6.146,0.658,9.42,0.799v0.104c0.039,0,0.08,0,0.119,0
				c0.711,0,1.396-0.023,2.092-0.039c0.695,0.016,1.381,0.039,2.092,0.039c0.039,0,0.08,0,0.119,0v-0.104
				c3.273-0.141,6.396-0.424,9.42-0.799l-3.066,204.719c-0.01,0.002-0.02,0.002-0.027,0.002l0.014,0.904l-0.014,0.939h0.027
				l0.066,4.193c0.832,7.566-3.834,15.012-2.334,23.025c1.279,6.834,10.723,4.703,16.658,5.301c6.811,0.686,13.521,0.74,20.1,1.684
				c3.158,0.453,6.652,0.787,9.908,0.658c2.938-0.117,5.033-1.166,7.816-1.592C216.193,638.703,223.77,640.051,222.119,632.381z"/>
		</g>
		<circle fill="#B18F6A" cx="146.082" cy="154.098" r="1.625"/>
		<circle fill="#B18F6A" cx="152.957" cy="154.098" r="1.625"/>
		<rect x="138.738" y="168.433" fill="#FFFFFF" width="4" height="2"/>
		<rect x="143.988" y="168.433" fill="#FFFFFF" width="4" height="2"/>
		<rect x="154.988" y="168.356" fill="#FFFFFF" width="4" height="2"/>
		<rect x="149.738" y="168.356" fill="#FFFFFF" width="4" height="2"/>
		<path fill="none" stroke="#F3776B" stroke-miterlimit="10" d="M163.613,167.395c-1.615-0.225-2.867,0.771-4.305,1
			c-1.084,0.173-2.346,0-3.445,0c-2.5,0-5,0-7.5,0h1c-2.5,0-5,0-7.5,0c-1.1,0-2.361,0.173-3.443,0c-1.439-0.229-2.691-1.225-4.307-1
			"/>
		<path fill="none" stroke="#F3776B" stroke-miterlimit="10" d="M158.832,127.848c3.232-5.575,9.205-3.979,15-4"/>
		<path fill="none" stroke="#F3776B" stroke-miterlimit="10" d="M121.479,128.946c3.23-5.574,9.205-3.979,15-4"/>
		<polygon fill="#414042" points="191.244,400.525 148.616,400.525 105.988,400.525 105.988,330.902 115.92,258.089 
			150.488,271.854 186,256.645 191.244,330.902 		"/>
	</g>
	<g>
		<polygon fill="#414042" points="144.422,608.018 136.172,608.018 127.922,608.018 119.672,608.018 111.422,608.018 
			107.922,573.816 107.531,505.822 107.531,458.822 111.422,377.018 119.672,377.018 127.922,377.018 136.172,377.018 
			144.422,377.018 155.801,376.189 144.602,480.018 144.355,582.822 		"/>
	</g>
	<polygon fill="#414042" points="156.514,608.018 164.764,608.018 173.014,608.018 181.264,608.018 189.514,608.018 
		193.014,573.816 193.402,505.822 193.402,458.822 189.514,377.018 181.264,377.018 173.014,377.018 164.764,377.018 
		156.514,377.018 145.133,376.189 156.332,480.018 156.58,582.822 	"/>
	<polygon fill="#E6E7E8" stroke="#DD4230" stroke-miterlimit="10" points="149.082,343.676 100.158,463.135 107.531,261.279 
		128.209,231.109 	"/>
	<path fill="#E6E7E8" stroke="#005083" stroke-miterlimit="10" d="M105.143,326.674c0,0.85-10.475,65.082-11.775,65.082
		l-23.061,6.691c-1.301,0,11.682-65.792,11.682-66.643c0,0,16.098-73.715,17.398-73.715h7.373"/>
	<polygon fill="#DD4231" points="103.02,384.797 115.648,366.395 137.533,281.396 128.209,231.109 	"/>
	<polygon fill="#DD4231" points="123.041,407.262 103.02,384.797 114.955,366.154 133.488,381.566 	"/>
	<polygon fill="#015084" points="108.334,298.566 107.531,273.212 107.531,261.279 118.254,245.634 	"/>
	<polygon fill="#DD4231" points="129.322,352.289 147.582,335.58 145.133,319.566 134.113,330.566 	"/>
	<polygon fill="#015084" points="148.906,341.955 138.451,352.289 145.555,352.289 148.654,345.232 	"/>
	<polygon fill="#DD4231" points="100.158,463.135 100.158,463.135 103.02,384.797 105.988,384.797 	"/>
	<polygon fill="#DD4231" points="106.76,264.469 95.578,271.854 99.387,258.089 106.76,258.089 	"/>
	<polygon fill="#015084" points="108.334,298.566 107.531,307.953 95.578,271.854 107.531,261.279 	"/>
	<polygon fill="#DD4231" points="97.379,372.971 82.322,329.566 87.727,305.99 101.785,347.121 	"/>
	<polygon fill="#DD4231" points="101.785,347.121 98.184,341.955 103.959,315.693 105.988,321.632 	"/>
	<polygon fill="#E6E7E8" stroke="#DD4230" stroke-miterlimit="10" points="151.811,342.406 200.734,461.865 193.361,260.01 
		172.684,229.84 	"/>
	<path fill="#E6E7E8" stroke="#005083" stroke-miterlimit="10" d="M195.75,325.404c0,0.85,10.475,65.082,11.777,65.082l23.059,6.691
		c1.301,0-11.682-65.791-11.682-66.643c0,0-16.098-73.714-17.398-73.714h-7.373"/>
	<polygon fill="#DD4231" points="197.873,383.527 185.246,365.125 163.359,280.127 172.684,229.84 	"/>
	<polygon fill="#DD4231" points="177.854,405.992 197.873,383.527 185.939,364.885 167.404,380.297 	"/>
	<polygon fill="#015084" points="192.559,297.297 193.361,271.944 193.361,260.01 182.639,244.365 	"/>
	<polygon fill="#DD4231" points="194.133,263.2 205.314,270.585 201.506,256.821 194.133,256.821 	"/>
	<polygon fill="#015084" points="192.559,297.297 193.361,306.684 205.314,270.585 193.361,260.01 	"/>
	<polygon fill="#DD4231" points="203.514,371.701 218.572,328.297 213.166,304.721 199.107,345.852 	"/>
	<polygon fill="#DD4231" points="199.107,345.852 202.709,340.686 196.936,314.424 194.904,320.363 	"/>
	<polygon fill="#DD4231" points="172.281,352.717 154.021,336.009 156.469,319.995 167.488,330.995 	"/>
	<polygon fill="#015084" points="152.695,342.385 163.15,352.717 156.047,352.717 152.947,345.662 	"/>
	<g>
		<path fill="#F3776B" d="M186.232,121.036c0.287,0.202,0.576,0.408,0.861,0.589"/>
		<path fill="#F3776B" d="M185.963,126.625"/>
	</g>
	<rect x="147.627" y="185.739" fill="#F3776B" width="4.395" height="12.578"/>
	<polyline fill="#F3776B" points="138.621,192.982 161.105,192.982 149.863,201.522 	"/>
	<path fill="#F7CAC9" d="M117.371,128.155c-6.369,0-11.533,5.163-11.533,11.532s5.164,11.532,11.533,11.532V128.155z"/>
	<path fill="#F7CAC9" d="M180.234,127.155c6.369,0,11.531,5.163,11.531,11.532s-5.162,11.532-11.531,11.532V127.155z"/>
	<circle fill="#FFFFFF" cx="167.738" cy="138.84" r="9"/>
	<circle fill="#FFFFFF" cx="130.238" cy="138.84" r="9"/>
	<circle fill="#91A8CF" cx="130.238" cy="138.683" r="3.5"/>
	<circle fill="#7CC253" cx="167.816" cy="138.683" r="5.5"/>
	<circle fill="#090A11" cx="167.816" cy="138.683" r="3.5"/>
	<circle fill="#090A11" cx="130.238" cy="138.683" r="1"/>
	<polygon fill="#414042" points="150.488,271.854 121.238,261.279 126.738,226.857 	"/>
	<polygon fill="#414042" points="150.488,271.854 179,261.279 173.316,226.857 	"/>
	<polygon fill="#E6E7E8" points="99.857,522.305 72.367,518.703 84.488,479.641 99.857,479.891 	"/>
	<polyline fill="#DD4231" points="83.875,480.248 101.656,503.912 100.768,423.965 	"/>
	<polygon fill="#015084" points="78.92,493.104 100.785,522.305 70.174,522.305 77.516,498.141 	"/>
	<rect x="99.857" y="496.566" fill="#DD4231" width="1.717" height="26"/>
	<polygon fill="#E6E7E8" points="200.367,522.305 227.857,518.703 215.736,479.641 200.367,479.891 	"/>
	<polyline fill="#DD4231" points="216.719,480.248 198.938,503.912 199.826,423.965 	"/>
	<polygon fill="#015084" points="220.674,493.104 198.807,522.305 229.42,522.305 222.076,498.141 	"/>
	<rect x="199.018" y="496.566" fill="#DD4231" width="1.717" height="26"/>
	<polygon fill="#414042" points="104.02,413.029 69.168,413.598 78.143,394.598 94.367,391.756 	"/>
	<polygon fill="#015084" points="70.307,398.447 80.1,341.955 95.578,382.615 93.367,391.756 	"/>
	<polygon fill="#414042" points="195.98,410.77 230.832,411.338 221.857,392.338 205.633,389.496 	"/>
	<polygon fill="#015084" points="230.586,397.178 220.795,340.686 205.314,381.346 207.527,390.486 	"/>
	<path fill="#414042" d="M145.018,620.426c-0.805-5.479-2.088-10.498-2.123-14.197c-5.777-0.266-17.16-3.311-22.414-1.064
		c-2.57,1.098-10.441,7.469-13.283,9.322c-3.084,2.014-5.291,4.047-8.879,5.219c-0.793,0.26-1.682,0.494-2.637,0.721H83.525
		c-7.305,0-13.227,8.363-13.227,18.686h0.033C70.135,641.996,78.336,642,85.615,642h43.848c0.195,0,0.387-0.004,0.58-0.006V642
		h13.082l1.947-2.889h0.061v-18.686H145.018z"/>
	<path fill="#414042" d="M156.102,620.426c0.805-5.479,2.088-10.498,2.123-14.197c5.777-0.266,17.16-3.311,22.414-1.064
		c2.57,1.098,10.441,7.469,13.283,9.322c3.084,2.014,5.291,4.047,8.879,5.219c0.793,0.26,1.682,0.494,2.637,0.721h12.156
		c7.305,0,13.227,8.363,13.227,18.686h-0.033c0.197,2.885-8.004,2.889-15.283,2.889h-43.848c-0.195,0-0.387-0.004-0.58-0.006V642
		h-13.082l-1.947-2.889h-0.061v-18.686H156.102z"/>
	<path fill="#F3776B" d="M192.83,85.667l-4.973-12.378l-4.32,10.862l-4.359-10.855l-4.312,10.86l-4.354-10.85l-4.086,10.289
		l-0.475-0.038l-4.109-10.238l-3.819,9.616l-1.077-0.084l-3.771-8.619l-3.465,8.008h-0.516h-0.037h-1.074l-3.57-8.901l-3.53,8.901
		h-1.565l-3.564-8.891l-3.524,8.891h-1.574l-3.562-8.875l-3.521,8.875h-1.586l-3.555-8.863l-3.518,8.863h-1.595l-3.55-8.852
		l-4.311,10.864l0.018,9.25c-0.584,3.286-0.917,6.5-0.293,9.425c1.293,6.05,3.717,34.171,4.787,39.633
		c1.09-10.377,14.889-38.323,25.689-40.959c4.441-1.084,8.687-0.063,13.1,0.415l0.336,0.61l0.341-0.619
		c4.388-0.481,8.609-1.485,13.028-0.407c10.803,2.636,24.602,30.582,25.689,40.959c1.07-5.462,3.496-33.583,4.787-39.633
		C194.485,96.159,193.362,92.469,192.83,85.667z"/>
</g>
</svg>
