<?xml version="1.0" encoding="utf-8"?>
<!-- Generator: Adobe Illustrator 16.0.0, SVG Export Plug-In . SVG Version: 6.00 Build 0)  -->
<!DOCTYPE svg PUBLIC "-//W3C//DTD SVG 1.1//EN" "http://www.w3.org/Graphics/SVG/1.1/DTD/svg11.dtd">
<svg version="1.1" id="Layer_1" xmlns="http://www.w3.org/2000/svg" xmlns:xlink="http://www.w3.org/1999/xlink" x="0px" y="0px"
	 width="300px" height="700px" viewBox="0 0 300 700" enable-background="new 0 0 300 700" xml:space="preserve">
<pattern  width="31.334" height="31.333" patternUnits="userSpaceOnUse" id="New_Pattern_Swatch_1" viewBox="0 -31.333 31.334 31.333" overflow="visible">
	<g>
		<polygon fill="none" points="0,0 31.334,0 31.334,-31.333 0,-31.333 		"/>
		<polygon fill="#005083" points="31.334,0 0,0 0,-31.333 31.334,-31.333 		"/>
		<path fill="#FFFFFF" d="M9.007-21.668c0,0.552-0.448,1-1,1s-1-0.448-1-1s0.448-1,1-1S9.007-22.22,9.007-21.668z"/>
		<path fill="#FFFFFF" d="M5.007-4.868c0,0.552-0.448,1-1,1s-1-0.448-1-1s0.448-1,1-1S5.007-5.42,5.007-4.868z"/>
		<path fill="#FFFFFF" d="M9.007-10.334c0,0.552-0.448,1-1,1s-1-0.448-1-1s0.448-1,1-1S9.007-10.887,9.007-10.334z"/>
		<path fill="#FFFFFF" d="M17.667-25.668c0,0.552-0.448,1-1,1s-1-0.448-1-1s0.448-1,1-1S17.667-26.22,17.667-25.668z"/>
		<path fill="#FFFFFF" d="M15.667-7.334c0,0.552-0.448,1-1,1s-1-0.448-1-1s0.448-1,1-1S15.667-7.887,15.667-7.334z"/>
		<path fill="#FFFFFF" d="M3.007-14.667c0,0.552-0.448,1-1,1s-1-0.448-1-1s0.448-1,1-1S3.007-15.219,3.007-14.667z"/>
		<path fill="#FFFFFF" d="M26.673-20.668c0,0.552-0.448,1-1,1s-1-0.448-1-1s0.448-1,1-1S26.673-21.22,26.673-20.668z"/>
		<path fill="#FFFFFF" d="M20.84-21.201c0,0.552-0.448,1-1,1s-1-0.448-1-1s0.448-1,1-1S20.84-21.753,20.84-21.201z"/>
		<path fill="#FFFFFF" d="M20.173-2.667c0,0.552-0.448,1-1,1s-1-0.448-1-1s0.448-1,1-1S20.173-3.22,20.173-2.667z"/>
		<path fill="#FFFFFF" d="M20.84-9.868c0,0.552-0.448,1-1,1s-1-0.448-1-1s0.448-1,1-1S20.84-10.42,20.84-9.868z"/>
		<path fill="#FFFFFF" d="M29.5-25.201c0,0.552-0.448,1-1,1s-1-0.448-1-1s0.448-1,1-1S29.5-25.753,29.5-25.201z"/>
		<path fill="#FFFFFF" d="M27.5-6.868c0,0.552-0.448,1-1,1s-1-0.448-1-1s0.448-1,1-1S27.5-7.42,27.5-6.868z"/>
		<path fill="#FFFFFF" d="M14.84-14.2c0,0.552-0.448,1-1,1s-1-0.448-1-1s0.448-1,1-1S14.84-14.752,14.84-14.2z"/>
		<path fill="#FFFFFF" d="M26.673-13.2c0,0.552-0.448,1-1,1s-1-0.448-1-1s0.448-1,1-1S26.673-13.752,26.673-13.2z"/>
		<path fill="#FFFFFF" d="M8.834-29.368c0,0.552-0.448,1-1,1s-1-0.448-1-1s0.448-1,1-1S8.834-29.92,8.834-29.368z"/>
		<path fill="#FFFFFF" d="M23.167-17.035c0,0.552-0.448,1-1,1s-1-0.448-1-1s0.448-1,1-1S23.167-17.587,23.167-17.035z"/>
		<path fill="#FFFFFF" d="M9.007-15.2c0,0.552-0.448,1-1,1s-1-0.448-1-1s0.448-1,1-1S9.007-15.752,9.007-15.2z"/>
		<path fill="#FFFFFF" d="M10.007-3.868c0,0.552-0.448,1-1,1s-1-0.448-1-1s0.448-1,1-1S10.007-4.42,10.007-3.868z"/>
		<path fill="#FFFFFF" d="M14.667-21.668c0,0.552-0.448,1-1,1s-1-0.448-1-1s0.448-1,1-1S14.667-22.22,14.667-21.668z"/>
		<path fill="#FFFFFF" d="M2.834-22.367c0,0.552-0.448,1-1,1s-1-0.448-1-1s0.448-1,1-1S2.834-22.919,2.834-22.367z"/>
		<path fill="#FFFFFF" d="M26.5-28.368c0,0.552-0.448,1-1,1s-1-0.448-1-1s0.448-1,1-1S26.5-28.92,26.5-28.368z"/>
	</g>
</pattern>
<pattern  width="20.007" height="20.165" patternUnits="userSpaceOnUse" id="New_Pattern_Swatch_9" viewBox="0 -20.165 20.007 20.165" overflow="visible">
	<g>
		<polygon fill="none" points="0,0 20.007,0 20.007,-20.165 0,-20.165 		"/>
		<polygon fill="#6D6E71" points="20,-0.165 0,-0.165 0,-20.165 20,-20.165 		"/>
		<polygon fill="#FFFFFF" points="3.834,-0.165 1.834,-0.165 1.834,-20.165 3.834,-20.165 		"/>
		<polygon fill="#FFFFFF" points="7.834,-0.165 5.834,-0.165 5.834,-20.165 7.834,-20.165 		"/>
		<polygon fill="#FFFFFF" points="11.841,-0.165 9.841,-0.165 9.841,-20.165 11.841,-20.165 		"/>
		<polygon fill="#FFFFFF" points="15.841,-0.165 13.841,-0.165 13.841,-20.165 15.841,-20.165 		"/>
		<polygon fill="#FFFFFF" points="20.007,-0.165 18.007,-0.165 18.007,-20.165 20.007,-20.165 		"/>
		<polygon fill="#FFFFFF" points="20,-2 20,0 0,0 0,-2 		"/>
		<polygon fill="#FFFFFF" points="20,-6 20,-4 0,-4 0,-6 		"/>
		<polygon fill="#FFFFFF" points="20,-10.007 20,-8.007 0,-8.007 0,-10.007 		"/>
		<polygon fill="#FFFFFF" points="20,-14.007 20,-12.007 0,-12.007 0,-14.007 		"/>
		<polygon fill="#FFFFFF" points="20,-18.173 20,-16.173 0,-16.173 0,-18.173 		"/>
	</g>
</pattern>
<g>
	<path fill="#F7CAC9" d="M116.137,123.982c-6.369,0-11.531,5.163-11.531,11.532s5.162,11.532,11.531,11.532V123.982z"/>
	<path fill="#F7CAC9" d="M183,122.982c6.369,0,11.533,5.163,11.533,11.532s-5.164,11.532-11.533,11.532V122.982z"/>
	<path fill="#DD4231" d="M142.58,199.132c0,17.788-14.223,16.42-19.432,16.42s-4.545-13.956-2.016-31.466
		c2.939-20.35-3.193-32.949,2.016-32.949S142.58,181.344,142.58,199.132z"/>
	<path fill="#DD4231" d="M156.158,198.629c0,18.331,14.223,16.922,19.434,16.922c5.209,0,2.014-14.097,2.014-32.428
		c0-18.332,2.1-32.021-2.014-33.956C170.703,146.869,156.158,180.297,156.158,198.629z"/>
	<path fill="#F7CAC9" stroke="#F4CAC9" stroke-miterlimit="10" d="M221.743,625.086c-1.193-5.543-9.195-4.303-13.84-5.26
		c-5.59-1.152-10.818-3.967-15.459-6.775c-5.246-3.174-9.303-4.842-9.701-11.965c-0.035-0.629-0.209-1.309-0.352-1.967l0.035-2.389
		l3.117-208.092c1.744-0.219,3.514-0.41,5.324-0.561c0.787-15.492-17.455-30.888-17.455-46.45c0-15.908,21.994-42.554,17.822-58.615
		v-0.864c5.785,8.213,4.488,25.389,6.496,35.332c3.08,15.244,7.021,23.55,7.182,40.153c0.092,9.52,3.637,21.638,1.666,30.444
		c-1.742,7.785-0.118,12.753-2.636,19.405c-2.268,5.998-15.313,11.938-14.376,18.161c1.436,9.516,8.363,4.873,10.395-2.045
		c1.582-0.455,4.074-0.428,5.674-0.021c0.396,7.76,0.07,14.734-2.85,20.848c-2.555,5.352-8.811,12.6,2.727,11.777
		c15.191-1.082,16.287-29.188,16.273-40.777c-0.041-40.406-4.268-82.045-10.977-120.023c-1.475-8.35-5.512-18.297-10.225-25.767
		c-4.146-6.571-8.047-11.901-13.119-17.897c-1.41-2.181-3.428-3.892-4.703-6.116c-11.953-20.836-11.736-23.644-11.699-40.239
		l-0.117,0.047c0.502-8.743,1.561-17.608,3.404-22.809c3.361-9.486,7.646-18.492,10.869-27.449
		c1.494-4.156,2.385-9.861,2.703-15.684c0.316-5.824,0.062-11.764-0.73-16.389c-0.893-5.205,0.443-14.911-1.379-19.977
		c-1.736-4.826-6.328-5.453-6.623-10.26c-3.217-1.525-8.227-2.398-13.287-2.484c-7.086-0.123-14.244,1.294-16.652,4.586
		c-2.406-3.292-9.564-4.709-16.65-4.586c-5.061,0.086-10.07,0.958-13.287,2.484c-0.297,4.807-4.887,5.434-6.623,10.26
		c-1.822,5.065-0.486,14.771-1.379,19.977c-0.793,4.625-1.047,10.564-0.73,16.389c0.318,5.822,1.209,11.527,2.703,15.684
		c3.223,8.957,7.508,17.963,10.869,27.449c3.275,9.241,4.074,30.054,3.68,41.193c-1.426,5.406-4.357,11.326-10.371,21.808
		c-1.275,2.225-3.293,3.936-4.703,6.116c-5.072,5.996-3.195,11.326-7.342,17.897c-4.713,7.47-14.527,17.417-16.002,25.767
		c-6.709,37.979-10.936,79.617-10.977,120.023c-0.014,11.59,1.082,39.695,16.273,40.777c11.537,0.822,5.281-6.426,2.727-11.777
		c-2.92-6.113-3.246-13.088-2.85-20.848c1.6-0.406,4.092-0.434,5.674,0.021c2.031,6.918,8.959,11.561,10.395,2.045
		c0.938-6.223-14.612-13.33-16.88-19.328c-2.518-6.652-0.122-11.23-1.864-19.016c-1.971-8.807,0.408-23.813,0.5-33.333
		c0.16-16.604,7-21.243,10.08-36.487c2.008-9.943,0.711-27.119,6.496-35.332v0.864c-4.172,16.062,15.09,41.54,15.09,57.448
		c0,15.562-15.51,32.125-14.723,47.617c1.811,0.15,3.58,0.342,5.324,0.561l3.117,208.092l0.035,2.389
		c-0.143,0.658-0.316,1.338-0.352,1.967c-0.398,7.123-4.455,8.791-9.701,11.965c-4.641,2.809-9.869,5.623-15.459,6.775
		c-4.645,0.957-12.646-0.283-13.84,5.26c-1.65,7.67,5.926,6.322,10.852,7.076c2.783,0.426,4.879,1.475,7.816,1.592
		c3.256,0.129,6.75-0.205,9.908-0.658c6.578-0.943,13.289-0.998,20.1-1.684c5.936-0.598,15.379,1.533,16.658-5.301
		c1.5-8.014-3.166-15.459-2.334-23.025l0.066-4.193h0.027l-0.014-0.939l0.014-0.904c0,0-0.018,0-0.027-0.002l-3.066-204.719
		c3.023,0.375,6.146,0.658,9.42,0.799v0.104c0.039,0,0.08,0,0.119,0c0.711,0,1.396-0.023,2.092-0.039
		c0.695,0.016,1.381,0.039,2.092,0.039c0.039,0,0.08,0,0.119,0v-0.104c3.273-0.141,6.396-0.424,9.42-0.799l-3.066,204.719
		c-0.01,0.002-0.02,0.002-0.027,0.002l0.014,0.904l-0.014,0.939h0.027l0.066,4.193c0.832,7.566-3.834,15.012-2.334,23.025
		c1.279,6.834,10.723,4.703,16.658,5.301c6.811,0.686,13.521,0.74,20.1,1.684c3.158,0.453,6.652,0.787,9.908,0.658
		c2.938-0.117,5.033-1.166,7.816-1.592C215.817,631.408,223.394,632.756,221.743,625.086z"/>
	<circle fill="#FFFFFF" cx="167.862" cy="129.961" r="9"/>
	<circle fill="#91A8CF" cx="130.362" cy="129.804" r="3.5"/>
	<circle fill="#090A11" cx="130.362" cy="129.804" r="1"/>
	<g>
		<circle fill="#FFFFFF" cx="167.862" cy="129.672" r="9"/>
		<circle fill="#FFFFFF" cx="130.362" cy="129.672" r="9"/>
		<circle fill="#91A8CF" cx="130.362" cy="129.515" r="3.5"/>
		<circle fill="#7CC253" cx="167.94" cy="129.515" r="5.5"/>
		<circle fill="#090A11" cx="167.94" cy="129.515" r="3.5"/>
		<circle fill="#090A11" cx="130.362" cy="129.515" r="1"/>
	</g>
	<ellipse cx="134.362" cy="129.515" rx="13.671" ry="12.625"/>
	<rect x="141.246" y="119.461" transform="matrix(0.9953 -0.0964 0.0964 0.9953 -10.8154 15.9758)" width="37.491" height="1"/>
	<rect x="107.542" y="132.515" transform="matrix(0.6217 -0.7833 0.7833 0.6217 -59.0844 143.7057)" width="23.35" height="1"/>
	<path d="M145.849,612.527c-0.476-3.237-3.718-14.062-3.718-14.062l-1.145-80.696h-24.507l1.176,78.433l0.035,2.389
		c-0.078,0.363-0.161,0.731-0.23,1.096c-3.321,2.356-7.518,5.653-9.434,6.902c-3.084,2.014-5.291,4.047-8.879,5.219
		c-0.791,0.26-1.68,0.493-2.637,0.72H84.354c-7.305,0-13.225,8.364-13.225,18.687h0.031c-0.195,2.884,8.004,2.889,15.283,2.889
		h43.848c0.195,0,0.387-0.005,0.58-0.006v0.006h13.082l1.947-2.889h0.062v-18.687H145.849z"/>
	<path d="M154.376,612.527c0.476-3.237,3.718-14.062,3.718-14.062l1.145-80.696h24.507l-1.176,78.433l-0.035,2.389
		c0.078,0.363,0.161,0.731,0.23,1.096c3.321,2.356,7.518,5.653,9.434,6.902c3.084,2.014,5.291,4.047,8.879,5.219
		c0.791,0.26,1.68,0.493,2.637,0.72h12.156c7.305,0,13.225,8.364,13.225,18.687h-0.031c0.195,2.884-8.004,2.889-15.283,2.889
		h-43.848c-0.195,0-0.387-0.005-0.58-0.006v0.006h-13.082l-1.947-2.889h-0.062v-18.687H154.376z"/>
	<circle fill="#B18F6A" cx="146.675" cy="146.729" r="1.625"/>
	<circle fill="#B18F6A" cx="153.55" cy="146.729" r="1.625"/>
	<rect x="139.987" y="159.76" fill="#FFFFFF" width="4" height="2"/>
	<rect x="145.237" y="159.76" fill="#FFFFFF" width="4" height="2"/>
	<rect x="156.237" y="159.683" fill="#FFFFFF" width="4" height="2"/>
	<rect x="150.987" y="159.683" fill="#FFFFFF" width="4" height="2"/>
	<path fill="none" stroke="#F3776B" stroke-miterlimit="10" d="M164.862,159.765c-1.615,0.225-2.867-0.771-4.305-1
		c-1.084-0.173-2.346,0-3.445,0c-2.5,0-5,0-7.5,0h1c-2.5,0-5,0-7.5,0c-1.1,0-2.361-0.173-3.443,0c-1.439,0.229-2.691,1.225-4.307,1"
		/>
	<pattern  id="SVGID_1_" xlink:href="#New_Pattern_Swatch_9" patternTransform="matrix(1 0 0 1 -9.4258 -33)">
	</pattern>
	<polygon fill="url(#SVGID_1_)" stroke="#9694A2" stroke-miterlimit="10" points="99.634,257.67 86.768,282.768 70.836,405.67 
		96.825,405.335 120.5,282.768 120.5,260.67 120.5,238.572 	"/>
	<pattern  id="SVGID_2_" xlink:href="#New_Pattern_Swatch_9" patternTransform="matrix(1 0 0 1 -9.4258 -33)">
	</pattern>
	<polygon fill="url(#SVGID_2_)" stroke="#9694A2" stroke-miterlimit="10" points="200.366,257.67 213.232,282.768 229.164,405.67 
		203.175,405.335 179.5,282.768 179.5,260.67 179.5,238.572 	"/>
	<polygon fill="#414042" points="150.112,288.003 114.518,310.693 120.5,238.572 150.112,277.337 	"/>
	<polygon fill="#414042" points="149.569,288.004 185.164,310.693 179.182,238.572 149.569,277.337 	"/>
	<pattern  id="SVGID_3_" xlink:href="#New_Pattern_Swatch_1" patternTransform="matrix(1 0 0 1 5.5537 -33)">
	</pattern>
	<polygon fill="url(#SVGID_3_)" points="175.346,232.115 124.148,232.115 124.148,221.333 175.346,215.552 	"/>
	<path fill="#DD4231" d="M190.892,97.5c-1.383-6.356-3.58-18-15.5-23.25c-14.609-6.435-12.585-8.733-25.279-7.75
		c-12.694-0.983-12.016,1.315-26.625,7.75c-11.92,5.25-14.117,16.894-15.5,23.25c-2.119,9.742-0.999,20.092-0.25,26.515
		c0.989,8.495,2.254,16.244,3.951,25.04c1.614,8.375,2.671,17.684,5.799,25.445c0.782,1.936,1.86,8.915,3.203,10.75
		c1.382,1.89,1.562,2.549,2.116,3.607c0.598,1.141,2.335,5.746,2.494,7.103l0.921,0.513c-0.709-2.735-1.387-10.825-2.389-14.366
		c-3.568-12.616-3.152-7.519-4.51-16.405c-2.714-17.776-5.537-30.659,0.788-47.853c3.454-9.396,3.08-11.808,15.93-11.198
		c5.97,0.284,9.083,0.279,12.726,0.16v0.005c0.222-0.007,0.446-0.015,0.673-0.023c0.227,0.008,0.451,0.016,0.673,0.023v-0.005
		c3.643,0.12,6.756,0.124,12.726-0.16c12.85-0.61,12.476,1.802,15.93,11.198c6.325,17.194,3.502,30.076,0.788,47.853
		c-1.357,8.886-0.941,3.789-4.51,16.405c-1.002,3.541-1.68,11.631-2.389,14.366l0.921-0.513c0.159-1.357,1.896-5.962,2.494-7.103
		c0.555-1.058,0.734-1.717,2.116-3.607c1.343-1.835,2.421-8.814,3.203-10.75c3.128-7.761,4.185-17.07,5.799-25.445
		c1.697-8.796,2.962-16.545,3.951-25.04C191.891,117.592,193.011,107.242,190.892,97.5z"/>
	<ellipse fill="#FFFFFF" cx="174.44" cy="269.805" rx="8.564" ry="3.186"/>
	<polygon fill="#DD4231" points="154.35,519.022 194.68,519.022 191.767,398 185.796,310.693 185.524,310.693 186.75,240.003 
		174.346,232.115 172.878,310.693 150.201,310.693 150.201,310.693 150.112,310.693 150.112,310.693 127.436,310.693 
		125.968,232.115 113.563,240.003 114.789,310.693 114.518,310.693 108.547,398 105.634,519.022 145.964,519.022 150.069,399.25 
		150.244,399.25 	"/>
	<ellipse fill="#FFFFFF" cx="161.44" cy="284" rx="8.564" ry="3.186"/>
	<pattern  id="SVGID_4_" xlink:href="#New_Pattern_Swatch_1" patternTransform="matrix(1 0 0 1 5.5537 -35)">
	</pattern>
	<polygon fill="url(#SVGID_4_)" stroke="#005082" stroke-miterlimit="10" points="137.206,303.653 120.5,288.667 124.112,219.532 
		133.862,218.237 	"/>
	<pattern  id="SVGID_5_" xlink:href="#New_Pattern_Swatch_1" patternTransform="matrix(1 0 0 1 17.9062 -34.646)">
	</pattern>
	<polygon fill="url(#SVGID_5_)" stroke="#005082" stroke-miterlimit="10" points="149.559,304.007 132.853,289.021 131.362,219.569 
		139.362,219.237 	"/>
	<rect x="189.478" y="140.414" fill="#E6E7E8" width="2" height="12"/>
</g>
</svg>
