<?xml version="1.0" encoding="utf-8"?>
<!-- Generator: Adobe Illustrator 16.0.0, SVG Export Plug-In . SVG Version: 6.00 Build 0)  -->
<!DOCTYPE svg PUBLIC "-//W3C//DTD SVG 1.1//EN" "http://www.w3.org/Graphics/SVG/1.1/DTD/svg11.dtd">
<svg version="1.1" id="Layer_1" xmlns="http://www.w3.org/2000/svg" xmlns:xlink="http://www.w3.org/1999/xlink" x="0px" y="0px"
	 width="300px" height="660px" viewBox="0 0 300 660" enable-background="new 0 0 300 660" xml:space="preserve">
<g>
	<g>
		<g>
			<path fill="#F7CAC9" d="M116.223,101.269l1.217-1.218C116.936,100.431,116.516,100.834,116.223,101.269z"/>
			<path fill="#F7CAC9" d="M117.723,99.769l-0.283,0.282c0.5-0.375,1.09-0.723,1.762-1.042c0.014-0.239,0.029-0.479,0.021-0.74
				L117.723,99.769z"/>
			<path fill="#F7CAC9" d="M180.838,100.051l1.219,1.218C181.762,100.834,181.344,100.431,180.838,100.051z"/>
			<path fill="#F7CAC9" d="M180.557,99.769l-1.5-1.5c-0.008,0.261,0.006,0.501,0.021,0.74c0.672,0.319,1.262,0.667,1.76,1.042
				L180.557,99.769z"/>
			<path fill="#F7CAC9" stroke="#DDB5B4" stroke-miterlimit="10" d="M221.631,631.232c-1.193-5.543-9.195-4.303-13.84-5.26
				c-5.59-1.152-10.818-3.967-15.459-6.775c-5.246-3.174-9.303-4.842-9.701-11.965c-0.035-0.629-0.209-1.309-0.352-1.967
				l0.035-2.389l3.117-208.092c1.744-0.219,3.514-0.41,5.324-0.561c0.787-15.492,0.152-31.287,0.152-46.85
				c0-15.908,4.387-42.155,0.215-58.216v-0.864c5.785,8.213,4.488,25.388,6.496,35.332c3.08,15.244-1.105,25.891-0.945,42.494
				c0.092,9.52,5.977,18.668,4.006,27.475c-1.742,7.785-1.488,17.32-4.006,23.973c-2.268,5.998-8.156,8-7.219,14.223
				c1.436,9.516,8.363,4.873,10.395-2.045c1.582-0.455,4.074-0.428,5.674-0.021c0.396,7.76,0.07,14.734-2.85,20.848
				c-2.555,5.352-8.811,12.6,2.727,11.777c15.191-1.082,16.287-29.188,16.273-40.777c-0.041-40.406-4.268-82.045-10.977-120.023
				c-1.475-8.351-2.035-18.836-6.748-26.306c-4.146-6.571-11.523-11.363-16.596-17.358c-1.41-2.181-3.428-3.892-4.703-6.116
				c-11.953-20.836-11.736-23.644-11.699-40.239l-0.117,0.047c0.502-8.744,1.561-17.609,3.404-22.809
				c3.361-9.487,7.646-18.492,10.869-27.449c1.494-4.156,2.385-9.862,2.703-15.685c0.316-5.823,0.062-11.763-0.73-16.388
				c-0.893-5.206,0.443-14.911-1.379-19.977c-1.736-4.826-6.328-5.452-6.623-10.26c-3.217-1.525-8.227-2.398-13.287-2.484
				c-7.086-0.123-14.244,1.294-16.652,4.587c-2.406-3.292-9.564-4.709-16.65-4.587c-5.061,0.086-10.07,0.958-13.287,2.484
				c-0.297,4.808-4.887,5.434-6.623,10.26c-1.822,5.066-0.486,14.771-1.379,19.977c-0.793,4.625-1.047,10.565-0.73,16.388
				c0.318,5.822,1.209,11.528,2.703,15.685c3.223,8.957,7.508,17.962,10.869,27.449c3.275,9.241,4.074,30.053,3.68,41.192
				c-1.426,5.407-4.357,11.326-10.371,21.808c-1.275,2.225-3.293,3.936-4.703,6.116c-5.072,5.996-12.449,10.787-16.596,17.358
				c-4.713,7.47-5.273,17.956-6.748,26.306c-6.709,37.978-10.936,79.617-10.977,120.023c-0.014,11.59,1.082,39.695,16.273,40.777
				c11.537,0.822,5.281-6.426,2.727-11.777c-2.92-6.113-3.246-13.088-2.85-20.848c1.6-0.406,4.092-0.434,5.674,0.021
				c2.031,6.918,8.959,11.561,10.395,2.045c0.938-6.223-4.951-8.225-7.219-14.223c-2.518-6.652-2.264-16.188-4.006-23.973
				c-1.971-8.807,3.914-17.955,4.006-27.475c0.16-16.604-4.025-27.25-0.945-42.494c2.008-9.943,0.711-27.119,6.496-35.332v0.864
				c-4.172,16.061,0.215,42.308,0.215,58.216c0,15.562-0.635,31.357,0.152,46.85c1.811,0.15,3.58,0.342,5.324,0.561l3.117,208.092
				l0.035,2.389c-0.143,0.658-0.316,1.338-0.352,1.967c-0.398,7.123-4.455,8.791-9.701,11.965
				c-4.641,2.809-9.869,5.623-15.459,6.775c-4.645,0.957-12.646-0.283-13.84,5.26c-1.65,7.67,5.926,6.322,10.852,7.076
				c2.783,0.426,4.879,1.475,7.816,1.592c3.256,0.129,6.75-0.205,9.908-0.658c6.578-0.943,13.289-0.998,20.1-1.684
				c5.936-0.598,15.379,1.533,16.658-5.301c1.5-8.014-3.166-15.459-2.334-23.025l0.066-4.193h0.027l-0.014-0.939l0.014-0.904
				c-0.008,0-0.018,0-0.027-0.002l-3.066-204.719c3.023,0.375,6.146,0.658,9.42,0.799v0.104c0.039,0,0.08,0,0.119,0
				c0.711,0,1.396-0.023,2.092-0.039c0.695,0.016,1.381,0.039,2.092,0.039c0.039,0,0.08,0,0.119,0v-0.104
				c3.273-0.141,6.396-0.424,9.42-0.799l-3.066,204.719c-0.01,0.002-0.02,0.002-0.027,0.002l0.014,0.904l-0.014,0.939h0.027
				l0.066,4.193c0.832,7.566-3.834,15.012-2.334,23.025c1.279,6.834,10.723,4.703,16.658,5.301c6.811,0.686,13.521,0.74,20.1,1.684
				c3.158,0.453,6.652,0.787,9.908,0.658c2.938-0.117,5.033-1.166,7.816-1.592C215.705,637.555,223.281,638.902,221.631,631.232z"/>
		</g>
		<circle fill="#FFFFFF" cx="166.5" cy="135.691" r="9"/>
		<circle fill="#FFFFFF" cx="129" cy="135.691" r="9"/>
		<circle fill="#B18F6A" cx="144.75" cy="150.941" r="1.625"/>
		<circle fill="#B18F6A" cx="151.625" cy="150.941" r="1.625"/>
		<circle fill="#91A8CF" cx="129" cy="135.691" r="2.5"/>
		<circle fill="#090A11" cx="166.5" cy="135.691" r="4.5"/>
		<path fill="none" stroke="#F3776B" stroke-miterlimit="10" d="M163.125,167.29c-1.615,0.225-2.867-0.771-4.305-1
			c-1.084-0.173-2.346,0-3.445,0c-2.5,0-5,0-7.5,0h1c-2.5,0-5,0-7.5,0c-1.1,0-2.361-0.173-3.443,0c-1.439,0.229-2.691,1.225-4.307,1
			"/>
	</g>
	
		<rect x="104.586" y="128.739" transform="matrix(-0.9806 0.1961 -0.1961 -0.9806 299.4399 236.7386)" fill="#FFFFFF" stroke="#D1D3D4" stroke-width="1.1679" stroke-miterlimit="10" width="66.831" height="8.907"/>
	
		<rect x="126.085" y="132.238" transform="matrix(-0.9459 -0.3244 0.3244 -0.9459 266.0383 317.7307)" fill="#FFFFFF" stroke="#D1D3D4" stroke-width="1.1679" stroke-miterlimit="10" width="66.832" height="8.907"/>
	
		<rect x="125.084" y="133.738" transform="matrix(-0.9985 -0.055 0.055 -0.9985 309.153 284.8988)" fill="#FFFFFF" stroke="#D1D3D4" stroke-width="1.1679" stroke-miterlimit="10" width="66.832" height="8.907"/>
	
		<rect x="105.586" y="137.238" transform="matrix(-0.9682 0.2504 -0.2504 -0.9682 309.0511 244.0708)" fill="#FFFFFF" stroke="#D1D3D4" stroke-width="1.1679" stroke-miterlimit="10" width="66.832" height="8.907"/>
	
		<rect x="125.086" y="133.738" transform="matrix(-0.9891 0.147 -0.147 -0.9891 335.593 251.5879)" fill="#FFFFFF" stroke="#D1D3D4" stroke-width="1.1679" stroke-miterlimit="10" width="66.831" height="8.907"/>
	
		<rect x="106.364" y="127.136" transform="matrix(-0.9972 -0.0748 0.0748 -0.9972 267.771 273.2057)" fill="#FFFFFF" stroke="#D1D3D4" stroke-width="1.1542" stroke-miterlimit="10" width="65.273" height="8.907"/>
	
		<rect x="124.086" y="125.738" transform="matrix(-0.9891 0.147 -0.147 -0.9891 332.428 235.8217)" fill="#FFFFFF" stroke="#D1D3D4" stroke-width="1.1679" stroke-miterlimit="10" width="66.831" height="8.907"/>
	
		<rect x="116.585" y="138.024" transform="matrix(-0.9993 -0.0376 0.0376 -0.9993 294.5435 290.4907)" fill="#FFFFFF" stroke="#D1D3D4" stroke-width="1.1679" stroke-miterlimit="10" width="66.832" height="8.908"/>
	<polygon fill="#FFFFFF" stroke="#D1D3D4" stroke-width="1.1679" stroke-miterlimit="10" points="116.32,133.987 182.922,128.46 
		182.184,119.583 115.58,125.11 	"/>
	<g>
		<polygon fill="#414042" points="144.666,607.887 136.416,607.887 128.166,607.887 119.916,607.887 111.666,607.887 
			108.166,573.686 107.775,505.691 107.775,458.691 111.666,376.887 119.916,376.887 128.166,376.887 136.416,376.887 
			144.666,376.887 156.045,376.059 144.846,479.887 144.6,582.691 		"/>
		<path fill="#FFFFFF" stroke="#E6E7E8" stroke-width="1.1522" stroke-miterlimit="10" d="M132.383,234.917
			c23.691,11.975,25.73,69.002,19.854,95.427c-11.271,0.529-13.082,0.357-16.801-11.852c-2.713-8.903-7.963-18.542-9.607-26.776
			c-1.697-8.506-1.111-21.348-1.441-30.246c-0.52-13.979,1.729-17.204,5.996-26.553H132.383z"/>
	</g>
	<g>
		<polyline fill="#414042" points="204.701,231.945 188.951,231.945 188.951,274.848 196.451,316.441 196.451,358.689 
			196.451,400.939 204.701,400.939 212.951,400.939 221.201,400.939 221.201,400.939 221.861,368.225 221.861,324.701 
			221.861,274.229 212.529,239.51 		"/>
		<path fill="#FFFFFF" stroke="#E6E7E8" stroke-width="1.1522" stroke-miterlimit="10" d="M167.234,234.803
			c-23.691,11.975-25.73,69.002-19.854,95.426c11.271,0.531,13.082,0.357,16.801-11.852c2.713-8.902,7.963-18.542,9.607-26.775
			c1.697-8.506,1.111-21.348,1.441-30.246c0.52-13.979-1.729-17.204-5.996-26.553H167.234z"/>
	</g>
	<polygon fill="#414042" points="156.758,607.887 165.008,607.887 173.258,607.887 181.508,607.887 189.758,607.887 
		193.258,573.686 193.646,505.691 193.646,458.691 189.758,376.887 181.508,376.887 173.258,376.887 165.008,376.887 
		156.758,376.887 145.377,376.059 156.576,479.887 156.824,582.691 	"/>
	<polygon fill="#414042" points="145.572,376.197 169.514,411.197 193.453,411.197 193.453,321.697 193.453,232.197 
		169.514,232.197 169.514,232.197 145.572,321.697 	"/>
	<polygon fill="#414042" points="154.439,376.197 130.5,411.197 106.561,411.197 106.561,321.697 106.561,232.196 130.5,232.196 
		130.5,232.196 154.439,321.697 	"/>
	<polygon fill="#FFFFFF" stroke="#E6E7E8" stroke-miterlimit="10" points="158.512,240.559 174.512,256.559 174.512,213.559 	"/>
	<polygon fill="#FFFFFF" stroke="#E6E7E8" stroke-miterlimit="10" points="140.773,238.559 124.773,254.56 124.773,211.559 	"/>
	<polygon fill="#FFFFFF" stroke="#E6E7E8" stroke-miterlimit="10" points="112.293,419.697 71.654,419.697 80.627,400.697 
		101.627,400.697 	"/>
	<path fill="#E6E7E8" d="M109.438,122.929c-0.02-0.264-0.033-0.534-0.053-0.799c-0.934,0.685-1.91,1.342-2.947,1.957
		L109.438,122.929z"/>
	<g>
		<path fill="#E6E7E8" d="M175.235,57.054c-5.911,0.257-4.45,7.325-9.794,9.148c-6.326,2.159-10.74-4.458-14.317-8.885
			c-0.478,2.232-1.462,4.028-2.847,5.361c-1.382-1.333-2.367-3.129-2.845-5.361c-3.579,4.427-7.993,11.043-14.317,8.885
			c-5.345-1.824-3.885-8.891-9.796-9.148c-1.342,15.726-10.595,5.081-16.757,3.518c4.127,19.48,3.585,41.727,4.968,61.559
			c12.872-9.15,17.312-23.645,38.232-20.848v0.139c0.177-0.028,0.342-0.044,0.517-0.069c0.173,0.025,0.338,0.042,0.513,0.069v-0.138
			c20.922-2.797,25.36,11.697,38.232,20.848c1.383-19.832,0.841-42.079,4.97-61.559C185.832,62.134,176.577,72.779,175.235,57.054z"
			/>
		<path fill="#E6E7E8" d="M184.564,122.929c0.018-0.264,0.033-0.533,0.051-0.799c0.936,0.685,1.912,1.342,2.949,1.957
			L184.564,122.929z"/>
	</g>
	
		<rect x="127.491" y="119.422" transform="matrix(-0.99 0.1413 -0.1413 -0.99 336.152 223.8804)" fill="#FFFFFF" stroke="#D1D3D4" stroke-width="1.1542" stroke-miterlimit="10" width="65.272" height="8.907"/>
	<polyline fill="#414042" points="95.299,231.945 111.049,231.945 111.049,274.848 103.549,316.441 103.549,358.689 
		103.549,400.939 95.299,400.939 87.049,400.939 78.799,400.939 78.799,400.939 78.139,368.225 78.139,324.701 78.139,274.229 
		87.473,239.51 	"/>
	<polygon fill="#FFFFFF" stroke="#E6E7E8" stroke-miterlimit="10" points="230.078,419.697 189.439,419.697 198.412,400.697 
		219.412,400.697 	"/>
	
		<rect x="103.364" y="121.238" transform="matrix(-0.9972 -0.0748 0.0748 -0.9972 262.2205 261.2005)" fill="#FFFFFF" stroke="#D1D3D4" stroke-width="1.1542" stroke-miterlimit="10" width="65.273" height="8.907"/>
	<circle fill="#414042" cx="128.5" cy="134.691" r="5"/>
	<circle fill="#414042" cx="166.125" cy="134.692" r="5"/>
	<path fill="#414042" d="M144.459,620.426c-0.805-5.479-2.088-10.498-2.123-14.197c-5.779-0.266-17.162-3.311-22.416-1.064
		c-2.568,1.098-10.439,7.469-13.283,9.322c-3.084,2.014-5.291,4.047-8.879,5.219c-0.791,0.26-1.68,0.494-2.637,0.721H82.965
		c-7.305,0-13.225,8.363-13.225,18.686h0.031C69.576,641.996,77.775,642,85.055,642h43.848c0.195,0,0.387-0.004,0.58-0.006V642
		h13.082l1.947-2.889h0.062v-18.686H144.459z"/>
	<path fill="#414042" d="M155.541,620.426c0.805-5.479,2.088-10.498,2.123-14.197c5.779-0.266,17.162-3.311,22.416-1.064
		c2.568,1.098,10.439,7.469,13.283,9.322c3.084,2.014,5.291,4.047,8.879,5.219c0.791,0.26,1.68,0.494,2.637,0.721h12.156
		c7.305,0,13.225,8.363,13.225,18.686h-0.031c0.195,2.885-8.004,2.889-15.283,2.889h-43.848c-0.195,0-0.387-0.004-0.58-0.006V642
		h-13.082l-1.947-2.889h-0.062v-18.686H155.541z"/>
</g>
</svg>
