<?xml version="1.0" encoding="utf-8"?>
<!-- Generator: Adobe Illustrator 16.0.0, SVG Export Plug-In . SVG Version: 6.00 Build 0)  -->
<!DOCTYPE svg PUBLIC "-//W3C//DTD SVG 1.1//EN" "http://www.w3.org/Graphics/SVG/1.1/DTD/svg11.dtd">
<svg version="1.1" id="Layer_1" xmlns="http://www.w3.org/2000/svg" xmlns:xlink="http://www.w3.org/1999/xlink" x="0px" y="0px"
	 width="300px" height="660px" viewBox="0 0 300 660" enable-background="new 0 0 300 660" xml:space="preserve">
<g>
	<g>
		<g>
			<path fill="#F7CAC9" stroke="#DDB5B4" stroke-miterlimit="10" d="M116.697,100.924l-0.283,0.282
				c0.5-0.375,1.09-0.723,1.762-1.042c0.014-0.239,0.029-0.479,0.021-0.74L116.697,100.924z"/>
			<path fill="#F7CAC9" stroke="#DDB5B4" stroke-miterlimit="10" d="M178.031,99.424c-0.008,0.261,0.006,0.501,0.021,0.74
				c0.672,0.319,1.262,0.667,1.76,1.042"/>
			<path fill="#F7CAC9" stroke="#DDB5B4" stroke-miterlimit="10" d="M220.605,632.388c-1.193-5.543-9.195-4.303-13.84-5.26
				c-5.59-1.152-10.818-3.967-15.459-6.775c-5.246-3.174-9.303-4.842-9.701-11.965c-0.035-0.629-0.209-1.309-0.352-1.967
				l0.035-2.389l3.117-208.092c1.744-0.219,3.514-0.41,5.324-0.561c0.787-15.492-10.793-51.657-10.793-67.22
				c0-15.908,15.332-21.784,11.16-37.846v-0.864c5.785,8.213,4.488,25.389,6.496,35.332c3.08,15.244,6.207,25.774,6.367,42.378
				c0.092,9.52,1.971,19.016,0,27.822c-1.742,7.785-4.795,17.089-7.312,23.741c-2.268,5.998-8.156,8-7.219,14.223
				c1.436,9.516,8.363,4.873,10.395-2.045c1.582-0.455,4.074-0.428,5.674-0.021c0.396,7.76,0.07,14.734-2.85,20.848
				c-2.555,5.352-8.811,12.6,2.727,11.777c15.191-1.082,16.287-29.188,16.273-40.777c-0.041-40.406-4.268-82.045-10.977-120.023
				c-1.475-8.35-2.035-18.836-6.748-26.306c-4.146-6.571-11.523-11.362-16.596-17.358c-1.41-2.181-3.428-3.892-4.703-6.116
				c-11.953-20.836-11.736-23.644-11.699-40.239l-0.117,0.047c0.502-8.744,1.561-17.609,3.404-22.809
				c3.361-9.487,7.646-18.492,10.869-27.449c1.494-4.156,2.385-9.862,2.703-15.685c0.316-5.823,0.062-11.763-0.73-16.388
				c-0.893-5.206,0.443-14.911-1.379-19.977c-1.736-4.826-6.328-5.452-6.623-10.26c-3.217-1.525-8.227-2.398-13.287-2.484
				c-7.086-0.123-14.244,1.294-16.652,4.587c-2.406-3.292-9.564-4.709-16.65-4.587c-5.061,0.086-10.07,0.958-13.287,2.484
				c-0.297,4.808-4.887,5.434-6.623,10.26c-1.822,5.066-0.486,14.771-1.379,19.977c-0.793,4.625-1.047,10.565-0.73,16.388
				c0.318,5.822,1.209,11.528,2.703,15.685c3.223,8.957,7.508,17.962,10.869,27.449c3.275,9.241,4.074,30.053,3.68,41.192
				c-1.426,5.407-4.357,11.326-10.371,21.808c-1.275,2.225-3.293,3.936-4.703,6.116c-5.072,5.996-12.449,10.787-16.596,17.358
				c-4.713,7.47-5.273,17.956-6.748,26.306c-6.709,37.979-10.936,79.617-10.977,120.023c-0.014,11.59,1.082,39.695,16.273,40.777
				c11.537,0.822,5.281-6.426,2.727-11.777c-2.92-6.113-3.246-13.088-2.85-20.848c1.6-0.406,4.092-0.434,5.674,0.021
				c2.031,6.918,8.959,11.561,10.395,2.045c0.938-6.223-4.951-8.225-7.219-14.223c-2.518-6.652-9.908-15.151-11.65-22.937
				c-1.971-8.807,4.518-20.607,4.609-30.127c0.16-16.604,3.016-25.634,6.096-40.878c2.008-9.943,0.711-27.119,6.496-35.332v0.864
				c-4.172,16.062,15.596,38.938,15.596,54.846c0,15.562-16.016,34.728-15.229,50.22c1.811,0.15,3.58,0.342,5.324,0.561
				l3.117,208.092l0.035,2.389c-0.143,0.658-0.316,1.338-0.352,1.967c-0.398,7.123-4.455,8.791-9.701,11.965
				c-4.641,2.809-9.869,5.623-15.459,6.775c-4.645,0.957-12.646-0.283-13.84,5.26c-1.65,7.67,5.926,6.322,10.852,7.076
				c2.783,0.426,4.879,1.475,7.816,1.592c3.256,0.129,6.75-0.205,9.908-0.658c6.578-0.943,13.289-0.998,20.1-1.684
				c5.936-0.598,15.379,1.533,16.658-5.301c1.5-8.014-3.166-15.459-2.334-23.025l0.066-4.193h0.027l-0.014-0.939l0.014-0.904
				c-0.008,0-0.018,0-0.027-0.002l-3.066-204.719c3.023,0.375,6.146,0.658,9.42,0.799v0.104c0.039,0,0.08,0,0.119,0
				c0.711,0,1.396-0.023,2.092-0.039c0.695,0.016,1.381,0.039,2.092,0.039c0.039,0,0.08,0,0.119,0v-0.104
				c3.273-0.141,6.396-0.424,9.42-0.799l-3.066,204.719c-0.01,0.002-0.02,0.002-0.027,0.002l0.014,0.904l-0.014,0.939h0.027
				l0.066,4.193c0.832,7.566-3.834,15.012-2.334,23.025c1.279,6.834,10.723,4.703,16.658,5.301c6.811,0.686,13.521,0.74,20.1,1.684
				c3.158,0.453,6.652,0.787,9.908,0.658c2.938-0.117,5.033-1.166,7.816-1.592C214.68,638.71,222.256,640.058,220.605,632.388z
				 M148.113,180.745c-0.07-1.721-0.066-3.454,0-5.202C148.18,177.291,148.184,179.024,148.113,180.745z"/>
		</g>
		<g>
			<path fill="#91A8CF" d="M156.266,611.919L155.156,462h28.49l-2.125,141.903l-0.035,2.456c0.146,0.678,0.324,1.376,0.359,2.024
				c0.41,7.322,4.582,9.037,9.977,12.302c4.771,2.887,11.145,3.781,16.893,4.964c4.775,0.986,12.004,1.712,13.23,7.409
				c1.697,7.887-6.094,6.501-11.158,7.276c-2.861,0.438-5.016,1.516-8.035,1.637c-3.348,0.132-6.941-0.211-10.188-0.677
				c-6.766-0.971-13.664-1.027-20.668-1.731c-6.1-0.614-15.812,1.576-17.127-5.45C153.227,625.873,153.348,626.127,156.266,611.919z
				"/>
		</g>
	</g>
	<g>
		<path fill="#91A8CF" d="M141.006,611.919L142.113,462h-28.488l2.125,141.903l0.035,2.456c-0.146,0.678-0.326,1.376-0.361,2.024
			c-0.408,7.322-4.58,9.037-9.977,12.302c-4.77,2.887-11.143,3.781-16.893,4.964c-4.773,0.986-12.002,1.712-13.23,7.409
			c-1.697,7.887,6.096,6.501,11.16,7.276c2.861,0.438,5.014,1.516,8.033,1.637c3.348,0.132,6.943-0.211,10.189-0.677
			c6.766-0.971,13.664-1.027,20.666-1.731c6.102-0.614,15.814,1.576,17.127-5.45C144.043,625.873,143.924,626.127,141.006,611.919z"
			/>
	</g>
	<polygon fill="#91A8CF" points="97.412,409.333 80.393,407.472 63.373,405.609 73.955,356.848 82.85,295.951 93.375,296.573 
		103.902,297.194 102.566,377.66 	"/>
	<path opacity="0.8" fill="#FFFFFF" stroke="#F5CAC9" stroke-miterlimit="10" d="M112.041,162.474
		c3.223,8.957,7.508,17.962,10.869,27.449c3.275,9.241,4.074,30.053,3.68,41.193c-1.426,5.406-4.357,11.326-10.371,21.808
		c-0.389,0.681-0.854,1.311-1.344,1.923h67.988c-0.49-0.612-0.953-1.242-1.344-1.923c-11.953-20.836-11.736-23.644-11.699-40.239
		l-0.117,0.047c0.502-8.744,1.561-17.609,3.404-22.809c3.361-9.487,7.646-18.492,10.869-27.449
		c1.494-4.156,2.385-9.862,2.703-15.685c0.316-5.823,0.062-11.763-0.73-16.388c-0.893-5.206,0.443-14.911-1.379-19.977
		c-1.736-4.826-6.328-5.452-6.623-10.26c-3.217-1.525-8.227-2.398-13.287-2.484c-7.086-0.123-14.244,1.294-16.652,4.587
		c-2.406-3.292-9.564-4.709-16.65-4.587c-5.061,0.086-10.07,0.958-13.287,2.484c-0.297,4.808-4.887,5.434-6.623,10.26
		c-1.822,5.066-0.486,14.771-1.379,19.977c-0.793,4.625-1.047,10.565-0.73,16.388C109.656,152.611,110.547,158.317,112.041,162.474z
		 M186.434,142.535h-76.215v-10.803h76.215V142.535z"/>
	<polygon fill="#91A8CF" points="191.418,395.871 170.047,395.871 148.676,395.871 127.305,395.871 105.934,395.871 
		105.934,357.186 105.934,318.501 103.902,277.197 124.959,236.238 127.305,241.13 148.975,243.906 170.047,241.13 172.992,236.238 
		194.512,276.073 191.418,318.501 191.418,357.186 	"/>
	<g>
		<circle fill="#B18F6A" cx="144.922" cy="154.009" r="1.625"/>
		<circle fill="#B18F6A" cx="151.797" cy="154.009" r="1.625"/>
	</g>
	<path fill="#E8EDF4" stroke="#D1D4DB" stroke-width="0.5" stroke-miterlimit="10" d="M156.889,26.812l-5.58-6.103l-3.299-1.299
		l-3.168,1.299l-5.467,6.103c-0.289,0,0,0-2.85,7.205s-6.541,16.812-10.195,26.418s-7.273,19.213-9.977,26.418
		c-2.705,7.205-4.496,12.008-4.496,12.008c0,0.296,0.059,0.578,0.164,0.834s0.26,0.487,0.449,0.681
		c0.189,0.194,0.416,0.351,0.666,0.459s0.525,0.168,0.816,0.168h17.027h17.029h17.029h17.027c0.289,0,0.566-0.06,0.816-0.168
		c0.252-0.108,0.477-0.266,0.666-0.459c0.189-0.194,0.344-0.425,0.449-0.681s0.164-0.538,0.164-0.834c0,0-1.775-4.803-4.455-12.008
		s-6.266-16.812-9.889-26.418c-3.621-9.606-7.279-19.213-10.105-26.418C156.889,26.812,157.178,26.812,156.889,26.812z"/>
	<g>
		<path fill="#F3776B" d="M148.818,170.134c0.957,0.03,2.26-0.73,3.395-0.868c1.316-0.16,2.416,0.126,3.537,0.312
			c1.381,0.229,6.057,0.54,7.369,1.106c-1.088,2.273-13.268,3.075-14.301,1.126c-0.594-0.155-0.301-0.864-0.232-1.309"/>
		<path fill="#F3776B" d="M149.201,170.134c-0.959,0.03-2.262-0.73-3.396-0.868c-1.314-0.16-2.414,0.126-3.535,0.312
			c-1.383,0.229-6.057,0.54-7.371,1.106c1.088,2.273,13.268,3.075,14.303,1.126c0.594-0.155,0.301-0.864,0.232-1.309"/>
	</g>
	<g opacity="0.9">
		<path fill="#015084" d="M110.156,154.003c0.02,0.775,0.061,1.637,0.104,2.657C110.316,155.713,110.27,154.837,110.156,154.003z"/>
		<path fill="#015084" d="M148.975,105.866c-16.104-0.824-37.422,1.652-37.422,1.652c-1.744,8.586-4.227,21.741-5.043,31.059
			c-0.592,6.737,2.936,10.181,3.646,15.426c-0.084-3.174,0.199-4.868,2.346-9.689c1.598-3.587-0.928-8.786-0.016-12.646
			c1.582-6.703,5.971-11.317,11.723-14.022c6.822-3.208,15.992-3.874,24.766-4.089V105.866z"/>
	</g>
	<g opacity="0.9">
		<path fill="#015084" d="M186.561,153.766c-0.02,0.772-0.061,1.629-0.104,2.645C186.4,155.468,186.447,154.596,186.561,153.766z"/>
		<path fill="#015084" d="M147.742,105.865c16.104-0.82,37.422,1.644,37.422,1.644c1.744,8.544,4.227,21.634,5.043,30.906
			c0.592,6.704-2.936,10.131-3.646,15.35c0.084-3.159-0.199-4.844-2.346-9.642c-1.598-3.569,0.928-8.743,0.016-12.584
			c-1.582-6.67-5.971-11.263-11.723-13.954c-6.822-3.192-15.992-3.854-24.766-4.069V105.865z"/>
	</g>
	<path fill="#E8EDF4" stroke="#D1D4DB" stroke-width="0.5" stroke-miterlimit="10" d="M198.291,111.576
		c0,1.113-1.041,2.015-2.324,2.015h-95.914c-1.283,0-2.324-0.902-2.324-2.015v-9.6c0-1.112,1.041-2.015,2.324-2.015h95.914
		c1.283,0,2.324,0.902,2.324,2.015V111.576z"/>
	<circle fill="#FFFFFF" cx="167.268" cy="137.392" r="9"/>
	<circle fill="#FFFFFF" cx="129.768" cy="137.392" r="9"/>
	<circle fill="#91A8CF" cx="129.768" cy="137.235" r="3.5"/>
	<circle fill="#7CC253" cx="167.346" cy="137.235" r="5.5"/>
	<circle fill="#090A11" cx="167.346" cy="137.235" r="3.5"/>
	<circle fill="#090A11" cx="129.768" cy="137.235" r="1"/>
	<polygon fill="#91A8CF" stroke="#7385A5" stroke-width="0.8236" stroke-miterlimit="10" points="97.885,548.127 107.293,563.921 
		115.826,548.631 	"/>
	<polygon fill="#91A8CF" stroke="#7385A5" stroke-width="0.8236" stroke-miterlimit="10" points="110.09,548.127 119.498,563.921 
		128.031,548.631 	"/>
	<polygon fill="#91A8CF" stroke="#7385A5" stroke-width="0.8236" stroke-miterlimit="10" points="124.172,548.636 133.58,564.429 
		142.113,549.139 	"/>
	<polygon fill="#91A8CF" points="199.881,409.333 216.9,407.472 233.92,405.609 223.338,356.848 214.443,295.951 203.918,296.573 
		193.391,297.194 194.727,377.66 	"/>
	<polygon fill="#91A8CF" stroke="#647490" stroke-width="0.5603" stroke-miterlimit="10" points="198.189,547.619 191.418,394.53 
		142.145,395.583 142.145,395.583 105.977,394.081 97.885,548.127 140.211,547.391 148.061,460.824 155.863,546.883 	"/>
	<polygon fill="#91A8CF" stroke="#7385A5" stroke-width="0.8236" stroke-miterlimit="10" points="198.189,547.619 188.781,563.413 
		180.248,548.123 	"/>
	<polygon fill="#91A8CF" stroke="#7385A5" stroke-width="0.8236" stroke-miterlimit="10" points="185.984,547.619 176.576,563.413 
		168.043,548.123 	"/>
	<polygon fill="#91A8CF" stroke="#7385A5" stroke-width="0.8236" stroke-miterlimit="10" points="171.902,548.128 162.494,563.921 
		153.961,548.631 	"/>
	<g>
		<polygon fill="#91A8CF" stroke="#647490" stroke-width="0.563" stroke-miterlimit="10" points="194.328,400.646 200.729,411.729 
			187.932,411.729 		"/>
		<polygon fill="#91A8CF" stroke="#647490" stroke-width="0.563" stroke-miterlimit="10" points="192.699,392.574 203.783,398.973 
			192.701,405.369 		"/>
		<polygon fill="#91A8CF" stroke="#647490" stroke-width="0.563" stroke-miterlimit="10" points="171.375,385.4 177.773,374.316 
			184.17,385.4 		"/>
		<polygon fill="#91A8CF" stroke="#647490" stroke-width="0.563" stroke-miterlimit="10" points="165.197,390.848 165.197,378.051 
			176.279,384.451 		"/>
		<polygon fill="#91A8CF" stroke="#647490" stroke-width="0.563" stroke-miterlimit="10" points="162.572,398.654 156.172,387.57 
			168.971,387.572 		"/>
		<polygon fill="#91A8CF" stroke="#647490" stroke-width="0.563" stroke-miterlimit="10" points="164.201,406.727 153.117,400.328 
			164.201,393.932 		"/>
		<polygon fill="#91A8CF" stroke="#647490" stroke-width="0.563" stroke-miterlimit="10" points="169.648,412.904 156.852,412.904 
			163.252,401.822 		"/>
		<polygon fill="#91A8CF" stroke="#647490" stroke-width="0.563" stroke-miterlimit="10" points="177.455,415.529 166.371,421.928 
			166.373,409.131 		"/>
		<polygon fill="#91A8CF" stroke="#647490" stroke-width="0.563" stroke-miterlimit="10" points="185.527,413.9 179.129,424.984 
			172.732,413.9 		"/>
		<polygon fill="#91A8CF" stroke="#647490" stroke-width="0.563" stroke-miterlimit="10" points="191.703,408.453 191.705,421.25 
			180.623,414.85 		"/>
		<polygon fill="#91A8CF" stroke="#647490" stroke-width="0.563" stroke-miterlimit="10" points="187.254,386.398 200.051,386.396 
			193.65,397.479 		"/>
		<polygon fill="#91A8CF" stroke="#647490" stroke-width="0.563" stroke-miterlimit="10" points="179.447,383.771 190.529,377.371 
			190.529,390.168 		"/>
		<circle fill="#91A8CF" stroke="#647490" stroke-width="0.563" stroke-miterlimit="10" cx="177.772" cy="399.088" r="14.997"/>
	</g>
	<g>
		<polygon fill="#91A8CF" stroke="#647490" stroke-width="0.5603" stroke-miterlimit="10" points="132.971,400.643 139.34,411.672 
			126.604,411.67 		"/>
		<polygon fill="#91A8CF" stroke="#647490" stroke-width="0.5603" stroke-miterlimit="10" points="131.35,392.607 142.381,398.975 
			131.35,405.342 		"/>
		<polygon fill="#91A8CF" stroke="#647490" stroke-width="0.5603" stroke-miterlimit="10" points="110.125,385.467 116.492,374.438 
			122.859,385.469 		"/>
		<polygon fill="#91A8CF" stroke="#647490" stroke-width="0.5603" stroke-miterlimit="10" points="103.977,390.889 103.977,378.152 
			115.006,384.521 		"/>
		<polygon fill="#91A8CF" stroke="#647490" stroke-width="0.5603" stroke-miterlimit="10" points="101.363,398.658 94.996,387.629 
			107.73,387.629 		"/>
		<polygon fill="#91A8CF" stroke="#647490" stroke-width="0.5603" stroke-miterlimit="10" points="102.986,406.693 91.955,400.326 
			102.986,393.959 		"/>
		<polygon fill="#91A8CF" stroke="#647490" stroke-width="0.5603" stroke-miterlimit="10" points="108.406,412.84 95.67,412.842 
			102.039,401.812 		"/>
		<polygon fill="#91A8CF" stroke="#647490" stroke-width="0.5603" stroke-miterlimit="10" points="116.176,415.453 105.146,421.822 
			105.146,409.086 		"/>
		<polygon fill="#91A8CF" stroke="#647490" stroke-width="0.5603" stroke-miterlimit="10" points="124.211,413.832 117.842,424.863 
			111.477,413.832 		"/>
		<polygon fill="#91A8CF" stroke="#647490" stroke-width="0.5603" stroke-miterlimit="10" points="130.357,408.41 130.359,421.148 
			119.328,414.777 		"/>
		<polygon fill="#91A8CF" stroke="#647490" stroke-width="0.5603" stroke-miterlimit="10" points="125.928,386.461 138.666,386.459 
			132.295,397.488 		"/>
		<polygon fill="#91A8CF" stroke="#647490" stroke-width="0.5603" stroke-miterlimit="10" points="118.16,383.848 129.189,377.479 
			129.188,390.213 		"/>
		<circle fill="#91A8CF" stroke="#647490" stroke-width="0.5603" stroke-miterlimit="10" cx="116.492" cy="399.09" r="14.926"/>
	</g>
	<path fill="none" stroke="#005083" stroke-miterlimit="10" d="M150.01,120.41c0.893-0.865,3.449-2.5,4.73-2.231
		c0.221,1.269,0.689,2.301,1.748,3.009c2.332,1.559,4.764-0.256,7.225-0.402c1.299-0.078,2.387-0.125,3.268,0.753
		c0.477,0.474,0.596,1.235,0.963,1.751c1.344,1.88,3.947,1.859,6.066,1.87"/>
	<circle fill="#015084" cx="122.199" cy="156.384" r="1"/>
	<path fill="#F7CAC9" d="M111.635,153.74c0.662,1.109,2.012,4.23,2.361,5.515c0.803,2.959,0.889,4.026,1.201,6.936
		c0.334,3.119,2.9,5.667,3.652,8.691c0.436,1.754,1.924,9.21,1.918,8.399c-2.568-4.343-4.479-9.853-5.383-11.875
		c-1.607-3.596-4.043-9.357-4.545-13.269c-0.189-1.47-1.352-6.821-0.557-7.36"/>
	<path fill="#F7CAC9" d="M184.807,153.739c-0.662,1.109-2.012,4.23-2.361,5.515c-0.803,2.959-0.889,4.026-1.201,6.936
		c-0.334,3.119-2.9,5.667-3.652,8.691c-0.436,1.754-1.924,9.21-1.918,8.399c2.568-4.343,4.479-9.853,5.383-11.875
		c1.607-3.596,4.043-9.357,4.545-13.269c0.189-1.47,1.352-6.821,0.557-7.36"/>
	<polygon fill="#91A8CF" stroke="#7385A5" stroke-width="0.8236" stroke-miterlimit="10" points="156.98,243.002 146.973,292.528 
		139.039,243.506 	"/>
	<polygon fill="#91A8CF" stroke="#7385A5" stroke-width="1.1755" stroke-miterlimit="10" points="146.973,243.123 128.08,263.847 
		121.164,241.389 	"/>
	<polygon fill="#91A8CF" stroke="#7385A5" stroke-width="1.1755" stroke-miterlimit="10" points="151.041,243.123 169.936,263.847 
		176.85,241.389 	"/>
	<g>
		<polygon fill="#91A8CF" stroke="#7385A5" stroke-width="0.8236" stroke-miterlimit="10" points="223.014,270.289 232.377,286.501 
			213.654,286.5 		"/>
		<polygon fill="#91A8CF" stroke="#7385A5" stroke-width="0.8236" stroke-miterlimit="10" points="220.631,258.478 236.846,267.839 
			220.631,277.197 		"/>
		<polygon fill="#91A8CF" stroke="#7385A5" stroke-width="0.8236" stroke-miterlimit="10" points="189.432,247.983 198.791,231.768 
			208.15,247.984 		"/>
		<polygon fill="#91A8CF" stroke="#7385A5" stroke-width="0.8236" stroke-miterlimit="10" points="180.395,255.953 180.393,237.23 
			196.607,246.593 		"/>
		<polygon fill="#91A8CF" stroke="#7385A5" stroke-width="0.8236" stroke-miterlimit="10" points="176.555,267.373 167.191,251.16 
			185.914,251.162 		"/>
		<polygon fill="#91A8CF" stroke="#7385A5" stroke-width="0.8236" stroke-miterlimit="10" points="178.938,279.183 162.723,269.823 
			178.938,260.464 		"/>
		<polygon fill="#91A8CF" stroke="#7385A5" stroke-width="0.8236" stroke-miterlimit="10" points="186.906,288.22 168.184,288.222 
			177.547,272.008 		"/>
		<polygon fill="#91A8CF" stroke="#7385A5" stroke-width="0.8236" stroke-miterlimit="10" points="198.326,292.06 182.111,301.423 
			182.115,282.701 		"/>
		<polygon fill="#91A8CF" stroke="#7385A5" stroke-width="0.8236" stroke-miterlimit="10" points="210.137,289.677 200.775,305.893 
			191.418,289.677 		"/>
		<polygon fill="#91A8CF" stroke="#7385A5" stroke-width="0.8236" stroke-miterlimit="10" points="219.172,281.708 219.174,300.431 
			202.961,291.067 		"/>
		<polygon fill="#91A8CF" stroke="#7385A5" stroke-width="0.8236" stroke-miterlimit="10" points="212.662,249.442 231.385,249.441 
			222.021,265.653 		"/>
		<polygon fill="#91A8CF" stroke="#7385A5" stroke-width="0.8236" stroke-miterlimit="10" points="201.242,245.601 217.455,236.238 
			217.453,254.959 		"/>
		<circle fill="#91A8CF" stroke="#7385A5" stroke-width="0.8236" stroke-miterlimit="10" cx="198.791" cy="268.007" r="21.941"/>
	</g>
	<g>
		<polygon fill="#91A8CF" stroke="#7385A5" stroke-width="0.8236" stroke-miterlimit="10" points="123.445,271.747 132.809,287.96 
			114.086,287.959 		"/>
		<polygon fill="#91A8CF" stroke="#7385A5" stroke-width="0.8236" stroke-miterlimit="10" points="121.062,259.937 137.277,269.297 
			121.062,278.655 		"/>
		<polygon fill="#91A8CF" stroke="#7385A5" stroke-width="0.8236" stroke-miterlimit="10" points="89.863,249.441 99.223,233.227 
			108.582,249.442 		"/>
		<polygon fill="#91A8CF" stroke="#7385A5" stroke-width="0.8236" stroke-miterlimit="10" points="80.826,257.411 80.824,238.688 
			97.039,248.052 		"/>
		<polygon fill="#91A8CF" stroke="#7385A5" stroke-width="0.8236" stroke-miterlimit="10" points="76.986,268.831 67.623,252.618 
			86.346,252.62 		"/>
		<polygon fill="#91A8CF" stroke="#7385A5" stroke-width="0.8236" stroke-miterlimit="10" points="79.369,280.641 63.154,271.281 
			79.369,261.922 		"/>
		<polygon fill="#91A8CF" stroke="#7385A5" stroke-width="0.8236" stroke-miterlimit="10" points="87.338,289.678 68.615,289.68 
			77.979,273.467 		"/>
		<polygon fill="#91A8CF" stroke="#7385A5" stroke-width="0.8236" stroke-miterlimit="10" points="98.758,293.519 82.543,302.882 
			82.547,284.159 		"/>
		<polygon fill="#91A8CF" stroke="#7385A5" stroke-width="0.8236" stroke-miterlimit="10" points="110.568,291.136 101.207,307.352 
			91.85,291.136 		"/>
		<polygon fill="#91A8CF" stroke="#7385A5" stroke-width="0.8236" stroke-miterlimit="10" points="119.604,283.167 119.605,301.889 
			103.393,292.525 		"/>
		<polygon fill="#91A8CF" stroke="#7385A5" stroke-width="0.8236" stroke-miterlimit="10" points="113.094,250.9 131.816,250.899 
			122.453,267.111 		"/>
		<polygon fill="#91A8CF" stroke="#7385A5" stroke-width="0.8236" stroke-miterlimit="10" points="101.674,247.059 117.887,237.696 
			117.885,256.418 		"/>
		<circle fill="#91A8CF" stroke="#7385A5" stroke-width="0.8236" stroke-miterlimit="10" cx="99.223" cy="269.466" r="21.941"/>
	</g>
	<circle fill="#91A8CF" stroke="#7385A5" stroke-width="0.8236" stroke-miterlimit="10" cx="129.768" cy="342.037" r="5"/>
	<circle fill="#91A8CF" stroke="#7385A5" stroke-width="0.8236" stroke-miterlimit="10" cx="167.375" cy="325.833" r="5"/>
	<circle fill="#91A8CF" stroke="#7385A5" stroke-width="0.8236" stroke-miterlimit="10" cx="83.639" cy="369.995" r="5"/>
	<circle fill="#91A8CF" stroke="#7385A5" stroke-width="0.8236" stroke-miterlimit="10" cx="91.85" cy="331.879" r="5"/>
	<circle fill="#91A8CF" stroke="#7385A5" stroke-width="0.8236" stroke-miterlimit="10" cx="202.961" cy="329.699" r="5"/>
	<circle fill="#91A8CF" stroke="#7385A5" stroke-width="0.8236" stroke-miterlimit="10" cx="210.137" cy="367.504" r="5"/>
	<circle fill="#91A8CF" stroke="#7385A5" stroke-width="0.8236" stroke-miterlimit="10" cx="117.307" cy="498.259" r="5"/>
	<circle fill="#91A8CF" stroke="#7385A5" stroke-width="0.8236" stroke-miterlimit="10" cx="180.393" cy="507.266" r="5"/>
	<circle fill="#91A8CF" stroke="#7385A5" stroke-width="0.8236" stroke-miterlimit="10" cx="175.447" cy="466.63" r="5"/>
	<circle fill="#91A8CF" stroke="#7385A5" stroke-width="0.8236" stroke-miterlimit="10" cx="128.604" cy="462" r="5"/>
</g>
</svg>
