<?xml version="1.0" encoding="utf-8"?>
<!-- Generator: Adobe Illustrator 16.0.0, SVG Export Plug-In . SVG Version: 6.00 Build 0)  -->
<!DOCTYPE svg PUBLIC "-//W3C//DTD SVG 1.1//EN" "http://www.w3.org/Graphics/SVG/1.1/DTD/svg11.dtd">
<svg version="1.1" id="Layer_1" xmlns="http://www.w3.org/2000/svg" xmlns:xlink="http://www.w3.org/1999/xlink" x="0px" y="0px"
	 width="300px" height="660px" viewBox="0 0 300 660" enable-background="new 0 0 300 660" xml:space="preserve">
<pattern  x="-320" width="12.75" height="35.875" patternUnits="userSpaceOnUse" id="New_Pattern_Swatch_4" viewBox="0 -35.875 12.75 35.875" overflow="visible">
	<g>
		<polygon fill="none" points="0,0 12.75,0 12.75,-35.875 0,-35.875 		"/>
		<polygon fill="#F9E03C" points="7.625,0 5,0 5,-35.875 7.625,-35.875 		"/>
		<polygon fill="#F3776B" points="12.75,0 7.625,0 7.625,-35.875 12.75,-35.875 		"/>
		<polygon fill="#7CC253" points="5,0 0,0 0,-35.875 5,-35.875 		"/>
	</g>
</pattern>
<g>
	<g>
		<g>
			<path fill="#DD4231" d="M166.76,194.037c0,18.331,14.223,16.922,19.434,16.922c5.209,0,2.014-14.097,2.014-32.428
				c0-18.332,2.1-32.021-2.014-33.957C181.305,142.275,166.76,175.705,166.76,194.037z"/>
			<path fill="#DD4231" d="M132.182,195.421c0,17.788-14.223,16.42-19.432,16.42s-4.545-13.956-2.016-31.466
				c2.939-20.35-3.193-32.949,2.016-32.949S132.182,177.633,132.182,195.421z"/>
			<path fill="#F7CAC9" d="M116.779,101.146l1.217-1.219C117.492,100.308,117.072,100.711,116.779,101.146z"/>
			<path fill="#F7CAC9" d="M118.279,99.646l-0.283,0.281c0.5-0.375,1.09-0.723,1.762-1.041c0.014-0.24,0.029-0.479,0.021-0.74
				L118.279,99.646z"/>
			<path fill="#F7CAC9" d="M181.395,99.928l1.219,1.219C182.318,100.711,181.9,100.308,181.395,99.928z"/>
			<path fill="#F7CAC9" d="M181.113,99.646l-1.5-1.5c-0.008,0.261,0.006,0.5,0.021,0.74c0.672,0.318,1.262,0.666,1.76,1.041
				L181.113,99.646z"/>
			<path fill="#F7CAC9" stroke="#DDB5B4" stroke-miterlimit="10" d="M222.188,631.109c-1.193-5.543-9.195-4.303-13.84-5.26
				c-5.59-1.152-10.818-3.967-15.459-6.775c-5.246-3.174-9.303-4.842-9.701-11.965c-0.035-0.629-0.209-1.309-0.352-1.967
				l0.035-2.389l3.117-208.092c1.744-0.219,3.514-0.41,5.324-0.561c0.787-15.492,0.152-31.287,0.152-46.85
				c0-15.908,4.387-42.154,0.215-58.216v-0.864c5.785,8.213,4.488,25.389,6.496,35.332c3.08,15.244,8.721,26.578,8.881,43.181
				c0.092,9.52-3.85,17.981-5.82,26.788c-1.742,7.785-1.488,17.32-4.006,23.973c-2.268,5.998-8.156,8-7.219,14.223
				c1.436,9.516,8.363,4.873,10.395-2.045c1.582-0.455,4.074-0.428,5.674-0.021c0.396,7.76,0.07,14.734-2.85,20.848
				c-2.555,5.352-8.811,12.6,2.727,11.777c15.191-1.082,16.287-29.188,16.273-40.777c-0.041-40.406-4.268-82.045-10.977-120.023
				c-1.475-8.35-2.035-18.836-6.748-26.306c-4.146-6.571-11.523-11.362-16.596-17.358c-1.41-2.181-3.428-3.892-4.703-6.116
				c-11.953-20.836-11.736-23.644-11.699-40.239l-0.117,0.047c0.502-8.743,1.561-17.608,3.404-22.809
				c3.361-9.486,7.646-18.492,10.869-27.449c1.494-4.156,2.385-9.861,2.703-15.684c0.316-5.824,0.062-11.764-0.73-16.389
				c-0.893-5.205,0.443-14.911-1.379-19.977c-1.736-4.826-6.328-5.453-6.623-10.26c-3.217-1.525-13.268-5.732-18.328-5.818
				c-7.086-0.123-10.842-8.127-13.25-4.834c-2.406-3.293-12.092-7.092-19.854-1c-3.982,3.125-5.229,10.126-8.445,11.652
				c-0.297,4.807-4.887,5.434-6.623,10.26c-1.822,5.065-0.486,14.771-1.379,19.977c-0.793,4.625-1.047,10.564-0.73,16.389
				c0.318,5.822,1.209,11.527,2.703,15.684c3.223,8.957,7.508,17.963,10.869,27.449c3.275,9.241,4.074,30.054,3.68,41.193
				c-1.426,5.406-4.357,11.326-10.371,21.808c-1.275,2.225-3.293,3.936-4.703,6.116c-5.072,5.996-12.449,10.787-16.596,17.358
				c-4.713,7.47-5.273,17.956-6.748,26.306c-6.709,37.979-10.936,79.617-10.977,120.023c-0.014,11.59,1.082,39.695,16.273,40.777
				c11.537,0.822,5.281-6.426,2.727-11.777c-2.92-6.113-3.246-13.088-2.85-20.848c1.6-0.406,4.092-0.434,5.674,0.021
				c2.031,6.918,8.959,11.561,10.395,2.045c0.938-6.223-4.951-8.225-7.219-14.223c-2.518-6.652-2.264-16.188-4.006-23.973
				c-1.971-8.807-5.342-17.269-5.25-26.788c0.16-16.603,5.23-27.937,8.311-43.181c2.008-9.943,0.711-27.119,6.496-35.332v0.864
				c-4.172,16.062,0.215,42.308,0.215,58.216c0,15.562-0.635,31.357,0.152,46.85c1.811,0.15,3.58,0.342,5.324,0.561l3.117,208.092
				l0.035,2.389c-0.143,0.658-0.316,1.338-0.352,1.967c-0.398,7.123-4.455,8.791-9.701,11.965
				c-4.641,2.809-9.869,5.623-15.459,6.775c-4.645,0.957-12.646-0.283-13.84,5.26c-1.65,7.67,5.926,6.322,10.852,7.076
				c2.783,0.426,4.879,1.475,7.816,1.592c3.256,0.129,6.75-0.205,9.908-0.658c6.578-0.943,13.289-0.998,20.1-1.684
				c5.936-0.598,15.379,1.533,16.658-5.301c1.5-8.014-3.166-15.459-2.334-23.025l0.066-4.193h0.027l-0.014-0.939l0.014-0.904
				c-0.008,0-0.018,0-0.027-0.002l-3.066-204.719c3.023,0.375,6.146,0.658,9.42,0.799v0.104c0.039,0,0.08,0,0.119,0
				c0.711,0,1.396-0.023,2.092-0.039c0.695,0.016,1.381,0.039,2.092,0.039c0.039,0,0.08,0,0.119,0v-0.104
				c3.273-0.141,6.396-0.424,9.42-0.799l-3.066,204.719c-0.01,0.002-0.02,0.002-0.027,0.002l0.014,0.904l-0.014,0.939h0.027
				l0.066,4.193c0.832,7.566-3.834,15.012-2.334,23.025c1.279,6.834,10.723,4.703,16.658,5.301c6.811,0.686,13.521,0.74,20.1,1.684
				c3.158,0.453,6.652,0.787,9.908,0.658c2.938-0.117,5.033-1.166,7.816-1.592C216.262,637.432,223.838,638.779,222.188,631.109z"/>
		</g>
		<circle fill="#B18F6A" cx="146.369" cy="152.818" r="1.625"/>
		<circle fill="#B18F6A" cx="153.244" cy="152.818" r="1.625"/>
		<rect x="138.807" y="167.161" fill="#FFFFFF" width="4" height="2"/>
		<rect x="144.057" y="167.161" fill="#FFFFFF" width="4" height="2"/>
		<rect x="155.057" y="167.084" fill="#FFFFFF" width="4" height="2"/>
		<rect x="149.807" y="167.084" fill="#FFFFFF" width="4" height="2"/>
		<path fill="none" stroke="#F3776B" stroke-miterlimit="10" d="M163.682,166.123c-1.615-0.225-2.867,0.77-4.305,1
			c-1.084,0.172-2.346,0-3.445,0c-2.5,0-5,0-7.5,0h1c-2.5,0-5,0-7.5,0c-1.1,0-2.361,0.172-3.443,0c-1.439-0.23-2.691-1.225-4.307-1"
			/>
		<circle fill="#FFFFFF" cx="167.682" cy="136.551" r="9"/>
		<circle fill="#FFFFFF" cx="130.182" cy="136.551" r="9"/>
		<circle fill="#91A8CF" cx="130.182" cy="136.394" r="3.5"/>
		<circle fill="#7CC253" cx="167.76" cy="136.394" r="5.5"/>
		<circle fill="#090A11" cx="167.76" cy="136.394" r="3.5"/>
		<circle fill="#090A11" cx="130.182" cy="136.394" r="1"/>
		<path fill="#F7CAC9" d="M115.5,125.361c-6.369,0-11.531,5.163-11.531,11.532s5.162,11.532,11.531,11.532V125.361z"/>
		<path fill="#F7CAC9" d="M182.363,124.361c6.369,0,11.533,5.163,11.533,11.532s-5.164,11.532-11.533,11.532V124.361z"/>
	</g>
	<rect x="116.307" y="276.709" fill="#F9E03C" width="21.5" height="250.359"/>
	<polygon fill="#B18F6A" stroke="#F3776B" stroke-miterlimit="10" points="120.703,525.957 116.322,525.417 115.125,394.662 
		120.703,394.662 	"/>
	<rect x="124.223" y="276.709" fill="#F3776B" width="7.834" height="251.734"/>
	<polygon fill="#B18F6A" points="109.434,289.036 112.252,285.954 115.068,282.872 117.885,279.79 120.703,276.709 120.703,306.197 
		120.703,335.686 120.703,365.174 120.703,394.662 118.041,394.662 115.379,394.662 112.719,394.662 110.057,394.662 
		107.637,375.248 107.637,342.236 107.637,291.496 	"/>
	<rect x="143.814" y="276.709" fill="#F7CAC9" width="3.371" height="120.194"/>
	<polygon fill="#F9E03C" points="150.557,399.254 138.807,399.254 137.996,275.814 150.557,329.902 	"/>
	<polygon fill="#B18F6A" stroke="#F3776B" stroke-miterlimit="10" points="143.932,305.943 135.678,265.912 135.959,394.944 
		135.432,394.662 134.807,525.417 140.829,525.417 143.188,401.542 143.814,401.25 	"/>
	<polygon fill="#F3776B" points="154.725,399.254 146.891,399.254 146.98,314.461 154.725,347.068 	"/>
	<rect x="153.596" y="276.332" fill="#F7CAC9" width="3.371" height="120.194"/>
	<line fill="#F9E03C" x1="162.785" y1="275.438" x2="150.225" y2="329.525"/>
	<line fill="#F9E03C" x1="150.225" y1="398.877" x2="161.975" y2="398.877"/>
	<polygon fill="#F9E03C" stroke="#F3776B" stroke-miterlimit="10" points="107.637,292.631 107.637,375.248 109.744,394.662 
		112.369,394.662 112.369,364.443 112.369,358.787 112.369,292.631 	"/>
	<polygon fill="#F3776B" points="150.293,328.401 147.186,326.373 129.244,250.041 132.057,250.041 	"/>
	<circle opacity="0.5" fill="#F9DF3C" stroke="#F3776B" stroke-miterlimit="10" cx="148.933" cy="118.021" r="11.874"/>
	<path fill="#DD4231" d="M163.598,99.811c3.787,21.258,22.658,36.594,24.107,46.259c2.473,16.499,7.068-15.026,8.227-33.251
		c1.443-22.693-3.625-29.125-12.209-39.902c-9.887-12.41-19.436,9.752-20.428,13.482c-0.174,2.273-0.799,5.435-0.297,7.723"/>
	<path fill="#DD4231" d="M163.598,99.811c-2.18,7.336-16.412-2.227-26.539,7.258c-8.361,7.831-6.877,6.417-12.334,14.5
		c-6.314,9.352-10.785,15.084-13.035,26.584c-2.471,12.621-7.766-12.311-8.758-19.959c-4.783-36.896-2.494-32.25-1.125-39.125
		c2.797-14.046,29.096-25.701,46.188-27.833c14.928-1.862,22.793,9.942,25.5,22.768"/>
	<ellipse fill="#DD4231" cx="159.057" cy="81.43" rx="14.809" ry="11.568"/>
	<rect x="162.98" y="276.959" fill="#F9E03C" width="21.5" height="250.359"/>
	<polygon fill="#B18F6A" stroke="#F3776B" stroke-miterlimit="10" points="180.086,526.207 184.465,525.667 185.662,394.912 
		180.086,394.912 	"/>
	<rect x="168.73" y="276.959" fill="#F3776B" width="7.836" height="251.734"/>
	<polygon fill="#B18F6A" points="191.354,289.286 188.537,286.204 185.719,283.122 182.902,280.04 180.086,276.959 180.086,306.447 
		180.086,335.936 180.086,365.424 180.086,394.912 182.746,394.912 185.408,394.912 188.07,394.912 190.73,394.912 193.15,375.498 
		193.15,342.486 193.15,291.746 	"/>
	<rect x="153.602" y="276.959" fill="#F7CAC9" width="3.371" height="120.194"/>
	<polygon fill="#F9E03C" points="150.23,399.504 161.98,399.504 162.791,276.064 150.23,330.152 	"/>
	<polygon fill="#B18F6A" stroke="#F3776B" stroke-miterlimit="10" points="165.98,525.667 165.355,394.912 164.83,395.193 
		165.111,266.162 156.855,306.193 156.973,401.5 157.601,401.793 159.75,525.667 	"/>
	<polygon fill="#F3776B" points="147.186,399.504 153.898,399.504 153.82,314.711 147.186,347.318 	"/>
	<line fill="#F9E03C" x1="138.002" y1="275.688" x2="150.562" y2="329.775"/>
	<line fill="#F9E03C" x1="150.562" y1="399.127" x2="138.812" y2="399.127"/>
	<polygon fill="#F9E03C" stroke="#F3776B" stroke-miterlimit="10" points="188.418,292.881 188.418,359.037 188.418,364.693 
		188.418,394.912 191.043,394.912 193.15,375.498 193.15,292.881 	"/>
	<polygon fill="#F3776B" points="149.293,332.045 152.43,329.928 170.543,250.291 167.703,250.291 	"/>
	<g>
		<polygon fill="#F9E03C" stroke="#F3776B" stroke-miterlimit="10" points="79.031,402.845 84.746,402.845 90.461,402.845 
			96.178,402.845 101.893,402.845 101.893,370.314 101.893,337.785 101.893,305.255 101.893,272.725 96.178,272.725 90.461,272.725 
			84.057,275.438 82.742,272.725 81.336,311.318 79.031,337.785 79.031,370.314 		"/>
		<polygon fill="#F3776B" stroke="#F3776B" stroke-miterlimit="10" points="94.893,402.845 92.643,402.845 90.393,402.845 
			88.143,402.845 85.893,402.845 85.893,370.314 85.893,337.785 88.057,298.818 90.393,272.725 88.143,272.725 90.393,272.725 
			92.643,272.725 99.418,272.725 96.945,305.318 94.893,337.785 94.893,370.314 		"/>
		<polygon fill="#B18F6A" stroke="#F3776B" stroke-miterlimit="10" points="101.893,402.845 100.656,402.845 99.418,402.845 
			98.182,402.845 96.945,402.845 96.945,370.314 96.945,337.785 99.418,304.568 101.893,272.725 98.182,272.725 99.418,272.725 
			100.656,272.725 111.057,276.709 104.881,304.158 101.893,337.785 101.893,370.314 		"/>
		<polygon fill="#B18F6A" stroke="#F3776B" stroke-miterlimit="10" points="81.729,402.845 80.492,402.845 79.254,402.845 
			78.018,402.845 76.781,402.845 76.781,370.314 76.781,337.785 77.307,324.568 83.557,267.568 85.893,272.725 82.807,312.568 
			81.729,337.785 81.729,370.314 		"/>
	</g>
	<rect x="79.254" y="402.845" fill="#B18F6A" stroke="#F3776B" stroke-miterlimit="10" width="22.359" height="6.474"/>
	<g>
		<polygon fill="#F9E03C" points="221.693,402.186 215.979,402.186 210.262,402.186 204.547,402.186 198.832,402.186 
			198.832,369.656 198.832,337.127 198.832,304.596 198.832,272.066 204.547,272.066 210.262,272.066 216.666,274.779 
			217.982,272.066 219.387,310.66 221.693,337.127 221.693,369.656 		"/>
		<polygon fill="#F3776B" stroke="#F3776B" stroke-miterlimit="10" points="205.832,402.186 208.082,402.186 210.332,402.186 
			212.582,402.186 214.832,402.186 214.832,369.656 214.832,337.127 212.666,298.16 210.332,272.066 212.582,272.066 
			210.332,272.066 208.082,272.066 201.305,272.066 203.779,304.66 205.832,337.127 205.832,369.656 		"/>
		<polygon fill="#B18F6A" stroke="#F3776B" stroke-miterlimit="10" points="198.832,402.186 200.068,402.186 201.305,402.186 
			202.543,402.186 203.779,402.186 203.779,369.656 203.779,337.127 201.305,303.91 198.832,272.066 202.543,272.066 
			201.305,272.066 200.068,272.066 189.666,276.05 195.844,303.499 198.832,337.127 198.832,369.656 		"/>
		<polygon fill="#B18F6A" stroke="#F3776B" stroke-miterlimit="10" points="218.996,402.186 220.232,402.186 221.469,402.186 
			222.707,402.186 223.943,402.186 223.943,369.656 223.943,337.127 223.416,323.91 217.166,266.91 214.832,272.066 217.916,311.91 
			218.996,337.127 218.996,369.656 		"/>
	</g>
	<rect x="199.111" y="402.186" fill="#B18F6A" stroke="#F3776B" stroke-miterlimit="10" width="22.357" height="6.475"/>
	<pattern  id="SVGID_1_" xlink:href="#New_Pattern_Swatch_4" patternTransform="matrix(-1 0 0 1 -15447.0195 -16.0566)">
	</pattern>
	<path fill="url(#SVGID_1_)" stroke="#F3776B" stroke-width="2" stroke-miterlimit="10" d="M231.391,242.902
		c0,28.205-43.029,58.936-74.418,58.936l11.758-51.547L231.391,242.902z"/>
	<polygon fill="#F9E03C" stroke="#B18F69" stroke-miterlimit="10" points="203.484,274.687 165.479,261.135 172.979,225.396 	"/>
	<pattern  id="SVGID_2_" xlink:href="#New_Pattern_Swatch_4" patternTransform="matrix(1 0 0 1 -6.981 -51.2886)">
	</pattern>
	<path fill="url(#SVGID_2_)" stroke="#F3776B" stroke-width="2" stroke-miterlimit="10" d="M68.609,243.545
		c0,28.206,43.029,58.937,74.418,58.937l-11.758-51.547L68.609,243.545z"/>
	<polygon fill="#F9E03C" stroke="#B18F69" stroke-miterlimit="10" points="96.178,272.725 134.182,259.173 126.682,223.436 	"/>
	<path fill="#DD4231" d="M141.182,610.205l0.792-4.092l-1.145-80.696h-24.507l1.176,78.433l0.035,2.389
		c-0.143,0.658-0.316,1.338-0.352,1.967c-0.398,7.123-4.455,8.791-9.701,11.965c-4.641,2.809-9.869,5.623-15.459,6.775
		c-4.645,0.957-12.646-0.283-13.84,5.26c-1.65,7.67,5.926,6.322,10.852,7.076c2.783,0.426,4.879,1.475,7.816,1.592
		c3.256,0.129,6.75-0.205,9.908-0.658c6.578-0.943,13.289-0.998,20.1-1.684c5.936-0.598,15.379,1.533,16.658-5.301
		C145.016,625.217,140.35,617.771,141.182,610.205z"/>
	<path fill="#DD4231" d="M159.607,610.455l-0.066-4.193L159,605.99l0.75-80.323h24.715l-1.174,78.433l-0.035,2.389
		c0.143,0.658,0.316,1.338,0.352,1.967c0.398,7.123,4.455,8.791,9.701,11.965c4.641,2.809,9.869,5.623,15.459,6.775
		c4.645,0.957,12.646-0.283,13.84,5.26c1.65,7.67-5.926,6.322-10.852,7.076c-2.783,0.426-4.879,1.475-7.816,1.592
		c-3.256,0.129-6.75-0.205-9.908-0.658c-6.578-0.943-13.289-0.998-20.1-1.684c-5.936-0.598-15.379,1.533-16.658-5.301
		C155.773,625.467,160.439,618.021,159.607,610.455z"/>
	<path fill="#414042" d="M145.691,620.175c-0.805-5.479-6.848-7.762-6.883-11.461c-5.779-0.266-12.402-6.046-17.656-3.8
		c-2.568,1.098-10.439,7.469-13.283,9.322c-3.084,2.014-5.291,4.047-8.879,5.219c-0.791,0.26-1.68,0.493-2.637,0.72H84.197
		c-7.305,0-13.225,8.364-13.225,18.687h0.031c-0.195,2.884,8.004,2.889,15.283,2.889h43.848c0.195,0,0.387-0.005,0.58-0.006v0.006
		h13.082l1.947-2.889h0.062v-18.687H145.691z"/>
	<path fill="#DD4231" d="M145.807,625.279v-5.373h-0.115c-0.805-5.479-4.395-12.125-4.43-15.824
		c-5.779-0.266-14.855-1.683-20.109,0.563c-2.568,1.098-10.439,7.469-13.283,9.322c-3.084,2.014-5.291,4.047-8.879,5.219
		c-0.791,0.26-1.68,0.493-2.637,0.72H84.197c-4.129,0-6.758,1.053-9.182,5.24L145.807,625.279z"/>
	<path fill="#414042" d="M155.098,620.425c0.805-5.479,6.848-7.762,6.883-11.461c5.777-0.266,12.4-6.046,17.654-3.8
		c2.57,1.098,10.441,7.469,13.283,9.322c3.084,2.014,5.291,4.047,8.879,5.219c0.793,0.26,1.682,0.493,2.637,0.72h12.156
		c7.305,0,13.227,8.364,13.227,18.687h-0.033c0.197,2.884-8.004,2.889-15.283,2.889h-43.848c-0.195,0-0.387-0.005-0.58-0.006V642
		H156.99l-1.947-2.889h-0.061v-18.687H155.098z"/>
	<path fill="#DD4231" d="M154.982,625.529v-5.373h0.115c0.805-5.479,4.395-12.125,4.43-15.824
		c5.777-0.266,14.854-1.683,20.107,0.563c2.57,1.098,10.441,7.469,13.283,9.322c3.084,2.014,5.291,4.047,8.879,5.219
		c0.793,0.26,1.682,0.493,2.637,0.72h12.156c4.129,0,6.758,1.053,9.184,5.24L154.982,625.529z"/>
</g>
</svg>
