<?xml version="1.0" encoding="utf-8"?>
<!-- Generator: Adobe Illustrator 16.0.0, SVG Export Plug-In . SVG Version: 6.00 Build 0)  -->
<!DOCTYPE svg PUBLIC "-//W3C//DTD SVG 1.1//EN" "http://www.w3.org/Graphics/SVG/1.1/DTD/svg11.dtd">
<svg version="1.1" id="Layer_1" xmlns="http://www.w3.org/2000/svg" xmlns:xlink="http://www.w3.org/1999/xlink" x="0px" y="0px"
	 width="300px" height="700px" viewBox="0 0 300 700" enable-background="new 0 0 300 700" xml:space="preserve">
<g>
	<rect x="114.5" y="295.263" fill="#FFFFFF" width="4" height="4"/>
	<g>
		<path fill="#F7CAC9" d="M116.223,110.841l1.217-1.218C116.936,110.003,116.516,110.407,116.223,110.841z"/>
		<path fill="#F7CAC9" d="M117.723,109.341l-0.283,0.282c0.5-0.375,1.09-0.723,1.762-1.042c0.014-0.239,0.029-0.479,0.021-0.74
			L117.723,109.341z"/>
		<path fill="#F7CAC9" d="M180.838,109.624l1.219,1.218C181.762,110.407,181.344,110.003,180.838,109.624z"/>
		<path fill="#F7CAC9" d="M180.557,109.341l-1.5-1.5c-0.008,0.261,0.006,0.501,0.021,0.74c0.672,0.319,1.262,0.667,1.76,1.042
			L180.557,109.341z"/>
		<path fill="#F7CAC9" d="M221.631,640.805c-1.193-5.543-9.195-4.303-13.84-5.26c-5.59-1.152-10.818-3.967-15.459-6.775
			c-5.246-3.174-9.303-4.842-9.701-11.965c-0.035-0.629-0.209-1.309-0.352-1.967l0.035-2.389l3.117-208.092
			c1.744-0.219,3.514-0.41,5.324-0.561c0.787-15.492,0.152-31.287,0.152-46.848c0-15.91,4.387-42.156,0.215-58.218v-0.864
			c5.785,8.212,4.488,25.388,6.496,35.332c3.08,15.244-1.105,25.893-0.945,42.494c0.092,9.52,5.977,18.668,4.006,27.475
			c-1.742,7.785-1.488,17.32-4.006,23.973c-2.268,5.998-8.156,8-7.219,14.223c1.436,9.516,8.363,4.873,10.395-2.045
			c1.582-0.455,4.074-0.428,5.674-0.021c0.396,7.76,0.07,14.734-2.85,20.848c-2.555,5.352-8.811,12.6,2.727,11.777
			c15.191-1.082,16.287-29.188,16.273-40.777c-0.041-40.406-4.268-82.045-10.977-120.023c-1.475-8.35-2.035-18.836-6.748-26.306
			c-4.146-6.571-11.523-11.363-16.596-17.358c-1.41-2.181-3.428-3.892-4.703-6.116c-11.953-20.836-11.736-23.644-11.699-40.239
			l-0.117,0.047c0.502-8.744,1.561-17.609,3.404-22.809c3.361-9.487,7.646-18.492,10.869-27.449
			c1.494-4.156,2.385-9.862,2.703-15.685c0.316-5.823,0.062-11.763-0.73-16.388c-0.893-5.206,0.443-14.911-1.379-19.977
			c-1.736-4.826-6.328-5.452-6.623-10.26c-3.217-1.525-8.227-2.398-13.287-2.484c-7.086-0.123-14.244,1.294-16.652,4.587
			c-2.406-3.292-9.564-4.709-16.65-4.587c-5.061,0.086-10.07,0.958-13.287,2.484c-0.297,4.808-4.887,5.434-6.623,10.26
			c-1.822,5.066-0.486,14.771-1.379,19.977c-0.793,4.625-1.047,10.565-0.73,16.388c0.318,5.822,1.209,11.528,2.703,15.685
			c3.223,8.957,7.508,17.962,10.869,27.449c3.275,9.241,4.074,30.053,3.68,41.192c-1.426,5.407-4.357,11.326-10.371,21.808
			c-1.275,2.225-3.293,3.936-4.703,6.116c-5.072,5.996-12.449,10.787-16.596,17.358c-4.713,7.47-5.273,17.956-6.748,26.306
			c-6.709,37.979-10.936,79.617-10.977,120.023c-0.014,11.59,1.082,39.695,16.273,40.777c11.537,0.822,5.281-6.426,2.727-11.777
			c-2.92-6.113-3.246-13.088-2.85-20.848c1.6-0.406,4.092-0.434,5.674,0.021c2.031,6.918,8.959,11.561,10.395,2.045
			c0.938-6.223-4.951-8.225-7.219-14.223c-2.518-6.652-2.264-16.188-4.006-23.973c-1.971-8.807,3.914-17.955,4.006-27.475
			c0.16-16.602-4.025-27.25-0.945-42.494c2.008-9.943,0.711-27.119,6.496-35.332v0.864c-4.172,16.062,0.215,42.308,0.215,58.218
			c0,15.561-0.635,31.355,0.152,46.848c1.811,0.15,3.58,0.342,5.324,0.561l3.117,208.092l0.035,2.389
			c-0.143,0.658-0.316,1.338-0.352,1.967c-0.398,7.123-4.455,8.791-9.701,11.965c-4.641,2.809-9.869,5.623-15.459,6.775
			c-4.645,0.957-12.646-0.283-13.84,5.26c-1.65,7.67,5.926,6.322,10.852,7.076c2.783,0.426,4.879,1.475,7.816,1.592
			c3.256,0.129,6.75-0.205,9.908-0.658c6.578-0.943,13.289-0.998,20.1-1.684c5.936-0.598,15.379,1.533,16.658-5.301
			c1.5-8.014-3.166-15.459-2.334-23.025l0.066-4.193h0.027l-0.014-0.939l0.014-0.904c-0.008,0-0.018,0-0.027-0.002l-3.066-204.719
			c3.023,0.375,6.146,0.658,9.42,0.799v0.104c0.039,0,0.08,0,0.119,0c0.711,0,1.396-0.023,2.092-0.039
			c0.695,0.016,1.381,0.039,2.092,0.039c0.039,0,0.08,0,0.119,0v-0.104c3.273-0.141,6.396-0.424,9.42-0.799l-3.066,204.719
			c-0.01,0.002-0.02,0.002-0.027,0.002l0.014,0.904l-0.014,0.939h0.027l0.066,4.193c0.832,7.566-3.834,15.012-2.334,23.025
			c1.279,6.834,10.723,4.703,16.658,5.301c6.811,0.686,13.521,0.74,20.1,1.684c3.158,0.453,6.652,0.787,9.908,0.658
			c2.938-0.117,5.033-1.166,7.816-1.592C215.705,647.127,223.281,648.475,221.631,640.805z M149.139,189.162
			c-0.07-1.721-0.066-3.454,0-5.202C149.205,185.708,149.209,187.441,149.139,189.162z"/>
		<path fill="#414042" d="M143.824,628.426c-0.805-5.479-2.088-10.498-2.123-14.197c-5.779-0.266-17.162-3.311-22.416-1.064
			c-2.57,1.098-10.441,7.469-13.283,9.322c-3.084,2.014-5.291,4.047-8.879,5.219c-0.793,0.26-1.682,0.494-2.637,0.721H82.33
			c-7.305,0-13.227,8.363-13.227,18.686h0.033C68.939,649.996,77.141,650,84.42,650h43.848c0.195,0,0.387-0.004,0.58-0.006V650
			h13.082l1.947-2.889h0.062v-18.686H143.824z"/>
		<path fill="#414042" d="M156.178,628.426c0.805-5.479,2.088-10.498,2.123-14.197c5.779-0.266,17.162-3.311,22.416-1.064
			c2.568,1.098,10.439,7.469,13.283,9.322c3.084,2.014,5.291,4.047,8.879,5.219c0.791,0.26,1.68,0.494,2.637,0.721h12.156
			c7.305,0,13.225,8.363,13.225,18.686h-0.031c0.195,2.885-8.004,2.889-15.283,2.889h-43.848c-0.195,0-0.387-0.004-0.58-0.006V650
			h-13.082l-1.947-2.889h-0.062v-18.686H156.178z"/>
	</g>
	<circle fill="#FFFFFF" cx="166.5" cy="147.263" r="9"/>
	<circle fill="#FFFFFF" cx="129" cy="147.263" r="9"/>
	<circle fill="#B18F6A" cx="144.75" cy="162.513" r="1.625"/>
	<circle fill="#B18F6A" cx="151.625" cy="162.513" r="1.625"/>
	<rect x="138.25" y="176.856" fill="#FFFFFF" width="4" height="2"/>
	<rect x="143.5" y="176.856" fill="#FFFFFF" width="4" height="2"/>
	<rect x="154.5" y="176.78" fill="#FFFFFF" width="4" height="2"/>
	<rect x="149.25" y="176.78" fill="#FFFFFF" width="4" height="2"/>
	<path fill="none" stroke="#F3776B" stroke-miterlimit="10" d="M163.125,175.818c-1.615-0.225-2.867,0.771-4.306,1
		c-1.083,0.173-2.345,0-3.444,0c-2.5,0-5,0-7.5,0h1c-2.5,0-5,0-7.5,0c-1.1,0-2.361,0.173-3.444,0c-1.438-0.229-2.69-1.225-4.306-1"
		/>
	<path fill="#F9E03C" d="M111.594,161.677c-0.758,0.362-0.193,1.564-1.917,1.143c-4.53-4.193-1.982-7.353-3.7-12.342
		c-2.703-7.857-4.767-6.709-9.756-11.479c-8.092-7.733-8.68-15.677-2.809-25.826c5.273-9.117,11.036-18.969,15.826-27.767
		c5.529-10.154,12.959-10.187,24.077-10.729c11.647-0.568,23.429,0.054,35.089,0c12.592-0.059,15.651,4.53,22.249,14.249
		c4.971,7.325,14.869,16.523,17.706,24.97c3.757,11.182-4.845,13.345-10.709,20.258c-6.566,7.743-3.111,26.116-11.355,30.443
		c-0.624-13.409-5.148-22.005-5.893-35.488c-4.948-1.153-3.656-11.447-7.188-12.699c-5.012-1.778-12.934,0.938-18.227,2.215
		c-7.809,1.883-9.212,3.004-15.092,0.027c-3.875-1.961-4.459-6.543-11.22-6.709c-32.721-0.806-6.604,31.5-17.522,47.697
		L111.594,161.677z"/>
	<g>
		<polygon fill="#F9E03C" points="104.231,413.625 95.981,413.625 87.731,413.625 79.481,413.625 71.231,413.625 71.231,371.375 
			71.231,329.127 71.231,286.879 79.481,244.63 79.481,244.63 87.731,244.63 95.981,244.63 111.731,244.63 111.731,287.534 
			104.231,329.127 104.231,371.375 		"/>
		<path fill="#FFFFFF" stroke="#E6E7E8" stroke-width="1.1522" stroke-miterlimit="10" d="M132.449,247.488
			c23.69,11.975,25.729,69.002,19.853,95.426c-11.271,0.531-13.081,0.357-16.801-11.852c-2.712-8.902-7.963-18.541-9.606-26.775
			c-1.698-8.505-1.111-21.347-1.441-30.246c-0.52-13.979,1.728-17.204,5.996-26.553H132.449z"/>
		<polygon fill="#F9E03C" stroke="#D1D3D4" stroke-width="0.7676" stroke-miterlimit="10" points="156.587,339.031 140.103,273.11 
			139.521,273.262 131.062,240.442 111.093,265.131 125.194,277.014 113.231,280.145 		"/>
		<polygon fill="#F9E03C" stroke="#D1D3D4" stroke-miterlimit="10" points="142.731,620.457 134.481,620.457 126.231,620.457 
			117.981,620.457 109.731,620.457 106.231,586.256 98.727,517.457 98.727,467.525 109.731,389.457 117.981,389.457 
			126.231,389.457 134.481,389.457 142.731,389.457 154.111,388.631 142.912,492.457 147.412,596.457 		"/>
		<path fill="#F9E03C" stroke="#D1D3D4" stroke-width="1.0545" stroke-miterlimit="10" d="M102.129,623.457c0,1.105,0.886,2,1.979,2
			h41.074c1.093,0,1.979-0.895,1.979-2v-9c0-1.104-0.887-2-1.979-2h-41.074c-1.094,0-1.979,0.896-1.979,2V623.457z"/>
	</g>
	<g>
		<polygon fill="#F9E03C" points="196.518,413.51 204.768,413.51 213.018,413.51 221.268,413.51 229.518,413.51 229.518,371.262 
			229.518,329.014 229.518,286.765 221.268,244.516 221.268,244.516 213.018,244.516 204.768,244.516 189.018,244.516 
			189.018,287.419 196.518,329.014 196.518,371.262 		"/>
		<path fill="#FFFFFF" stroke="#E6E7E8" stroke-width="1.1522" stroke-miterlimit="10" d="M167.3,247.374
			c-23.69,11.975-25.729,69.003-19.853,95.427c11.271,0.529,13.081,0.357,16.801-11.852c2.712-8.902,7.963-18.543,9.606-26.775
			c1.698-8.506,1.111-21.348,1.441-30.247c0.52-13.979-1.728-17.204-5.996-26.553H167.3z"/>
		<polygon fill="#F9E03C" stroke="#D1D3D4" stroke-width="0.7676" stroke-miterlimit="10" points="143.162,338.916 159.646,272.996 
			160.228,273.148 168.687,240.328 188.656,265.017 174.555,276.9 186.518,280.031 		"/>
		<polygon fill="#F9E03C" stroke="#D1D3D4" stroke-miterlimit="10" points="158.018,620.344 166.268,620.344 174.518,620.344 
			182.768,620.344 191.018,620.344 194.518,586.143 202.022,517.344 202.022,467.412 191.018,389.344 182.768,389.344 
			174.518,389.344 166.268,389.344 158.018,389.344 146.638,388.516 157.837,492.344 153.337,596.344 		"/>
		<path fill="#F9E03C" stroke="#D1D3D4" stroke-width="1.0545" stroke-miterlimit="10" d="M197.62,623.344c0,1.104-0.886,2-1.979,2
			h-41.074c-1.093,0-1.979-0.896-1.979-2v-9c0-1.105,0.887-2,1.979-2h41.074c1.094,0,1.979,0.895,1.979,2V623.344z"/>
		<polygon fill="#F9E03C" stroke="#D1D3D4" stroke-width="1.0315" stroke-miterlimit="10" points="145.638,388.516 169.578,423.516 
			193.518,423.516 193.518,334.016 193.518,244.516 169.578,244.516 169.578,244.516 145.638,334.016 		"/>
	</g>
	<polygon fill="#F9E03C" stroke="#D1D3D4" stroke-width="1.0315" stroke-miterlimit="10" points="154.439,388.773 130.5,423.773 
		106.561,423.773 106.561,334.272 106.561,244.772 130.5,244.772 130.5,244.772 154.439,334.272 	"/>
	<polygon fill="#F9E03C" stroke="#D1D3D4" stroke-width="0.7676" stroke-miterlimit="10" points="146.375,325.16 160.236,273.109 
		160.818,273.262 169.277,240.442 189.246,265.131 175.145,277.014 187.107,280.146 	"/>
	<polygon fill="#F9E03C" stroke="#D1D3D4" stroke-width="0.7676" stroke-miterlimit="10" points="156.587,341.459 140.103,275.537 
		139.521,275.689 131.062,242.87 111.093,267.559 125.194,279.441 113.231,282.574 	"/>
	<path fill="none" stroke="#B18F6A" stroke-miterlimit="10" d="M157.5,136.263c3.231-5.575,9.205-3.979,15-4"/>
	<path fill="none" stroke="#B18F6A" stroke-miterlimit="10" d="M120.146,137.361c3.231-5.574,9.205-3.979,15-4"/>
	<polygon fill="#29292B" points="167.887,318.801 157.811,299.451 167.732,278.801 177.811,298.151 	"/>
	<polygon fill="#29292B" points="177.498,335.305 177.811,334.654 167.732,315.305 158.123,335.305 	"/>
	<polygon fill="#29292B" points="160.338,249.421 160.15,250.595 168.054,285.181 173.851,249.081 	"/>
	<polygon fill="#29292B" points="132.916,294.55 122.84,275.199 132.762,254.55 142.84,273.899 	"/>
	<polygon fill="#29292B" points="142.527,311.053 142.84,310.402 132.762,291.053 123.152,311.053 	"/>
	<polygon fill="#FFFFFF" stroke="#E6E7E8" stroke-miterlimit="10" points="140.84,251.13 124.84,267.131 124.84,224.13 	"/>
	<polygon fill="#FFFFFF" stroke="#E6E7E8" stroke-miterlimit="10" points="158.578,253.13 174.578,269.13 174.578,226.13 	"/>
	<circle fill="#FFFFFF" cx="167.967" cy="295.42" r="1"/>
	<circle fill="#FFFFFF" cx="166.5" cy="311.053" r="1"/>
	<circle fill="#FFFFFF" cx="129" cy="269.13" r="1"/>
	<circle fill="#FFFFFF" cx="135.146" cy="274.55" r="1"/>
	<circle fill="#FFFFFF" cx="131.5" cy="282.801" r="1"/>
	<circle fill="#FFFFFF" cx="129" cy="275.55" r="1"/>
	<circle fill="#FFFFFF" cx="134.146" cy="302.053" r="1"/>
	<circle fill="#FFFFFF" cx="129" cy="310.053" r="1"/>
	<circle fill="#FFFFFF" cx="169.578" cy="302.052" r="1"/>
	<circle fill="#FFFFFF" cx="162" cy="301.052" r="1"/>
	<circle fill="#FFFFFF" cx="167.5" cy="329.27" r="1"/>
	<circle fill="#FFFFFF" cx="138" cy="309.053" r="1"/>
	<circle fill="#FFFFFF" cx="135.146" cy="267.131" r="1"/>
	<circle fill="#FFFFFF" cx="167.5" cy="268.13" r="1"/>
	<circle fill="#FFFFFF" cx="171.33" cy="291.053" r="1"/>
	<circle fill="#FFFFFF" cx="165.5" cy="290.053" r="1"/>
	<circle fill="#FFFFFF" cx="167.5" cy="324.16" r="1"/>
	<circle fill="#FFFFFF" cx="172.5" cy="330.269" r="1"/>
	<circle fill="#FFFFFF" cx="130" cy="303.052" r="1"/>
	<circle fill="#FFFFFF" cx="136.146" cy="281.801" r="1"/>
	<circle fill="#FFFFFF" cx="162" cy="334.016" r="1"/>
	<circle fill="#FFFFFF" cx="174.578" cy="298.801" r="1"/>
	<circle fill="#91A8CF" cx="129" cy="147.106" r="3.5"/>
	<circle fill="#7CC253" cx="166.578" cy="147.106" r="5.5"/>
	<circle fill="#090A11" cx="166.578" cy="147.106" r="3.5"/>
	<circle fill="#090A11" cx="129" cy="147.106" r="1"/>
</g>
</svg>
