<?xml version="1.0" encoding="utf-8"?>
<!-- Generator: Adobe Illustrator 16.0.0, SVG Export Plug-In . SVG Version: 6.00 Build 0)  -->
<!DOCTYPE svg PUBLIC "-//W3C//DTD SVG 1.1//EN" "http://www.w3.org/Graphics/SVG/1.1/DTD/svg11.dtd">
<svg version="1.1" id="Layer_1" xmlns="http://www.w3.org/2000/svg" xmlns:xlink="http://www.w3.org/1999/xlink" x="0px" y="0px"
	 width="300px" height="300px" viewBox="0 0 300 300" enable-background="new 0 0 300 300" xml:space="preserve">
<g>
	<g>
		<path fill="#F6CAC9" d="M108.232,104.831c-7.643,0-13.838,6.195-13.838,13.838s6.195,13.839,13.838,13.839V104.831z"/>
		<path fill="#F6CAC9" d="M188.469,103.632c7.643,0,13.84,6.194,13.84,13.837c0,7.644-6.197,13.839-13.84,13.839V103.632z"/>
		<path fill="#F6CAC9" stroke="#DDB5B4" stroke-width="1.2" stroke-miterlimit="10" d="M235.508,707.42
			c-1.434-6.651-11.035-5.163-16.609-6.312c-6.707-1.382-12.98-4.76-18.551-8.129c-6.295-3.811-11.162-5.812-11.641-14.359
			c-0.043-0.755-0.25-1.57-0.422-2.36l0.043-2.866l3.74-249.711c2.092-0.263,4.217-0.491,6.387-0.673
			c0.945-18.591-20.945-37.065-20.945-55.739c0-19.09,26.393-51.065,21.387-70.338v-1.037c6.941,9.855,5.385,30.466,7.795,42.398
			c3.697,18.291,8.426,28.26,8.619,48.184c0.111,11.424,4.365,25.965,1.998,36.532c-2.09,9.342-0.141,15.304-3.162,23.286
			c-2.721,7.197-18.375,14.325-17.252,21.793c1.725,11.419,10.035,5.848,12.475-2.453c1.898-0.547,4.889-0.515,6.809-0.026
			c0.475,9.312,0.084,17.682-3.42,25.018c-3.066,6.423-10.574,15.12,3.273,14.133c18.229-1.299,19.543-35.025,19.525-48.933
			c-0.049-48.486-5.121-98.454-13.172-144.027c-1.77-10.021-6.615-21.956-12.27-30.92c-4.975-7.886-9.656-14.281-15.744-21.477
			c-1.691-2.617-4.113-4.67-5.643-7.34c-14.344-25.003-14.082-28.372-14.039-48.286l-0.141,0.057
			c0.604-10.492,1.875-21.13,4.084-27.372c4.035-11.382,9.176-22.189,13.043-32.938c1.793-4.987,2.863-11.834,3.244-18.821
			c0.381-6.989,0.076-14.118-0.875-19.668c-1.072-6.245,0.531-17.892-1.654-23.972c-2.084-5.791-7.594-6.544-7.947-12.312
			c-3.861-1.831-9.873-2.878-15.945-2.981c-8.504-0.147-17.094,1.554-19.982,5.503c-2.887-3.949-11.477-5.65-19.98-5.503
			c-6.072,0.104-12.084,1.15-15.943,2.981c-0.357,5.768-5.865,6.521-7.947,12.312c-2.188,6.078-0.584,17.726-1.656,23.972
			c-0.951,5.55-1.256,12.678-0.875,19.668c0.381,6.986,1.449,13.831,3.242,18.821c3.867,10.748,9.01,21.556,13.043,32.938
			c3.932,11.09,4.891,36.064,4.416,49.433c-1.711,6.486-5.229,13.59-12.445,26.169c-1.529,2.67-3.951,4.723-5.643,7.34
			c-6.086,7.195-3.834,13.591-8.811,21.477c-5.656,8.964-17.434,20.899-19.203,30.92c-8.051,45.575-13.123,95.539-13.172,144.027
			c-0.016,13.908,1.299,47.634,19.529,48.933c13.844,0.986,6.336-7.711,3.271-14.133c-3.504-7.335-3.896-15.706-3.42-25.018
			c1.92-0.487,4.91-0.521,6.809,0.026c2.438,8.301,10.75,13.872,12.473,2.453c1.125-7.468-17.533-15.996-20.256-23.193
			c-3.021-7.982-0.146-13.477-2.236-22.818c-2.365-10.569,0.49-28.576,0.6-40.001c0.193-19.925,8.4-25.491,12.096-43.784
			c2.41-11.932,0.854-32.543,7.797-42.398v1.036c-5.008,19.275,18.107,49.85,18.107,68.939c0,18.674-18.611,38.55-17.668,57.14
			c2.174,0.179,4.297,0.411,6.389,0.674l3.742,249.71l0.041,2.866c-0.172,0.79-0.379,1.605-0.422,2.36
			c-0.479,8.548-5.348,10.549-11.643,14.357c-5.57,3.372-11.842,6.748-18.551,8.131c-5.574,1.148-15.174-0.34-16.607,6.312
			c-1.979,9.204,7.111,7.587,13.023,8.491c3.338,0.511,5.854,1.771,9.379,1.91c3.906,0.155,8.1-0.246,11.889-0.788
			c7.893-1.133,15.945-1.198,24.119-2.021c7.125-0.718,18.455,1.84,19.99-6.361c1.801-9.616-3.799-18.551-2.801-27.631l0.078-5.03
			h0.033l-0.016-1.128l0.016-1.085c0,0-0.021,0-0.033-0.002l-3.678-245.663c3.627,0.45,7.375,0.79,11.305,0.959v0.125
			c0.047,0,0.096,0,0.143,0c0.854,0,1.674-0.027,2.51-0.047c0.834,0.02,1.656,0.047,2.51,0.047c0.047,0,0.096,0,0.143,0v-0.125
			c3.928-0.169,7.676-0.509,11.305-0.959l-3.678,245.663c-0.012,0.002-0.025,0.002-0.033,0.002l0.016,1.085l-0.016,1.128h0.033
			l0.078,5.03c0.998,9.08-4.602,18.016-2.801,27.631c1.535,8.201,12.867,5.644,19.99,6.361c8.174,0.823,16.225,0.888,24.119,2.021
			c3.789,0.542,7.982,0.943,11.889,0.788c3.527-0.14,6.041-1.399,9.379-1.91C228.396,715.007,237.488,716.624,235.508,707.42z"/>
		<circle fill="#FFFFFF" cx="172.051" cy="113.271" r="10.8"/>
		<circle fill="#FFFFFF" cx="127.051" cy="113.271" r="10.8"/>
		<circle fill="#91A8CE" cx="127.051" cy="113.082" r="4.2"/>
		<circle fill="#7DC353" cx="172.145" cy="113.082" r="6.6"/>
		<circle fill="#0E0F13" cx="172.145" cy="113.082" r="4.2"/>
		<circle fill="#0E0F13" cx="127.051" cy="113.082" r="1.2"/>
		<circle fill="#B18F6B" cx="145.426" cy="134.283" r="1.95"/>
		<circle fill="#B18F6B" cx="153.676" cy="134.283" r="1.95"/>
		<rect x="137.4" y="149.921" fill="#FFFFFF" width="4.799" height="2.399"/>
		<rect x="143.699" y="149.921" fill="#FFFFFF" width="4.801" height="2.399"/>
		<rect x="156.9" y="149.827" fill="#FFFFFF" width="4.799" height="2.399"/>
		<rect x="150.6" y="149.827" fill="#FFFFFF" width="4.801" height="2.399"/>
		<path fill="none" stroke="#F3776B" stroke-width="1.2" stroke-miterlimit="10" d="M167.25,148.674
			c-1.938-0.271-3.441,0.925-5.166,1.2c-1.301,0.206-2.814,0-4.135,0c-3,0-6,0-9,0h1.201c-3,0-6,0-9,0c-1.32,0-2.834,0.206-4.133,0
			c-1.727-0.275-3.229-1.471-5.168-1.2"/>
		<path fill="none" stroke="#F3776B" stroke-width="1.2" stroke-miterlimit="10" d="M161.236,97.669
			c3.879-6.691,11.045-4.775,18-4.8"/>
		<path fill="none" stroke="#F3776B" stroke-width="1.2" stroke-miterlimit="10" d="M116.414,98.983
			c3.875-6.688,11.045-4.773,18-4.8"/>
		<path fill="#FFFFFF" stroke="#E7E7E7" stroke-width="1.3826" stroke-miterlimit="10" d="M126.621,237.783
			c28.43,14.37,30.877,82.802,23.826,114.512c-13.525,0.637-15.699,0.428-20.162-14.223c-3.256-10.682-9.557-22.249-11.529-32.13
			c-2.035-10.208-1.332-25.618-1.729-36.295c-0.623-16.775,2.074-20.645,7.195-31.864H126.621z"/>
		<path fill="#FFFFFF" stroke="#E7E7E7" stroke-width="1.3826" stroke-miterlimit="10" d="M169.643,238.646
			c-28.43,14.371-30.877,82.803-23.824,114.511c13.525,0.637,15.699,0.428,20.162-14.223c3.254-10.682,9.555-22.249,11.527-32.129
			c2.037-10.207,1.334-25.619,1.729-36.296c0.625-16.775-2.074-20.645-7.195-31.863H169.643z"/>
		<polygon fill="#FFFFFF" points="198.953,411.396 100.561,410.547 98.949,285.65 200.549,285.65 		"/>
		<polygon fill="#FFFFFF" stroke="#E7E7E7" stroke-width="2.4" stroke-miterlimit="10" points="240.35,448.939 221.152,286.142 
			220.479,286.069 221.152,286.056 178.744,236.542 177.748,286.86 197.012,286.504 211.352,448.939 		"/>
		<polygon fill="#010101" stroke="#595A5C" stroke-width="1.2" stroke-miterlimit="10" points="199.438,411.446 174.941,415.125 
			150.447,418.803 150.447,336.902 181.875,238.683 191.512,250.486 201.15,262.287 200.293,336.867 		"/>
		<polygon fill="#FFFFFF" stroke="#E7E7E7" stroke-width="1.2" stroke-miterlimit="10" points="161.576,246.153 180.775,265.354 
			180.775,213.754 		"/>
		<polygon fill="#FFFFFF" stroke="#E7E7E7" stroke-width="2.4" stroke-miterlimit="10" points="57.646,450.14 76.844,287.342 
			77.52,287.269 76.844,287.256 119.254,237.742 120.248,288.06 100.984,287.704 86.646,450.14 		"/>
		<polygon fill="#010101" stroke="#595A5C" stroke-width="1.2" stroke-miterlimit="10" points="100.561,411.446 125.055,415.125 
			149.551,418.803 149.551,336.902 118.125,238.683 108.484,250.486 98.848,262.287 99.705,336.867 		"/>
		<polygon fill="#FFFFFF" stroke="#E7E7E7" stroke-width="1.2" stroke-miterlimit="10" points="136.689,246.152 117.49,265.354 
			117.49,213.753 		"/>
		<path fill="#F3776B" d="M186.273,39.05l-24.092,0.004c-4.191-0.107-9.967,3.363-13.682,3.395
			c-3.715-0.031-9.391-3.502-13.584-3.395l-24.09-0.004c-25.801,4.122-13.5,37.418-13.5,46.689c0,2.925,3.77,26.775,3.848,29.7
			c0.043,1.524,0.354,0.782,0.424,0.592c-0.027,0.083-0.104,0.325-0.256,0.89c-0.295,1.076,0.613,6.43,2.174,10.879
			c0.686,1.962-0.084-2.64-0.242-3.775c-0.328-2.375,0.111-4.969,0.287-7.354c0.393-5.25,0.945-10.498,0.945-15.766
			c0-5.249,1.623-9.992,5.432-14.177c2.199-2.413,5.008-4.773,8.051-6.072c2.283-0.974,4.709-0.899,7.248-1.427
			c7.844-1.634,15.488-2.163,23.312-2.309c7.824,0.146,15.469,0.675,23.312,2.309c2.539,0.527,4.965,0.453,7.248,1.427
			c3.045,1.299,5.852,3.659,8.053,6.072c3.809,4.185,5.432,8.928,5.432,14.177c0,5.268,0.553,10.516,0.943,15.766
			c0.178,2.386,0.617,4.979,0.287,7.354c-0.156,1.136-0.926,5.737-0.242,3.775c1.561-4.449,2.471-9.803,2.176-10.879
			c-0.154-0.564-0.229-0.807-0.256-0.89c0.068,0.19,0.379,0.933,0.422-0.592c0.08-2.925,3.85-26.775,3.85-29.7
			C199.773,76.468,212.072,43.172,186.273,39.05z"/>
	</g>
	<path opacity="0.7" fill="#F9E03C" d="M186.273,39.05l-24.092,0.004c-4.191-0.107-9.869,3.363-13.584,3.395
		c-0.031,0-0.066-0.005-0.098-0.006c-0.031,0.001-0.066,0.006-0.098,0.006c-3.715-0.031-9.393-3.502-13.584-3.395l-24.092-0.004
		c-0.896,0.143-1.738,0.329-2.543,0.541v49.212c0.504-0.704,1.039-1.399,1.654-2.075c2.201-2.413,5.008-4.773,8.053-6.072
		c2.283-0.974,4.709-0.899,7.248-1.427c7.844-1.634,15.488-2.163,23.312-2.309c0.016,0.001,0.033,0.002,0.049,0.002
		s0.033-0.001,0.049-0.002c7.824,0.146,15.469,0.675,23.312,2.309c2.539,0.527,4.965,0.453,7.248,1.427
		c3.045,1.299,5.852,3.659,8.053,6.072c0.615,0.676,1.15,1.371,1.654,2.075V39.591C188.012,39.379,187.17,39.192,186.273,39.05z"/>
</g>
</svg>
