<?xml version="1.0" encoding="utf-8"?>
<!-- Generator: Adobe Illustrator 16.0.0, SVG Export Plug-In . SVG Version: 6.00 Build 0)  -->
<!DOCTYPE svg PUBLIC "-//W3C//DTD SVG 1.1//EN" "http://www.w3.org/Graphics/SVG/1.1/DTD/svg11.dtd">
<svg version="1.1" id="Layer_1" xmlns="http://www.w3.org/2000/svg" xmlns:xlink="http://www.w3.org/1999/xlink" x="0px" y="0px"
	 width="60px" height="60px" viewBox="0 0 60 60" enable-background="new 0 0 60 60" xml:space="preserve">
<g>
	<path fill="#424143" d="M43.333,18.333c3.682,0,6.667-2.985,6.667-6.667S47.015,5,43.333,5s-6.666,2.985-6.666,6.667
		S39.651,18.333,43.333,18.333z M43.333,6.667c2.758,0,5,2.243,5,5c0,2.757-2.242,5-5,5c-2.757,0-5-2.243-5-5
		C38.333,8.91,40.576,6.667,43.333,6.667z"/>
	<path fill="#424143" d="M48.333,21.667h-10L30,30l-8.333-8.333h-10c-1.841,0-3.333,1.493-3.333,3.333v13.333l3.333,3.334v11.666
		c0,0.921,0.746,1.667,1.667,1.667H20c0.921,0,1.667-0.746,1.667-1.667V30L30,38.333L38.333,30v23.333
		C38.333,54.254,39.079,55,40,55h6.667c0.921,0,1.666-0.746,1.666-1.667V41.667l3.334-3.334V25
		C51.667,23.159,50.174,21.667,48.333,21.667z"/>
	<path fill="#424143" d="M16.667,18.333c3.682,0,6.667-2.985,6.667-6.667S20.348,5,16.667,5S10,7.985,10,11.667
		S12.985,18.333,16.667,18.333z M16.667,6.667c2.757,0,5,2.243,5,5c0,2.757-2.243,5-5,5c-2.757,0-5-2.243-5-5
		C11.667,8.91,13.91,6.667,16.667,6.667z"/>
</g>
</svg>
