<?xml version="1.0" encoding="utf-8"?>
<!-- Generator: Adobe Illustrator 16.0.0, SVG Export Plug-In . SVG Version: 6.00 Build 0)  -->
<!DOCTYPE svg PUBLIC "-//W3C//DTD SVG 1.1//EN" "http://www.w3.org/Graphics/SVG/1.1/DTD/svg11.dtd">
<svg version="1.1" id="Layer_1" xmlns="http://www.w3.org/2000/svg" xmlns:xlink="http://www.w3.org/1999/xlink" x="0px" y="0px"
	 width="60px" height="60px" viewBox="0 0 60 60" enable-background="new 0 0 60 60" xml:space="preserve">
<path fill="#424143" d="M55,28.25h-1.816c-0.796-4.728-4.901-8.333-9.851-8.333c-2.261,0-4.341,0.761-6.017,2.029l-0.093-0.085
	c-1.997-1.79-4.562-2.776-7.224-2.776s-5.227,0.986-7.232,2.785l-0.083,0.077c-1.676-1.268-3.757-2.029-6.018-2.029
	c-4.949,0-9.054,3.606-9.85,8.333H5v3.333h1.816c0.796,4.728,4.901,8.334,9.85,8.334c5.518,0,10-4.478,10-10
	c0-2.654-1.043-5.062-2.732-6.852c1.684-1.492,3.833-2.314,6.066-2.314c2.236,0,4.391,0.825,6.066,2.313
	c-1.689,1.791-2.733,4.198-2.733,6.853c0,5.523,4.482,10,10,10c4.949,0,9.055-3.606,9.851-8.334H55V28.25z M16.667,36.583
	c-3.676,0-6.667-2.99-6.667-6.667c0-3.676,2.991-6.667,6.667-6.667c3.676,0,6.667,2.991,6.667,6.667
	C23.333,33.593,20.343,36.583,16.667,36.583z M43.333,36.583c-3.676,0-6.666-2.99-6.666-6.667c0-3.676,2.99-6.667,6.666-6.667
	c3.677,0,6.667,2.991,6.667,6.667C50,33.593,47.01,36.583,43.333,36.583z"/>
</svg>
