<?xml version="1.0" encoding="utf-8"?>
<!-- Generator: Adobe Illustrator 16.0.0, SVG Export Plug-In . SVG Version: 6.00 Build 0)  -->
<!DOCTYPE svg PUBLIC "-//W3C//DTD SVG 1.1//EN" "http://www.w3.org/Graphics/SVG/1.1/DTD/svg11.dtd">
<svg version="1.1" id="Layer_1" xmlns="http://www.w3.org/2000/svg" xmlns:xlink="http://www.w3.org/1999/xlink" x="0px" y="0px"
	 width="60px" height="60px" viewBox="0 0 60 60" enable-background="new 0 0 60 60" xml:space="preserve">
<g>
	<circle fill="#424143" cx="30" cy="16.667" r="5"/>
	<path fill="#424143" d="M30,35c2.761,0,5-2.238,5-5c0-2.761-2.239-5-5-5c-2.76,0-5,2.239-5,5C25,32.762,27.24,35,30,35z M30,26.667
		c1.838,0,3.333,1.496,3.333,3.333c0,1.838-1.495,3.333-3.333,3.333c-1.837,0-3.333-1.495-3.333-3.333
		C26.667,28.163,28.163,26.667,30,26.667z"/>
	<path fill="#424143" d="M30,48.333c2.761,0,5-2.238,5-5c0-2.761-2.239-5-5-5c-2.76,0-5,2.239-5,5C25,46.095,27.24,48.333,30,48.333
		z M30,40c1.838,0,3.333,1.496,3.333,3.333c0,1.838-1.495,3.334-3.333,3.334c-1.837,0-3.333-1.496-3.333-3.334
		C26.667,41.496,28.163,40,30,40z"/>
	<path fill="#424143" d="M48.333,25h-6.666v-3.333l6.666-10h-6.666V5H18.333v6.667h-6.667l6.667,10V25h-6.667l6.667,10v3.333h-6.667
		l6.667,10V55h23.333v-6.667l6.666-10h-6.666V35L48.333,25z M40,53.333H20V6.667h20V53.333z"/>
</g>
</svg>
