<?xml version="1.0" encoding="utf-8"?>
<!-- Generator: Adobe Illustrator 16.0.0, SVG Export Plug-In . SVG Version: 6.00 Build 0)  -->
<!DOCTYPE svg PUBLIC "-//W3C//DTD SVG 1.1//EN" "http://www.w3.org/Graphics/SVG/1.1/DTD/svg11.dtd">
<svg version="1.1" id="Layer_1" xmlns="http://www.w3.org/2000/svg" xmlns:xlink="http://www.w3.org/1999/xlink" x="0px" y="0px"
	 width="300px" height="300px" viewBox="0 0 300 300" enable-background="new 0 0 300 300" xml:space="preserve">
<g>
	<g>
		<g>
			<path fill="#F7CAC9" d="M105.055,71.017l1.46-1.463C105.91,70.01,105.406,70.494,105.055,71.017z"/>
			<path fill="#F7CAC9" d="M106.854,69.217l-0.34,0.337c0.6-0.45,1.308-0.867,2.114-1.249c0.017-0.288,0.035-0.575,0.025-0.889
				L106.854,69.217z"/>
			<path fill="#F7CAC9" d="M182.593,69.554l1.463,1.463C183.701,70.494,183.2,70.01,182.593,69.554z"/>
			<path fill="#F7CAC9" d="M182.255,69.217l-1.8-1.801c-0.009,0.313,0.007,0.601,0.026,0.889c0.806,0.382,1.514,0.799,2.111,1.249
				L182.255,69.217z"/>
			<polyline fill="#F3776B" points="113,137.819 126.52,73.096 170.177,72.287 			"/>
			<polygon fill="#91A8CF" points="113.336,138.188 110.36,138.195 123.705,73.727 126.397,73.682 			"/>
			<polyline fill="#F3776B" points="117.591,150.916 122.413,128.795 157.993,101.461 			"/>
			<polygon fill="#91A8CF" points="117.689,151.489 114.842,152.471 119.005,131.15 122.65,128.496 			"/>
			<path fill="#DD4231" d="M154.603,194.961c0,21.998,17.067,20.307,23.32,20.307c6.251,0,2.416-16.915,2.416-38.914
				c0-21.998,2.52-38.426-2.416-40.746C172.057,132.85,154.603,172.963,154.603,194.961z"/>
			<path fill="#DD4231" d="M138.309,195.565c0,21.345-17.067,19.704-23.317,19.704c-6.251,0-5.454-16.748-2.419-37.76
				c3.527-24.42-3.832-39.539,2.419-39.539C121.241,137.971,138.309,174.219,138.309,195.565z"/>
			<path fill="#F7CAC9" stroke="#DDB5B4" stroke-width="1.2" stroke-miterlimit="10" d="M233.494,706.971
				c-1.432-6.651-11.034-5.163-16.607-6.312c-6.708-1.383-12.982-4.761-18.551-8.131c-6.296-3.809-11.163-5.81-11.642-14.357
				c-0.042-0.755-0.251-1.57-0.422-2.36l0.042-2.866l3.741-249.71c2.093-0.263,4.216-0.492,6.389-0.673
				c0.944-18.591,0.183-37.545,0.183-56.218c0-19.092,5.265-50.587,0.258-69.859v-1.037c6.942,9.854,5.386,30.465,7.796,42.396
				c3.695,18.293,8.693,34.812,8.886,54.734c0.11,11.423,3.565,20.418,1.2,30.986c-2.091,9.342-8.199,19.026-11.221,27.01
				c-2.721,7.197-9.787,9.6-8.662,17.066c1.723,11.419,10.035,5.848,12.473-2.453c1.898-0.547,4.89-0.514,6.809-0.026
				c0.477,9.312,0.085,17.682-3.419,25.018c-3.065,6.422-10.573,15.119,3.271,14.133c18.229-1.299,19.545-35.025,19.528-48.933
				c-0.049-48.488-5.121-98.454-13.172-144.028c-1.77-10.02-2.442-22.603-8.098-31.565c-4.976-7.886-13.828-13.635-19.915-20.83
				c-1.692-2.617-4.113-4.67-5.644-7.34c-14.344-25.003-14.084-28.372-14.039-48.287l-0.141,0.057
				c0.603-10.492,1.873-21.131,4.085-27.371c4.034-11.383,9.176-22.19,13.043-32.938c1.793-4.987,2.862-11.834,3.244-18.82
				c0.38-6.989,0.075-14.116-0.877-19.667c-1.071-6.246,0.532-17.893-1.654-23.972c-2.084-5.791-7.594-6.544-7.948-12.312
				c-3.859-1.83-9.871-2.878-15.944-2.981c-8.503-0.147-17.093,1.553-19.982,5.503c-2.888-3.95-11.478-5.65-19.98-5.503
				c-6.073,0.104-12.085,1.149-15.944,2.981c-0.356,5.768-5.864,6.521-7.948,12.312c-2.187,6.079-0.583,17.726-1.654,23.972
				c-0.952,5.551-1.257,12.678-0.877,19.667c0.382,6.986,1.451,13.833,3.244,18.82c3.867,10.748,9.009,21.556,13.043,32.938
				c3.931,11.09,4.889,36.064,4.415,49.433c-1.711,6.487-5.229,13.591-12.445,26.169c-1.53,2.67-3.951,4.723-5.644,7.34
				c-6.087,7.195-14.938,12.944-19.915,20.83c-5.655,8.963-6.328,21.546-8.098,31.565c-8.051,45.574-13.122,95.54-13.172,144.028
				c-0.016,13.907,1.299,47.634,19.528,48.933c13.845,0.986,6.338-7.711,3.272-14.133c-3.504-7.336-3.896-15.706-3.42-25.018
				c1.92-0.487,4.91-0.521,6.809,0.026c2.438,8.301,10.751,13.872,12.474,2.453c1.125-7.467-5.941-9.869-8.663-17.066
				c-3.021-7.983-2.716-19.426-4.807-28.768c-2.365-10.568,1.035-22.024,1.145-33.447c0.192-19.922-1.168-32.223,2.528-50.516
				c2.409-11.932,0.853-32.543,7.795-42.396v1.037c-5.006,19.272,0.258,50.768,0.258,69.859c0,18.673-0.762,37.627,0.183,56.218
				c2.173,0.181,4.297,0.41,6.39,0.673l3.74,249.71l0.042,2.866c-0.171,0.79-0.379,1.605-0.422,2.36
				c-0.478,8.548-5.346,10.549-11.641,14.357c-5.569,3.37-11.844,6.748-18.551,8.131c-5.574,1.148-15.176-0.34-16.608,6.312
				c-1.98,9.204,7.111,7.587,13.022,8.491c3.34,0.511,5.854,1.77,9.379,1.91c3.907,0.155,8.101-0.246,11.891-0.79
				c7.894-1.132,15.946-1.197,24.119-2.02c7.123-0.718,18.455,1.84,19.99-6.361c1.8-9.616-3.8-18.551-2.801-27.631l0.079-5.031
				h0.033l-0.017-1.128l0.017-1.085c-0.01,0-0.021,0-0.033-0.002l-3.68-245.663c3.628,0.45,7.376,0.79,11.304,0.959v0.124
				c0.047,0,0.097,0,0.144,0c0.853,0,1.676-0.028,2.51-0.047c0.835,0.019,1.657,0.047,2.511,0.047c0.047,0,0.096,0,0.143,0v-0.124
				c3.928-0.169,7.676-0.509,11.304-0.959l-3.68,245.663c-0.012,0.002-0.023,0.002-0.032,0.002l0.016,1.085l-0.016,1.128h0.032
				l0.08,5.031c0.998,9.08-4.601,18.015-2.801,27.631c1.535,8.201,12.867,5.644,19.989,6.361c8.173,0.822,16.227,0.888,24.12,2.02
				c3.79,0.544,7.982,0.945,11.89,0.79c3.525-0.141,6.04-1.399,9.38-1.91C226.384,714.558,235.475,716.175,233.494,706.971z"/>
		</g>
		<circle fill="#B18F6A" cx="141.688" cy="133.022" r="1.95"/>
		<circle fill="#B18F6A" cx="149.938" cy="133.022" r="1.95"/>
		<rect x="133.888" y="150.234" fill="#FFFFFF" width="4.8" height="2.399"/>
		<rect x="140.188" y="150.234" fill="#FFFFFF" width="4.8" height="2.399"/>
		<rect x="153.388" y="150.142" fill="#FFFFFF" width="4.8" height="2.399"/>
		<rect x="147.087" y="150.142" fill="#FFFFFF" width="4.801" height="2.399"/>
		<path fill="none" stroke="#F3776B" stroke-width="1.2" stroke-miterlimit="10" d="M163.737,148.988
			c-1.938-0.27-3.44,0.924-5.167,1.2c-1.3,0.206-2.813,0-4.133,0c-3,0-6,0-9,0h1.2c-3,0-6,0-9,0c-1.32,0-2.834,0.206-4.134,0
			c-1.726-0.276-3.229-1.47-5.167-1.2"/>
	</g>
	<polygon fill="#DD4231" points="198.269,316.209 166.467,316.209 135.693,316.959 104.967,316.959 73.117,316.209 75.878,298.855 
		80.066,279.76 98.217,260.71 110.14,244.945 131.155,261.699 153.526,279.533 175.897,297.365 	"/>
	<polygon fill="#91A8CF" points="121.502,133.022 113,137.819 113,133.901 122.413,128.795 	"/>
	<circle fill="#FFFFFF" cx="168.087" cy="113.865" r="10.8"/>
	<polyline fill="#F3776B" points="114.319,137.424 127.839,72.701 171.496,71.892 	"/>
	<polygon fill="#91A8CF" points="114.655,137.795 111.681,137.799 125.024,73.332 127.718,73.285 	"/>
	<polyline fill="#F3776B" points="118.911,150.521 123.733,128.4 159.312,101.065 	"/>
	<polygon fill="#91A8CF" points="119.009,151.094 116.161,152.076 120.324,130.756 123.97,128.101 	"/>
	<circle fill="#FFFFFF" cx="123.087" cy="113.865" r="10.8"/>
	<circle fill="#91A8CF" cx="123.087" cy="113.678" r="4.2"/>
	<circle fill="#7CC253" cx="168.181" cy="113.678" r="6.6"/>
	<circle fill="#090A11" cx="168.181" cy="113.678" r="4.2"/>
	<circle fill="#090A11" cx="123.087" cy="113.678" r="1.2"/>
	<g>
		<path fill="#DD4231" d="M175.196,182.511c-0.086,0.338-0.146,0.63-0.173,0.848C175.088,183.111,175.145,182.82,175.196,182.511z"
			/>
		<path fill="#DD4231" d="M208.384,66.425c-3.539-6.958-16.188-11.086-22.702-16.714c-14.749-12.746-23.416-12.824-39.533-11.634
			c-16.116-1.19-24.784-1.112-39.533,11.634c-6.513,5.628-19.162,9.756-22.701,16.714c-3.727,7.325,0.052,24.947,0.95,32.654
			c1.188,10.194,6.786,19.471,8.823,30.024c1.937,10.051,7.207,19.831,10.96,29.144c0.939,2.324,3.461,10.603,5.072,12.804
			c1.658,2.268,3.896,2.514,4.561,3.784c0.718,1.369,2.803,6.895,2.993,8.523l1.105,0.615c-0.851-3.281-1.664-12.989-2.866-17.238
			c-4.282-15.141-3.783-9.023-5.412-19.687c-3.257-21.332-6.645-36.791,0.945-57.423c4.146-11.276,3.696-14.169,19.116-13.437
			c7.553,0.358,11.293,0.332,15.986,0.166c4.693,0.166,8.433,0.192,15.987-0.166c15.419-0.732,14.971,2.16,19.115,13.437
			c7.59,20.632,4.202,36.091,0.945,57.423c-1.629,10.663-1.129,4.546-5.411,19.687c-1.112,3.928-0.948,11.985-1.589,15.775
			c0.554-2.188,2.199-6.489,2.82-7.676c0.666-1.271,2.902-1.517,4.561-3.784c1.611-2.201,4.134-10.479,5.072-12.804
			c3.754-9.312,9.023-19.093,10.961-29.144c2.036-10.554,7.636-19.83,8.822-30.024C208.332,91.372,212.11,73.75,208.384,66.425z"/>
	</g>
</g>
</svg>
