<?xml version="1.0" encoding="utf-8"?>
<!-- Generator: Adobe Illustrator 16.0.0, SVG Export Plug-In . SVG Version: 6.00 Build 0)  -->
<!DOCTYPE svg PUBLIC "-//W3C//DTD SVG 1.1//EN" "http://www.w3.org/Graphics/SVG/1.1/DTD/svg11.dtd">
<svg version="1.1" id="Layer_1" xmlns="http://www.w3.org/2000/svg" xmlns:xlink="http://www.w3.org/1999/xlink" x="0px" y="0px"
	 width="300px" height="300px" viewBox="0 0 300 300" enable-background="new 0 0 300 300" xml:space="preserve">
<g>
	<path fill="#F7CAC9" d="M108.682,104.36c-7.643,0-13.837,6.195-13.837,13.838c0,7.644,6.194,13.839,13.837,13.839V104.36z"/>
	<path fill="#F7CAC9" d="M188.918,103.16c7.643,0,13.84,6.195,13.84,13.839c0,7.643-6.197,13.838-13.84,13.838V103.16z"/>
	<g>
		<path fill="#F3776B" d="M121.296,129.346h-6.556c0.035,0.044,0.08,0.09,0.102,0.132c3.729,7.458-1.165,19.641-1.925,27.195
			c-0.822,8.203-3.775,30.562,11.695,25.141c9.933-3.48,2.754-18.234,1.477-26.252C124.622,146.339,124.174,137.543,121.296,129.346
			z"/>
		<path fill="#F3776B" d="M182.759,130.678c0.021-0.042,0.067-0.088,0.101-0.132h-6.553c-2.879,8.197-3.326,16.993-4.796,26.216
			c-1.277,8.018-8.456,22.771,1.479,26.252c15.469,5.421,12.516-16.938,11.692-25.142
			C183.926,150.318,179.032,138.136,182.759,130.678z"/>
	</g>
	<path fill="#F7CAC9" stroke="#DDB5B4" stroke-width="1.2" stroke-miterlimit="10" d="M235.957,706.948
		c-1.432-6.651-11.034-5.163-16.607-6.312c-6.708-1.383-12.982-4.76-18.551-8.13c-6.296-3.809-11.164-5.811-11.642-14.358
		c-0.042-0.755-0.251-1.57-0.422-2.36l0.042-2.866l3.74-249.71c2.094-0.263,4.217-0.492,6.39-0.673
		c0.944-18.591-20.946-37.065-20.946-55.74c0-19.09,26.393-51.064,21.387-70.338v-1.037c6.942,9.855,5.386,30.466,7.795,42.398
		c3.696,18.293,8.426,28.26,8.618,48.184c0.11,11.424,4.364,25.966,1.999,36.533c-2.09,9.343-4.574,20.075-7.596,28.059
		c-2.721,7.197-13.943,9.554-12.818,17.021c1.723,11.419,10.036,5.848,12.474-2.454c1.898-0.546,4.89-0.514,6.809-0.025
		c0.476,9.312,0.085,17.681-3.419,25.017c-3.066,6.422-10.573,15.12,3.271,14.133c18.229-1.298,19.545-35.024,19.528-48.933
		c-0.05-48.487-5.121-98.454-13.172-144.028c-1.77-10.02-6.614-21.957-12.27-30.92c-4.976-7.887-9.656-14.281-15.743-21.477
		c-1.692-2.617-4.113-4.67-5.644-7.34c-14.344-25.003-14.084-28.372-14.039-48.287l-0.141,0.057
		c0.603-10.492,1.872-21.13,4.085-27.37c4.033-11.384,9.176-22.191,13.043-32.939c1.793-4.987,2.861-11.834,3.244-18.82
		c0.379-6.989,0.074-14.116-0.877-19.666c-1.071-6.246,0.532-17.894-1.654-23.973c-2.084-5.791-7.594-6.543-7.948-12.312
		c-3.86-1.83-9.872-2.878-15.944-2.981c-8.503-0.147-17.093,1.553-19.982,5.504c-2.888-3.951-11.478-5.651-19.98-5.504
		c-6.073,0.104-12.085,1.15-15.945,2.981c-0.355,5.769-5.863,6.521-7.947,12.312c-2.187,6.079-0.584,17.727-1.654,23.973
		c-0.952,5.55-1.257,12.677-0.877,19.666c0.382,6.986,1.451,13.833,3.244,18.82c3.867,10.748,9.009,21.556,13.043,32.939
		c3.93,11.089,4.889,36.064,4.415,49.432c-1.711,6.487-5.229,13.592-12.445,26.169c-1.53,2.67-3.951,4.723-5.644,7.34
		c-6.087,7.195-3.834,13.59-8.811,21.477c-5.655,8.963-17.433,20.9-19.202,30.92c-8.051,45.574-13.122,95.541-13.172,144.028
		c-0.017,13.908,1.299,47.635,19.528,48.933c13.845,0.987,6.338-7.711,3.271-14.133c-3.504-7.336-3.895-15.705-3.419-25.017
		c1.919-0.488,4.91-0.521,6.809,0.025c2.438,8.302,10.751,13.873,12.474,2.454c1.125-7.468-9.368-10.023-12.09-17.221
		c-3.021-7.983-8.312-19.45-10.403-28.792c-2.365-10.568,0.489-28.576,0.6-40c0.192-19.924,8.4-25.491,12.097-43.784
		c2.409-11.933,0.853-32.543,7.795-42.398v1.037c-5.006,19.273,18.107,49.848,18.107,68.938c0,18.675-18.611,38.55-17.667,57.141
		c2.173,0.181,4.296,0.41,6.39,0.673l3.74,249.71l0.042,2.866c-0.171,0.79-0.38,1.605-0.422,2.36
		c-0.478,8.548-5.346,10.55-11.642,14.358c-5.568,3.37-11.843,6.747-18.551,8.13c-5.573,1.148-15.176-0.34-16.607,6.312
		c-1.98,9.204,7.111,7.587,13.021,8.492c3.34,0.511,5.855,1.77,9.38,1.91c3.907,0.154,8.101-0.246,11.89-0.79
		c7.895-1.132,15.947-1.198,24.12-2.021c7.122-0.717,18.454,1.84,19.989-6.361c1.801-9.616-3.799-18.551-2.801-27.63l0.08-5.032
		h0.033l-0.017-1.127l0.017-1.086c0,0-0.021,0-0.033-0.002l-3.68-245.662c3.628,0.449,7.376,0.789,11.304,0.958v0.124
		c0.047,0,0.097,0,0.144,0c0.853,0,1.676-0.027,2.51-0.047c0.834,0.02,1.657,0.047,2.51,0.047c0.047,0,0.097,0,0.144,0v-0.124
		c3.928-0.169,7.676-0.509,11.304-0.958l-3.68,245.662c-0.012,0.002-0.023,0.002-0.033,0.002l0.017,1.086l-0.017,1.127h0.033
		l0.08,5.032c0.998,9.079-4.602,18.014-2.801,27.63c1.535,8.201,12.867,5.645,19.989,6.361c8.173,0.822,16.226,0.889,24.12,2.021
		c3.789,0.544,7.982,0.944,11.89,0.79c3.524-0.141,6.04-1.399,9.38-1.91C228.846,714.535,237.938,716.152,235.957,706.948z"/>
	<g>
		<circle fill="#FFFFFF" cx="172.5" cy="112.799" r="10.8"/>
		<circle fill="#FFFFFF" cx="127.5" cy="112.799" r="10.8"/>
		<circle fill="#91A8CF" cx="127.5" cy="112.61" r="4.2"/>
		<circle fill="#7CC253" cx="172.594" cy="112.61" r="6.6"/>
		<circle fill="#090A11" cx="172.594" cy="112.61" r="4.2"/>
		<circle fill="#090A11" cx="127.5" cy="112.61" r="1.2"/>
	</g>
	<path fill="#F3776B" d="M119.407,50.96"/>
	<path fill="#F3776B" d="M127.92,42.675c4.055-0.938,13.258-2.062,17.435-1.936c3.27,0.098,13.991,1.625,17.195,1.979
		c3.079,0.342,9.743,1.949,12.758,2.892c3.786,1.184-7.421-1.913,3.645,0.914c2.386,0.606,3.493,0.456,9.42,6.239
		c0,0,1.503,4.056,1.852,5.172c1.643,10.654-0.358,13.906-1.852,16.252c-2.514,3.953-9.737,4.97-14.133,6.382
		c-6.367,2.046-14.661,8.433-21.334,8.433c-9.744,0.003-17.965-7.916-27.603-5.796c-2.539,0.56-4.965,0.48-7.248,1.51
		c-3.045,1.373-5.853,3.867-8.052,6.419c-3.809,4.423-5.432,9.439-5.432,14.988c0,5.568-0.554,11.115-0.944,16.667
		c-0.179,2.521-0.618,5.263-0.289,7.775c0.157,1.198,0.929,6.063,0.243,3.99c-1.56-4.704-2.471-10.363-2.177-11.502
		c0.665-2.576-0.097,1.025-0.166-1.567c-0.08-3.091-1.054-23.953-1.054-27.047c0-9.801-4.889-16.099,1.579-28.699
		c7.297-14.217,2.213-8.125,15.221-18.76"/>
	<path fill="#F3776B" d="M191.233,101.28c0.661,3.037,0.79,6.279,1.655,9.33c0.464,1.635,1.228,18.298,1.268,24.482
		c1.666-5.788,5.061-25.434,5.061-31.438c0-8.587,0.598-17.521-2.29-25.761c-1.013-2.889-7.165-12-9.261-5.985l-0.449,0.75
		c0,4.142-0.181,8.208,0.757,12.276c0.63,2.742,1.502,5.387,2.271,8.077"/>
	<g>
		<circle fill="#B18F6A" cx="145.875" cy="133.812" r="1.95"/>
		<circle fill="#B18F6A" cx="154.125" cy="133.812" r="1.95"/>
	</g>
	<g>
		<rect x="137.85" y="149.448" fill="#FFFFFF" width="4.801" height="2.399"/>
		<rect x="144.15" y="149.448" fill="#FFFFFF" width="4.8" height="2.399"/>
		<rect x="157.35" y="149.355" fill="#FFFFFF" width="4.801" height="2.399"/>
		<rect x="151.05" y="149.355" fill="#FFFFFF" width="4.8" height="2.399"/>
		<path fill="none" stroke="#F3776B" stroke-width="1.2" stroke-miterlimit="10" d="M167.7,148.202
			c-1.938-0.27-3.44,0.924-5.166,1.2c-1.301,0.206-2.814,0-4.134,0c-3,0-6,0-9,0h1.199c-3,0-6,0-9,0c-1.319,0-2.833,0.206-4.132,0
			c-1.728-0.276-3.229-1.47-5.168-1.2"/>
	</g>
	<path fill="#B18F68" d="M183.762,256.529c0,21.757-15.356,39.395-34.299,39.395c-18.944,0-34.301-17.638-34.301-39.395
		l-4.596,8.279l-9.693,137.747h98.254l-8.96-135.748L183.762,256.529z"/>
	<path fill="#F7CAC9" stroke="#9693A2" stroke-width="9.6" stroke-miterlimit="10" d="M149.461,298.028
		c18.942,0,34.301-15.355,34.301-34.299H115.16C115.16,282.673,130.517,298.028,149.461,298.028z"/>
	<rect x="107.168" y="256.529" fill="#F7CAC9" width="84.398" height="12.267"/>
	<path fill="none" stroke="#F9DF3C" stroke-width="1.2" stroke-miterlimit="10" d="M122.717,227.908
		c0.693,1.957,0.951,4.627,2.275,6.421c1.237,1.677,2.732,3.353,4.629,4.344c3.68,1.926,7.205,4.311,10.65,6.605
		c1.912,1.275,3.487,2.252,6.077,2.58c3.48,0.438,6.638,0.04,9.996-0.738c4.657-1.08,7.333-3.907,11.009-6.633
		c2.463-1.826,4.863-4.528,7.152-6.645c0.924-0.855,2.769-3.622,2.719-5.074"/>
	<polygon fill="#F9DF3C" points="151.261,251.375 149.963,251.375 149.963,249.688 148.962,249.688 148.962,251.375 
		147.661,251.375 147.661,252.376 148.962,252.376 148.962,255.509 149.963,255.509 149.963,252.376 151.261,252.376 	"/>
	<polygon points="149.461,412.155 148.87,410.005 148.87,410.009 132.567,307.01 122.236,228.769 111.666,244.089 101.093,259.408 
		92.231,271.339 83.367,283.271 83.735,283.341 77.367,295.399 71.367,321.846 66.968,380.063 62.566,438.281 69.884,438.281 
		77.201,438.281 84.518,438.281 91.835,438.281 93.415,400.61 94.997,362.938 96.579,325.268 98.161,315.541 98.161,412.155 	"/>
	<polygon points="150,412.155 150.593,410.005 150.591,410.009 166.894,307.01 177.225,228.769 187.798,244.089 198.368,259.408 
		207.232,271.339 216.094,283.271 215.729,283.341 222.094,295.399 228.094,321.846 232.495,380.063 236.895,438.281 
		229.577,438.281 222.26,438.281 214.943,438.281 207.628,438.281 206.046,400.61 204.464,362.938 202.882,325.268 201.3,315.541 
		201.3,412.155 	"/>
</g>
</svg>
