<?xml version="1.0" encoding="utf-8"?>
<!-- Generator: Adobe Illustrator 16.0.0, SVG Export Plug-In . SVG Version: 6.00 Build 0)  -->
<!DOCTYPE svg PUBLIC "-//W3C//DTD SVG 1.1//EN" "http://www.w3.org/Graphics/SVG/1.1/DTD/svg11.dtd">
<svg version="1.1" id="Layer_1" xmlns="http://www.w3.org/2000/svg" xmlns:xlink="http://www.w3.org/1999/xlink" x="0px" y="0px"
	 width="300px" height="300px" viewBox="0 0 300 300" enable-background="new 0 0 300 300" xml:space="preserve">
<pattern  y="-685" width="139" height="139" patternUnits="userSpaceOnUse" id="New_Pattern_Swatch_5" viewBox="0 -139 139 139" overflow="visible">
	<g>
		<polygon fill="none" points="0,0 139,0 139,-139 0,-139 		"/>
		<polygon fill="#F9E03C" points="139,0 0,0 0,-139 139,-139 		"/>
		<g opacity="0.6">
			<g>
				<path fill="#91A8CF" stroke="#F9DF3C" stroke-width="0.6895" stroke-miterlimit="10" d="M34.068-107.73
					c0,7.077-5.056,12.816-11.29,12.816c-6.236,0-11.29-5.739-11.29-12.816c0-7.078,5.054-12.815,11.29-12.815
					C29.013-120.546,34.068-114.809,34.068-107.73z"/>
				<path fill="#91A8CF" stroke="#F9DF3C" stroke-width="0.7346" stroke-miterlimit="10" d="M28.088-109.438
					c0,3.487-3.825,6.315-8.544,6.315S11-105.951,11-109.438c0-3.488,3.825-6.316,8.544-6.316S28.088-112.927,28.088-109.438z"/>
				<polygon fill="#F9E03C" points="36.692,-109.012 11.062,-109.012 11.062,-109.866 36.692,-109.866 				"/>
				<path fill="#91A8CF" stroke="#F9DF3C" stroke-width="0.8544" stroke-miterlimit="10" d="M37.755-107.73
					c0,4.718-3.824,8.544-8.543,8.544c-4.72,0-8.545-3.826-8.545-8.544c0-4.719,3.825-8.544,8.545-8.544
					C33.931-116.274,37.755-112.449,37.755-107.73z"/>
			</g>
			<g>
				<path fill="#91A8CF" stroke="#647490" stroke-width="0.4787" stroke-miterlimit="10" d="M49.077-107.026
					c0,1.415-1.147,1.425-2.562,1.425c-1.416,0-2.563-0.01-2.563-1.425c0-1.416,1.147-2.563,2.563-2.563
					C47.93-109.59,49.077-108.442,49.077-107.026z"/>
				<path fill="#91A8CF" stroke="#647490" stroke-width="0.4787" stroke-miterlimit="10" d="M43.226-106.608
					c1.227,0.708,0.661,1.707-0.046,2.933c-0.708,1.226-1.29,2.214-2.517,1.507c-1.227-0.708-1.646-2.275-0.938-3.501
					C40.433-106.896,41.999-107.315,43.226-106.608z"/>
				<path fill="#91A8CF" stroke="#647490" stroke-width="0.4787" stroke-miterlimit="10" d="M40.663-101.331
					c1.227-0.709,1.809,0.28,2.517,1.507c0.707,1.225,1.272,2.224,0.046,2.932c-1.227,0.709-2.793,0.287-3.5-0.938
					C39.018-99.057,39.438-100.623,40.663-101.331z"/>
				<path fill="#F9E03C" stroke="#90A7CE" stroke-width="0.8544" stroke-miterlimit="10" d="M47.796-99.529
					c-1.227,0.707-2.795,0.285-3.502-0.94c-0.707-1.223-0.287-2.793,0.939-3.499c1.225-0.709,2.795-0.289,3.5,0.936
					C49.441-101.808,49.022-100.237,47.796-99.529z"/>
				<path fill="#91A8CF" stroke="#647490" stroke-width="0.4787" stroke-miterlimit="10" d="M44.229-96.473
					c0-1.416,1.147-1.426,2.562-1.426s2.563,0.01,2.563,1.426c0,1.415-1.148,2.562-2.563,2.562S44.229-95.058,44.229-96.473z"/>
				<path fill="#91A8CF" stroke="#647490" stroke-width="0.4787" stroke-miterlimit="10" d="M50.081-96.892
					c-1.227-0.708-0.662-1.707,0.046-2.933s1.29-2.214,2.517-1.507c1.227,0.708,1.646,2.275,0.938,3.501
					C52.874-96.604,51.307-96.185,50.081-96.892z"/>
				<path fill="#91A8CF" stroke="#647490" stroke-width="0.4787" stroke-miterlimit="10" d="M52.644-102.168
					c-1.227,0.708-1.809-0.28-2.517-1.507c-0.708-1.226-1.272-2.224-0.046-2.933c1.226-0.709,2.793-0.287,3.5,0.938
					C54.289-104.442,53.869-102.877,52.644-102.168z"/>
			</g>
			<g>
				<path fill="#91A8CF" stroke="#F9DF3C" stroke-width="0.6895" stroke-miterlimit="10" d="M58.9-107.73
					c0,7.077,5.056,12.816,11.29,12.816c6.235,0,11.29-5.739,11.29-12.816c0-7.078-5.055-12.815-11.29-12.815
					C63.956-120.546,58.9-114.809,58.9-107.73z"/>
				<path fill="#91A8CF" stroke="#F9DF3C" stroke-width="0.7346" stroke-miterlimit="10" d="M64.881-109.438
					c0,3.487,3.825,6.315,8.544,6.315s8.544-2.828,8.544-6.315c0-3.488-3.825-6.316-8.544-6.316S64.881-112.927,64.881-109.438z"/>
				<polygon fill="#F9E03C" points="56.276,-109.012 81.907,-109.012 81.907,-109.866 56.276,-109.866 				"/>
				<path fill="#91A8CF" stroke="#F9DF3C" stroke-width="0.8544" stroke-miterlimit="10" d="M55.214-107.73
					c0,4.718,3.824,8.544,8.543,8.544c4.72,0,8.544-3.826,8.544-8.544c0-4.719-3.824-8.544-8.544-8.544
					C59.038-116.274,55.214-112.449,55.214-107.73z"/>
			</g>
			<g>
				<path fill="#91A8CF" stroke="#647490" stroke-width="0.4787" stroke-miterlimit="10" d="M51.175-90.141
					c0,1.416,1.148,2.563,2.563,2.563s2.563-1.147,2.563-2.563c0-1.415-1.148-2.562-2.563-2.562S51.175-91.556,51.175-90.141z"/>
				<path fill="#91A8CF" stroke="#647490" stroke-width="0.4787" stroke-miterlimit="10" d="M53.738-87.577
					c0,1.416,1.147,2.563,2.563,2.563c1.414,0,2.562-1.147,2.562-2.563s-1.148-2.563-2.562-2.563
					C54.886-90.141,53.738-88.993,53.738-87.577z"/>
				<path fill="#91A8CF" stroke="#647490" stroke-width="0.4787" stroke-miterlimit="10" d="M50.035-86.723
					c0,1.416,1.148,2.563,2.563,2.563s2.562-1.147,2.562-2.563s-1.147-2.563-2.562-2.563S50.035-88.139,50.035-86.723z"/>
				<path fill="#91A8CF" stroke="#647490" stroke-width="0.4787" stroke-miterlimit="10" d="M51.887-85.014
					c0,1.416,1.148,2.562,2.563,2.562s2.562-1.146,2.562-2.562s-1.147-2.563-2.562-2.563S51.887-86.43,51.887-85.014z"/>
				<path fill="#91A8CF" stroke="#647490" stroke-width="0.4787" stroke-miterlimit="10" d="M54.45-82.451
					c0,1.416,1.148,2.563,2.562,2.563c1.416,0,2.563-1.147,2.563-2.563s-1.147-2.562-2.563-2.562
					C55.599-85.014,54.45-83.867,54.45-82.451z"/>
				<path fill="#91A8CF" stroke="#647490" stroke-width="0.4787" stroke-miterlimit="10" d="M50.747-81.597
					c0,1.416,1.148,2.563,2.562,2.563c1.416,0,2.564-1.147,2.564-2.563s-1.148-2.562-2.564-2.562
					C51.896-84.159,50.747-83.013,50.747-81.597z"/>
			</g>
			<g>
				<path fill="#91A8CF" stroke="#647490" stroke-width="0.4787" stroke-miterlimit="10" d="M42.157-90.141
					c0,1.416-1.148,2.563-2.562,2.563c-1.416,0-2.563-1.147-2.563-2.563c0-1.415,1.147-2.562,2.563-2.562
					C41.009-92.703,42.157-91.556,42.157-90.141z"/>
				<path fill="#91A8CF" stroke="#647490" stroke-width="0.4787" stroke-miterlimit="10" d="M39.595-87.577
					c0,1.416-1.148,2.563-2.563,2.563s-2.563-1.147-2.563-2.563s1.148-2.563,2.563-2.563S39.595-88.993,39.595-87.577z"/>
				<path fill="#91A8CF" stroke="#647490" stroke-width="0.4787" stroke-miterlimit="10" d="M43.297-86.723
					c0,1.416-1.147,2.563-2.563,2.563c-1.414,0-2.562-1.147-2.562-2.563s1.148-2.563,2.562-2.563
					C42.149-89.286,43.297-88.139,43.297-86.723z"/>
				<path fill="#91A8CF" stroke="#647490" stroke-width="0.4787" stroke-miterlimit="10" d="M41.446-85.014
					c0,1.416-1.148,2.562-2.563,2.562s-2.563-1.146-2.563-2.562s1.148-2.563,2.563-2.563S41.446-86.43,41.446-85.014z"/>
				<path fill="#91A8CF" stroke="#647490" stroke-width="0.4787" stroke-miterlimit="10" d="M38.883-82.451
					c0,1.416-1.148,2.563-2.563,2.563s-2.562-1.147-2.562-2.563s1.147-2.562,2.562-2.562S38.883-83.867,38.883-82.451z"/>
				<path fill="#91A8CF" stroke="#647490" stroke-width="0.4787" stroke-miterlimit="10" d="M42.585-81.597
					c0,1.416-1.147,2.563-2.562,2.563s-2.563-1.147-2.563-2.563s1.148-2.562,2.563-2.562S42.585-83.013,42.585-81.597z"/>
			</g>
		</g>
		<g opacity="0.3">
			<path fill="#91A8CF" stroke="#647490" stroke-width="0.4787" stroke-miterlimit="10" d="M93.873-66.149
				c0,1.415-1.147,1.425-2.562,1.425c-1.416,0-2.563-0.01-2.563-1.425c0-1.416,1.147-2.563,2.563-2.563
				C92.726-68.713,93.873-67.565,93.873-66.149z"/>
			<path fill="#91A8CF" stroke="#647490" stroke-width="0.4787" stroke-miterlimit="10" d="M88.021-65.731
				c1.227,0.708,0.661,1.707-0.046,2.933c-0.708,1.226-1.29,2.214-2.517,1.507c-1.227-0.708-1.646-2.275-0.938-3.501
				C85.229-66.019,86.795-66.438,88.021-65.731z"/>
			<path fill="#91A8CF" stroke="#647490" stroke-width="0.4787" stroke-miterlimit="10" d="M85.459-60.454
				c1.227-0.709,1.809,0.28,2.517,1.507c0.707,1.225,1.272,2.224,0.046,2.932c-1.227,0.709-2.793,0.287-3.5-0.938
				C83.813-58.18,84.233-59.746,85.459-60.454z"/>
			<path fill="#F9E03C" stroke="#90A7CE" stroke-width="0.8544" stroke-miterlimit="10" d="M92.592-58.652
				c-1.227,0.707-2.795,0.285-3.502-0.94c-0.707-1.223-0.287-2.793,0.939-3.499c1.225-0.709,2.795-0.289,3.5,0.936
				C94.237-60.931,93.818-59.36,92.592-58.652z"/>
			<path fill="#91A8CF" stroke="#647490" stroke-width="0.4787" stroke-miterlimit="10" d="M89.025-55.596
				c0-1.416,1.147-1.426,2.562-1.426s2.563,0.01,2.563,1.426c0,1.415-1.148,2.562-2.563,2.562S89.025-54.181,89.025-55.596z"/>
			<path fill="#91A8CF" stroke="#647490" stroke-width="0.4787" stroke-miterlimit="10" d="M94.877-56.015
				c-1.227-0.708-0.662-1.707,0.046-2.933s1.29-2.214,2.517-1.507c1.227,0.708,1.646,2.275,0.938,3.501
				C97.67-55.728,96.103-55.308,94.877-56.015z"/>
			<path fill="#91A8CF" stroke="#647490" stroke-width="0.4787" stroke-miterlimit="10" d="M97.439-61.291
				c-1.227,0.708-1.809-0.28-2.517-1.507c-0.708-1.226-1.272-2.224-0.046-2.933c1.226-0.709,2.793-0.287,3.5,0.938
				C99.085-63.565,98.665-62,97.439-61.291z"/>
		</g>
		<g opacity="0.3">
			<path fill="#91A8CF" stroke="#647490" stroke-width="0.4787" stroke-miterlimit="10" d="M51.785-20.02
				c0,1.415-1.147,1.425-2.562,1.425c-1.416,0-2.563-0.01-2.563-1.425c0-1.416,1.147-2.563,2.563-2.563
				C50.638-22.583,51.785-21.436,51.785-20.02z"/>
			<path fill="#91A8CF" stroke="#647490" stroke-width="0.4787" stroke-miterlimit="10" d="M45.934-19.602
				c1.227,0.708,0.661,1.707-0.046,2.933c-0.708,1.226-1.29,2.214-2.517,1.507c-1.227-0.708-1.646-2.275-0.938-3.501
				C43.141-19.889,44.707-20.309,45.934-19.602z"/>
			<path fill="#91A8CF" stroke="#647490" stroke-width="0.4787" stroke-miterlimit="10" d="M43.371-14.324
				c1.227-0.709,1.809,0.28,2.517,1.507c0.707,1.225,1.272,2.224,0.046,2.932c-1.227,0.709-2.793,0.287-3.5-0.938
				C41.726-12.05,42.146-13.616,43.371-14.324z"/>
			<path fill="#F9E03C" stroke="#90A7CE" stroke-width="0.8544" stroke-miterlimit="10" d="M50.504-12.522
				c-1.227,0.707-2.795,0.285-3.502-0.94c-0.707-1.223-0.287-2.793,0.939-3.499c1.225-0.709,2.795-0.289,3.5,0.936
				C52.149-14.801,51.73-13.23,50.504-12.522z"/>
			<path fill="#91A8CF" stroke="#647490" stroke-width="0.4787" stroke-miterlimit="10" d="M46.938-9.466
				c0-1.416,1.147-1.426,2.562-1.426s2.563,0.01,2.563,1.426c0,1.415-1.148,2.562-2.563,2.562S46.938-8.051,46.938-9.466z"/>
			<path fill="#91A8CF" stroke="#647490" stroke-width="0.4787" stroke-miterlimit="10" d="M52.789-9.885
				c-1.227-0.708-0.662-1.707,0.046-2.933s1.29-2.214,2.517-1.507c1.227,0.708,1.646,2.275,0.938,3.501
				C55.582-9.598,54.015-9.178,52.789-9.885z"/>
			<path fill="#91A8CF" stroke="#647490" stroke-width="0.4787" stroke-miterlimit="10" d="M55.352-15.161
				c-1.227,0.708-1.809-0.28-2.517-1.507c-0.708-1.226-1.272-2.224-0.046-2.933c1.226-0.709,2.793-0.287,3.5,0.938
				C56.997-17.436,56.577-15.87,55.352-15.161z"/>
		</g>
		<g opacity="0.3">
			<path fill="#91A8CF" stroke="#647490" stroke-width="0.4787" stroke-miterlimit="10" d="M17.35-44.315
				c0,1.415-1.147,1.425-2.562,1.425c-1.416,0-2.563-0.01-2.563-1.425c0-1.416,1.147-2.563,2.563-2.563
				C16.202-46.879,17.35-45.731,17.35-44.315z"/>
			<path fill="#91A8CF" stroke="#647490" stroke-width="0.4787" stroke-miterlimit="10" d="M11.498-43.897
				c1.227,0.708,0.661,1.707-0.046,2.933c-0.708,1.226-1.29,2.214-2.517,1.507c-1.227-0.708-1.646-2.275-0.938-3.501
				C8.705-44.185,10.271-44.604,11.498-43.897z"/>
			<path fill="#91A8CF" stroke="#647490" stroke-width="0.4787" stroke-miterlimit="10" d="M8.936-38.62
				c1.227-0.709,1.809,0.28,2.517,1.507c0.707,1.225,1.272,2.224,0.046,2.932c-1.227,0.709-2.793,0.287-3.5-0.938
				C7.29-36.346,7.71-37.912,8.936-38.62z"/>
			<path fill="#F9E03C" stroke="#90A7CE" stroke-width="0.8544" stroke-miterlimit="10" d="M16.068-36.818
				c-1.227,0.707-2.795,0.285-3.502-0.94c-0.707-1.223-0.287-2.793,0.939-3.499c1.225-0.709,2.795-0.289,3.5,0.936
				C17.714-39.097,17.295-37.526,16.068-36.818z"/>
			<path fill="#91A8CF" stroke="#647490" stroke-width="0.4787" stroke-miterlimit="10" d="M12.502-33.762
				c0-1.416,1.147-1.426,2.562-1.426s2.563,0.01,2.563,1.426c0,1.415-1.148,2.562-2.563,2.562S12.502-32.347,12.502-33.762z"/>
			<path fill="#91A8CF" stroke="#647490" stroke-width="0.4787" stroke-miterlimit="10" d="M18.354-34.181
				c-1.227-0.708-0.662-1.707,0.046-2.933s1.29-2.214,2.517-1.507c1.227,0.708,1.646,2.275,0.938,3.501
				C21.146-33.894,19.579-33.474,18.354-34.181z"/>
			<path fill="#91A8CF" stroke="#647490" stroke-width="0.4787" stroke-miterlimit="10" d="M20.916-39.457
				c-1.227,0.708-1.809-0.28-2.517-1.507c-0.708-1.226-1.272-2.224-0.046-2.933c1.226-0.709,2.793-0.287,3.5,0.938
				C22.562-41.731,22.142-40.166,20.916-39.457z"/>
		</g>
		<g opacity="0.3">
			<path fill="#91A8CF" stroke="#647490" stroke-width="0.4787" stroke-miterlimit="10" d="M101.778-122.277
				c0,1.415-1.147,1.425-2.562,1.425c-1.416,0-2.563-0.01-2.563-1.425c0-1.416,1.147-2.563,2.563-2.563
				C100.631-124.841,101.778-123.693,101.778-122.277z"/>
			<path fill="#91A8CF" stroke="#647490" stroke-width="0.4787" stroke-miterlimit="10" d="M95.927-121.859
				c1.227,0.708,0.661,1.707-0.046,2.933c-0.708,1.226-1.29,2.214-2.517,1.507c-1.227-0.708-1.646-2.275-0.938-3.501
				C93.134-122.146,94.7-122.566,95.927-121.859z"/>
			<path fill="#91A8CF" stroke="#647490" stroke-width="0.4787" stroke-miterlimit="10" d="M93.364-116.582
				c1.227-0.709,1.809,0.28,2.517,1.507c0.707,1.225,1.272,2.224,0.046,2.932c-1.227,0.709-2.793,0.287-3.5-0.938
				C91.719-114.308,92.139-115.874,93.364-116.582z"/>
			<path fill="#F9E03C" stroke="#90A7CE" stroke-width="0.8544" stroke-miterlimit="10" d="M100.497-114.78
				c-1.227,0.707-2.795,0.285-3.502-0.94c-0.707-1.223-0.287-2.793,0.939-3.499c1.225-0.709,2.795-0.289,3.5,0.936
				C102.143-117.059,101.724-115.488,100.497-114.78z"/>
			<path fill="#91A8CF" stroke="#647490" stroke-width="0.4787" stroke-miterlimit="10" d="M96.931-111.724
				c0-1.416,1.147-1.426,2.562-1.426s2.563,0.01,2.563,1.426c0,1.415-1.148,2.562-2.563,2.562S96.931-110.309,96.931-111.724z"/>
			<path fill="#91A8CF" stroke="#647490" stroke-width="0.4787" stroke-miterlimit="10" d="M102.782-112.143
				c-1.227-0.708-0.662-1.707,0.046-2.933s1.29-2.214,2.517-1.507c1.227,0.708,1.646,2.275,0.938,3.501
				C105.575-111.855,104.008-111.436,102.782-112.143z"/>
			<path fill="#91A8CF" stroke="#647490" stroke-width="0.4787" stroke-miterlimit="10" d="M105.345-117.419
				c-1.227,0.708-1.809-0.28-2.517-1.507c-0.708-1.226-1.272-2.224-0.046-2.933c1.226-0.709,2.793-0.287,3.5,0.938
				C106.99-119.693,106.57-118.128,105.345-117.419z"/>
		</g>
		<g opacity="0.3">
			<path fill="#91A8CF" stroke="#647490" stroke-width="0.4787" stroke-miterlimit="10" d="M118.365-76.37
				c0,1.415-1.147,1.425-2.562,1.425c-1.416,0-2.563-0.01-2.563-1.425c0-1.416,1.147-2.563,2.563-2.563
				C117.218-78.934,118.365-77.786,118.365-76.37z"/>
			<path fill="#91A8CF" stroke="#647490" stroke-width="0.4787" stroke-miterlimit="10" d="M112.514-75.952
				c1.227,0.708,0.661,1.707-0.046,2.933c-0.708,1.226-1.29,2.214-2.517,1.507c-1.227-0.708-1.646-2.275-0.938-3.501
				C109.721-76.239,111.287-76.659,112.514-75.952z"/>
			<path fill="#91A8CF" stroke="#647490" stroke-width="0.4787" stroke-miterlimit="10" d="M109.951-70.675
				c1.227-0.709,1.809,0.28,2.517,1.507c0.707,1.225,1.272,2.224,0.046,2.932c-1.227,0.709-2.793,0.287-3.5-0.938
				C108.306-68.4,108.726-69.967,109.951-70.675z"/>
			<path fill="#F9E03C" stroke="#90A7CE" stroke-width="0.8544" stroke-miterlimit="10" d="M117.084-68.873
				c-1.227,0.707-2.795,0.285-3.502-0.94c-0.707-1.223-0.287-2.793,0.939-3.499c1.225-0.709,2.795-0.289,3.5,0.936
				C118.729-71.151,118.311-69.581,117.084-68.873z"/>
			<path fill="#91A8CF" stroke="#647490" stroke-width="0.4787" stroke-miterlimit="10" d="M113.518-65.816
				c0-1.416,1.147-1.426,2.562-1.426s2.563,0.01,2.563,1.426c0,1.415-1.148,2.562-2.563,2.562S113.518-64.401,113.518-65.816z"/>
			<path fill="#91A8CF" stroke="#647490" stroke-width="0.4787" stroke-miterlimit="10" d="M119.369-66.235
				c-1.227-0.708-0.662-1.707,0.046-2.933s1.29-2.214,2.517-1.507c1.227,0.708,1.646,2.275,0.938,3.501
				C122.162-65.948,120.595-65.528,119.369-66.235z"/>
			<path fill="#91A8CF" stroke="#647490" stroke-width="0.4787" stroke-miterlimit="10" d="M121.932-71.512
				c-1.227,0.708-1.809-0.28-2.517-1.507c-0.708-1.226-1.272-2.224-0.046-2.933c1.226-0.709,2.793-0.287,3.5,0.938
				C123.577-73.786,123.157-72.221,121.932-71.512z"/>
		</g>
		<g opacity="0.3">
			<path fill="#91A8CF" stroke="#647490" stroke-width="0.4935" stroke-miterlimit="10" d="M43.87-44.51
				c0-1.504-1.147-1.515-2.562-1.515c-1.416,0-2.563,0.011-2.563,1.515c0,1.505,1.147,2.725,2.563,2.725
				C42.723-41.785,43.87-43.005,43.87-44.51z"/>
			<path fill="#91A8CF" stroke="#647490" stroke-width="0.4935" stroke-miterlimit="10" d="M38.019-44.954
				c1.227-0.753,0.661-1.814-0.046-3.117c-0.708-1.303-1.29-2.354-2.517-1.602c-1.227,0.753-1.646,2.418-0.938,3.721
				C35.226-44.649,36.792-44.203,38.019-44.954z"/>
			<path fill="#91A8CF" stroke="#647490" stroke-width="0.4935" stroke-miterlimit="10" d="M35.456-50.563
				c1.227,0.754,1.809-0.298,2.517-1.602c0.707-1.302,1.272-2.363,0.046-3.116s-2.793-0.305-3.5,0.997
				C33.811-52.98,34.23-51.316,35.456-50.563z"/>
			<path fill="#F9E03C" stroke="#90A7CE" stroke-width="0.8808" stroke-miterlimit="10" d="M42.589-52.479
				c-1.227-0.751-2.795-0.303-3.502,1c-0.707,1.299-0.287,2.968,0.939,3.719c1.225,0.753,2.795,0.307,3.5-0.994
				C44.234-50.057,43.815-51.726,42.589-52.479z"/>
			<path fill="#91A8CF" stroke="#647490" stroke-width="0.4935" stroke-miterlimit="10" d="M39.022-55.728
				c0,1.505,1.147,1.516,2.562,1.516s2.563-0.011,2.563-1.516c0-1.504-1.148-2.724-2.563-2.724S39.022-57.231,39.022-55.728z"/>
			<path fill="#91A8CF" stroke="#647490" stroke-width="0.4935" stroke-miterlimit="10" d="M44.874-55.282
				c-1.227,0.753-0.662,1.814,0.046,3.117s1.29,2.354,2.517,1.602c1.227-0.753,1.646-2.418,0.938-3.721
				C47.667-55.587,46.1-56.033,44.874-55.282z"/>
			<path fill="#91A8CF" stroke="#647490" stroke-width="0.4935" stroke-miterlimit="10" d="M47.437-49.674
				c-1.227-0.753-1.809,0.298-2.517,1.602c-0.708,1.303-1.272,2.363-0.046,3.117c1.226,0.753,2.793,0.305,3.5-0.998
				C49.082-47.257,48.662-48.92,47.437-49.674z"/>
		</g>
		<g opacity="0.6">
			<g>
				<path fill="#91A8CF" stroke="#F9DF3C" stroke-width="0.6895" stroke-miterlimit="10" d="M81.572-36.61
					c0,7.077-5.056,12.816-11.29,12.816c-6.236,0-11.29-5.739-11.29-12.816c0-7.078,5.054-12.815,11.29-12.815
					C76.517-49.426,81.572-43.688,81.572-36.61z"/>
				<path fill="#91A8CF" stroke="#F9DF3C" stroke-width="0.7346" stroke-miterlimit="10" d="M75.592-38.318
					c0,3.487-3.825,6.315-8.544,6.315s-8.544-2.828-8.544-6.315c0-3.488,3.825-6.316,8.544-6.316S75.592-41.807,75.592-38.318z"/>
				<polygon fill="#F9E03C" points="84.196,-37.892 58.565,-37.892 58.565,-38.746 84.196,-38.746 				"/>
				<path fill="#91A8CF" stroke="#F9DF3C" stroke-width="0.8544" stroke-miterlimit="10" d="M85.259-36.61
					c0,4.718-3.824,8.544-8.543,8.544c-4.72,0-8.545-3.826-8.545-8.544c0-4.719,3.825-8.544,8.545-8.544
					C81.435-45.154,85.259-41.329,85.259-36.61z"/>
			</g>
			<g>
				<path fill="#91A8CF" stroke="#647490" stroke-width="0.4787" stroke-miterlimit="10" d="M96.581-35.906
					c0,1.415-1.147,1.425-2.562,1.425c-1.416,0-2.563-0.01-2.563-1.425c0-1.416,1.147-2.563,2.563-2.563
					C95.434-38.47,96.581-37.322,96.581-35.906z"/>
				<path fill="#91A8CF" stroke="#647490" stroke-width="0.4787" stroke-miterlimit="10" d="M90.729-35.488
					c1.227,0.708,0.661,1.707-0.046,2.933c-0.708,1.226-1.29,2.214-2.517,1.507c-1.227-0.708-1.646-2.275-0.938-3.501
					C87.937-35.775,89.503-36.195,90.729-35.488z"/>
				<path fill="#91A8CF" stroke="#647490" stroke-width="0.4787" stroke-miterlimit="10" d="M88.167-30.211
					c1.227-0.709,1.809,0.28,2.517,1.507c0.707,1.225,1.272,2.224,0.046,2.932c-1.227,0.709-2.793,0.287-3.5-0.938
					C86.521-27.937,86.941-29.503,88.167-30.211z"/>
				<path fill="#F9E03C" stroke="#90A7CE" stroke-width="0.8544" stroke-miterlimit="10" d="M95.3-28.409
					c-1.227,0.707-2.795,0.285-3.502-0.94c-0.707-1.223-0.287-2.793,0.939-3.499c1.225-0.709,2.795-0.289,3.5,0.936
					C96.945-30.688,96.526-29.117,95.3-28.409z"/>
				<path fill="#91A8CF" stroke="#647490" stroke-width="0.4787" stroke-miterlimit="10" d="M91.733-25.353
					c0-1.416,1.147-1.426,2.562-1.426s2.563,0.01,2.563,1.426c0,1.415-1.148,2.562-2.563,2.562S91.733-23.938,91.733-25.353z"/>
				<path fill="#91A8CF" stroke="#647490" stroke-width="0.4787" stroke-miterlimit="10" d="M97.585-25.771
					c-1.227-0.708-0.662-1.707,0.046-2.933s1.29-2.214,2.517-1.507c1.227,0.708,1.646,2.275,0.938,3.501
					C100.378-25.484,98.811-25.064,97.585-25.771z"/>
				<path fill="#91A8CF" stroke="#647490" stroke-width="0.4787" stroke-miterlimit="10" d="M100.147-31.048
					c-1.227,0.708-1.809-0.28-2.517-1.507c-0.708-1.226-1.272-2.224-0.046-2.933c1.226-0.709,2.793-0.287,3.5,0.938
					C101.793-33.322,101.373-31.757,100.147-31.048z"/>
			</g>
			<g>
				<path fill="#91A8CF" stroke="#F9DF3C" stroke-width="0.6895" stroke-miterlimit="10" d="M106.404-36.61
					c0,7.077,5.056,12.816,11.29,12.816c6.235,0,11.29-5.739,11.29-12.816c0-7.078-5.055-12.815-11.29-12.815
					C111.46-49.426,106.404-43.688,106.404-36.61z"/>
				<path fill="#91A8CF" stroke="#F9DF3C" stroke-width="0.7346" stroke-miterlimit="10" d="M112.385-38.318
					c0,3.487,3.825,6.315,8.544,6.315s8.544-2.828,8.544-6.315c0-3.488-3.825-6.316-8.544-6.316S112.385-41.807,112.385-38.318z"/>
				<polygon fill="#F9E03C" points="103.78,-37.892 129.411,-37.892 129.411,-38.746 103.78,-38.746 				"/>
				<path fill="#91A8CF" stroke="#F9DF3C" stroke-width="0.8544" stroke-miterlimit="10" d="M102.718-36.61
					c0,4.718,3.824,8.544,8.543,8.544c4.72,0,8.544-3.826,8.544-8.544c0-4.719-3.824-8.544-8.544-8.544
					C106.542-45.154,102.718-41.329,102.718-36.61z"/>
			</g>
			<g>
				<path fill="#91A8CF" stroke="#647490" stroke-width="0.4787" stroke-miterlimit="10" d="M98.679-19.021
					c0,1.416,1.148,2.563,2.563,2.563s2.563-1.147,2.563-2.563c0-1.415-1.148-2.562-2.563-2.562S98.679-20.436,98.679-19.021z"/>
				<path fill="#91A8CF" stroke="#647490" stroke-width="0.4787" stroke-miterlimit="10" d="M101.242-16.457
					c0,1.416,1.147,2.563,2.563,2.563c1.414,0,2.562-1.147,2.562-2.563s-1.148-2.563-2.562-2.563
					C102.39-19.021,101.242-17.873,101.242-16.457z"/>
				<path fill="#91A8CF" stroke="#647490" stroke-width="0.4787" stroke-miterlimit="10" d="M97.539-15.603
					c0,1.416,1.148,2.563,2.563,2.563s2.562-1.147,2.562-2.563s-1.147-2.563-2.562-2.563S97.539-17.019,97.539-15.603z"/>
				<path fill="#91A8CF" stroke="#647490" stroke-width="0.4787" stroke-miterlimit="10" d="M99.391-13.894
					c0,1.416,1.148,2.562,2.563,2.562s2.562-1.146,2.562-2.562s-1.147-2.563-2.562-2.563S99.391-15.31,99.391-13.894z"/>
				<path fill="#91A8CF" stroke="#647490" stroke-width="0.4787" stroke-miterlimit="10" d="M101.954-11.331
					c0,1.416,1.148,2.563,2.562,2.563c1.416,0,2.563-1.147,2.563-2.563s-1.147-2.562-2.563-2.562
					C103.103-13.894,101.954-12.747,101.954-11.331z"/>
				<path fill="#91A8CF" stroke="#647490" stroke-width="0.4787" stroke-miterlimit="10" d="M98.251-10.477
					c0,1.416,1.148,2.563,2.562,2.563c1.416,0,2.564-1.147,2.564-2.563s-1.148-2.562-2.564-2.562
					C99.399-13.039,98.251-11.893,98.251-10.477z"/>
			</g>
			<g>
				<path fill="#91A8CF" stroke="#647490" stroke-width="0.4787" stroke-miterlimit="10" d="M89.661-19.021
					c0,1.416-1.148,2.563-2.562,2.563c-1.416,0-2.563-1.147-2.563-2.563c0-1.415,1.147-2.562,2.563-2.562
					C88.513-21.583,89.661-20.436,89.661-19.021z"/>
				<path fill="#91A8CF" stroke="#647490" stroke-width="0.4787" stroke-miterlimit="10" d="M87.099-16.457
					c0,1.416-1.148,2.563-2.563,2.563s-2.563-1.147-2.563-2.563s1.148-2.563,2.563-2.563S87.099-17.873,87.099-16.457z"/>
				<path fill="#91A8CF" stroke="#647490" stroke-width="0.4787" stroke-miterlimit="10" d="M90.801-15.603
					c0,1.416-1.147,2.563-2.563,2.563c-1.414,0-2.562-1.147-2.562-2.563s1.148-2.563,2.562-2.563
					C89.653-18.166,90.801-17.019,90.801-15.603z"/>
				<path fill="#91A8CF" stroke="#647490" stroke-width="0.4787" stroke-miterlimit="10" d="M88.95-13.894
					c0,1.416-1.148,2.562-2.563,2.562s-2.563-1.146-2.563-2.562s1.148-2.563,2.563-2.563S88.95-15.31,88.95-13.894z"/>
				<path fill="#91A8CF" stroke="#647490" stroke-width="0.4787" stroke-miterlimit="10" d="M86.387-11.331
					c0,1.416-1.148,2.563-2.563,2.563s-2.562-1.147-2.562-2.563s1.147-2.562,2.562-2.562S86.387-12.747,86.387-11.331z"/>
				<path fill="#91A8CF" stroke="#647490" stroke-width="0.4787" stroke-miterlimit="10" d="M90.089-10.477
					c0,1.416-1.147,2.563-2.562,2.563s-2.563-1.147-2.563-2.563s1.148-2.562,2.563-2.562S90.089-11.893,90.089-10.477z"/>
			</g>
		</g>
		<g opacity="0.3">
			<path fill="#91A8CF" stroke="#647490" stroke-width="0.4787" stroke-miterlimit="10" d="M19.469-73.624
				c0,1.415-1.147,1.425-2.562,1.425c-1.416,0-2.563-0.01-2.563-1.425c0-1.416,1.147-2.563,2.563-2.563
				C18.321-76.188,19.469-75.04,19.469-73.624z"/>
			<path fill="#91A8CF" stroke="#647490" stroke-width="0.4787" stroke-miterlimit="10" d="M13.617-73.206
				c1.227,0.708,0.661,1.707-0.046,2.933c-0.708,1.226-1.29,2.214-2.517,1.507c-1.227-0.708-1.646-2.275-0.938-3.501
				C10.824-73.493,12.391-73.913,13.617-73.206z"/>
			<path fill="#91A8CF" stroke="#647490" stroke-width="0.4787" stroke-miterlimit="10" d="M11.055-67.929
				c1.227-0.709,1.809,0.28,2.517,1.507c0.707,1.225,1.272,2.224,0.046,2.932c-1.227,0.709-2.793,0.287-3.5-0.938
				C9.409-65.654,9.829-67.221,11.055-67.929z"/>
			<path fill="#F9E03C" stroke="#90A7CE" stroke-width="0.8544" stroke-miterlimit="10" d="M18.188-66.127
				c-1.227,0.707-2.795,0.285-3.502-0.94c-0.707-1.223-0.287-2.793,0.939-3.499c1.225-0.709,2.795-0.289,3.5,0.936
				C19.833-68.405,19.414-66.835,18.188-66.127z"/>
			<path fill="#91A8CF" stroke="#647490" stroke-width="0.4787" stroke-miterlimit="10" d="M14.621-63.07
				c0-1.416,1.147-1.426,2.562-1.426s2.563,0.01,2.563,1.426c0,1.415-1.148,2.562-2.563,2.562S14.621-61.655,14.621-63.07z"/>
			<path fill="#91A8CF" stroke="#647490" stroke-width="0.4787" stroke-miterlimit="10" d="M20.473-63.489
				c-1.227-0.708-0.662-1.707,0.046-2.933s1.29-2.214,2.517-1.507c1.227,0.708,1.646,2.275,0.938,3.501
				C23.266-63.202,21.698-62.782,20.473-63.489z"/>
			<path fill="#91A8CF" stroke="#647490" stroke-width="0.4787" stroke-miterlimit="10" d="M23.035-68.766
				c-1.227,0.708-1.809-0.28-2.517-1.507c-0.708-1.226-1.272-2.224-0.046-2.933c1.226-0.709,2.793-0.287,3.5,0.938
				C24.681-71.04,24.261-69.475,23.035-68.766z"/>
		</g>
		<g opacity="0.3">
			<path fill="#91A8CF" stroke="#647490" stroke-width="0.4787" stroke-miterlimit="10" d="M24.621-17.044
				c0,1.415-1.147,1.425-2.562,1.425c-1.416,0-2.563-0.01-2.563-1.425c0-1.416,1.147-2.563,2.563-2.563
				C23.474-19.607,24.621-18.46,24.621-17.044z"/>
			<path fill="#91A8CF" stroke="#647490" stroke-width="0.4787" stroke-miterlimit="10" d="M18.77-16.626
				c1.227,0.708,0.661,1.707-0.046,2.933c-0.708,1.226-1.29,2.214-2.517,1.507c-1.227-0.708-1.646-2.275-0.938-3.501
				C15.977-16.913,17.543-17.333,18.77-16.626z"/>
			<path fill="#91A8CF" stroke="#647490" stroke-width="0.4787" stroke-miterlimit="10" d="M16.207-11.349
				c1.227-0.709,1.809,0.28,2.517,1.507c0.707,1.225,1.272,2.224,0.046,2.932c-1.227,0.709-2.793,0.287-3.5-0.938
				C14.562-9.074,14.981-10.641,16.207-11.349z"/>
			<path fill="#F9E03C" stroke="#90A7CE" stroke-width="0.8544" stroke-miterlimit="10" d="M23.34-9.547
				c-1.227,0.707-2.795,0.285-3.502-0.94c-0.707-1.223-0.287-2.793,0.939-3.499c1.225-0.709,2.795-0.289,3.5,0.936
				C24.985-11.825,24.566-10.255,23.34-9.547z"/>
			<path fill="#91A8CF" stroke="#647490" stroke-width="0.4787" stroke-miterlimit="10" d="M19.773-6.49
				c0-1.416,1.147-1.426,2.562-1.426s2.563,0.01,2.563,1.426c0,1.415-1.148,2.562-2.563,2.562S19.773-5.075,19.773-6.49z"/>
			<path fill="#91A8CF" stroke="#647490" stroke-width="0.4787" stroke-miterlimit="10" d="M25.625-6.909
				c-1.227-0.708-0.662-1.707,0.046-2.933s1.29-2.214,2.517-1.507c1.227,0.708,1.646,2.275,0.938,3.501
				C28.418-6.622,26.851-6.202,25.625-6.909z"/>
			<path fill="#91A8CF" stroke="#647490" stroke-width="0.4787" stroke-miterlimit="10" d="M28.188-12.186
				c-1.227,0.708-1.809-0.28-2.517-1.507c-0.708-1.226-1.272-2.224-0.046-2.933c1.226-0.709,2.793-0.287,3.5,0.938
				C29.833-14.46,29.413-12.895,28.188-12.186z"/>
		</g>
		<g opacity="0.3">
			<path fill="#91A8CF" stroke="#647490" stroke-width="0.4787" stroke-miterlimit="10" d="M49.009-131.377
				c0,1.415-1.147,1.425-2.562,1.425c-1.416,0-2.563-0.01-2.563-1.425c0-1.416,1.147-2.563,2.563-2.563
				C47.861-133.94,49.009-132.793,49.009-131.377z"/>
			<path fill="#91A8CF" stroke="#647490" stroke-width="0.4787" stroke-miterlimit="10" d="M43.157-130.959
				c1.227,0.708,0.661,1.707-0.046,2.933c-0.708,1.226-1.29,2.214-2.517,1.507c-1.227-0.708-1.646-2.275-0.938-3.501
				C40.364-131.246,41.931-131.666,43.157-130.959z"/>
			<path fill="#91A8CF" stroke="#647490" stroke-width="0.4787" stroke-miterlimit="10" d="M40.595-125.682
				c1.227-0.709,1.809,0.28,2.517,1.507c0.707,1.225,1.272,2.224,0.046,2.932c-1.227,0.709-2.793,0.287-3.5-0.938
				C38.949-123.407,39.369-124.974,40.595-125.682z"/>
			<path fill="#F9E03C" stroke="#90A7CE" stroke-width="0.8544" stroke-miterlimit="10" d="M47.728-123.88
				c-1.227,0.707-2.795,0.285-3.502-0.94c-0.707-1.223-0.287-2.793,0.939-3.499c1.225-0.709,2.795-0.289,3.5,0.936
				C49.373-126.158,48.954-124.588,47.728-123.88z"/>
			<path fill="#91A8CF" stroke="#647490" stroke-width="0.4787" stroke-miterlimit="10" d="M44.161-120.823
				c0-1.416,1.147-1.426,2.562-1.426s2.563,0.01,2.563,1.426c0,1.415-1.148,2.562-2.563,2.562S44.161-119.408,44.161-120.823z"/>
			<path fill="#91A8CF" stroke="#647490" stroke-width="0.4787" stroke-miterlimit="10" d="M50.013-121.242
				c-1.227-0.708-0.662-1.707,0.046-2.933s1.29-2.214,2.517-1.507c1.227,0.708,1.646,2.275,0.938,3.501
				C52.806-120.955,51.238-120.535,50.013-121.242z"/>
			<path fill="#91A8CF" stroke="#647490" stroke-width="0.4787" stroke-miterlimit="10" d="M52.575-126.519
				c-1.227,0.708-1.809-0.28-2.517-1.507c-0.708-1.226-1.272-2.224-0.046-2.933c1.226-0.709,2.793-0.287,3.5,0.938
				C54.221-128.793,53.801-127.228,52.575-126.519z"/>
		</g>
		<g opacity="0.3">
			<path fill="#91A8CF" stroke="#647490" stroke-width="0.4787" stroke-miterlimit="10" d="M98.106-92.928
				c0.231,1.396-0.897,1.594-2.294,1.826c-1.396,0.231-2.531,0.411-2.762-0.985c-0.233-1.397,0.711-2.717,2.108-2.949
				C96.555-95.268,97.874-94.324,98.106-92.928z"/>
			<path fill="#91A8CF" stroke="#647490" stroke-width="0.4787" stroke-miterlimit="10" d="M92.403-91.556
				c1.325,0.497,0.933,1.576,0.435,2.9c-0.496,1.325-0.908,2.396-2.234,1.898c-1.327-0.496-1.997-1.974-1.499-3.3
				C89.601-91.381,91.076-92.053,92.403-91.556z"/>
			<path fill="#91A8CF" stroke="#647490" stroke-width="0.4787" stroke-miterlimit="10" d="M90.74-85.93
				c1.094-0.9,1.831-0.02,2.73,1.074c0.897,1.092,1.619,1.984,0.525,2.885c-1.094,0.899-2.709,0.74-3.606-0.352
				C89.49-83.416,89.646-85.03,90.74-85.93z"/>
			<path fill="#F9E03C" stroke="#90A7CE" stroke-width="0.8544" stroke-miterlimit="10" d="M98.072-85.321
				c-1.094,0.897-2.71,0.739-3.609-0.354c-0.896-1.09-0.74-2.708,0.354-3.605c1.092-0.9,2.709-0.743,3.606,0.35
				C99.321-87.839,99.166-86.222,98.072-85.321z"/>
			<path fill="#91A8CF" stroke="#647490" stroke-width="0.4787" stroke-miterlimit="10" d="M95.056-81.722
				c-0.233-1.396,0.897-1.595,2.294-1.827c1.396-0.231,2.53-0.411,2.762,0.987c0.233,1.396-0.713,2.715-2.108,2.947
				C96.607-79.383,95.287-80.326,95.056-81.722z"/>
			<path fill="#91A8CF" stroke="#647490" stroke-width="0.4787" stroke-miterlimit="10" d="M100.759-83.095
				c-1.325-0.497-0.933-1.575-0.436-2.9s0.909-2.396,2.235-1.898c1.326,0.496,1.996,1.974,1.499,3.3
				C103.562-83.27,102.084-82.598,100.759-83.095z"/>
			<path fill="#91A8CF" stroke="#647490" stroke-width="0.4787" stroke-miterlimit="10" d="M102.422-88.72
				c-1.094,0.899-1.831,0.02-2.73-1.074c-0.898-1.093-1.619-1.984-0.525-2.886c1.093-0.899,2.709-0.74,3.606,0.353
				C103.672-91.233,103.514-89.62,102.422-88.72z"/>
		</g>
		<g opacity="0.3">
			<path fill="#91A8CF" stroke="#647490" stroke-width="0.4787" stroke-miterlimit="10" d="M72.614-73.624
				c0,1.415-1.147,1.425-2.562,1.425c-1.416,0-2.563-0.01-2.563-1.425c0-1.416,1.147-2.563,2.563-2.563
				C71.467-76.188,72.614-75.04,72.614-73.624z"/>
			<path fill="#91A8CF" stroke="#647490" stroke-width="0.4787" stroke-miterlimit="10" d="M66.763-73.206
				c1.227,0.708,0.661,1.707-0.046,2.933c-0.708,1.226-1.29,2.214-2.517,1.507c-1.227-0.708-1.646-2.275-0.938-3.501
				C63.97-73.493,65.536-73.913,66.763-73.206z"/>
			<path fill="#91A8CF" stroke="#647490" stroke-width="0.4787" stroke-miterlimit="10" d="M64.2-67.929
				c1.227-0.709,1.809,0.28,2.517,1.507c0.707,1.225,1.272,2.224,0.046,2.932c-1.227,0.709-2.793,0.287-3.5-0.938
				C62.555-65.654,62.975-67.221,64.2-67.929z"/>
			<path fill="#F9E03C" stroke="#90A7CE" stroke-width="0.8544" stroke-miterlimit="10" d="M71.333-66.127
				c-1.227,0.707-2.795,0.285-3.502-0.94c-0.707-1.223-0.287-2.793,0.939-3.499c1.225-0.709,2.795-0.289,3.5,0.936
				C72.979-68.405,72.56-66.835,71.333-66.127z"/>
			<path fill="#91A8CF" stroke="#647490" stroke-width="0.4787" stroke-miterlimit="10" d="M67.767-63.07
				c0-1.416,1.147-1.426,2.562-1.426s2.563,0.01,2.563,1.426c0,1.415-1.148,2.562-2.563,2.562S67.767-61.655,67.767-63.07z"/>
			<path fill="#91A8CF" stroke="#647490" stroke-width="0.4787" stroke-miterlimit="10" d="M73.618-63.489
				c-1.227-0.708-0.662-1.707,0.046-2.933s1.29-2.214,2.517-1.507c1.227,0.708,1.646,2.275,0.938,3.501
				C76.411-63.202,74.844-62.782,73.618-63.489z"/>
			<path fill="#91A8CF" stroke="#647490" stroke-width="0.4787" stroke-miterlimit="10" d="M76.181-68.766
				c-1.227,0.708-1.809-0.28-2.517-1.507c-0.708-1.226-1.272-2.224-0.046-2.933c1.226-0.709,2.793-0.287,3.5,0.938
				C77.826-71.04,77.406-69.475,76.181-68.766z"/>
		</g>
		<g opacity="0.3">
			<path fill="#91A8CF" stroke="#647490" stroke-width="0.4787" stroke-miterlimit="10" d="M125.638-103.649
				c0,1.415-1.147,1.425-2.562,1.425c-1.416,0-2.563-0.01-2.563-1.425c0-1.416,1.147-2.563,2.563-2.563
				C124.49-106.213,125.638-105.065,125.638-103.649z"/>
			<path fill="#91A8CF" stroke="#647490" stroke-width="0.4787" stroke-miterlimit="10" d="M119.786-103.231
				c1.227,0.708,0.661,1.707-0.046,2.933c-0.708,1.226-1.29,2.214-2.517,1.507c-1.227-0.708-1.646-2.275-0.938-3.501
				C116.993-103.519,118.56-103.938,119.786-103.231z"/>
			<path fill="#91A8CF" stroke="#647490" stroke-width="0.4787" stroke-miterlimit="10" d="M117.224-97.954
				c1.227-0.709,1.809,0.28,2.517,1.507c0.707,1.225,1.272,2.224,0.046,2.932c-1.227,0.709-2.793,0.287-3.5-0.938
				C115.578-95.68,115.998-97.246,117.224-97.954z"/>
			<path fill="#F9E03C" stroke="#90A7CE" stroke-width="0.8544" stroke-miterlimit="10" d="M124.356-96.152
				c-1.227,0.707-2.795,0.285-3.502-0.94c-0.707-1.223-0.287-2.793,0.939-3.499c1.225-0.709,2.795-0.289,3.5,0.936
				C126.002-98.431,125.583-96.86,124.356-96.152z"/>
			<path fill="#91A8CF" stroke="#647490" stroke-width="0.4787" stroke-miterlimit="10" d="M120.79-93.096
				c0-1.416,1.147-1.426,2.562-1.426s2.563,0.01,2.563,1.426c0,1.415-1.148,2.562-2.563,2.562S120.79-91.681,120.79-93.096z"/>
			<path fill="#91A8CF" stroke="#647490" stroke-width="0.4787" stroke-miterlimit="10" d="M126.642-93.515
				c-1.227-0.708-0.662-1.707,0.046-2.933s1.29-2.214,2.517-1.507c1.227,0.708,1.646,2.275,0.938,3.501
				C129.435-93.228,127.867-92.808,126.642-93.515z"/>
			<path fill="#91A8CF" stroke="#647490" stroke-width="0.4787" stroke-miterlimit="10" d="M129.204-98.791
				c-1.227,0.708-1.809-0.28-2.517-1.507c-0.708-1.226-1.272-2.224-0.046-2.933c1.226-0.709,2.793-0.287,3.5,0.938
				C130.85-101.065,130.43-99.5,129.204-98.791z"/>
		</g>
		<g opacity="0.3">
			<path fill="#91A8CF" stroke="#647490" stroke-width="0.4787" stroke-miterlimit="10" d="M128.345-129.194
				c0,1.415-1.147,1.425-2.562,1.425c-1.416,0-2.563-0.01-2.563-1.425c0-1.416,1.147-2.563,2.563-2.563
				C127.197-131.758,128.345-130.61,128.345-129.194z"/>
			<path fill="#91A8CF" stroke="#647490" stroke-width="0.4787" stroke-miterlimit="10" d="M122.493-128.776
				c1.227,0.708,0.661,1.707-0.046,2.933c-0.708,1.226-1.29,2.214-2.517,1.507c-1.227-0.708-1.646-2.275-0.938-3.501
				C119.7-129.063,121.267-129.483,122.493-128.776z"/>
			<path fill="#91A8CF" stroke="#647490" stroke-width="0.4787" stroke-miterlimit="10" d="M119.931-123.499
				c1.227-0.709,1.809,0.28,2.517,1.507c0.707,1.225,1.272,2.224,0.046,2.932c-1.227,0.709-2.793,0.287-3.5-0.938
				C118.285-121.225,118.705-122.791,119.931-123.499z"/>
			<path fill="#F9E03C" stroke="#90A7CE" stroke-width="0.8544" stroke-miterlimit="10" d="M127.063-121.697
				c-1.227,0.707-2.795,0.285-3.502-0.94c-0.707-1.223-0.287-2.793,0.939-3.499c1.225-0.709,2.795-0.289,3.5,0.936
				C128.709-123.976,128.29-122.405,127.063-121.697z"/>
			<path fill="#91A8CF" stroke="#647490" stroke-width="0.4787" stroke-miterlimit="10" d="M123.497-118.641
				c0-1.416,1.147-1.426,2.562-1.426s2.563,0.01,2.563,1.426c0,1.415-1.148,2.562-2.563,2.562S123.497-117.226,123.497-118.641z"/>
			<path fill="#91A8CF" stroke="#647490" stroke-width="0.4787" stroke-miterlimit="10" d="M129.349-119.06
				c-1.227-0.708-0.662-1.707,0.046-2.933s1.29-2.214,2.517-1.507c1.227,0.708,1.646,2.275,0.938,3.501
				C132.142-118.772,130.574-118.353,129.349-119.06z"/>
			<path fill="#91A8CF" stroke="#647490" stroke-width="0.4787" stroke-miterlimit="10" d="M131.911-124.336
				c-1.227,0.708-1.809-0.28-2.517-1.507c-0.708-1.226-1.272-2.224-0.046-2.933c1.226-0.709,2.793-0.287,3.5,0.938
				C133.557-126.61,133.137-125.045,131.911-124.336z"/>
		</g>
	</g>
</pattern>
<g>
	<g>
		<path fill="#B18F6A" d="M98.425,111.366c1.422,4.233,0.412,10.291,0.4,14.831c-0.02,6.996,0.393,14.093,1.58,20.993
			c2.533,14.7,6.56,27.626,12.741,41.011c1.895,4.104,3.335,7.629,3.688,12.277c0.548,7.216-2.712,18.227,1.193,24.494
			c2.173,3.489,7.267,7.502,11.647,6.442c4.248-1.026,8.353-7.377,10.128-10.958c1.664-3.359,1.424-7.44,1.423-11.07
			c-0.004-8.219-1.186-16.391-1.964-24.574c-1.235-12.996-7.276-25.676-10.157-38.443c-1.759-7.797-4.485-15.665-8.756-22.487
			c-1.465-2.339-3.828-3.551-5.574-5.579c-1.381-1.604-2.084-3.777-3.743-5.15c-3.536-2.926-8.792-1.786-13.006-1.786H98.425z"/>
		<g>
			<path fill="#F7CAC9" stroke="#DDB5B4" stroke-width="1.2" stroke-miterlimit="10" d="M109.821,64.816l1.461-1.46
				C110.677,63.812,110.173,64.297,109.821,64.816z"/>
			<path fill="#F7CAC9" stroke="#DDB5B4" stroke-width="1.2" stroke-miterlimit="10" d="M111.622,63.017l-0.34,0.34
				c0.6-0.45,1.308-0.868,2.113-1.251c0.017-0.286,0.035-0.574,0.026-0.889L111.622,63.017z"/>
			<path fill="#F7CAC9" stroke="#DDB5B4" stroke-width="1.2" stroke-miterlimit="10" d="M236.312,700.773
				c-1.432-6.651-11.035-5.163-16.607-6.312c-6.709-1.383-28.254-6.942-33.824-10.312c-6.295-3.809,3.252-17.402,3.252-17.402
				l3.74-249.71c2.094-0.263-9.164-8.295-6.992-8.476c0.945-18.591-16.701-41.497-16.701-60.172
				c0-19.09,35.529-38.831,30.523-58.104v-1.035c6.941,9.854,5.385,30.465,7.795,42.398c3.695,18.291,10.465,31.893,10.656,51.815
				c0.111,11.423,3.422,30.13,1.059,40.698c-2.092,9.342-9.828,12.231-12.85,20.215c-2.721,7.197-9.787,9.6-8.662,17.066
				c1.723,11.419,10.035,5.848,12.473-2.453c1.898-0.547,4.891-0.514,6.809-0.026c0.477,9.312,0.086,17.682-3.418,25.018
				c-3.066,6.422-10.574,15.119,3.271,14.133c18.229-1.299,19.545-35.025,19.527-48.933c-0.049-48.488-5.121-98.454-13.172-144.027
				c-1.77-10.021-2.441-22.604-8.098-31.568c-4.975-7.885-13.828-13.636-19.914-20.83c-1.693-2.616-4.113-4.67-5.645-7.339
				c-14.344-25.003-14.084-28.372-14.039-48.287l-0.141,0.058c0.604-10.493,1.873-21.132,4.086-27.371
				c4.033-11.386,9.176-22.19,13.043-32.938c1.793-4.987,2.861-11.836,3.244-18.823c0.379-6.986,0.074-14.115-0.877-19.665
				c-1.072-6.247-8.381-16.749-10.566-22.828c-2.084-5.791-10.525-2.323-10.879-8.094c-3.861-1.831-6.779-5.077-12.852-5.181
				c-8.503-0.146-43.298-2.013-47.158-0.182c-0.355,5.77-5.863,6.52-7.947,12.312c-2.187,6.079-0.584,17.726-1.654,23.973
				c-0.952,5.55-1.257,12.679-0.877,19.665c0.382,6.987,1.451,13.836,3.244,18.823c3.867,10.748,9.009,21.553,13.043,32.938
				c3.93,11.089,4.889,36.063,4.415,49.43c-1.711,6.49-5.229,13.592-12.445,26.171c-1.53,2.669-3.951,4.723-5.644,7.339
				c-6.087,7.194-14.939,12.945-19.915,20.83c-5.655,8.964-6.328,21.547-8.098,31.568c-8.051,45.573-13.122,95.539-13.172,144.027
				c-0.017,13.907,1.299,47.634,19.528,48.933c13.845,0.986,6.338-7.711,3.271-14.133c-3.504-7.336-3.895-15.706-3.419-25.018
				c1.919-0.487,4.91-0.521,6.809,0.026c2.438,8.301,10.751,13.872,12.474,2.453c1.125-7.467-5.941-9.869-8.663-17.066
				c-3.021-7.983-12.243-2.473-14.334-11.815c-2.365-10.567,3.117-37.675,3.228-49.098c0.191-19.923,6.276-33.524,9.973-51.815
				c2.409-11.934,0.853-32.545,7.795-42.398v1.035c-5.006,19.273,31.432,43.203,31.432,62.293c0,18.675-22.172,37.393-21.227,55.983
				c2.172,0.181-5.469,8.213-3.375,8.476l3.74,249.71c0,0,11.635,17.402-12.021,19.584c-6.481,0.598-11.843,6.748-18.551,8.131
				c-5.573,1.148-15.176-0.34-16.607,6.312c-1.98,9.204,7.111,7.587,13.021,8.491c3.34,0.511,5.855,1.77,9.38,1.91
				c3.907,0.155,8.101-0.246,11.89-0.79c7.895-1.132,15.947-1.197,24.12-2.02c7.122-0.718,18.454,1.84,19.989-6.361
				c1.801-9.616-3.799-18.551-2.801-27.631l0.08-5.031h0.033l-0.017-1.128l0.017-1.085c-0.01,0-0.021,0-0.033-0.002l-3.68-245.663
				c3.628,0.45,7.376,0.79,11.304,0.959v0.124c0.047,0,0.097,0,0.144,0c0.853,0,1.676-0.028,2.51-0.047
				c0.834,0.019,1.657,0.047,2.509,0.047c0.047,0,0.098,0,0.145,0v-0.124c3.927-0.169,7.675-0.509,11.304-0.959l-3.68,245.663
				c-0.012,0.002-0.023,0.002-0.033,0.002l0.016,1.085l-0.016,1.128h0.033l0.08,5.031c0.998,9.08-4.602,18.015-2.801,27.631
				c1.535,8.201,12.867,5.644,19.988,6.361c8.174,0.822,16.227,0.888,24.121,2.02c3.789,0.544,7.982,0.945,11.889,0.79
				c3.525-0.141,6.041-1.399,9.381-1.91C229.2,708.36,238.292,709.978,236.312,700.773z"/>
		</g>
		<circle fill="#B18F6A" cx="145.33" cy="134.023" r="1.95"/>
		<circle fill="#B18F6A" cx="153.579" cy="134.023" r="1.95"/>
		<circle fill="#FFFFFF" cx="170.904" cy="114.502" r="10.8"/>
		<circle fill="#FFFFFF" cx="125.904" cy="114.502" r="10.8"/>
		<circle fill="#91A8CF" cx="125.904" cy="114.314" r="4.2"/>
		<path fill="#7CC253" d="M177.599,114.314c0,3.646-2.953,6.6-6.602,6.6c-3.645,0-6.6-2.954-6.6-6.6s2.955-6.6,6.6-6.6
			C174.646,107.715,177.599,110.669,177.599,114.314z"/>
		<path fill="#090A11" d="M175.198,114.314c0,2.318-1.881,4.2-4.201,4.2c-2.316,0-4.199-1.882-4.199-4.2s1.883-4.2,4.199-4.2
			C173.317,110.114,175.198,111.996,175.198,114.314z"/>
		<circle fill="#090A11" cx="125.904" cy="114.314" r="1.2"/>
		<path fill="none" d="M155.214,60.561c0.371,0.616,0.506,1.295,0.4,2.002"/>
		<path fill="none" stroke="#B18F69" stroke-width="1.2" stroke-miterlimit="10" d="M157.798,103.702
			c3.879-6.689,11.047-4.774,18-4.8"/>
		<pattern  id="SVGID_1_" xlink:href="#New_Pattern_Swatch_5" patternTransform="matrix(1.2 0 0 1.2 1452 1488.6934)">
		</pattern>
		<polygon fill="url(#SVGID_1_)" stroke="#90A7CE" stroke-width="1.2" stroke-miterlimit="10" points="201.929,309.659 
			207.556,366.31 213.185,422.962 234.353,432.401 255.519,441.841 238.331,349.3 221.142,256.76 200.731,245.816 180.321,234.873 
			171.354,257.227 162.388,279.579 161.233,279.6 160.081,279.618 150.321,320.824 163.296,367.762 150.001,403.995 
			136.704,367.762 149.68,320.824 139.92,279.618 138.767,279.6 137.614,279.579 128.646,257.227 119.68,234.873 99.269,245.816 
			78.858,256.76 61.669,349.3 44.481,441.841 65.649,432.401 86.816,422.962 92.445,366.31 98.072,309.659 98.072,362.109 
			98.072,414.562 83.665,509.656 69.259,604.75 108.259,604.75 147.259,604.75 148.464,604.75 149.646,604.75 149.67,604.75 
			149.966,604.75 150.036,604.75 150.331,604.75 150.354,604.75 151.537,604.75 152.742,604.75 191.743,604.75 230.743,604.75 
			216.335,509.656 201.929,414.562 201.929,362.109 		"/>
		<polygon fill="#91A8CF" points="124.983,236.346 144.612,289.498 114.632,289.498 		"/>
		<path fill="#C1A688" d="M175.403,54.354c-0.645-2.085-2.748-3.445-5.652-4.313c-2.906-0.867-6.613-1.242-10.469-1.354
			c-3.857-0.111-7.862,0.039-11.358,0.223c-3.497,0.184-6.485,0.4-8.313,0.418c-0.44,0.005-2.393-0.17-5.362-0.082
			c-2.968,0.088-6.954,0.438-11.463,1.489c-4.509,1.053-9.539,2.807-14.599,5.705c-5.059,2.896-10.146,6.938-14.768,12.562
			c-1.752,2.132-2.478,6.258-2.606,11.334c-0.128,5.077,0.341,11.103,0.978,17.034c0.637,5.934,1.442,11.771,1.986,16.471
			c0.546,4.701,0.83,8.262,0.424,9.642c-1.978,6.724-2.518,12.409-2.245,17.261c0.273,4.852,1.36,8.869,2.641,12.262
			c1.279,3.393,2.751,6.158,3.793,8.505c1.041,2.347,1.652,4.274,1.212,5.989c-1.253,4.869-2.043,8.427-2.463,11.116
			s-0.472,4.513-0.245,5.917c0.226,1.402,0.728,2.386,1.412,3.395c0.685,1.01,1.552,2.045,2.509,3.553
			c-0.24,0.896-0.021,1.661,0.314,2.545c0.334,0.884,0.785,1.886,1.009,3.254c0.225,1.369,0.223,3.104-0.35,5.454
			c-0.57,2.35-1.711,5.315-3.762,9.145c-0.116,0.216-0.251,2.196-0.37,5.069c-0.118,2.872-0.221,6.639-0.269,10.428
			s-0.043,7.603,0.051,10.567s0.278,5.083,0.588,5.482c3.581,4.624,7.368,7.081,11.033,8.098c3.667,1.016,7.213,0.591,10.317-0.554
			s5.766-3.007,7.66-4.863c1.896-1.858,3.027-3.71,3.068-4.834c0.129-3.513-2.052-17.376-4.2-27.378
			c-2.149-10.002,5.726-17.942,3.718-30c-2.009-12.059-13.332-22.235-14.407-31.664s-1.891-16.308-2.862-18.171
			c-0.461-0.887-1.041-2.74-1.49-5.056c-0.447-2.317-0.764-5.096-0.696-7.833c0.068-2.737,0.519-5.433,1.604-7.58
			c1.084-2.146,2.802-3.747,5.404-4.295c6.551-1.379,11.405-3.197,15.092-5.178c3.688-1.98,6.211-4.123,8.103-6.148
			c1.891-2.024,3.15-3.934,4.312-5.447s2.225-2.631,3.724-3.076c4.186-1.242,8.118-3.562,11.628-6.466
			c3.506-2.905,6.588-6.394,9.07-9.975c2.48-3.581,4.361-7.255,5.469-10.527C175.681,59.203,176.017,56.332,175.403,54.354z"/>
		<polygon fill="#91A8CF" points="174.458,236.346 154.83,289.498 184.81,289.498 		"/>
		<path fill="#C1A688" d="M176.011,72.059c1.559,3.266,3.023,5.753,4.197,8.305c1.176,2.55,2.057,5.16,2.449,8.669
			c0.662,5.968,1.975,17.379,2.133,29.829s-0.838,25.938-4.793,36.054c-1.645,7.558-2.398,9.738-2.773,10.828
			c-0.377,1.091-10.285,19.154-10.426,22.351c-0.307,6.958,8.189,8.531,6.602,27.131c-1.586,18.6-3.346,36.164,10.705,35.238
			c6.424-0.422,12.201-4.144,15.521-9.922c3.324-5.777,4.191-13.61,0.799-22.253c-2.822-7.19-3.238-14.444-2.938-20.515
			c0.297-6.072,1.311-10.96,1.338-13.418c0.195-16.784-0.164-23.693-0.094-31.436c0.07-7.744,0.57-16.323,2.48-36.449
			c0.686-7.215-0.359-9.54-1.578-12.397c-1.219-2.856-2.611-6.245-2.623-15.588c-0.002-1.853,0.648-2.348-0.168-4.931
			c-0.814-2.581-3.096-7.249-8.959-17.446c-2.193-3.812-5.355-4.035-8.703-3.305c-3.348,0.731-6.883,2.414-9.818,2.414
			c0,0,1.131,0.598,2.529,1.751C173.288,68.123,174.95,69.832,176.011,72.059z"/>
	</g>
	<rect x="135.777" y="150.649" fill="#F3776B" width="27.724" height="1.185"/>
</g>
</svg>
