<?xml version="1.0" encoding="utf-8"?>
<!-- Generator: Adobe Illustrator 16.0.0, SVG Export Plug-In . SVG Version: 6.00 Build 0)  -->
<!DOCTYPE svg PUBLIC "-//W3C//DTD SVG 1.1//EN" "http://www.w3.org/Graphics/SVG/1.1/DTD/svg11.dtd">
<svg version="1.1" id="Layer_1" xmlns="http://www.w3.org/2000/svg" xmlns:xlink="http://www.w3.org/1999/xlink" x="0px" y="0px"
	 width="300px" height="300px" viewBox="0 0 300 300" enable-background="new 0 0 300 300" xml:space="preserve">
<g>
	<g>
		<g>
			<path fill="#F7CAC9" stroke="#DDB5B4" stroke-width="1.2" stroke-miterlimit="10" d="M110.054,70.762l1.46-1.461
				C110.909,69.757,110.405,70.24,110.054,70.762z"/>
			<path fill="#F7CAC9" stroke="#DDB5B4" stroke-width="1.2" stroke-miterlimit="10" d="M111.854,68.962l-0.34,0.339
				c0.601-0.45,1.308-0.868,2.114-1.25c0.017-0.287,0.035-0.574,0.025-0.889L111.854,68.962z"/>
			<path fill="#F7CAC9" stroke="#DDB5B4" stroke-width="1.2" stroke-miterlimit="10" d="M187.592,69.301l1.463,1.461
				C188.7,70.24,188.199,69.757,187.592,69.301z"/>
			<path fill="#F7CAC9" stroke="#DDB5B4" stroke-width="1.2" stroke-miterlimit="10" d="M187.255,68.962l-1.801-1.8
				c-0.009,0.314,0.008,0.602,0.026,0.889c0.806,0.382,1.514,0.8,2.111,1.25L187.255,68.962z"/>
			<path fill="#F7CAC9" stroke="#DDB5B4" stroke-width="1.2" stroke-miterlimit="10" d="M236.544,706.718
				c-1.433-6.651-11.035-5.163-16.608-6.312c-6.708-1.383-12.981-4.761-18.551-8.131c-6.295-3.809-11.163-5.811-11.642-14.357
				c-0.042-0.755-0.25-1.57-0.422-2.36l0.043-2.866l3.74-249.711c2.093-0.262,4.217-0.492,6.389-0.672
				c0.945-18.591,0.184-37.545,0.184-56.22c0-19.09,5.264-50.585,0.258-69.858v-1.037c6.941,9.854,5.386,30.466,7.795,42.397
				c3.696,18.293,6.865,29.854,7.057,49.779c0.11,11.423,10.977,31.477,1.592,41.121c-6.675,6.862-6.762,13.847-9.783,21.829
				c-2.721,7.198-9.787,9.601-8.662,17.067c1.723,11.419,10.036,5.848,12.474-2.454c1.898-0.546,4.889-0.513,6.809-0.025
				c0.476,9.312,0.084,17.682-3.42,25.018c-3.065,6.422-10.572,15.119,3.272,14.133c18.229-1.299,19.544-35.025,19.527-48.934
				c-0.049-48.487-5.121-98.453-13.172-144.027c-1.77-10.02-2.441-22.604-8.098-31.566c-4.976-7.887-13.828-13.636-19.914-20.831
				c-1.692-2.615-4.113-4.669-5.645-7.338c-14.344-25.003-14.083-28.374-14.039-48.288l-0.141,0.057
				c0.603-10.491,1.873-21.13,4.086-27.37c4.033-11.385,9.176-22.19,13.043-32.938c1.793-4.988,2.861-11.835,3.243-18.822
				c0.38-6.987,0.075-14.116-0.876-19.666c-1.071-6.246,0.531-17.893-1.655-23.972c-2.083-5.792-7.594-6.543-7.947-12.312
				c-3.86-1.831-9.872-2.879-15.944-2.981c-8.504-0.147-17.094,1.554-19.983,5.504c-2.888-3.95-11.478-5.651-19.98-5.504
				c-6.072,0.103-12.084,1.15-15.944,2.981c-0.356,5.769-5.864,6.52-7.947,12.312c-2.188,6.079-0.584,17.726-1.655,23.972
				c-0.951,5.55-1.256,12.679-0.876,19.666c0.382,6.987,1.45,13.834,3.243,18.822c3.867,10.748,9.01,21.554,13.043,32.938
				c3.931,11.09,4.89,36.064,4.416,49.431c-1.711,6.489-5.229,13.592-12.445,26.171c-1.53,2.669-3.952,4.723-5.644,7.338
				c-6.087,7.195-14.939,12.944-19.915,20.831c-5.655,8.963-6.328,21.547-8.098,31.566c-8.051,45.574-13.123,95.54-13.172,144.027
				c-0.017,13.908,1.298,47.635,19.528,48.934c13.844,0.986,6.337-7.711,3.271-14.133c-3.504-7.336-3.896-15.706-3.42-25.018
				c1.92-0.487,4.91-0.521,6.809,0.025c2.438,8.302,10.751,13.873,12.474,2.454c1.125-7.467-5.941-9.869-8.662-17.067
				c-3.021-7.982-8.292-16.72-10.383-26.062c-2.365-10.567-0.11-25.326,0-36.75c0.192-19.924,5.552-31.624,9.248-49.917
				c2.409-11.932,0.854-32.543,7.796-42.397v1.037c-5.007,19.273,0.258,50.769,0.258,69.858c0,18.675-0.762,37.629,0.183,56.22
				c2.173,0.18,4.296,0.41,6.389,0.672l3.741,249.711l0.042,2.866c-0.171,0.79-0.38,1.605-0.422,2.36
				c-0.479,8.547-5.347,10.549-11.642,14.357c-5.568,3.37-11.843,6.748-18.551,8.131c-5.573,1.148-15.176-0.34-16.607,6.312
				c-1.98,9.204,7.11,7.587,13.021,8.491c3.34,0.511,5.854,1.77,9.38,1.91c3.907,0.154,8.1-0.246,11.89-0.79
				c7.894-1.132,15.947-1.197,24.119-2.021c7.123-0.717,18.455,1.84,19.99-6.36c1.8-9.616-3.799-18.551-2.801-27.631l0.08-5.032
				h0.032l-0.017-1.127l0.017-1.085c-0.009,0-0.021,0-0.032-0.003l-3.68-245.662c3.628,0.45,7.375,0.79,11.304,0.959v0.124
				c0.047,0,0.096,0,0.143,0c0.854,0,1.676-0.028,2.511-0.047c0.834,0.019,1.656,0.047,2.51,0.047c0.047,0,0.096,0,0.143,0v-0.124
				c3.929-0.169,7.676-0.509,11.305-0.959l-3.68,245.662c-0.012,0.003-0.023,0.003-0.023,0.003l0.007,1.085l-0.017,1.127h0.033
				l0.079,5.032c0.999,9.08-4.601,18.015-2.801,27.631c1.535,8.2,12.867,5.644,19.99,6.36c8.173,0.823,16.226,0.889,24.119,2.021
				c3.79,0.544,7.983,0.944,11.89,0.79c3.525-0.141,6.04-1.399,9.38-1.91C229.433,714.305,238.524,715.922,236.544,706.718z"/>
		</g>
		<circle fill="#B18F6A" cx="145.299" cy="132.777" r="1.95"/>
		<circle fill="#B18F6A" cx="153.549" cy="132.777" r="1.95"/>
		<rect x="136.486" y="149.98" fill="#FFFFFF" width="4.8" height="2.4"/>
		<rect x="142.786" y="149.98" fill="#FFFFFF" width="4.801" height="2.4"/>
		<rect x="155.986" y="149.889" fill="#FFFFFF" width="4.8" height="2.399"/>
		<rect x="149.687" y="149.889" fill="#FFFFFF" width="4.8" height="2.399"/>
		<path fill="none" stroke="#F3776B" stroke-width="1.2" stroke-miterlimit="10" d="M166.337,148.734
			c-1.938-0.27-3.441,0.924-5.166,1.199c-1.301,0.208-2.814,0-4.135,0c-3,0-6,0-9,0h1.2c-3,0-6,0-9,0c-1.319,0-2.833,0.208-4.132,0
			c-1.728-0.275-3.229-1.469-5.168-1.199"/>
		<path fill="none" stroke="#F3776B" stroke-width="1.2" stroke-miterlimit="10" d="M160.599,101.277
			c3.879-6.688,11.047-4.773,18-4.8"/>
		<path fill="none" stroke="#F3776B" stroke-width="1.2" stroke-miterlimit="10" d="M115.774,102.595
			c3.877-6.688,11.047-4.774,18-4.8"/>
		<polygon fill="#414042" points="199.493,428.491 148.34,428.491 97.187,428.491 97.187,344.943 109.104,257.568 150.587,274.086 
			193.2,255.834 199.493,344.943 		"/>
	</g>
	<polygon fill="#E6E7E8" stroke="#DD4230" stroke-width="1.2" stroke-miterlimit="10" points="148.899,360.271 90.19,503.622 
		99.038,261.396 123.852,225.191 	"/>
	<path fill="#E6E7E8" stroke="#005083" stroke-width="1.2" stroke-miterlimit="10" d="M96.172,339.869
		c0,1.02-12.569,78.099-14.131,78.099l-27.673,8.029c-1.561,0,14.019-78.95,14.019-79.971c0,0,19.317-88.458,20.878-88.458h8.848"/>
	<polygon fill="#DD4231" points="93.624,409.617 108.778,387.534 135.04,285.536 123.852,225.191 	"/>
	<polygon fill="#015084" points="100.001,306.141 99.038,275.716 99.038,261.396 111.905,242.622 	"/>
	<polygon fill="#DD4231" points="98.112,265.223 84.694,274.086 89.265,257.568 98.112,257.568 	"/>
	<polygon fill="#015084" points="100.001,306.141 99.038,317.404 84.694,274.086 99.038,261.396 	"/>
	<polygon fill="#E6E7E8" stroke="#DD4230" stroke-width="1.2" stroke-miterlimit="10" points="152.173,358.748 210.882,502.099 
		202.034,259.872 177.221,223.668 	"/>
	<path fill="#E6E7E8" stroke="#005083" stroke-width="1.2" stroke-miterlimit="10" d="M204.9,338.346
		c0,1.02,12.569,78.099,14.133,78.099l27.671,8.029c1.561,0-14.019-78.949-14.019-79.971c0,0-19.317-88.458-20.878-88.458h-8.848"/>
	<polygon fill="#DD4231" points="207.448,408.094 192.296,386.011 166.032,284.013 177.221,223.668 	"/>
	<polygon fill="#015084" points="201.071,304.617 202.034,274.192 202.034,259.872 189.167,241.099 	"/>
	<polygon fill="#DD4231" points="202.96,263.699 216.378,272.563 211.808,256.045 202.96,256.045 	"/>
	<polygon fill="#015084" points="201.071,304.617 202.034,315.881 216.378,272.563 202.034,259.872 	"/>
	<g>
		<path fill="#F3776B" d="M193.479,93.103c0.345,0.244,0.691,0.49,1.033,0.708"/>
		<path fill="#F3776B" d="M193.156,99.811"/>
	</g>
	<rect x="147.153" y="170.746" fill="#F3776B" width="5.273" height="15.094"/>
	<polyline fill="#F3776B" points="136.346,179.439 163.327,179.439 149.837,189.688 	"/>
	<path fill="#F7CAC9" d="M110.846,101.646c-7.643,0-13.84,6.196-13.84,13.839c0,7.644,6.197,13.839,13.84,13.839V101.646z"/>
	<path fill="#F7CAC9" d="M186.282,100.447c7.643,0,13.837,6.195,13.837,13.838c0,7.644-6.194,13.839-13.837,13.839V100.447z"/>
	<circle fill="#FFFFFF" cx="171.287" cy="114.469" r="10.8"/>
	<circle fill="#FFFFFF" cx="126.287" cy="114.469" r="10.8"/>
	<circle fill="#91A8CF" cx="126.287" cy="114.281" r="4.2"/>
	<circle fill="#7CC253" cx="171.38" cy="114.281" r="6.6"/>
	<circle fill="#090A11" cx="171.38" cy="114.281" r="4.2"/>
	<circle fill="#090A11" cx="126.287" cy="114.281" r="1.2"/>
	<polygon fill="#414042" points="150.587,274.086 115.486,261.396 122.087,220.09 	"/>
	<polygon fill="#414042" points="150.587,274.086 184.801,261.396 177.98,220.09 	"/>
	<path fill="#F3776B" d="M201.396,50.66l-5.967-14.854l-5.185,13.034l-5.231-13.026l-5.175,13.033l-5.225-13.021l-4.902,12.346
		l-0.57-0.044l-4.931-12.286l-4.583,11.539l-1.293-0.102l-4.525-10.342l-4.158,9.61h-0.619h-0.044h-1.289l-4.284-10.682
		l-4.236,10.682H137.3l-4.277-10.67l-4.229,10.67h-1.889l-4.274-10.65l-4.226,10.65h-1.903l-4.266-10.636l-4.221,10.636h-1.914
		l-4.26-10.623l-5.172,13.037l0.021,11.1c-0.7,3.943-1.101,7.802-0.352,11.312c1.552,7.26,4.46,41.005,5.745,47.56
		c1.308-12.453,17.866-45.988,30.827-49.151c5.329-1.301,10.424-0.075,15.72,0.498l0.402,0.732l0.409-0.743
		c5.266-0.576,10.331-1.781,15.634-0.487c12.964,3.163,29.522,36.698,30.828,49.151c1.284-6.555,4.195-40.3,5.744-47.56
		C203.383,63.252,202.035,58.823,201.396,50.66z"/>
</g>
</svg>
