<?xml version="1.0" encoding="utf-8"?>
<!-- Generator: Adobe Illustrator 16.0.0, SVG Export Plug-In . SVG Version: 6.00 Build 0)  -->
<!DOCTYPE svg PUBLIC "-//W3C//DTD SVG 1.1//EN" "http://www.w3.org/Graphics/SVG/1.1/DTD/svg11.dtd">
<svg version="1.1" id="Layer_1" xmlns="http://www.w3.org/2000/svg" xmlns:xlink="http://www.w3.org/1999/xlink" x="0px" y="0px"
	 width="300px" height="300px" viewBox="0 0 300 300" enable-background="new 0 0 300 300" xml:space="preserve">
<g>
	<g>
		<g>
			<path fill="#F7CAC9" d="M109.467,76.818l1.46-1.463C110.322,75.812,109.818,76.296,109.467,76.818z"/>
			<path fill="#F7CAC9" d="M111.267,75.019l-0.34,0.337c0.601-0.45,1.309-0.867,2.114-1.249c0.017-0.288,0.035-0.575,0.026-0.889
				L111.267,75.019z"/>
			<path fill="#F7CAC9" d="M187.005,75.355l1.463,1.463C188.114,76.296,187.612,75.812,187.005,75.355z"/>
			<path fill="#F7CAC9" d="M186.668,75.019l-1.8-1.801c-0.01,0.313,0.007,0.601,0.025,0.889c0.807,0.382,1.514,0.799,2.111,1.249
				L186.668,75.019z"/>
			<path fill="#F7CAC9" stroke="#DDB5B4" stroke-width="1.2" stroke-miterlimit="10" d="M235.957,712.773
				c-1.433-6.651-11.034-5.163-16.608-6.312c-6.707-1.383-12.981-4.76-18.551-8.131c-6.295-3.809-11.163-5.81-11.641-14.357
				c-0.043-0.755-0.251-1.57-0.422-2.36l0.042-2.866l3.74-249.71c2.093-0.263,4.217-0.492,6.39-0.673
				c0.944-18.591,0.183-37.545,0.183-56.22c0-19.09,5.264-50.585,0.258-69.858v-1.037c6.942,9.855,5.386,30.466,7.795,42.398
				c3.696,18.293-1.326,31.068-1.134,50.992c0.109,11.424,7.172,22.402,4.807,32.97c-2.091,9.343-1.786,20.784-4.807,28.768
				c-2.722,7.197-9.788,9.6-8.663,17.067c1.723,11.418,10.036,5.848,12.474-2.454c1.898-0.546,4.889-0.514,6.809-0.026
				c0.476,9.312,0.084,17.682-3.42,25.018c-3.065,6.422-10.572,15.119,3.272,14.133c18.229-1.299,19.544-35.025,19.528-48.933
				c-0.05-48.487-5.121-98.454-13.172-144.028c-1.77-10.02-2.442-22.604-8.098-31.566c-4.977-7.886-13.828-13.635-19.915-20.83
				c-1.692-2.617-4.113-4.67-5.644-7.34c-14.344-25.003-14.084-28.372-14.039-48.287l-0.141,0.057
				c0.602-10.492,1.872-21.131,4.085-27.371c4.033-11.383,9.176-22.19,13.043-32.938c1.793-4.987,2.861-11.834,3.243-18.82
				c0.38-6.989,0.075-14.116-0.876-19.667c-1.071-6.246,0.532-17.893-1.655-23.972c-2.083-5.791-7.594-6.544-7.947-12.312
				c-3.86-1.83-9.872-2.878-15.944-2.981c-8.503-0.147-17.093,1.553-19.983,5.503c-2.887-3.95-11.477-5.65-19.98-5.503
				c-6.072,0.104-12.084,1.149-15.944,2.981c-0.356,5.768-5.864,6.521-7.947,12.312c-2.187,6.079-0.584,17.726-1.655,23.972
				c-0.951,5.551-1.256,12.678-0.876,19.667c0.382,6.986,1.45,13.833,3.243,18.82c3.867,10.748,9.01,21.556,13.043,32.938
				c3.931,11.09,4.89,36.064,4.416,49.433c-1.711,6.487-5.229,13.591-12.445,26.169c-1.53,2.67-3.951,4.723-5.644,7.34
				c-6.087,7.195-14.939,12.944-19.915,20.83c-5.655,8.963-6.328,21.547-8.098,31.566c-8.051,45.574-13.123,95.541-13.172,144.028
				c-0.017,13.907,1.299,47.634,19.528,48.933c13.845,0.986,6.337-7.711,3.271-14.133c-3.504-7.336-3.896-15.705-3.419-25.018
				c1.919-0.487,4.91-0.52,6.809,0.026c2.438,8.302,10.75,13.872,12.473,2.454c1.125-7.468-5.941-9.87-8.662-17.067
				c-3.021-7.983-2.717-19.425-4.807-28.768c-2.365-10.567,4.696-21.546,4.807-32.97c0.192-19.924-4.83-32.699-1.135-50.992
				c2.41-11.933,0.854-32.543,7.796-42.398v1.037c-5.007,19.273,0.258,50.769,0.258,69.858c0,18.675-0.762,37.629,0.183,56.22
				c2.173,0.181,4.296,0.41,6.389,0.673l3.741,249.71l0.042,2.866c-0.171,0.79-0.38,1.605-0.422,2.36
				c-0.479,8.548-5.346,10.549-11.642,14.357c-5.568,3.371-11.843,6.748-18.551,8.131c-5.573,1.148-15.176-0.34-16.607,6.312
				c-1.98,9.204,7.11,7.587,13.021,8.491c3.34,0.512,5.854,1.77,9.38,1.91c3.907,0.155,8.1-0.246,11.89-0.789
				c7.894-1.133,15.947-1.198,24.12-2.021c7.122-0.718,18.454,1.84,19.989-6.361c1.8-9.616-3.799-18.551-2.801-27.63l0.08-5.032
				h0.032l-0.016-1.128l0.016-1.085c0,0-0.021,0-0.032-0.002l-3.68-245.663c3.628,0.45,7.376,0.79,11.304,0.959v0.124
				c0.047,0,0.096,0,0.143,0c0.854,0,1.676-0.028,2.511-0.047c0.834,0.019,1.657,0.047,2.51,0.047c0.047,0,0.097,0,0.144,0v-0.124
				c3.928-0.169,7.676-0.509,11.304-0.959l-3.68,245.663c-0.012,0.002-0.023,0.002-0.033,0.002l0.017,1.085l-0.017,1.128h0.033
				l0.079,5.032c0.999,9.079-4.601,18.014-2.801,27.63c1.535,8.201,12.867,5.644,19.99,6.361c8.173,0.822,16.226,0.888,24.119,2.021
				c3.79,0.543,7.983,0.944,11.891,0.789c3.524-0.141,6.039-1.398,9.379-1.91C228.846,720.36,237.938,721.978,235.957,712.773z"/>
		</g>
		<circle fill="#FFFFFF" cx="169.8" cy="118.124" r="10.8"/>
		<circle fill="#FFFFFF" cx="124.8" cy="118.124" r="10.8"/>
		<circle fill="#B18F6A" cx="143.7" cy="136.425" r="1.95"/>
		<circle fill="#B18F6A" cx="151.95" cy="136.425" r="1.95"/>
		<circle fill="#91A8CF" cx="124.8" cy="118.124" r="3"/>
		<circle fill="#090A11" cx="169.8" cy="118.124" r="5.4"/>
		<path fill="none" stroke="#F3776B" stroke-width="1.2" stroke-miterlimit="10" d="M165.75,156.042
			c-1.938,0.27-3.44-0.924-5.166-1.2c-1.301-0.206-2.814,0-4.134,0c-3,0-6,0-9,0h1.199c-3,0-6,0-9,0c-1.319,0-2.833-0.206-4.132,0
			c-1.728,0.276-3.229,1.47-5.168,1.2"/>
	</g>
	
		<rect x="95.503" y="109.782" transform="matrix(-0.9806 0.1961 -0.1961 -0.9806 291.1443 201.4262)" fill="#FFFFFF" stroke="#D1D3D4" stroke-width="1.4014" stroke-miterlimit="10" width="80.197" height="10.688"/>
	
		<rect x="121.301" y="113.98" transform="matrix(-0.9459 -0.3244 0.3244 -0.9459 275.3683 284.552)" fill="#FFFFFF" stroke="#D1D3D4" stroke-width="1.4014" stroke-miterlimit="10" width="80.199" height="10.689"/>
	
		<rect x="120.1" y="115.779" transform="matrix(-0.9985 -0.0551 0.0551 -0.9985 313.4869 250.8854)" fill="#FFFFFF" stroke="#D1D3D4" stroke-width="1.4014" stroke-miterlimit="10" width="80.199" height="10.69"/>
	
		<rect x="96.703" y="119.98" transform="matrix(-0.9682 0.2504 -0.2504 -0.9682 300.6238 212.4087)" fill="#FFFFFF" stroke="#D1D3D4" stroke-width="1.4014" stroke-miterlimit="10" width="80.198" height="10.689"/>
	
		<rect x="120.104" y="115.779" transform="matrix(-0.9891 0.147 -0.147 -0.9891 336.4658 217.3888)" fill="#FFFFFF" stroke="#D1D3D4" stroke-width="1.4014" stroke-miterlimit="10" width="80.197" height="10.689"/>
	
		<rect x="97.636" y="107.859" transform="matrix(-0.9972 -0.0748 0.0748 -0.9972 264.7511 236.3193)" fill="#FFFFFF" stroke="#D1D3D4" stroke-width="1.385" stroke-miterlimit="10" width="78.328" height="10.688"/>
	
		<rect x="118.903" y="106.18" transform="matrix(-0.9891 0.147 -0.147 -0.9891 332.6686 198.4681)" fill="#FFFFFF" stroke="#D1D3D4" stroke-width="1.4014" stroke-miterlimit="10" width="80.197" height="10.688"/>
	
		<rect x="109.901" y="120.925" transform="matrix(-0.9993 -0.0376 0.0376 -0.9993 295.1544 258.082)" fill="#FFFFFF" stroke="#D1D3D4" stroke-width="1.4014" stroke-miterlimit="10" width="80.199" height="10.688"/>
	<polygon fill="#FFFFFF" stroke="#D1D3D4" stroke-width="1.4014" stroke-miterlimit="10" points="109.584,116.079 189.506,109.446 
		188.62,98.794 108.696,105.427 	"/>
	<g>
		<path fill="#FFFFFF" stroke="#E6E7E8" stroke-width="1.3827" stroke-miterlimit="10" d="M128.859,237.195
			c28.43,14.37,30.876,82.804,23.824,114.512c-13.526,0.636-15.698,0.429-20.161-14.222c-3.256-10.683-9.556-22.252-11.529-32.131
			c-2.036-10.207-1.333-25.617-1.729-36.295c-0.623-16.774,2.074-20.646,7.195-31.864H128.859z"/>
	</g>
	<g>
		<polyline fill="#414042" points="215.642,233.629 196.741,233.629 196.741,285.112 205.741,335.024 205.741,385.722 
			205.741,436.422 215.642,436.422 225.541,436.422 235.441,436.422 235.441,436.422 236.233,397.164 236.233,344.937 
			236.233,284.37 225.035,242.706 		"/>
		<path fill="#FFFFFF" stroke="#E6E7E8" stroke-width="1.3827" stroke-miterlimit="10" d="M170.681,237.058
			c-28.43,14.37-30.876,82.803-23.824,114.512c13.526,0.637,15.699,0.429,20.161-14.223c3.256-10.683,9.556-22.249,11.529-32.13
			c2.036-10.207,1.333-25.617,1.729-36.296c0.623-16.773-2.074-20.644-7.195-31.863H170.681z"/>
	</g>
	<polygon fill="#414042" points="144.687,406.731 173.416,448.731 202.144,448.731 202.144,341.331 202.144,233.932 
		173.416,233.932 173.416,233.932 144.687,341.331 	"/>
	<polygon fill="#414042" points="155.327,406.731 126.6,448.731 97.872,448.731 97.872,341.331 97.872,233.931 126.6,233.931 
		126.6,233.931 155.327,341.331 	"/>
	<polygon fill="#FFFFFF" stroke="#E6E7E8" stroke-width="1.2" stroke-miterlimit="10" points="160.214,243.965 179.414,263.165 
		179.414,211.565 	"/>
	<polygon fill="#FFFFFF" stroke="#E6E7E8" stroke-width="1.2" stroke-miterlimit="10" points="138.928,241.565 119.728,260.767 
		119.728,209.165 	"/>
	<path fill="#E6E7E8" d="M101.325,102.811c-0.023-0.317-0.04-0.642-0.063-0.959c-1.12,0.82-2.292,1.61-3.537,2.349L101.325,102.811z
		"/>
	<g>
		<path fill="#E6E7E8" d="M180.282,23.759c-7.094,0.309-5.34,8.791-11.753,10.978c-7.591,2.592-12.888-5.349-17.181-10.662
			c-0.573,2.679-1.754,4.835-3.416,6.434c-1.658-1.599-2.841-3.755-3.414-6.434c-4.295,5.313-9.592,13.253-17.181,10.662
			c-6.413-2.188-4.661-10.669-11.755-10.978c-1.61,18.871-12.714,6.098-20.108,4.222c4.952,23.375,4.302,50.073,5.962,73.871
			c15.446-10.98,20.774-28.374,45.879-25.019v0.168c0.212-0.034,0.41-0.054,0.619-0.084c0.208,0.03,0.406,0.05,0.615,0.083v-0.165
			c25.106-3.356,30.433,14.035,45.879,25.017c1.66-23.798,1.01-50.496,5.964-73.871C192.998,29.856,181.893,42.63,180.282,23.759z"
			/>
		<path fill="#E6E7E8" d="M191.478,102.811c0.021-0.316,0.039-0.64,0.061-0.959c1.123,0.82,2.295,1.61,3.539,2.349L191.478,102.811z
			"/>
	</g>
	<polygon fill="#FFFFFF" stroke="#D1D3D4" stroke-width="1.385" stroke-miterlimit="10" points="124.137,114.771 201.677,103.701 
		200.168,93.121 122.622,104.188 	"/>
	<polyline fill="#414042" points="84.358,233.629 103.259,233.629 103.259,285.112 94.259,335.024 94.259,385.722 94.259,436.422 
		84.358,436.422 74.458,436.422 64.559,436.422 64.559,436.422 63.767,397.164 63.767,344.937 63.767,284.37 74.967,242.706 	"/>
	
		<rect x="94.036" y="100.781" transform="matrix(-0.9972 -0.0748 0.0748 -0.9972 258.0903 221.9128)" fill="#FFFFFF" stroke="#D1D3D4" stroke-width="1.385" stroke-miterlimit="10" width="78.327" height="10.687"/>
	<circle fill="#414042" cx="124.2" cy="116.925" r="6"/>
	<circle fill="#414042" cx="169.35" cy="116.925" r="6"/>
</g>
</svg>
