<?xml version="1.0" encoding="utf-8"?>
<!-- Generator: Adobe Illustrator 16.0.0, SVG Export Plug-In . SVG Version: 6.00 Build 0)  -->
<!DOCTYPE svg PUBLIC "-//W3C//DTD SVG 1.1//EN" "http://www.w3.org/Graphics/SVG/1.1/DTD/svg11.dtd">
<svg version="1.1" id="Layer_1" xmlns="http://www.w3.org/2000/svg" xmlns:xlink="http://www.w3.org/1999/xlink" x="0px" y="0px"
	 width="300px" height="300px" viewBox="0 0 300 300" enable-background="new 0 0 300 300" xml:space="preserve">
<g>
	<rect x="107.4" y="292.448" fill="#FFFFFF" width="4.8" height="4.8"/>
	<g>
		<path fill="#F7CAC9" d="M109.467,71.142l1.461-1.462C110.322,70.136,109.818,70.619,109.467,71.142z"/>
		<path fill="#F7CAC9" d="M111.268,69.342l-0.34,0.338c0.6-0.45,1.308-0.867,2.113-1.249c0.017-0.289,0.035-0.576,0.026-0.889
			L111.268,69.342z"/>
		<path fill="#F7CAC9" d="M187.006,69.68l1.462,1.462C188.114,70.619,187.612,70.136,187.006,69.68z"/>
		<path fill="#F7CAC9" d="M186.668,69.342l-1.8-1.8c-0.01,0.312,0.007,0.6,0.025,0.889c0.807,0.382,1.515,0.799,2.112,1.249
			L186.668,69.342z"/>
		<path fill="#F7CAC9" stroke="#DDB5B4" stroke-width="1.2" stroke-miterlimit="10" d="M235.957,707.098
			c-1.432-6.651-11.034-5.163-16.607-6.312c-6.708-1.383-12.982-4.761-18.551-8.131c-6.296-3.809-11.164-5.811-11.642-14.357
			c-0.042-0.755-0.251-1.57-0.422-2.36l0.042-2.866l3.74-249.711c2.094-0.262,4.217-0.492,6.39-0.672
			c0.944-18.591,0.183-37.545,0.183-56.218c0-19.092,5.264-50.587,0.258-69.861v-1.037c6.942,9.855,5.386,30.467,7.795,42.398
			c3.696,18.293-1.326,31.071-1.134,50.993c0.11,11.424,7.172,22.401,4.807,32.97c-2.091,9.342-1.786,20.784-4.807,28.767
			c-2.722,7.198-9.788,9.601-8.663,17.067c1.723,11.419,10.036,5.848,12.474-2.454c1.898-0.546,4.89-0.513,6.809-0.025
			c0.476,9.312,0.085,17.682-3.419,25.018c-3.066,6.422-10.573,15.119,3.271,14.133c18.229-1.299,19.545-35.025,19.528-48.934
			c-0.05-48.487-5.121-98.453-13.172-144.027c-1.77-10.02-2.442-22.604-8.098-31.567c-4.976-7.886-13.828-13.635-19.915-20.83
			c-1.692-2.616-4.113-4.67-5.644-7.339c-14.344-25.004-14.084-28.373-14.039-48.287l-0.141,0.056
			c0.603-10.491,1.872-21.13,4.085-27.37c4.033-11.384,9.176-22.19,13.043-32.939c1.793-4.987,2.861-11.833,3.244-18.82
			c0.379-6.988,0.074-14.116-0.877-19.666c-1.071-6.246,0.532-17.894-1.654-23.972c-2.084-5.792-7.594-6.544-7.948-12.312
			c-3.86-1.831-9.872-2.879-15.944-2.981c-8.503-0.147-17.093,1.553-19.982,5.503c-2.888-3.95-11.478-5.65-19.98-5.503
			c-6.073,0.103-12.085,1.149-15.945,2.981c-0.355,5.768-5.863,6.52-7.947,12.312c-2.187,6.078-0.584,17.726-1.654,23.972
			c-0.952,5.55-1.257,12.678-0.877,19.666c0.382,6.987,1.451,13.833,3.244,18.82c3.867,10.749,9.009,21.556,13.043,32.939
			c3.93,11.09,4.889,36.064,4.415,49.432c-1.711,6.488-5.229,13.592-12.445,26.17c-1.53,2.669-3.951,4.723-5.644,7.339
			c-6.087,7.195-14.939,12.944-19.915,20.83c-5.655,8.964-6.328,21.548-8.098,31.567c-8.051,45.574-13.122,95.54-13.172,144.027
			c-0.017,13.908,1.299,47.635,19.528,48.934c13.845,0.986,6.338-7.711,3.271-14.133c-3.504-7.336-3.895-15.706-3.419-25.018
			c1.919-0.487,4.91-0.521,6.809,0.025c2.438,8.302,10.751,13.873,12.474,2.454c1.125-7.467-5.941-9.869-8.663-17.067
			c-3.021-7.982-2.716-19.425-4.807-28.767c-2.365-10.568,4.696-21.546,4.807-32.97c0.192-19.922-4.83-32.7-1.134-50.993
			c2.409-11.932,0.853-32.543,7.795-42.398v1.037c-5.006,19.274,0.258,50.77,0.258,69.861c0,18.673-0.762,37.627,0.183,56.218
			c2.173,0.18,4.296,0.41,6.39,0.672l3.74,249.711l0.042,2.866c-0.171,0.79-0.38,1.605-0.422,2.36
			c-0.478,8.547-5.346,10.549-11.642,14.357c-5.568,3.37-11.843,6.748-18.551,8.131c-5.573,1.148-15.176-0.34-16.607,6.312
			c-1.98,9.204,7.111,7.587,13.021,8.491c3.34,0.511,5.855,1.77,9.38,1.91c3.907,0.154,8.101-0.246,11.89-0.79
			c7.895-1.132,15.947-1.197,24.12-2.021c7.122-0.717,18.454,1.84,19.989-6.36c1.801-9.616-3.799-18.551-2.801-27.631l0.08-5.032
			h0.033l-0.017-1.127l0.017-1.085c0,0-0.021,0-0.033-0.003l-3.68-245.662c3.628,0.45,7.376,0.79,11.304,0.959v0.124
			c0.047,0,0.097,0,0.144,0c0.853,0,1.676-0.028,2.51-0.047c0.834,0.019,1.657,0.047,2.51,0.047c0.047,0,0.097,0,0.144,0v-0.124
			c3.928-0.169,7.676-0.509,11.304-0.959l-3.68,245.662c-0.012,0.003-0.023,0.003-0.033,0.003l0.017,1.085l-0.017,1.127h0.033
			l0.08,5.032c0.998,9.08-4.602,18.015-2.801,27.631c1.535,8.2,12.867,5.644,19.989,6.36c8.173,0.823,16.226,0.889,24.12,2.021
			c3.789,0.544,7.982,0.944,11.89,0.79c3.524-0.141,6.04-1.399,9.38-1.91C228.846,714.685,237.938,716.302,235.957,707.098z"/>
	</g>
	<circle fill="#FFFFFF" cx="169.8" cy="114.849" r="10.8"/>
	<circle fill="#FFFFFF" cx="124.8" cy="114.849" r="10.8"/>
	<circle fill="#B18F6A" cx="143.7" cy="133.148" r="1.95"/>
	<circle fill="#B18F6A" cx="151.95" cy="133.148" r="1.95"/>
	<rect x="135.9" y="150.359" fill="#FFFFFF" width="4.8" height="2.4"/>
	<rect x="142.2" y="150.359" fill="#FFFFFF" width="4.8" height="2.4"/>
	<rect x="155.4" y="150.267" fill="#FFFFFF" width="4.8" height="2.4"/>
	<rect x="149.1" y="150.267" fill="#FFFFFF" width="4.801" height="2.4"/>
	<path fill="none" stroke="#F3776B" stroke-width="1.2" stroke-miterlimit="10" d="M165.75,149.114
		c-1.938-0.27-3.44,0.923-5.167,1.199c-1.3,0.207-2.813,0-4.133,0c-3,0-6,0-9,0h1.2c-3,0-6,0-9,0c-1.32,0-2.834,0.207-4.134,0
		c-1.726-0.276-3.229-1.469-5.167-1.199"/>
	<path fill="#F9E03C" d="M103.912,132.146c-0.909,0.434-0.231,1.877-2.3,1.371c-5.437-5.032-2.379-8.824-4.44-14.811
		c-3.244-9.429-5.72-8.052-11.707-13.774c-9.71-9.28-10.416-18.813-3.37-30.991C88.423,63,95.338,51.178,101.086,40.619
		c6.635-12.184,15.551-12.224,28.893-12.874c13.977-0.682,28.114,0.064,42.106,0c15.11-0.07,18.782,5.436,26.699,17.098
		c5.965,8.791,17.843,19.828,21.247,29.965c4.508,13.418-5.813,16.013-12.851,24.31c-7.88,9.29-3.733,31.338-13.627,36.532
		c-0.749-16.093-6.178-26.407-7.071-42.586c-5.938-1.383-4.387-13.737-8.625-15.239c-6.014-2.134-15.52,1.126-21.871,2.657
		c-9.371,2.261-11.055,3.605-18.11,0.033c-4.65-2.354-5.351-7.852-13.464-8.051c-39.265-0.968-7.924,37.8-21.027,57.236
		L103.912,132.146z"/>
	<g>
		<polygon fill="#F9E03C" points="95.078,434.481 85.178,434.481 75.277,434.481 65.378,434.481 55.478,434.481 55.478,383.782 
			55.478,333.084 55.478,282.387 65.378,231.688 65.378,231.688 75.277,231.688 85.178,231.688 104.078,231.688 104.078,283.172 
			95.078,333.084 95.078,383.782 		"/>
		<path fill="#FFFFFF" stroke="#E6E7E8" stroke-width="1.3827" stroke-miterlimit="10" d="M128.939,235.118
			c28.428,14.369,30.875,82.802,23.822,114.511c-13.525,0.638-15.697,0.429-20.16-14.222c-3.255-10.684-9.556-22.25-11.528-32.131
			c-2.038-10.207-1.333-25.617-1.729-36.295c-0.623-16.774,2.073-20.645,7.195-31.863H128.939z"/>
		<polygon fill="#F9E03C" stroke="#D1D3D4" stroke-width="0.9211" stroke-miterlimit="10" points="157.904,344.97 138.123,265.863 
			137.426,266.046 127.275,226.661 103.312,256.289 120.233,270.548 105.878,274.306 		"/>
	</g>
	<g>
		<polygon fill="#F9E03C" points="205.821,434.344 215.721,434.344 225.621,434.344 235.521,434.344 245.421,434.344 
			245.421,383.646 245.421,332.948 245.421,282.251 235.521,231.551 235.521,231.551 225.621,231.551 215.721,231.551 
			196.821,231.551 196.821,283.036 205.821,332.948 205.821,383.646 		"/>
		<path fill="#FFFFFF" stroke="#E6E7E8" stroke-width="1.3827" stroke-miterlimit="10" d="M170.76,234.98
			c-28.429,14.371-30.875,82.804-23.823,114.513c13.526,0.635,15.697,0.429,20.161-14.223c3.254-10.683,9.556-22.251,11.527-32.13
			c2.038-10.207,1.334-25.617,1.73-36.296c0.623-16.773-2.073-20.646-7.195-31.864H170.76z"/>
		<polygon fill="#F9E03C" stroke="#D1D3D4" stroke-width="0.9211" stroke-miterlimit="10" points="141.795,344.831 161.576,265.728 
			162.273,265.91 172.424,226.525 196.388,256.153 179.466,270.412 193.821,274.169 		"/>
		<polygon fill="#F9E03C" stroke="#D1D3D4" stroke-width="1.2378" stroke-miterlimit="10" points="144.766,404.351 173.494,446.351 
			202.221,446.351 202.221,338.95 202.221,231.551 173.494,231.551 173.494,231.551 144.766,338.95 		"/>
	</g>
	<polygon fill="#F9E03C" stroke="#D1D3D4" stroke-width="1.2378" stroke-miterlimit="10" points="155.327,404.66 126.6,446.66 
		97.873,446.66 97.873,339.259 97.873,231.858 126.6,231.858 126.6,231.858 155.327,339.259 	"/>
	<polygon fill="#F9E03C" stroke="#D1D3D4" stroke-width="0.9211" stroke-miterlimit="10" points="145.65,328.324 162.283,265.863 
		162.982,266.046 173.133,226.661 197.096,256.289 180.174,270.548 194.529,274.307 	"/>
	<polygon fill="#F9E03C" stroke="#D1D3D4" stroke-width="0.9211" stroke-miterlimit="10" points="157.904,347.883 138.123,268.776 
		137.425,268.959 127.273,229.575 103.312,259.202 120.233,273.462 105.878,277.221 	"/>
	<path fill="none" stroke="#B18F6A" stroke-width="1.2" stroke-miterlimit="10" d="M159,101.648c3.878-6.69,11.046-4.776,18-4.8"/>
	<path fill="none" stroke="#B18F6A" stroke-width="1.2" stroke-miterlimit="10" d="M114.175,102.966
		c3.878-6.689,11.046-4.777,18-4.801"/>
	<polygon fill="#29292B" points="171.464,320.692 159.373,297.474 171.279,272.692 183.373,295.912 	"/>
	<polygon fill="#29292B" points="162.405,237.438 162.181,238.846 171.664,280.349 178.621,237.029 	"/>
	<polygon fill="#29292B" points="129.499,291.592 117.408,268.371 129.314,243.592 141.408,266.812 	"/>
	<polygon fill="#29292B" points="141.033,311.396 141.408,310.614 129.314,287.396 117.783,311.396 	"/>
	<polygon fill="#FFFFFF" stroke="#E6E7E8" stroke-width="1.2" stroke-miterlimit="10" points="139.008,239.487 119.808,258.688 
		119.808,207.088 	"/>
	<polygon fill="#FFFFFF" stroke="#E6E7E8" stroke-width="1.2" stroke-miterlimit="10" points="160.294,241.889 179.494,261.089 
		179.494,209.489 	"/>
	<circle fill="#FFFFFF" cx="171.56" cy="292.636" r="1.2"/>
	<circle fill="#FFFFFF" cx="124.8" cy="261.089" r="1.2"/>
	<circle fill="#FFFFFF" cx="132.175" cy="267.592" r="1.2"/>
	<circle fill="#FFFFFF" cx="127.8" cy="277.493" r="1.2"/>
	<circle fill="#FFFFFF" cx="124.8" cy="268.792" r="1.2"/>
	<circle fill="#FFFFFF" cx="130.975" cy="300.595" r="1.2"/>
	<circle fill="#FFFFFF" cx="173.494" cy="300.594" r="1.2"/>
	<circle fill="#FFFFFF" cx="164.4" cy="299.394" r="1.2"/>
	<circle fill="#FFFFFF" cx="132.175" cy="258.688" r="1.2"/>
	<circle fill="#FFFFFF" cx="171" cy="259.889" r="1.2"/>
	<circle fill="#FFFFFF" cx="175.596" cy="287.396" r="1.2"/>
	<circle fill="#FFFFFF" cx="168.6" cy="286.195" r="1.2"/>
	<circle fill="#FFFFFF" cx="133.375" cy="276.293" r="1.2"/>
	<circle fill="#FFFFFF" cx="179.494" cy="296.692" r="1.2"/>
	<circle fill="#91A8CF" cx="124.8" cy="114.659" r="4.2"/>
	<circle fill="#7CC253" cx="169.894" cy="114.659" r="6.6"/>
	<circle fill="#090A11" cx="169.894" cy="114.659" r="4.2"/>
	<circle fill="#090A11" cx="124.8" cy="114.659" r="1.2"/>
</g>
</svg>
