<?xml version="1.0" encoding="utf-8"?>
<!-- Generator: Adobe Illustrator 16.0.0, SVG Export Plug-In . SVG Version: 6.00 Build 0)  -->
<!DOCTYPE svg PUBLIC "-//W3C//DTD SVG 1.1//EN" "http://www.w3.org/Graphics/SVG/1.1/DTD/svg11.dtd">
<svg version="1.1" id="Layer_1" xmlns="http://www.w3.org/2000/svg" xmlns:xlink="http://www.w3.org/1999/xlink" x="0px" y="0px"
	 width="300px" height="300px" viewBox="0 0 300 300" enable-background="new 0 0 300 300" xml:space="preserve">
<g>
	<g>
		<g>
			<path fill="#F7CAC9" stroke="#DDB5B4" stroke-width="1.2" stroke-miterlimit="10" d="M110.036,73.583l-0.34,0.34
				c0.601-0.449,1.308-0.868,2.114-1.251c0.017-0.286,0.035-0.574,0.025-0.889L110.036,73.583z"/>
			<path fill="#F7CAC9" stroke="#DDB5B4" stroke-width="1.2" stroke-miterlimit="10" d="M183.637,71.783
				c-0.009,0.314,0.008,0.603,0.026,0.889c0.806,0.383,1.514,0.802,2.111,1.251"/>
			<path fill="#F7CAC9" stroke="#DDB5B4" stroke-width="1.2" stroke-miterlimit="10" d="M234.727,711.34
				c-1.433-6.651-11.035-5.163-16.608-6.312c-6.708-1.383-12.981-4.76-18.551-8.131c-6.295-3.809-11.163-5.81-11.642-14.357
				c-0.042-0.755-0.25-1.57-0.422-2.36l0.043-2.866l3.74-249.71c2.093-0.263,4.217-0.492,6.389-0.673
				c0.945-18.591-12.951-61.988-12.951-80.664c0-19.09,18.398-26.141,13.393-45.414v-1.037c6.941,9.855,5.386,30.466,7.795,42.398
				c3.696,18.293,7.448,30.929,7.641,50.854c0.11,11.423,2.365,22.818,0,33.387c-2.091,9.342-5.754,20.506-8.775,28.489
				c-2.721,7.197-9.787,9.6-8.662,17.067c1.723,11.418,10.036,5.848,12.474-2.454c1.898-0.546,4.889-0.514,6.809-0.026
				c0.476,9.312,0.084,17.682-3.42,25.018c-3.065,6.422-10.572,15.119,3.272,14.133c18.229-1.299,19.544-35.025,19.527-48.933
				c-0.049-48.487-5.121-98.454-13.172-144.028c-1.77-10.02-2.441-22.604-8.098-31.566c-4.976-7.886-13.828-13.635-19.914-20.83
				c-1.692-2.617-4.113-4.67-5.645-7.34c-14.344-25.003-14.083-28.372-14.039-48.287l-0.141,0.058
				c0.603-10.493,1.873-21.132,4.086-27.37c4.033-11.387,9.176-22.191,13.043-32.939c1.793-4.987,2.861-11.836,3.243-18.822
				c0.38-6.987,0.075-14.115-0.876-19.666c-1.071-6.247,0.531-17.893-1.655-23.973c-2.083-5.791-7.594-6.541-7.947-12.312
				c-3.86-1.831-9.872-2.877-15.944-2.981c-8.504-0.146-17.094,1.554-19.983,5.506c-2.888-3.952-11.478-5.652-19.98-5.506
				c-6.072,0.104-12.084,1.15-15.944,2.981c-0.356,5.771-5.864,6.521-7.947,12.312c-2.188,6.08-0.584,17.726-1.655,23.973
				c-0.951,5.551-1.256,12.679-0.876,19.666c0.382,6.986,1.45,13.835,3.243,18.822c3.867,10.748,9.01,21.553,13.043,32.939
				c3.931,11.088,4.89,36.062,4.416,49.43c-1.711,6.489-5.229,13.591-12.445,26.17c-1.53,2.67-3.952,4.723-5.644,7.34
				c-6.087,7.195-14.939,12.944-19.915,20.83c-5.655,8.963-6.328,21.547-8.098,31.566c-8.051,45.574-13.123,95.541-13.172,144.028
				c-0.017,13.907,1.298,47.634,19.528,48.933c13.844,0.986,6.337-7.711,3.271-14.133c-3.504-7.336-3.896-15.705-3.42-25.018
				c1.92-0.487,4.91-0.52,6.809,0.026c2.438,8.302,10.751,13.872,12.474,2.454c1.125-7.468-5.941-9.87-8.662-17.067
				c-3.021-7.983-11.89-18.182-13.98-27.524c-2.365-10.567,5.421-24.729,5.531-36.152c0.192-19.924,3.618-30.76,7.314-49.053
				c2.409-11.933,0.854-32.543,7.796-42.398v1.037c-5.007,19.273,18.715,46.725,18.715,65.814c0,18.675-19.219,41.673-18.274,60.264
				c2.173,0.181,4.296,0.41,6.389,0.673l3.741,249.71l0.042,2.866c-0.171,0.79-0.38,1.605-0.422,2.36
				c-0.479,8.548-5.347,10.549-11.642,14.357c-5.568,3.371-11.843,6.748-18.551,8.131c-5.573,1.148-15.176-0.34-16.607,6.312
				c-1.98,9.204,7.11,7.587,13.021,8.491c3.34,0.512,5.854,1.77,9.38,1.91c3.907,0.155,8.1-0.246,11.89-0.789
				c7.894-1.133,15.947-1.198,24.119-2.021c7.123-0.718,18.455,1.84,19.99-6.361c1.8-9.616-3.799-18.551-2.801-27.63l0.08-5.032
				h0.032l-0.017-1.128l0.017-1.085c-0.009,0-0.021,0-0.032-0.002l-3.68-245.663c3.628,0.45,7.375,0.79,11.304,0.959v0.124
				c0.047,0,0.096,0,0.143,0c0.854,0,1.676-0.028,2.511-0.047c0.834,0.019,1.656,0.047,2.51,0.047c0.047,0,0.096,0,0.143,0v-0.124
				c3.929-0.169,7.676-0.509,11.305-0.959l-3.68,245.663c-0.012,0.002-0.023,0.002-0.033,0.002l0.017,1.085l-0.017,1.128h0.033
				l0.079,5.032c0.999,9.079-4.601,18.014-2.801,27.63c1.535,8.201,12.867,5.644,19.99,6.361c8.173,0.822,16.226,0.888,24.119,2.021
				c3.79,0.543,7.983,0.944,11.89,0.789c3.525-0.141,6.04-1.398,9.38-1.91C227.615,718.927,236.707,720.544,234.727,711.34z
				 M147.735,169.369c-0.084-2.065-0.079-4.146,0-6.243C147.815,165.224,147.82,167.304,147.735,169.369z"/>
		</g>
	</g>
	<path opacity="0.8" fill="#FFFFFF" stroke="#F5CAC9" stroke-width="1.2" stroke-miterlimit="10" d="M104.449,147.443
		c3.867,10.748,9.009,21.554,13.043,32.938c3.93,11.09,4.889,36.064,4.415,49.432c-1.711,6.487-5.229,13.591-12.445,26.17
		c-0.466,0.815-1.024,1.572-1.612,2.307h81.586c-0.588-0.734-1.144-1.491-1.612-2.307c-14.344-25.003-14.084-28.373-14.039-48.288
		l-0.141,0.058c0.603-10.492,1.872-21.131,4.085-27.371c4.033-11.385,9.176-22.19,13.043-32.938
		c1.793-4.987,2.861-11.835,3.244-18.821c0.379-6.988,0.074-14.117-0.877-19.667c-1.071-6.246,0.532-17.892-1.654-23.972
		c-2.084-5.791-7.594-6.543-7.948-12.312c-3.86-1.831-9.872-2.878-15.944-2.981c-8.503-0.147-17.093,1.554-19.982,5.504
		c-2.888-3.95-11.478-5.651-19.98-5.504c-6.073,0.104-12.085,1.15-15.945,2.981c-0.355,5.769-5.863,6.521-7.947,12.312
		c-2.187,6.08-0.584,17.726-1.654,23.972c-0.952,5.55-1.257,12.679-0.877,19.667C101.587,135.608,102.656,142.456,104.449,147.443z
		 M193.72,123.517h-91.458v-12.963h91.458V123.517z"/>
	<polygon fill="#91A8CF" points="199.701,427.521 174.056,427.521 148.41,427.521 122.766,427.521 97.12,427.521 97.12,381.098 
		97.12,334.676 94.683,285.111 119.95,235.961 122.766,241.832 148.77,245.162 174.056,241.832 177.59,235.961 203.414,283.762 
		199.701,334.676 199.701,381.098 	"/>
	<g>
		<circle fill="#B18F6A" cx="143.906" cy="137.286" r="1.95"/>
		<circle fill="#B18F6A" cx="152.156" cy="137.286" r="1.95"/>
	</g>
	<path fill="#E8EDF4" stroke="#D1D4DB" stroke-width="0.6" stroke-miterlimit="10" d="M158.266-15.351l-6.695-7.324l-3.959-1.559
		l-3.802,1.559l-6.56,7.324c-0.348,0,0,0-3.42,8.646s-7.85,20.174-12.234,31.701c-4.385,11.528-8.729,23.056-11.972,31.702
		c-3.246,8.646-5.396,14.409-5.396,14.409c0,0.356,0.07,0.693,0.197,1.001c0.126,0.308,0.312,0.585,0.539,0.817
		c0.227,0.232,0.499,0.422,0.799,0.551c0.3,0.132,0.631,0.203,0.979,0.203h20.433h20.436h20.436h20.433
		c0.347,0,0.68-0.071,0.979-0.203c0.303-0.129,0.572-0.318,0.799-0.551c0.228-0.232,0.413-0.51,0.539-0.817
		c0.127-0.308,0.197-0.645,0.197-1.001c0,0-2.131-5.764-5.346-14.409c-3.216-8.646-7.52-20.174-11.867-31.702
		c-4.345-11.527-8.734-23.055-12.126-31.701C158.266-15.351,158.613-15.351,158.266-15.351z"/>
	<g>
		<path fill="#F3776B" d="M148.582,156.637c1.148,0.035,2.711-0.877,4.073-1.042c1.579-0.191,2.899,0.151,4.244,0.374
			c1.657,0.274,7.269,0.649,8.843,1.329c-1.305,2.727-15.921,3.688-17.16,1.351c-0.713-0.187-0.361-1.037-0.279-1.57"/>
		<path fill="#F3776B" d="M149.041,156.637c-1.15,0.035-2.714-0.877-4.076-1.042c-1.577-0.191-2.896,0.151-4.242,0.374
			c-1.659,0.274-7.268,0.649-8.845,1.329c1.306,2.727,15.921,3.688,17.163,1.351c0.713-0.187,0.361-1.037,0.279-1.57"/>
	</g>
	<g opacity="0.9">
		<path fill="#015084" d="M102.188,137.278c0.023,0.931,0.072,1.964,0.124,3.188C102.379,139.33,102.323,138.28,102.188,137.278z"/>
		<path fill="#015084" d="M148.77,79.515c-19.324-0.988-44.906,1.981-44.906,1.981c-2.094,10.304-5.072,26.089-6.052,37.271
			c-0.71,8.086,3.522,12.218,4.376,18.512c-0.102-3.81,0.238-5.842,2.814-11.627c1.917-4.305-1.113-10.544-0.019-15.176
			c1.898-8.044,7.165-13.581,14.067-16.827c8.187-3.849,19.19-4.647,29.719-4.907V79.515z"/>
	</g>
	<g opacity="0.9">
		<path fill="#015084" d="M193.872,136.993c-0.023,0.926-0.072,1.955-0.124,3.174C193.68,139.037,193.736,137.989,193.872,136.993z"
			/>
		<path fill="#015084" d="M147.29,79.513c19.324-0.984,44.906,1.974,44.906,1.974c2.093,10.252,5.072,25.961,6.052,37.088
			c0.71,8.044-3.522,12.157-4.376,18.419c0.101-3.789-0.239-5.812-2.814-11.569c-1.917-4.283,1.113-10.492,0.019-15.101
			c-1.898-8.006-7.165-13.516-14.067-16.745c-8.187-3.83-19.19-4.624-29.719-4.882V79.513z"/>
	</g>
	<path fill="#E8EDF4" stroke="#D1D4DB" stroke-width="0.6" stroke-miterlimit="10" d="M207.949,86.366
		c0,1.336-1.25,2.418-2.789,2.418H90.062c-1.539,0-2.789-1.082-2.789-2.418v-11.52c0-1.336,1.25-2.419,2.789-2.419H205.16
		c1.539,0,2.789,1.083,2.789,2.419V86.366z"/>
	<circle fill="#FFFFFF" cx="170.721" cy="117.346" r="10.8"/>
	<circle fill="#FFFFFF" cx="125.721" cy="117.346" r="10.8"/>
	<circle fill="#91A8CF" cx="125.721" cy="117.157" r="4.2"/>
	<circle fill="#7CC253" cx="170.814" cy="117.157" r="6.6"/>
	<circle fill="#090A11" cx="170.814" cy="117.157" r="4.2"/>
	<circle fill="#090A11" cx="125.721" cy="117.157" r="1.2"/>
	<path fill="none" stroke="#005083" stroke-width="1.2" stroke-miterlimit="10" d="M150.012,96.967c1.07-1.038,4.139-3,5.676-2.677
		c0.266,1.522,0.828,2.762,2.098,3.609c2.799,1.871,5.717-0.307,8.67-0.482c1.559-0.093,2.864-0.148,3.921,0.904
		c0.572,0.568,0.715,1.482,1.155,2.103c1.613,2.256,4.737,2.23,7.28,2.243"/>
	<circle fill="#015084" cx="116.639" cy="140.137" r="1.2"/>
	<path fill="#F7CAC9" d="M103.961,136.963c0.795,1.33,2.414,5.075,2.834,6.616c0.963,3.553,1.066,4.832,1.441,8.323
		c0.4,3.743,3.48,6.8,4.383,10.43c0.522,2.105,2.309,11.053,2.302,10.079c-3.082-5.211-5.374-11.823-6.46-14.25
		c-1.929-4.314-4.852-11.229-5.453-15.922c-0.228-1.764-1.622-8.185-0.668-8.832"/>
	<path fill="#F7CAC9" d="M191.768,136.962c-0.795,1.33-2.414,5.075-2.834,6.617c-0.963,3.551-1.066,4.831-1.441,8.323
		c-0.4,3.743-3.48,6.799-4.383,10.43c-0.522,2.104-2.309,11.053-2.301,10.078c3.082-5.212,5.374-11.822,6.459-14.25
		c1.929-4.315,4.852-11.229,5.454-15.921c0.228-1.766,1.622-8.186,0.668-8.833"/>
	<polygon fill="#91A8CF" stroke="#7385A5" stroke-width="0.9883" stroke-miterlimit="10" points="158.376,244.077 146.367,303.508 
		136.847,244.682 	"/>
	<polygon fill="#91A8CF" stroke="#7385A5" stroke-width="1.4106" stroke-miterlimit="10" points="146.367,244.223 123.695,269.092 
		115.396,242.142 	"/>
	<polygon fill="#91A8CF" stroke="#7385A5" stroke-width="1.4106" stroke-miterlimit="10" points="151.249,244.223 173.922,269.092 
		182.219,242.142 	"/>
	<g>
		<polygon fill="#91A8CF" stroke="#7385A5" stroke-width="0.9883" stroke-miterlimit="10" points="237.616,276.821 248.852,296.277 
			226.385,296.274 		"/>
		<polygon fill="#91A8CF" stroke="#7385A5" stroke-width="0.9883" stroke-miterlimit="10" points="234.757,262.649 254.215,273.883 
			234.757,285.111 		"/>
		<polygon fill="#91A8CF" stroke="#7385A5" stroke-width="0.9883" stroke-miterlimit="10" points="197.317,250.054 208.549,230.596 
			219.78,250.056 		"/>
		<polygon fill="#91A8CF" stroke="#7385A5" stroke-width="0.9883" stroke-miterlimit="10" points="186.473,259.618 186.471,237.151 
			205.929,248.388 		"/>
		<polygon fill="#91A8CF" stroke="#7385A5" stroke-width="0.9883" stroke-miterlimit="10" points="181.865,273.322 170.629,253.867 
			193.097,253.869 		"/>
		<polygon fill="#91A8CF" stroke="#7385A5" stroke-width="0.9883" stroke-miterlimit="10" points="184.725,287.495 165.267,276.262 
			184.725,265.032 		"/>
		<polygon fill="#91A8CF" stroke="#7385A5" stroke-width="0.9883" stroke-miterlimit="10" points="194.287,298.34 171.82,298.342 
			183.056,278.884 		"/>
		<polygon fill="#91A8CF" stroke="#7385A5" stroke-width="0.9883" stroke-miterlimit="10" points="207.991,302.947 188.533,314.183 
			188.538,291.716 		"/>
		<polygon fill="#91A8CF" stroke="#7385A5" stroke-width="0.9883" stroke-miterlimit="10" points="222.164,300.088 210.93,319.546 
			199.701,300.088 		"/>
		<polygon fill="#91A8CF" stroke="#7385A5" stroke-width="0.9883" stroke-miterlimit="10" points="233.006,290.525 233.008,312.991 
			213.553,301.755 		"/>
		<polygon fill="#91A8CF" stroke="#7385A5" stroke-width="0.9883" stroke-miterlimit="10" points="225.194,251.805 247.661,251.805 
			236.426,271.258 		"/>
		<polygon fill="#91A8CF" stroke="#7385A5" stroke-width="0.9883" stroke-miterlimit="10" points="211.49,247.196 230.945,235.961 
			230.943,258.426 		"/>
		<circle fill="#91A8CF" stroke="#7385A5" stroke-width="0.9883" stroke-miterlimit="10" cx="208.549" cy="274.084" r="26.33"/>
	</g>
	<g>
		<polygon fill="#91A8CF" stroke="#7385A5" stroke-width="0.9883" stroke-miterlimit="10" points="118.134,278.571 129.37,298.028 
			106.902,298.025 		"/>
		<polygon fill="#91A8CF" stroke="#7385A5" stroke-width="0.9883" stroke-miterlimit="10" points="115.274,264.398 134.732,275.631 
			115.274,286.861 		"/>
		<polygon fill="#91A8CF" stroke="#7385A5" stroke-width="0.9883" stroke-miterlimit="10" points="77.836,251.805 89.066,232.347 
			100.298,251.806 		"/>
		<polygon fill="#91A8CF" stroke="#7385A5" stroke-width="0.9883" stroke-miterlimit="10" points="66.991,261.367 66.988,238.899 
			86.446,250.137 		"/>
		<polygon fill="#91A8CF" stroke="#7385A5" stroke-width="0.9883" stroke-miterlimit="10" points="62.383,275.071 51.147,255.615 
			73.614,255.618 		"/>
		<polygon fill="#91A8CF" stroke="#7385A5" stroke-width="0.9883" stroke-miterlimit="10" points="65.242,289.243 45.785,278.013 
			65.242,266.781 		"/>
		<polygon fill="#91A8CF" stroke="#7385A5" stroke-width="0.9883" stroke-miterlimit="10" points="74.805,300.088 52.338,300.091 
			63.574,280.635 		"/>
		<polygon fill="#91A8CF" stroke="#7385A5" stroke-width="0.9883" stroke-miterlimit="10" points="88.509,304.697 69.051,315.933 
			69.056,293.466 		"/>
		<polygon fill="#91A8CF" stroke="#7385A5" stroke-width="0.9883" stroke-miterlimit="10" points="113.523,292.274 113.526,314.741 
			94.07,303.505 		"/>
		<polygon fill="#91A8CF" stroke="#7385A5" stroke-width="0.9883" stroke-miterlimit="10" points="105.712,253.556 128.18,253.553 
			116.943,273.009 		"/>
		<polygon fill="#91A8CF" stroke="#7385A5" stroke-width="0.9883" stroke-miterlimit="10" points="92.008,248.945 111.464,237.71 
			111.461,260.177 		"/>
		<circle fill="#91A8CF" stroke="#7385A5" stroke-width="0.9883" stroke-miterlimit="10" cx="89.067" cy="275.835" r="26.33"/>
	</g>
</g>
</svg>
