<?xml version="1.0" encoding="utf-8"?>
<!-- Generator: Adobe Illustrator 16.0.0, SVG Export Plug-In . SVG Version: 6.00 Build 0)  -->
<!DOCTYPE svg PUBLIC "-//W3C//DTD SVG 1.1//EN" "http://www.w3.org/Graphics/SVG/1.1/DTD/svg11.dtd">
<svg version="1.1" id="Layer_1" xmlns="http://www.w3.org/2000/svg" xmlns:xlink="http://www.w3.org/1999/xlink" x="0px" y="0px"
	 width="300px" height="300px" viewBox="0 0 300 300" enable-background="new 0 0 300 300" xml:space="preserve">
<pattern  x="-320" y="-685" width="12.75" height="35.875" patternUnits="userSpaceOnUse" id="New_Pattern_Swatch_4" viewBox="0 -35.875 12.75 35.875" overflow="visible">
	<g>
		<polygon fill="none" points="0,0 12.75,0 12.75,-35.875 0,-35.875 		"/>
		<polygon fill="#F9E03C" points="7.625,0 5,0 5,-35.875 7.625,-35.875 		"/>
		<polygon fill="#F3776B" points="12.75,0 7.625,0 7.625,-35.875 12.75,-35.875 		"/>
		<polygon fill="#7CC253" points="5,0 0,0 0,-35.875 5,-35.875 		"/>
	</g>
</pattern>
<g>
	<g>
		<g>
			<path fill="#DD4231" d="M176.063,181.35c0,21.997,17.067,20.306,23.32,20.306c6.251,0,2.416-16.916,2.416-38.913
				c0-21.998,2.52-38.426-2.416-40.748C193.518,119.235,176.063,159.351,176.063,181.35z"/>
			<path fill="#DD4231" d="M134.569,183.01c0,21.346-17.067,19.704-23.317,19.704c-6.251,0-5.454-16.747-2.419-37.759
				c3.527-24.42-3.832-39.539,2.419-39.539C117.502,125.416,134.569,161.664,134.569,183.01z"/>
			<path fill="#F7CAC9" d="M116.087,69.881l1.46-1.463C116.942,68.874,116.438,69.358,116.087,69.881z"/>
			<path fill="#F7CAC9" d="M117.887,68.081l-0.34,0.337c0.6-0.45,1.308-0.867,2.114-1.249c0.017-0.288,0.035-0.575,0.025-0.889
				L117.887,68.081z"/>
			<path fill="#F7CAC9" d="M193.625,68.418l1.463,1.463C194.733,69.358,194.232,68.874,193.625,68.418z"/>
			<path fill="#F7CAC9" d="M193.287,68.081l-1.8-1.801c-0.009,0.313,0.007,0.601,0.026,0.889c0.806,0.382,1.514,0.799,2.111,1.249
				L193.287,68.081z"/>
			<path fill="#F7CAC9" stroke="#DDB5B4" stroke-width="1.2" stroke-miterlimit="10" d="M242.576,705.836
				c-1.432-6.651-11.034-5.163-16.607-6.312c-6.708-1.383-12.982-4.76-18.551-8.131c-6.295-3.809-11.163-5.81-11.642-14.357
				c-0.042-0.755-0.251-1.57-0.422-2.36l0.042-2.866l3.741-249.71c2.093-0.263,4.216-0.492,6.389-0.673
				c0.944-18.591,0.183-37.545,0.183-56.22c0-19.09,5.265-50.585,0.258-69.858v-1.037c6.942,9.855,5.387,30.466,7.796,42.398
				c3.696,18.293,10.465,31.894,10.657,51.816c0.109,11.424-4.62,21.578-6.984,32.146c-2.091,9.343-1.786,20.784-4.808,28.768
				c-2.721,7.197-9.787,9.6-8.662,17.067c1.723,11.418,10.036,5.848,12.474-2.454c1.898-0.546,4.889-0.514,6.809-0.026
				c0.476,9.312,0.084,17.682-3.42,25.018c-3.065,6.422-10.572,15.119,3.271,14.133c18.23-1.299,19.545-35.025,19.528-48.933
				c-0.049-48.487-5.121-98.454-13.172-144.028c-1.77-10.02-2.442-22.604-8.098-31.566c-4.976-7.886-13.828-13.635-19.915-20.83
				c-1.691-2.617-4.113-4.67-5.644-7.34c-14.344-25.003-14.083-28.372-14.039-48.287l-0.141,0.057
				c0.603-10.492,1.873-21.131,4.085-27.371c4.034-11.383,9.176-22.19,13.043-32.938c1.793-4.987,2.862-11.834,3.244-18.82
				c0.38-6.989,0.075-14.116-0.877-19.667c-1.07-6.246,0.532-17.893-1.654-23.972c-2.084-5.791-7.594-6.544-7.947-12.312
				c-3.86-1.83-15.922-6.879-21.994-6.982c-8.503-0.147-13.01-9.752-15.9-5.801c-2.887-3.951-14.51-8.51-23.824-1.199
				c-4.778,3.75-6.273,12.15-10.134,13.982c-0.356,5.768-5.864,6.521-7.948,12.312c-2.187,6.079-0.583,17.726-1.654,23.972
				c-0.951,5.551-1.256,12.678-0.877,19.667c0.383,6.986,1.451,13.833,3.244,18.82c3.867,10.748,9.01,21.556,13.043,32.938
				c3.931,11.09,4.889,36.064,4.416,49.433c-1.711,6.487-5.229,13.591-12.445,26.169c-1.531,2.67-3.952,4.723-5.645,7.34
				c-6.086,7.195-14.938,12.944-19.914,20.83c-5.656,8.963-6.328,21.547-8.098,31.566c-8.051,45.574-13.123,95.541-13.172,144.028
				c-0.017,13.907,1.298,47.634,19.527,48.933c13.845,0.986,6.338-7.711,3.272-14.133c-3.504-7.336-3.896-15.705-3.42-25.018
				c1.92-0.487,4.91-0.52,6.809,0.026c2.438,8.302,10.751,13.872,12.474,2.454c1.125-7.468-5.941-9.87-8.662-17.067
				c-3.021-7.983-2.717-19.425-4.808-28.768c-2.364-10.567-6.41-20.722-6.3-32.146c0.192-19.923,6.276-33.523,9.973-51.816
				c2.409-11.933,0.854-32.543,7.795-42.398v1.037c-5.006,19.273,0.258,50.769,0.258,69.858c0,18.675-0.762,37.629,0.184,56.22
				c2.172,0.181,4.296,0.41,6.389,0.673l3.74,249.71l0.043,2.866c-0.172,0.79-0.38,1.605-0.422,2.36
				c-0.479,8.548-5.347,10.549-11.642,14.357c-5.569,3.371-11.843,6.748-18.551,8.131c-5.573,1.148-15.176-0.34-16.608,6.312
				c-1.98,9.204,7.111,7.587,13.022,8.491c3.34,0.512,5.854,1.77,9.38,1.91c3.906,0.155,8.1-0.246,11.89-0.789
				c7.894-1.133,15.946-1.198,24.119-2.021c7.123-0.718,18.455,1.84,19.99-6.361c1.8-9.616-3.8-18.551-2.801-27.63l0.079-5.032
				h0.033l-0.017-1.128l0.017-1.085c-0.01,0-0.021,0-0.033-0.002l-3.68-245.663c3.629,0.45,7.376,0.79,11.305,0.959v0.124
				c0.047,0,0.096,0,0.143,0c0.854,0,1.676-0.028,2.51-0.047c0.835,0.019,1.657,0.047,2.511,0.047c0.047,0,0.096,0,0.143,0v-0.124
				c3.929-0.169,7.676-0.509,11.304-0.959l-3.68,245.663c-0.012,0.002-0.023,0.002-0.032,0.002l0.017,1.085l-0.017,1.128h0.032
				l0.08,5.032c0.998,9.079-4.601,18.014-2.801,27.63c1.535,8.201,12.867,5.644,19.99,6.361c8.172,0.822,16.226,0.888,24.119,2.021
				c3.79,0.543,7.982,0.944,11.89,0.789c3.525-0.141,6.04-1.398,9.38-1.91C235.466,713.423,244.557,715.04,242.576,705.836z"/>
		</g>
		<circle fill="#B18F6A" cx="151.595" cy="131.887" r="1.95"/>
		<circle fill="#B18F6A" cx="159.845" cy="131.887" r="1.95"/>
		<rect x="142.52" y="149.099" fill="#FFFFFF" width="4.8" height="2.399"/>
		<rect x="148.819" y="149.099" fill="#FFFFFF" width="4.8" height="2.399"/>
		<rect x="162.02" y="149.006" fill="#FFFFFF" width="4.8" height="2.399"/>
		<rect x="155.72" y="149.006" fill="#FFFFFF" width="4.8" height="2.399"/>
		<path fill="none" stroke="#F3776B" stroke-width="1.2" stroke-miterlimit="10" d="M172.369,147.853
			c-1.938-0.27-3.44,0.924-5.165,1.2c-1.301,0.206-2.815,0-4.135,0c-3,0-6,0-9,0h1.2c-3,0-6,0-9,0c-1.319,0-2.834,0.206-4.132,0
			c-1.728-0.276-3.229-1.47-5.168-1.2"/>
		<circle fill="#FFFFFF" cx="177.169" cy="112.366" r="10.8"/>
		<circle fill="#FFFFFF" cx="132.169" cy="112.366" r="10.8"/>
		<circle fill="#91A8CF" cx="132.169" cy="112.177" r="4.2"/>
		<circle fill="#7CC253" cx="177.263" cy="112.177" r="6.6"/>
		<circle fill="#090A11" cx="177.263" cy="112.177" r="4.2"/>
		<circle fill="#090A11" cx="132.169" cy="112.177" r="1.2"/>
		<path fill="#F7CAC9" d="M114.552,98.938c-7.644,0-13.838,6.195-13.838,13.839c0,7.643,6.194,13.839,13.838,13.839V98.938z"/>
		<path fill="#F7CAC9" d="M194.787,97.738c7.644,0,13.84,6.196,13.84,13.839s-6.196,13.839-13.84,13.839V97.738z"/>
	</g>
	<rect x="115.52" y="280.556" fill="#F9E03C" width="25.8" height="300.432"/>
	<rect x="125.019" y="280.556" fill="#F3776B" width="9.401" height="302.081"/>
	<polygon fill="#B18F6A" points="107.271,295.349 110.654,291.649 114.033,287.951 117.413,284.253 120.795,280.556 
		120.795,315.941 120.795,351.327 120.795,386.714 120.795,422.1 117.601,422.1 114.406,422.1 111.214,422.1 108.02,422.1 
		105.115,398.803 105.115,359.188 105.115,298.3 	"/>
	<rect x="148.529" y="280.556" fill="#F7CAC9" width="4.045" height="144.233"/>
	<polygon fill="#F9E03C" points="156.619,427.609 142.52,427.609 141.547,279.482 156.619,344.388 	"/>
	<polygon fill="#B18F6A" stroke="#F3776B" stroke-width="1.2" stroke-miterlimit="10" points="148.67,315.637 138.765,267.6 
		139.103,422.438 138.47,422.1 137.72,579.005 144.946,579.005 147.777,430.355 148.529,430.005 	"/>
	<rect x="160.267" y="280.104" fill="#F7CAC9" width="4.045" height="144.233"/>
	<line fill="#F9E03C" x1="171.294" y1="279.03" x2="156.221" y2="343.936"/>
	<polygon fill="#F9E03C" stroke="#F3776B" stroke-width="1.2" stroke-miterlimit="10" points="105.115,299.662 105.115,398.803 
		107.645,422.1 110.795,422.1 110.795,385.837 110.795,379.05 110.795,299.662 	"/>
	<polygon fill="#F3776B" points="156.303,342.587 152.574,340.152 131.045,248.554 134.42,248.554 	"/>
	
		<circle opacity="0.5" fill="#F9DF3C" stroke="#F3776B" stroke-width="1.2" stroke-miterlimit="10" cx="154.671" cy="90.13" r="14.249"/>
	<path fill="#DD4231" d="M172.269,68.277c4.545,25.51,27.19,43.913,28.929,55.511c2.968,19.799,8.482-18.031,9.872-39.901
		c1.732-27.231-4.35-34.95-14.65-47.883c-11.864-14.892-23.323,11.702-24.514,16.179c-0.208,2.729-0.958,6.521-0.356,9.268"/>
	<path fill="#DD4231" d="M172.269,68.277c-2.615,8.804-19.694-2.672-31.847,8.71c-10.033,9.396-8.252,7.7-14.801,17.399
		c-7.577,11.222-12.942,18.101-15.643,31.901c-2.965,15.145-9.318-14.773-10.509-23.951c-5.74-44.275-2.993-38.7-1.351-46.95
		c3.356-16.854,34.915-30.841,55.426-33.399c17.913-2.234,27.352,11.931,30.6,27.321"/>
	<ellipse fill="#DD4231" cx="166.819" cy="46.221" rx="17.771" ry="13.882"/>
	<rect x="171.528" y="280.855" fill="#F9E03C" width="25.8" height="300.432"/>
	<rect x="178.428" y="280.855" fill="#F3776B" width="9.403" height="302.081"/>
	<polygon fill="#B18F6A" points="205.576,295.648 202.196,291.95 198.814,288.251 195.435,284.553 192.055,280.855 192.055,316.241 
		192.055,351.628 192.055,387.014 192.055,422.399 195.247,422.399 198.441,422.399 201.636,422.399 204.828,422.399 
		207.732,399.103 207.732,359.488 207.732,298.601 	"/>
	<rect x="160.273" y="280.855" fill="#F7CAC9" width="4.045" height="144.233"/>
	<polygon fill="#F9E03C" points="156.229,427.909 170.328,427.909 171.301,279.782 156.229,344.688 	"/>
	<polygon fill="#B18F6A" stroke="#F3776B" stroke-width="1.2" stroke-miterlimit="10" points="175.128,579.306 174.378,422.399 
		173.748,422.737 174.085,267.899 164.178,315.937 164.318,430.305 165.072,430.656 167.651,579.306 	"/>
	<line fill="#F9E03C" x1="141.554" y1="279.33" x2="156.627" y2="344.235"/>
	<polygon fill="#F9E03C" stroke="#F3776B" stroke-width="1.2" stroke-miterlimit="10" points="202.053,299.962 202.053,379.35 
		202.053,386.137 202.053,422.399 205.203,422.399 207.732,399.103 207.732,299.962 	"/>
	<polygon fill="#F3776B" points="155.104,346.959 158.867,344.418 180.604,248.854 177.195,248.854 	"/>
	<g>
		<polygon fill="#F9E03C" stroke="#F3776B" stroke-width="1.2" stroke-miterlimit="10" points="70.789,431.919 77.646,431.919 
			84.505,431.919 91.365,431.919 98.223,431.919 98.223,392.882 98.223,353.847 98.223,314.811 98.223,275.774 91.365,275.774 
			84.505,275.774 76.819,279.03 75.242,275.774 73.555,322.087 70.789,353.847 70.789,392.882 		"/>
		<polygon fill="#F3776B" stroke="#F3776B" stroke-width="1.2" stroke-miterlimit="10" points="89.822,431.919 87.123,431.919 
			84.423,431.919 81.723,431.919 79.022,431.919 79.022,392.882 79.022,353.847 81.619,307.087 84.423,275.774 81.723,275.774 
			84.423,275.774 87.123,275.774 95.253,275.774 92.286,314.887 89.822,353.847 89.822,392.882 		"/>
		<polygon fill="#B18F6A" stroke="#F3776B" stroke-width="1.2" stroke-miterlimit="10" points="98.223,431.919 96.739,431.919 
			95.253,431.919 93.77,431.919 92.286,431.919 92.286,392.882 92.286,353.847 95.253,313.987 98.223,275.774 93.77,275.774 
			95.253,275.774 96.739,275.774 109.22,280.556 101.809,313.495 98.223,353.847 98.223,392.882 		"/>
		<polygon fill="#B18F6A" stroke="#F3776B" stroke-width="1.2" stroke-miterlimit="10" points="74.025,431.919 72.542,431.919 
			71.057,431.919 69.572,431.919 68.089,431.919 68.089,392.882 68.089,353.847 68.72,337.987 76.22,269.587 79.022,275.774 
			75.319,323.587 74.025,353.847 74.025,392.882 		"/>
	</g>
	<g>
		<polygon fill="#F9E03C" points="241.983,431.128 235.126,431.128 228.266,431.128 221.408,431.128 214.55,431.128 214.55,392.093 
			214.55,353.058 214.55,314.02 214.55,274.984 221.408,274.984 228.266,274.984 235.951,278.24 237.53,274.984 239.216,321.297 
			241.983,353.058 241.983,392.093 		"/>
		<polygon fill="#F3776B" stroke="#F3776B" stroke-width="1.2" stroke-miterlimit="10" points="222.95,431.128 225.65,431.128 
			228.35,431.128 231.05,431.128 233.75,431.128 233.75,392.093 233.75,353.058 231.15,306.297 228.35,274.984 231.05,274.984 
			228.35,274.984 225.65,274.984 217.518,274.984 220.486,314.097 222.95,353.058 222.95,392.093 		"/>
		<polygon fill="#B18F6A" stroke="#F3776B" stroke-width="1.2" stroke-miterlimit="10" points="214.55,431.128 216.033,431.128 
			217.518,431.128 219.003,431.128 220.486,431.128 220.486,392.093 220.486,353.058 217.518,313.197 214.55,274.984 
			219.003,274.984 217.518,274.984 216.033,274.984 203.551,279.765 210.964,312.704 214.55,353.058 214.55,392.093 		"/>
		<polygon fill="#B18F6A" stroke="#F3776B" stroke-width="1.2" stroke-miterlimit="10" points="238.747,431.128 240.23,431.128 
			241.714,431.128 243.2,431.128 244.684,431.128 244.684,392.093 244.684,353.058 244.051,337.197 236.551,268.797 233.75,274.984 
			237.451,322.797 238.747,353.058 238.747,392.093 		"/>
	</g>
	<pattern  id="SVGID_1_" xlink:href="#New_Pattern_Swatch_4" patternTransform="matrix(-1.2 0 0 1.2 -16990.1719 1457.6113)">
	</pattern>
	<path fill="url(#SVGID_1_)" stroke="#F3776B" stroke-width="2.4" stroke-miterlimit="10" d="M253.62,239.987
		c0,33.847-51.635,70.723-89.302,70.723l14.109-61.855L253.62,239.987z"/>
	<polygon fill="#F9E03C" stroke="#B18F69" stroke-width="1.2" stroke-miterlimit="10" points="220.133,278.129 174.525,261.866 
		183.525,218.98 	"/>
	<pattern  id="SVGID_2_" xlink:href="#New_Pattern_Swatch_4" patternTransform="matrix(1.2 0 0 1.2 1537.874 1415.333)">
	</pattern>
	<path fill="url(#SVGID_2_)" stroke="#F3776B" stroke-width="2.4" stroke-miterlimit="10" d="M58.283,240.759
		c0,33.848,51.635,70.724,89.301,70.724l-14.109-61.856L58.283,240.759z"/>
	<polygon fill="#F9E03C" stroke="#B18F69" stroke-width="1.2" stroke-miterlimit="10" points="91.365,275.774 136.97,259.513 
		127.97,216.628 	"/>
</g>
</svg>
